<svg width="48" height="48" viewBox="0 0 48 48" fill="none" xmlns="http://www.w3.org/2000/svg">
<path d="M9.631 23.76C11.551 21.456 13.471 22 14.191 22.56L15.391 31.44L16.351 41.76C15.199 44.064 13.631 45.28 12.991 45.6C11.471 46.24 7.711 47.04 4.831 45.12C1.231 42.72 2.191 38.4 4.111 35.76C6.031 33.12 6.271 31.44 6.751 29.52C7.231 27.6 7.231 26.64 9.631 23.76Z" fill="white"/>
<path d="M12.3127 21.6087C13.2539 21.5134 14.0353 21.8306 14.4858 22.181C14.695 22.3438 14.7325 22.6454 14.5697 22.8546C14.407 23.0638 14.1054 23.1017 13.8961 22.939C13.6266 22.7294 13.088 22.4948 12.4092 22.5635C11.7452 22.6308 10.894 22.9943 9.99987 24.0673C8.81513 25.4889 8.24658 26.4086 7.91205 27.1891C7.57217 27.9822 7.4667 28.6373 7.2169 29.6365C6.73903 31.5479 6.4814 33.3167 4.49909 36.0424C3.58297 37.3021 2.90891 38.9485 2.88096 40.5382C2.85351 42.1031 3.448 43.6209 5.09721 44.7204C6.4299 45.6088 7.98274 45.8785 9.4083 45.8402C10.824 45.8022 12.0761 45.4607 12.7871 45.1643C13.3358 44.8847 14.8196 43.7493 15.9216 41.5455C16.0401 41.3084 16.3285 41.2123 16.5656 41.3309C16.8026 41.4494 16.8987 41.7374 16.7803 41.9744C15.5859 44.3634 13.9462 45.6588 13.2056 46.0291C13.1963 46.0338 13.1867 46.0382 13.1771 46.0423C12.365 46.3842 10.9866 46.758 9.43409 46.7998C7.87969 46.8415 6.11201 46.5511 4.56471 45.5196C2.6141 44.2192 1.88848 42.3767 1.92096 40.5218C1.95307 38.6916 2.71904 36.8578 3.72284 35.4776C5.58046 32.9233 5.80336 31.332 6.28549 29.4035C6.51567 28.4828 6.6498 27.6977 7.02987 26.8109C7.41533 25.9115 8.04689 24.9109 9.26205 23.4527C10.2879 22.2218 11.3567 21.7054 12.3127 21.6087Z" fill="#BD946A"/>
<path d="M23.3109 18.24C17.3589 18.624 13.6309 22.72 12.5109 24.72L11.0709 27.6L9.87092 30.24C8.43092 33.6 7.71092 39.84 14.1909 41.28C19.3749 42.432 26.9109 42.08 30.0309 41.76L32.4309 41.28C34.1909 40.96 38.3829 39.648 41.0709 36.96C43.7589 34.272 42.6709 30.72 41.7909 29.28L39.1509 25.44L36.7509 22.32C33.6309 18.96 30.7509 17.76 23.3109 18.24Z" fill="white"/>
<path d="M35.7909 15.84C37.1349 17.952 36.3509 20.24 35.7909 21.12L40.1109 26.88C45.2949 23.232 45.4709 17.2 44.6709 14.64C43.7109 11.76 42.48 9.2 41.52 7.92L39.8709 6.24L38.9109 5.28001C34.6869 1.82401 29.9509 1.28001 28.1109 1.44001C23.5509 2.16001 22.1109 7.44001 23.7909 10.32C25.1349 12.624 28.9909 13.2 30.7509 13.2C31.8709 13.2 34.4469 13.728 35.7909 15.84Z" fill="white"/>
<path d="M25.4709 38.4C24.5109 37.632 23.6309 35.44 23.3109 34.32C25.2309 34.32 27.3109 33.76 28.1109 33.6C28.1109 34.72 27.9669 37.2 27.3909 38.16C26.8149 39.12 25.8709 38.72 25.4709 38.4Z" fill="#FADCE9"/>
<path d="M28.0167 33.1294C28.1577 33.1012 28.304 33.1376 28.4152 33.2288C28.5264 33.3199 28.591 33.4562 28.591 33.6C28.591 34.1758 28.5541 35.0958 28.4433 35.9986C28.3879 36.4501 28.3132 36.905 28.2127 37.3144C28.1139 37.717 27.983 38.1063 27.8025 38.407C27.4218 39.0416 26.872 39.2689 26.3382 39.2391C25.8505 39.2118 25.4216 38.9755 25.171 38.775C24.6009 38.3189 24.1028 37.4925 23.7192 36.7013C23.3267 35.8914 23.0166 35.0373 22.8492 34.4517C22.8079 34.307 22.8369 34.151 22.9275 34.0308C23.0182 33.9105 23.1603 33.84 23.311 33.84C25.1681 33.84 27.1709 33.2986 28.0167 33.1294ZM27.6188 34.2C26.7547 34.3945 25.3576 34.7 23.9621 34.7794C24.1213 35.2361 24.334 35.7696 24.5827 36.2827C24.9592 37.0594 25.3811 37.7131 25.771 38.025C25.9203 38.1445 26.1633 38.2682 26.3916 38.2809C26.5738 38.2911 26.7842 38.2384 26.9794 37.913C27.0869 37.7337 27.1902 37.4529 27.2803 37.0856C27.3689 36.725 27.4378 36.3099 27.4903 35.8814C27.5625 35.2931 27.6013 34.6939 27.6188 34.2Z" fill="#BD946A"/>
<path d="M28.5431 31.5361C28.7552 31.3771 29.0558 31.4201 29.2148 31.6322C29.3793 31.8515 29.5659 32.235 29.5181 32.6686C29.4645 33.1551 29.1343 33.5637 28.5291 33.8058C27.8679 34.0702 26.6152 34.3158 25.4419 34.4662C24.8468 34.5425 24.2546 34.5963 23.7455 34.6158C23.2533 34.6346 22.7874 34.6236 22.4747 34.5455C22.2133 34.4801 21.9918 34.3633 21.8245 34.1906C21.6564 34.017 21.5678 33.813 21.5311 33.6159C21.4614 33.2421 21.5737 32.881 21.6816 32.6653C21.8001 32.4282 22.0885 32.3321 22.3256 32.4506C22.5627 32.5692 22.6588 32.8576 22.5403 33.0947C22.4882 33.199 22.4564 33.342 22.4747 33.4401C22.4819 33.479 22.4953 33.5032 22.5141 33.5226C22.5338 33.543 22.5847 33.5839 22.7072 33.6145C22.8745 33.6563 23.2186 33.6754 23.7089 33.6567C24.1823 33.6386 24.7451 33.5874 25.32 33.5137C26.4865 33.3642 27.6339 33.1298 28.1728 32.9142C28.3582 32.84 28.4522 32.7622 28.4991 32.707C28.5428 32.6554 28.5588 32.6085 28.5637 32.5636C28.5759 32.4532 28.5225 32.3085 28.447 32.2078C28.288 31.9957 28.3311 31.6951 28.5431 31.5361Z" fill="#BD946A"/>
<path d="M35.7432 26.7361C35.9552 26.5771 36.2559 26.6201 36.4149 26.8322C36.5739 27.0443 36.5309 27.3449 36.3188 27.5039L33.2255 29.8233L36.8954 30.9825C37.1481 31.0623 37.2883 31.3316 37.2085 31.5844C37.1287 31.8371 36.8594 31.9773 36.6066 31.8975L32.0466 30.4575C31.8751 30.4033 31.7482 30.258 31.718 30.0806C31.6878 29.9033 31.7593 29.724 31.9032 29.6161L35.7432 26.7361Z" fill="#52C3F1"/>
<path d="M28.0695 0.961582C29.9865 0.794941 34.7303 1.34523 39.0115 4.74439L39.2149 4.90846L39.2351 4.92627C42.1867 7.63194 43.908 10.5889 45.1292 14.4967C45.9731 17.1973 45.7871 23.4726 40.3873 27.2725C40.1705 27.4251 39.8709 27.3731 39.7184 27.1563C39.5658 26.9395 39.6178 26.6399 39.8346 26.4874C44.8027 22.9913 44.9688 17.2025 44.2128 14.7831C43.0357 11.0165 41.3999 8.21608 38.599 5.64486C34.4984 2.29404 29.9104 1.77059 28.1674 1.91689C26.0898 2.25164 24.7208 3.61541 24.0556 5.25064C23.3811 6.90875 23.4537 8.7894 24.2056 10.0783C24.7886 11.0776 25.951 11.748 27.2609 12.1666C28.558 12.5811 29.9117 12.7202 30.7507 12.7202C31.3719 12.7202 32.3588 12.864 33.371 13.285C34.3869 13.7076 35.4572 14.4218 36.1957 15.5824C37.6783 17.9121 36.8104 20.4115 36.1957 21.3775C36.0534 21.6011 35.757 21.6673 35.5334 21.5252C35.3098 21.3829 35.2435 21.086 35.3857 20.8624C35.891 20.0683 36.5911 17.9917 35.3857 16.0975C34.7803 15.1463 33.8906 14.5408 33.0026 14.1714C32.1109 13.8005 31.2495 13.6802 30.7507 13.6802C29.8297 13.6802 28.3755 13.5306 26.9688 13.0811C25.575 12.6357 24.1374 11.8665 23.3763 10.562C22.4482 8.97096 22.4009 6.77112 23.1663 4.88924C23.9392 2.98936 25.5642 1.35612 28.0362 0.965801L28.0695 0.961582Z" fill="#BD946A"/>
<path d="M17.5509 32.4C17.5509 33.858 16.7988 35.04 15.8709 35.04C14.9431 35.04 14.1909 33.858 14.1909 32.4C14.1909 30.942 14.9431 29.76 15.8709 29.76C16.7988 29.76 17.5509 30.942 17.5509 32.4Z" fill="#52C3F1"/>
<path d="M17.3691 36.9309C17.596 38.2403 16.0859 39.5953 13.9963 39.9574C11.9067 40.3195 10.0287 39.5516 9.80183 38.2422C9.57493 36.9328 11.085 35.5777 13.1746 35.2156C15.2642 34.8535 17.1422 35.6215 17.3691 36.9309Z" fill="#FADCE9"/>
<path d="M42.809 34.5309C43.0359 35.8403 41.5259 37.1953 39.4362 37.5574C37.3466 37.9195 35.4687 37.1516 35.2418 35.8422C35.0149 34.5327 36.5249 33.1777 38.6145 32.8156C40.7042 32.4535 42.5821 33.2215 42.809 34.5309Z" fill="#FADCE9"/>
<path d="M38.8791 25.0446C39.0975 24.8945 39.3964 24.9495 39.5466 25.1679L42.1866 29.0079L42.2007 29.0299C42.6777 29.8106 43.1997 31.1385 43.2488 32.6365C43.2983 34.1493 42.8638 35.8462 41.4104 37.2996C38.6283 40.0816 34.3349 41.4197 32.5247 41.7504L30.1252 42.2309C30.1104 42.2338 30.0953 42.2359 30.0802 42.2374C26.9486 42.5586 19.3491 42.9179 14.0869 41.7485C12.3913 41.3717 11.1331 40.6724 10.2366 39.7554C9.3407 38.839 8.83162 37.7312 8.59131 36.5777C8.11439 34.2883 8.68703 31.7842 9.4299 30.0509C9.53432 29.8073 9.81632 29.6944 10.0599 29.7987C10.3036 29.9031 10.4165 30.1855 10.3121 30.4291C9.615 32.0557 9.10813 34.3517 9.53115 36.3823C9.74086 37.3887 10.1764 38.3211 10.9229 39.0846C11.6688 39.8476 12.7507 40.4683 14.2951 40.8115C19.3877 41.9432 26.8351 41.6026 29.9579 41.2845L32.3368 40.8091C32.3395 40.8086 32.3425 40.8082 32.3452 40.8077C34.0597 40.496 38.1418 39.2102 40.7316 36.6204C41.966 35.386 42.3317 33.963 42.2893 32.6679C42.2466 31.3648 41.7888 30.202 41.3874 29.5409L38.7554 25.7121C38.6052 25.4937 38.6607 25.1948 38.8791 25.0446ZM23.2801 17.7612C27.0212 17.5198 29.6728 17.6955 31.7987 18.3832C33.9415 19.0765 35.5078 20.2761 37.1026 21.9935C37.2829 22.1878 37.272 22.4914 37.0777 22.6718C36.8835 22.8522 36.5798 22.8407 36.3994 22.6465C34.8743 21.004 33.4405 19.9235 31.5033 19.2968C29.5492 18.6646 27.0407 18.4802 23.3419 18.7188C17.598 19.0894 13.9958 23.0515 12.9301 24.9546C12.8006 25.1859 12.5079 25.2683 12.2766 25.1388C12.0453 25.0093 11.9629 24.7167 12.0924 24.4854C13.2667 22.3885 17.1203 18.1586 23.2801 17.7612Z" fill="#BD946A"/>
</svg>
