<svg width="48" height="48" viewBox="0 0 48 48" fill="none" xmlns="http://www.w3.org/2000/svg">
<path d="M43.1215 7.92001C40.8175 7.72801 36.5615 10.08 34.7215 11.28C33.7615 7.44002 32.8015 4.56 32.0815 3.36001C31.5055 2.40001 30.7215 2.64001 30.4015 2.88001C27.9055 4.22401 25.2015 8.08001 24.1615 9.84C22.4815 6.71999 19.1215 3.36 17.4415 2.63998C16.532 2.25017 16.0334 3.29609 15.7615 3.83999C14.5615 6.23998 13.9215 9.03998 13.6015 11.04C10.7215 9.35998 6.88149 7.91998 5.44149 7.68001C4.06272 7.45024 3.76149 8.32001 3.76149 8.88001C3.76149 12.912 4.88149 17.12 5.44149 18.72C5.0415 19.44 4.09752 21.504 3.52152 24C2.80152 27.12 0.881517 38.16 10.7215 42.24C20.5615 46.32 34.0015 44.4 39.0415 41.76C44.0815 39.12 45.2815 33.6 45.2815 28.8C45.2815 24.96 43.5215 20.48 42.6415 18.72C43.9855 13.728 44.3215 9.92001 44.3215 8.64001C44.3215 8.06401 43.5215 7.92001 43.1215 7.92001Z" fill="#252429"/>
<path d="M44.0817 8.64024C44.0817 8.49237 43.988 8.37586 43.7765 8.28446C43.566 8.19353 43.301 8.16027 43.1217 8.16024H43.1114L43.1015 8.1593C42.5669 8.11476 41.9007 8.21714 41.1609 8.42602C40.4243 8.63401 39.6305 8.943 38.8462 9.29696C37.2774 10.005 35.7641 10.8863 34.8524 11.4809L34.5703 11.6651L34.4887 11.3384C34.0097 9.42244 33.5314 7.74829 33.0839 6.40571C32.6347 5.05839 32.2211 4.05964 31.8754 3.48352C31.6199 3.05777 31.3425 2.9303 31.1221 2.90884C30.8867 2.88592 30.6691 2.97936 30.5456 3.07196L30.531 3.08274L30.5151 3.09118C29.3095 3.74036 28.0337 5.01052 26.9203 6.35696C25.8111 7.69828 24.8822 9.09183 24.3679 9.96212L24.1518 10.3282L23.9503 9.95368C23.1231 8.41752 21.8773 6.8148 20.6278 5.50571C19.3714 4.1895 18.1396 3.20027 17.347 2.86055C17.1663 2.78311 17.0215 2.78194 16.9003 2.81696C16.774 2.85347 16.6524 2.93556 16.5346 3.05696C16.2933 3.30577 16.1165 3.66592 15.9759 3.94712C14.7917 6.31551 14.1567 9.08819 13.8384 11.0777L13.7831 11.4237L13.4807 11.2474C12.0535 10.4149 10.3843 9.63976 8.89213 9.0429C7.39494 8.44403 6.0949 8.03246 5.40182 7.91696C4.76588 7.81101 4.43495 7.96466 4.2576 8.14993C4.06885 8.34723 4.00166 8.63423 4.00166 8.88024C4.00171 12.8766 5.11369 17.0566 5.66807 18.6406L5.7037 18.7423L5.6512 18.8365C5.26133 19.5383 4.3257 21.5815 3.7551 24.0541C3.3975 25.6038 2.74616 29.1059 3.39745 32.7176C4.04667 36.3177 5.98642 40.017 10.8135 42.0185C15.6892 44.0401 21.4699 44.5789 26.6676 44.2802C31.8694 43.9813 36.4518 42.8456 38.9301 41.5474C43.8448 38.9731 45.0416 33.579 45.0417 28.8002C45.0417 25.0151 43.3006 20.5743 42.427 18.8271L42.3862 18.7456L42.4096 18.6574C43.7492 13.682 44.0816 9.89551 44.0817 8.64024ZM44.5617 8.64024C44.5616 9.93786 44.2251 13.7301 42.8962 18.6954C43.7952 20.5225 45.5217 24.9643 45.5217 28.8002C45.5216 33.6213 44.3179 39.267 39.1528 41.9726C36.591 43.3144 31.9334 44.4587 26.6953 44.7598C21.453 45.0611 15.5936 44.5198 10.6293 42.4615C5.61668 40.383 3.5962 36.5222 2.92541 32.8024C2.25677 29.0943 2.92536 25.5163 3.28776 23.9459C3.8461 21.5265 4.74679 19.5079 5.18057 18.6977C4.60479 17.0117 3.52171 12.8653 3.52166 8.88024C3.52166 8.56631 3.60475 8.1382 3.9112 7.81805C4.22914 7.4859 4.73829 7.31928 5.48104 7.44305C6.22797 7.56755 7.56805 7.99605 9.07073 8.59712C10.4754 9.159 12.0393 9.87863 13.4212 10.6596C13.7596 8.67868 14.3988 6.02886 15.547 3.73243C15.6783 3.46971 15.8869 3.03529 16.1901 2.72274C16.3446 2.56345 16.5352 2.42316 16.7667 2.35618C17.0032 2.28777 17.2619 2.30205 17.5359 2.41946C18.4233 2.79979 19.7115 3.85057 20.9751 5.1743C22.1484 6.4035 23.3248 7.8942 24.1696 9.36259C24.7177 8.47705 25.5637 7.24407 26.5504 6.05087C27.6689 4.69826 28.9877 3.37321 30.2737 2.67634C30.472 2.53311 30.7983 2.39516 31.1685 2.43118C31.5642 2.46972 31.9669 2.7023 32.2874 3.23649C32.6618 3.86036 33.0881 4.90175 33.539 6.2543C33.966 7.53513 34.4183 9.1088 34.8721 10.8987C35.8121 10.3049 37.2057 9.51047 38.6489 8.85915C39.4465 8.49914 40.2637 8.18081 41.0306 7.9643C41.7936 7.74888 42.5229 7.62911 43.1399 7.68024C43.3605 7.68235 43.6854 7.72224 43.9668 7.84384C44.2551 7.96845 44.5617 8.21228 44.5617 8.64024Z" fill="black"/>
<path d="M39.5214 23.28C35.8734 22.896 29.0414 23.28 26.0814 23.52C25.1214 26.784 26.4814 29.36 27.2814 30.24C30.4014 33.6 36.8814 33.12 38.8014 30.24C40.3374 27.936 39.9214 24.64 39.5214 23.28Z" fill="white"/>
<path d="M8.36189 23.28C12.0099 22.896 18.8419 23.28 21.8019 23.52C22.7619 26.784 21.4019 29.36 20.6019 30.24C17.4819 33.6 11.0019 33.12 9.08189 30.24C7.54589 27.936 7.96189 24.64 8.36189 23.28Z" fill="white"/>
<path d="M23.9215 31.68C26.293 31.8624 28.1552 34.6793 29.4047 36.969C29.8964 37.8701 29.2758 38.9775 28.2514 39.0448C25.1182 39.2505 22.7533 39.23 19.5246 39.0031C18.6692 38.9429 18.0727 38.1416 18.4075 37.3522C19.5391 34.6841 22.1202 31.68 23.9215 31.68Z" fill="#FAE185"/>
<path d="M32.8001 22.968C32.8095 23.22 32.7693 23.9513 32.6816 24.1877C32.5939 24.4241 32.4605 24.6409 32.289 24.8258C32.1175 25.0106 31.9113 25.1599 31.6822 25.2651C31.453 25.3702 31.2054 25.4292 30.9534 25.4387C30.7014 25.4481 30.4501 25.4078 30.2137 25.3202C29.9773 25.2325 29.7605 25.0991 29.5756 24.9276C29.3908 24.7561 29.2415 24.5499 29.1364 24.3207C29.0312 24.0916 28.9722 23.3639 28.9628 23.112L30.8814 23.04L32.8001 22.968Z" fill="#2A2A2C"/>
<path d="M15.1328 22.968C15.1233 23.22 15.1636 23.9513 15.2513 24.1877C15.339 24.4241 15.4724 24.6409 15.6439 24.8258C15.8153 25.0106 16.0215 25.1599 16.2507 25.2651C16.4799 25.3702 16.7275 25.4292 16.9795 25.4387C17.2314 25.4481 17.4828 25.4078 17.7192 25.3202C17.9556 25.2325 18.1724 25.0991 18.3572 24.9276C18.5421 24.7561 18.6913 24.5499 18.7965 24.3207C18.9017 24.0916 18.9606 23.3639 18.9701 23.112L17.0514 23.04L15.1328 22.968Z" fill="#2A2A2C"/>
<path d="M26.062 23.2807C28.9275 23.0483 35.4487 22.6787 39.1931 23.0074L39.5465 23.0411L39.7064 23.058L39.7518 23.2122C39.9586 23.9153 40.1661 25.1048 40.1273 26.4133C40.0885 27.7208 39.8027 29.1706 39.0009 30.3733C37.9796 31.905 35.7864 32.7587 33.4978 32.8197C31.1999 32.881 28.725 32.1475 27.1054 30.4033L27.104 30.4015C26.2587 29.4716 24.8631 26.8111 25.851 23.4522L25.8975 23.2943L26.062 23.2807ZM39.3328 23.5029C35.7405 23.1559 29.2664 23.5092 26.2682 23.7461C25.4257 26.8373 26.7146 29.2583 27.457 30.0766C28.9574 31.6925 31.283 32.3989 33.4851 32.3402C35.6961 32.2812 37.7026 31.4552 38.6015 30.1071C39.3356 29.0059 39.6101 27.6553 39.6473 26.3988C39.6817 25.2369 39.5113 24.1754 39.3328 23.5029Z" fill="black"/>
<path d="M21.8212 23.2807C18.9556 23.0483 12.4345 22.6787 8.6901 23.0074L8.33666 23.0411L8.17682 23.058L8.13135 23.2122C7.92457 23.9153 7.7171 25.1048 7.75588 26.4133C7.79466 27.7208 8.08044 29.1706 8.88229 30.3733C9.90354 31.905 12.0967 32.7587 14.3854 32.8197C16.6833 32.881 19.1582 32.1475 20.7778 30.4033L20.7792 30.4015C21.6245 29.4716 23.02 26.8111 22.0321 23.4522L21.9857 23.2943L21.8212 23.2807ZM8.55041 23.5029C12.1426 23.1559 18.6168 23.5092 21.6149 23.7461C22.4575 26.8373 21.1685 29.2583 20.4262 30.0766C18.9258 31.6925 16.6002 32.3989 14.3981 32.3402C12.187 32.2812 10.1805 31.4552 9.28166 30.1071C8.54756 29.0059 8.27313 27.6553 8.23588 26.3988C8.20145 25.2369 8.37187 24.1754 8.55041 23.5029Z" fill="black"/>
<path d="M23.6316 35.4C24.0628 35.4 24.5768 35.5251 25.1175 35.722C25.66 35.9196 26.2378 36.1924 26.7994 36.4941C27.9222 37.0972 28.9898 37.8213 29.595 38.3062L29.445 38.4937C28.8521 38.0187 27.7969 37.3027 26.686 36.7059C26.1308 36.4077 25.5638 36.1404 25.0355 35.948C24.5053 35.7549 24.0219 35.64 23.6316 35.64C23.2421 35.64 22.7854 35.7542 22.2966 35.9466C21.809 36.1384 21.2966 36.4053 20.7985 36.7031C19.802 37.299 18.8703 38.0146 18.3183 38.4909L18.1617 38.3091C18.7223 37.8254 19.6649 37.101 20.6752 36.4969C21.1804 36.1948 21.7049 35.9216 22.2085 35.7234C22.7107 35.5258 23.1995 35.4 23.6316 35.4Z" fill="#252429"/>
</svg>
