<svg width="48" height="48" viewBox="0 0 48 48" fill="none" xmlns="http://www.w3.org/2000/svg">
<path d="M22.3169 40.1987C20.8143 38.9933 20.9571 36.9264 21.501 36.1084L24.7645 31.2L39.4505 34.7449L38.6347 41.2894C39.9945 40.4713 40.8104 42.1075 39.9945 43.1982C39.3418 44.0708 38.272 43.5618 37.8188 43.1982C29.6599 44.289 23.6767 41.2894 22.3169 40.1987Z" fill="#FEE9D6"/>
<path d="M24.4646 31.0008C24.5483 30.8749 24.702 30.8144 24.8489 30.8499L39.5349 34.395C39.7129 34.438 39.8303 34.608 39.8077 34.7897L39.0666 40.7349C39.2538 40.6987 39.4371 40.6992 39.6122 40.7372C39.9765 40.8164 40.2577 41.0472 40.4372 41.3395C40.7899 41.9142 40.775 42.7558 40.283 43.4138C39.8602 43.979 39.2836 44.0971 38.776 44.0175C38.3623 43.9526 37.9838 43.7578 37.7203 43.5731C33.6477 44.0953 30.1151 43.6156 27.4214 42.8635C24.7047 42.1049 22.8205 41.064 22.0917 40.4794C21.2523 39.806 20.8759 38.8932 20.7835 38.0475C20.6924 37.2149 20.872 36.404 21.2011 35.9091L24.4646 31.0008ZM21.8006 36.3075C21.5858 36.6306 21.422 37.2626 21.4992 37.9692C21.5751 38.6628 21.8791 39.3859 22.5422 39.9178C23.1732 40.424 24.9605 41.4285 27.615 42.1697C30.2604 42.9083 33.7464 43.3794 37.771 42.8414L37.8075 42.8386C37.8929 42.8359 37.977 42.8634 38.0442 42.9174C38.2381 43.0728 38.5618 43.2548 38.8875 43.306C39.1912 43.3536 39.4765 43.2899 39.7064 42.9825C40.03 42.5498 40.0148 42.028 39.8236 41.7164C39.7312 41.5658 39.6044 41.4724 39.4589 41.4408C39.3135 41.4093 39.1009 41.4292 38.8205 41.5978C38.7024 41.6688 38.554 41.6663 38.4385 41.5913C38.3229 41.5161 38.2606 41.3816 38.2777 41.2449L39.0535 35.0194L24.9249 31.6092L21.8006 36.3075Z" fill="#BF886C"/>
<path d="M25.8071 35.3352C24.528 35.3352 24.0306 34.273 23.9417 33.7418C23.9417 34.273 23.4088 35.3352 22.6093 35.8664C21.9698 36.2913 21.2769 36.0434 21.0104 35.8664C16.7466 26.8371 23.4088 20.729 31.4033 20.1979C37.799 19.7729 41.5298 23.0306 42.5958 24.7125C42.3293 23.8273 42.1161 22.1099 43.3952 22.3224C44.6743 22.5349 44.2835 23.8273 43.9282 24.447C44.7276 24.2699 46.2733 24.2345 46.0601 25.5092C45.8469 26.784 44.55 26.2174 43.9282 25.7748C44.7276 26.5715 46.1667 29.4927 45.5271 34.8041C44.8875 40.1155 41.5298 41.9744 39.9309 42.24C40.0115 42.063 40.0661 41.6026 39.6397 41.1777C39.1067 40.6466 38.0408 40.9122 37.7743 41.4433C37.419 41.0007 36.8682 39.903 37.5078 39.0532C37.169 39.2302 36.3265 39.425 35.6671 38.7876C35.0276 38.1503 35.4006 37.1057 35.6671 36.6631C35.1341 37.1942 33.8017 37.7254 32.7358 36.9286C31.883 36.2913 32.0251 35.2467 32.2028 34.8041C31.6698 35.6008 31.1369 36.1319 29.5379 35.8664C28.2588 35.6539 28.1167 34.3615 28.2055 33.7418C27.939 34.273 27.4061 35.3352 25.8071 35.3352Z" fill="#CAE5D7"/>
<path d="M27.3024 40.087C27.431 40.0552 27.5612 40.1337 27.593 40.2624C27.6659 40.5565 28.0613 41.269 29.0532 41.4694C30.0573 41.6722 30.8014 41.2122 31.0294 40.9819C31.1227 40.8877 31.2746 40.8872 31.3688 40.9805C31.463 41.0737 31.4639 41.2257 31.3707 41.3199C31.0502 41.6435 30.1485 42.1802 28.9585 41.94C27.7562 41.6972 27.2371 40.8221 27.1271 40.3777C27.0952 40.249 27.1737 40.1189 27.3024 40.087Z" fill="#BF886C"/>
<path d="M31.3795 19.8384C36.7477 19.4818 40.3064 21.6655 42.0338 23.4473C42.0336 23.3134 42.0415 23.1815 42.0595 23.055C42.1017 22.7599 42.2062 22.4431 42.4477 22.2183C42.7047 21.979 43.0536 21.9005 43.4541 21.967C43.836 22.0305 44.1361 22.183 44.3414 22.4227C44.5453 22.6607 44.6231 22.9468 44.6344 23.2172C44.6455 23.484 44.5924 23.7569 44.513 24.0052C44.8273 23.9867 45.1666 24.0018 45.4706 24.0867C45.7462 24.1637 46.0277 24.3069 46.2192 24.5672C46.4168 24.8357 46.4806 25.1769 46.4152 25.5684C46.3514 25.9495 46.196 26.2499 45.9384 26.4403C45.6839 26.6284 45.3849 26.6683 45.1158 26.6447C45.0537 26.6392 44.9915 26.6299 44.9292 26.618C45.1803 27.1152 45.4221 27.7455 45.6159 28.508C46.0076 30.0489 46.2091 32.1522 45.8845 34.8473C45.2275 40.3028 42.002 42.3012 40.2314 42.5953C40.1003 42.617 39.9678 42.5644 39.8869 42.4589C39.806 42.3534 39.7901 42.212 39.8452 42.0909C39.8262 42.1327 39.8429 42.1201 39.8353 42.023C39.8292 41.945 39.8092 41.845 39.7683 41.7422C39.6879 41.5401 39.5361 41.3456 39.2597 41.2537C39.0154 41.1726 38.8515 41.2132 38.6742 41.3072C38.5736 41.3606 38.4755 41.4278 38.3508 41.5125C38.2324 41.5929 38.0924 41.6872 37.935 41.7656C37.7834 41.8411 37.5994 41.8006 37.4934 41.6686C37.2889 41.4138 37.034 40.981 36.9173 40.4831C36.8519 40.2038 36.8282 39.8928 36.8888 39.5798C36.4343 39.6108 35.8897 39.5035 35.4169 39.0464L35.4131 39.0427C34.9876 38.6186 34.9155 38.0704 34.9697 37.6102C34.9741 37.5731 34.9801 37.5365 34.9861 37.5C34.8218 37.5628 34.6476 37.6139 34.4672 37.6477C33.8571 37.7616 33.1496 37.6875 32.52 37.2169C32.0134 36.8382 31.7947 36.3364 31.7302 35.8716C31.6379 35.9393 31.5389 36.0018 31.4306 36.0558C30.938 36.3012 30.3198 36.3614 29.4788 36.2217C28.701 36.0925 28.2533 35.6217 28.028 35.0995C27.9884 35.0078 27.9559 34.9144 27.9291 34.8211C27.8727 34.8829 27.8131 34.9451 27.7477 35.0044C27.3154 35.396 26.6963 35.6953 25.807 35.6953C25.0543 35.6953 24.5153 35.3777 24.1589 34.9772C24.1007 34.9118 24.0481 34.8437 23.9995 34.7752C23.9637 34.8459 23.9266 34.9169 23.8861 34.9861C23.6332 35.4181 23.2653 35.8629 22.8084 36.1664C22.0008 36.7029 21.1425 36.3866 20.8111 36.1664C20.7565 36.1301 20.713 36.0794 20.685 36.0202C18.5026 31.3985 19.1004 27.466 21.3267 24.6234C23.5364 21.802 27.3067 20.109 31.3795 19.8384ZM42.2916 24.9052C41.293 23.3296 37.6855 20.1413 31.4273 20.557C27.5056 20.8176 23.9475 22.4446 21.8934 25.0673C19.8713 27.6493 19.2645 31.2499 21.2902 35.6128C21.53 35.7346 21.992 35.8441 22.41 35.5664C22.7525 35.3388 23.0511 34.9869 23.2645 34.6223C23.4835 34.2482 23.5818 33.9154 23.5819 33.742C23.5819 33.5548 23.7253 33.3985 23.9119 33.383C24.0985 33.3675 24.2658 33.4978 24.2967 33.6825C24.3317 33.8915 24.4533 34.2246 24.697 34.4986C24.9313 34.7619 25.2808 34.9753 25.807 34.9753C26.5167 34.9753 26.9638 34.7432 27.2644 34.4709C27.5757 34.1889 27.75 33.8466 27.8836 33.5803C27.9627 33.4226 28.1446 33.3457 28.313 33.3984C28.4814 33.4512 28.5869 33.6184 28.5619 33.7931C28.5243 34.0553 28.5378 34.4628 28.6894 34.8141C28.8327 35.1461 29.0956 35.4278 29.5969 35.5111C30.3548 35.637 30.8027 35.5641 31.1095 35.4112C31.4203 35.2564 31.6433 34.9931 31.9036 34.6041C32.0061 34.4508 32.2079 34.3999 32.3709 34.4859C32.5338 34.572 32.6055 34.7673 32.5369 34.9383C32.4676 35.1109 32.3999 35.4213 32.4403 35.7492C32.4795 36.0671 32.6176 36.391 32.9513 36.6403C33.3874 36.9663 33.8793 37.025 34.335 36.9398C34.8001 36.8529 35.2003 36.6204 35.4131 36.4083C35.5419 36.28 35.7458 36.2677 35.8889 36.3797C36.032 36.4918 36.0694 36.6932 35.9756 36.8489C35.8628 37.0362 35.7244 37.3595 35.685 37.6945C35.6462 38.0246 35.7065 38.316 35.9175 38.5289L36.0131 38.6128C36.4997 38.9968 37.0902 38.8653 37.3411 38.7342C37.4902 38.6563 37.6733 38.6922 37.7822 38.8205C37.891 38.9488 37.8965 39.1351 37.7953 39.2695C37.5592 39.5833 37.5324 39.9504 37.6186 40.3186C37.6745 40.5571 37.7753 40.7809 37.8802 40.9603C37.9015 40.9461 37.9239 40.9323 37.9463 40.9172C38.0595 40.8403 38.1937 40.7469 38.3367 40.6711C38.6469 40.5066 39.0159 40.414 39.4866 40.5703C40.0096 40.744 40.298 41.1253 40.4377 41.4764C40.4795 41.5818 40.5075 41.6864 40.5267 41.7848C42.0541 41.3155 44.6026 39.4708 45.1697 34.7611C45.4847 32.145 45.2862 30.1318 44.9184 28.6852C44.5481 27.2283 44.0117 26.3664 43.6739 26.0297C43.5413 25.8975 43.5325 25.6857 43.6533 25.5427C43.7741 25.3996 43.9845 25.3731 44.137 25.4817C44.4273 25.6883 44.8439 25.8981 45.1786 25.9275C45.3381 25.9415 45.4424 25.9117 45.5105 25.8614C45.5755 25.8133 45.6621 25.7062 45.705 25.4498C45.7461 25.2041 45.6966 25.0716 45.6394 24.9937C45.5761 24.9077 45.4611 24.8319 45.277 24.7805C44.8994 24.675 44.3801 24.7154 44.0058 24.7983C43.8667 24.829 43.7227 24.7748 43.6383 24.66C43.5539 24.5452 43.5449 24.3913 43.6158 24.2677C43.7777 23.9852 43.9286 23.577 43.9148 23.2467C43.9083 23.0902 43.8663 22.9743 43.7948 22.8909C43.7248 22.8092 43.5939 22.7205 43.3364 22.6777C43.0975 22.638 42.9929 22.6945 42.9384 22.7452C42.8686 22.8102 42.8032 22.9384 42.772 23.1567C42.7096 23.5943 42.8131 24.1863 42.9403 24.6089C42.9921 24.7812 42.9089 24.9654 42.7453 25.0402C42.5817 25.1149 42.3879 25.0571 42.2916 24.9052Z" fill="#BF886C"/>
<path d="M36 40.32C36 40.8502 35.5701 41.28 35.04 41.28C34.5098 41.28 34.08 40.8502 34.08 40.32C34.08 39.7898 34.5098 39.36 35.04 39.36C35.5701 39.36 36 39.7898 36 40.32Z" fill="#BF886C"/>
<path d="M25.44 37.44C25.44 37.9702 24.9028 38.4 24.24 38.4C23.5773 38.4 23.04 37.9702 23.04 37.44C23.04 36.9098 23.5773 36.48 24.24 36.48C24.9028 36.48 25.44 36.9098 25.44 37.44Z" fill="#BF886C"/>
<path d="M27.0153 25.5122C28.4598 24.3276 28.2857 22.343 27.7416 21.5658L24.4772 16.9029L10.2204 20.5627L11.1264 26.8405C9.787 26.0774 9.01929 27.6643 9.8331 28.699C10.4842 29.5267 11.5184 29.019 11.9541 28.6617C19.9262 29.5704 25.7082 26.5841 27.0153 25.5122Z" fill="#FEE9D6"/>
<path d="M24.7782 16.6548C24.689 16.5605 24.5542 16.5205 24.4258 16.5541L10.3293 20.2366C10.2361 20.261 10.1562 20.3215 10.1082 20.405C10.0601 20.4886 10.0478 20.5884 10.0736 20.6813L11.5696 26.0661C11.01 25.9812 10.4833 26.1614 10.1173 26.4953C9.59675 26.9704 9.39652 27.7763 9.93212 28.47C10.3373 28.9947 10.8167 29.3351 11.3561 29.3835C11.835 29.4264 12.2827 29.2327 12.6773 28.8802C15.752 29.829 19.0361 29.3575 21.7029 28.5255C24.4259 27.676 26.5677 26.4315 27.2602 25.853C28.0609 25.1841 28.4087 24.2903 28.4836 23.4677C28.5573 22.6582 28.3704 21.8735 28.0431 21.3972L24.8137 16.6982L24.7782 16.6548ZM27.4497 21.8052C27.6605 22.112 27.8288 22.7185 27.7666 23.4025C27.7055 24.0737 27.4257 24.7765 26.7985 25.3005C26.1986 25.8016 24.1497 27.008 21.4887 27.8383C18.8316 28.6673 15.6267 29.1008 12.6941 28.1308L12.6442 28.1185C12.5268 28.0976 12.4052 28.1359 12.3211 28.2236C11.9812 28.5783 11.6767 28.6895 11.4203 28.6665C11.1569 28.6428 10.8408 28.4688 10.502 28.0301C10.2326 27.6811 10.3114 27.2931 10.6025 27.0274C10.8949 26.7605 11.396 26.6394 11.9193 26.9433C12.0459 27.0167 12.2044 27.006 12.3202 26.9165C12.436 26.827 12.4862 26.6765 12.4471 26.5355L10.8655 20.8404L24.3637 17.3142L27.4497 21.8052Z" fill="#BF886C"/>
<path d="M24.3727 21.208C25.653 21.1855 26.132 20.1032 26.2115 19.5649C26.2209 20.1016 26.7733 21.1658 27.5829 21.6885C28.2306 22.1067 28.9197 21.844 29.1833 21.6604C33.2904 12.4601 26.5137 6.40446 18.5025 6.00836C12.8746 5.73011 10.3044 8.03185 9.48567 9.12011C10.509 7.75978 10.4283 6.20407 9.1518 6.44129C7.87529 6.67851 7.78067 8.2552 8.14732 8.87519C7.34399 8.71034 5.79634 8.70176 6.03238 9.98627C6.22059 11.0105 7.07764 10.8395 7.72877 10.4958C5.76815 11.9375 3.94221 16.0353 4.62552 21.0183C4.71565 21.4642 4.95208 22.516 5.17679 23.1564C5.45768 23.9569 5.75744 25.8309 3.6661 28.2839C1.57477 30.7369 2.1507 33.143 4.28451 33.1055C4.55124 33.1008 5.24378 33.0349 5.88015 32.809C5.44662 33.443 4.9034 34.9202 6.19879 35.7566C6.82745 36.1035 8.29248 36.4715 9.12335 35.1682C9.22641 35.9718 9.91171 37.5169 11.8284 37.2684C12.2663 37.2607 13.3014 36.974 13.9386 35.8889L15.9591 29.4101C15.2694 29.4222 13.6114 29.2903 12.4975 28.6655C12.1348 29.1194 11.1914 29.7624 10.319 28.7038C9.22846 27.3807 10.5927 26.2828 11.9158 27.0649C12.2815 26.8795 12.8977 26.2423 12.4361 25.1765C12.8838 25.3476 13.9364 25.526 14.5652 24.8706C15.194 24.2152 14.802 23.1661 14.5274 22.7235C15.0703 23.2509 16.4134 23.7642 17.4662 22.9403C18.3084 22.2812 18.1475 21.228 17.9619 20.7838C18.5095 21.5796 19.0524 22.107 20.648 21.8105C21.9245 21.5732 22.0438 20.2646 21.9439 19.6399C22.22 20.172 22.7724 21.2362 24.3727 21.208Z" fill="#F4C6D2"/>
<path d="M22.9564 25.3381C22.8272 25.3085 22.6985 25.3893 22.6689 25.5185C22.6013 25.8139 22.2184 26.5332 21.2302 26.751C20.2298 26.9714 19.4778 26.5245 19.2457 26.2983C19.1508 26.2058 18.9989 26.208 18.9064 26.3029C18.8138 26.3978 18.8155 26.5497 18.9105 26.6422C19.2366 26.9601 20.1476 27.481 21.3332 27.2199C22.531 26.956 23.0346 26.0718 23.1368 25.6256C23.1664 25.4964 23.0856 25.3677 22.9564 25.3381Z" fill="#BF886C"/>
<path d="M18.5201 5.64863C14.5066 5.45022 11.987 6.5398 10.5285 7.61804C10.5497 7.45407 10.5541 7.29594 10.5395 7.14668C10.5072 6.81712 10.3795 6.49732 10.108 6.28507C9.83309 6.07017 9.47477 6.01521 9.08623 6.08738C8.27863 6.23746 7.85014 6.8218 7.68631 7.41954C7.59395 7.75656 7.57944 8.12023 7.63123 8.44629C7.295 8.42597 6.92435 8.4436 6.59635 8.54231C6.32135 8.6251 6.04206 8.77482 5.85547 9.04057C5.66341 9.31413 5.60604 9.65826 5.67821 10.0512C5.74848 10.4336 5.90864 10.7336 6.16936 10.9211C6.29875 11.0142 6.43891 11.0693 6.58035 11.0977C5.96589 11.8248 5.41464 12.781 4.99294 13.8987C4.25801 15.8466 3.89365 18.3295 4.26902 21.067C4.27004 21.0745 4.27121 21.0821 4.2727 21.0895C4.36311 21.5368 4.60357 22.6098 4.83716 23.2755C4.96129 23.6293 5.0953 24.2353 4.95631 25.039C4.81738 25.8423 4.40193 26.8663 3.3923 28.0506C2.3065 29.3242 1.86313 30.6423 2.03571 31.6872C2.12292 32.2149 2.36922 32.6726 2.76801 32.9936C3.16615 33.3139 3.6889 33.4762 4.29108 33.4656C4.46991 33.4624 4.81072 33.4346 5.20389 33.3595C5.11316 33.614 5.04624 33.8964 5.03141 34.1886C4.99785 34.8499 5.23146 35.5606 6.00335 36.059C6.01026 36.0635 6.01747 36.0678 6.02467 36.0718C6.38347 36.2698 6.97317 36.4722 7.60312 36.4406C8.06098 36.4177 8.53787 36.2689 8.95019 35.9158C9.07425 36.2337 9.26207 36.5678 9.53216 36.8582C10.0309 37.3943 10.7902 37.7598 11.856 37.627C12.4044 37.6092 13.5466 37.2675 14.2492 36.0711C14.2631 36.0474 14.274 36.0221 14.2821 35.996L16.3027 29.5174C16.3371 29.4071 16.3166 29.2869 16.2474 29.1944C16.178 29.1019 16.0683 29.048 15.9527 29.05C15.6302 29.0557 15.0658 29.0275 14.4484 28.9218C13.8276 28.8155 13.1799 28.6353 12.6737 28.3515C12.52 28.2653 12.3264 28.303 12.2163 28.4406C12.067 28.6274 11.8061 28.8382 11.5226 28.9001C11.2783 28.9534 10.9566 28.9114 10.5966 28.4747C10.362 28.19 10.2854 27.9492 10.2824 27.7733C10.2794 27.6019 10.3447 27.4624 10.4565 27.3591C10.6845 27.1484 11.1756 27.0459 11.7325 27.3751C11.8383 27.4376 11.969 27.4414 12.0787 27.3859C12.3252 27.2609 12.6345 26.9984 12.8145 26.5984C12.9336 26.3336 12.9903 26.021 12.9458 25.6683C13.1037 25.6892 13.2734 25.7002 13.4474 25.6933C13.9021 25.675 14.4251 25.5369 14.825 25.12C15.2424 24.6851 15.3043 24.1317 15.2421 23.6692C15.2368 23.6302 15.2297 23.5916 15.2227 23.5533C15.3884 23.6139 15.5637 23.6627 15.7451 23.6936C16.3587 23.7983 17.0661 23.7107 17.6881 23.2239C18.1889 22.832 18.3981 22.3211 18.4539 21.8514C18.5471 21.9178 18.6469 21.9788 18.7557 22.0312C19.2536 22.2709 19.8743 22.3202 20.714 22.1642C21.4912 22.0197 21.93 21.5361 22.1456 21.0063C22.1836 20.9129 22.2147 20.8178 22.24 20.7229C22.2972 20.784 22.3575 20.8455 22.4236 20.9039C22.863 21.2918 23.4881 21.5837 24.3791 21.5681C25.1336 21.5548 25.6674 21.2236 26.0165 20.8131C26.0731 20.7465 26.1248 20.6778 26.1718 20.6083C26.2088 20.6787 26.2474 20.7493 26.289 20.8181C26.5495 21.2497 26.9249 21.6924 27.3874 21.991C28.2063 22.5197 29.0614 22.1842 29.3892 21.9558C29.4429 21.9184 29.4855 21.8667 29.5122 21.8069C31.6134 17.0999 30.9451 13.139 28.6677 10.307C26.4063 7.49529 22.6024 5.85046 18.5201 5.64863ZM9.77346 9.33642C10.5201 8.34402 12.9757 6.09565 18.4845 6.36796C22.4134 6.56221 26.0039 8.14345 28.1069 10.7585C30.1781 13.3341 30.8494 16.9654 28.8981 21.4127C28.6606 21.5399 28.201 21.6589 27.7781 21.3859C27.4312 21.1619 27.1259 20.8111 26.9055 20.4458C26.6795 20.0713 26.5747 19.7356 26.5716 19.5586C26.5683 19.3713 26.4218 19.2175 26.2348 19.2054C26.0479 19.1933 25.8828 19.3268 25.8553 19.5121C25.8239 19.7252 25.7078 20.0651 25.4682 20.3469C25.2379 20.6176 24.892 20.8389 24.3664 20.8482C23.6571 20.8607 23.2058 20.6345 22.8999 20.3644C22.5828 20.0844 22.402 19.7409 22.2635 19.474C22.1821 19.3172 21.9987 19.2425 21.8309 19.2978C21.6632 19.3532 21.5606 19.5224 21.5885 19.6968C21.631 19.9621 21.6248 20.3758 21.4788 20.7349C21.3406 21.0748 21.0815 21.3639 20.5825 21.4567C19.8267 21.5971 19.3776 21.5313 19.0683 21.3825C18.7544 21.2315 18.5263 20.9686 18.2586 20.5796C18.154 20.4277 17.9515 20.3796 17.7896 20.4678C17.6277 20.5561 17.5587 20.7524 17.6298 20.9226C17.7025 21.0965 17.776 21.4104 17.7413 21.7439C17.7075 22.0677 17.5743 22.3988 17.2444 22.657C16.8137 22.9941 16.3231 23.0615 15.8662 22.9836C15.3998 22.9041 14.9955 22.6763 14.7784 22.4655C14.6479 22.3387 14.4433 22.3289 14.3016 22.4429C14.16 22.5569 14.1259 22.7586 14.2218 22.9131C14.3382 23.1009 14.4828 23.4261 14.5284 23.7652C14.5736 24.1017 14.5167 24.401 14.3053 24.6214C14.0765 24.8598 13.7589 24.96 13.4183 24.9737C13.0759 24.9874 12.7494 24.9107 12.5646 24.8401C12.4294 24.7884 12.2762 24.8229 12.1761 24.9275C12.0759 25.0322 12.0481 25.1868 12.1056 25.3198C12.2991 25.7664 12.2557 26.0865 12.1581 26.3034C12.0904 26.4538 11.9893 26.5689 11.8946 26.6479C11.1851 26.3158 10.4354 26.3987 9.96811 26.8304C9.70983 27.0691 9.5559 27.4038 9.5625 27.786C9.56907 28.1635 9.73075 28.556 10.0412 28.9327C10.5536 29.5545 11.1399 29.7204 11.676 29.6034C12.0423 29.5235 12.3512 29.3184 12.5741 29.1095C13.1271 29.372 13.7566 29.5338 14.3268 29.6314C14.7463 29.7032 15.1445 29.742 15.4734 29.7594L13.6081 35.7392C13.08 36.6109 12.2658 36.8703 11.8916 36.9044L11.8218 36.9084L11.782 36.9115C10.9411 37.0205 10.4054 36.7395 10.0594 36.3674C9.69802 35.9788 9.52485 35.4677 9.48055 35.1226L9.4688 35.0675C9.43253 34.943 9.33123 34.8456 9.20184 34.8167C9.05399 34.7837 8.90116 34.8471 8.81972 34.9748C8.47522 35.5151 8.01549 35.6991 7.56703 35.7216C7.10576 35.7447 6.65463 35.5937 6.38358 35.4466C5.86904 35.1096 5.72834 34.667 5.75075 34.2252C5.77455 33.7563 5.98625 33.2917 6.17715 33.0124C6.26512 32.8837 6.26058 32.7127 6.16549 32.5892C6.07041 32.4658 5.90659 32.4176 5.75974 32.4698C5.16975 32.6793 4.518 32.7415 4.27842 32.7457C3.81382 32.7539 3.46408 32.6292 3.21947 32.4324C2.97554 32.2361 2.80838 31.9458 2.74627 31.5701C2.62034 30.8081 2.93468 29.6966 3.94012 28.5173C5.02166 27.2486 5.50209 26.1091 5.66592 25.162C5.82964 24.2154 5.67326 23.4838 5.51651 23.0371C5.30216 22.4263 5.07176 21.4054 4.98062 20.9561C4.62451 18.3426 4.97495 15.9853 5.66642 14.1527C6.26538 12.5652 7.10655 11.4063 7.93225 10.7945C8.1057 10.7005 8.26138 10.5987 8.38615 10.5057C8.53666 10.3934 8.57566 10.1844 8.47569 10.0254C8.37559 9.86656 8.16997 9.81104 8.00369 9.89825C7.84969 9.97915 7.69647 10.075 7.54506 10.1843C7.33725 10.2924 7.11612 10.3767 6.92152 10.3974C6.76292 10.4142 6.65879 10.3861 6.58993 10.3366C6.52357 10.2889 6.43441 10.1809 6.38666 9.92106C6.34089 9.67188 6.38822 9.5354 6.44503 9.45449C6.50734 9.36574 6.62118 9.28708 6.80398 9.23205C7.17945 9.11905 7.69895 9.15084 8.07489 9.22799C8.21439 9.25661 8.35769 9.20013 8.44039 9.08419C8.52305 8.96829 8.52983 8.81451 8.4574 8.69196C8.3334 8.48228 8.26357 8.03728 8.38071 7.60986C8.49167 7.20498 8.74889 6.88246 9.21776 6.79533C9.46728 6.74899 9.59738 6.79963 9.66461 6.85217C9.73524 6.90738 9.80333 7.01686 9.82292 7.21647C9.86308 7.62673 9.67628 8.26781 9.19811 8.9035C9.07859 9.06237 9.11048 9.2881 9.26933 9.40764C9.42821 9.52717 9.65394 9.4953 9.77346 9.33642Z" fill="#BF886C"/>
<path d="M14.2725 26.2039C14.2818 26.734 14.7191 27.1562 15.2492 27.1468C15.7793 27.1375 16.2015 26.7002 16.1922 26.1701C16.1828 25.64 15.7456 25.2178 15.2154 25.2271C14.6853 25.2365 14.2631 25.6737 14.2725 26.2039Z" fill="#BF886C"/>
<path d="M24.7719 22.6587C24.7812 23.1888 25.326 23.6091 25.9886 23.5975C26.6512 23.5858 27.1809 23.1466 27.1715 22.6165C27.1622 22.0864 26.6175 21.6661 25.9548 21.6778C25.2922 21.6894 24.7626 22.1286 24.7719 22.6587Z" fill="#BF886C"/>
</svg>
