<svg width="48" height="48" viewBox="0 0 48 48" fill="none" xmlns="http://www.w3.org/2000/svg">
<g clip-path="url(#clip0_258_1154)">
<path d="M6.20643 14.2997C5.82276 16.9995 6.68601 18.7672 7.16559 19.3136C5.24723 21.8205 3.88006 27.6297 5.24719 31.752C7.16584 37.5373 12.1526 41.2977 23.3755 41.4906C34.9034 41.6887 41.7915 38.5015 43.3261 30.7878C44.5539 24.6168 41.6636 20.5671 40.065 19.3136C41.6956 16.903 41.8874 12.5641 41.216 10.6356C40.5446 8.7072 39.8731 8.41794 36.612 9.18932C34.003 9.80641 32.3277 11.4392 31.8161 12.1784C23.9893 10.7899 18.132 11.857 16.1817 12.5641C15.6382 12.1784 14.2442 11.2527 13.0164 10.6356C10.254 9.3243 8.60428 9.575 8.12469 9.86426C7.64513 10.2178 6.59009 11.5999 6.20643 14.2997Z" fill="white"/>
<path fill-rule="evenodd" clip-rule="evenodd" d="M38.6642 9.31681C38.1663 9.36475 37.539 9.48506 36.73 9.67642C34.2544 10.262 32.6787 11.8139 32.2286 12.4642L32.047 12.7267L31.7337 12.6712C23.9794 11.2956 18.2115 12.3615 16.3545 13.0348L16.1106 13.1232L15.8988 12.9729C15.3657 12.5946 13.9977 11.6869 12.8029 11.0857C11.4689 10.4531 10.4261 10.208 9.67927 10.1486C8.94834 10.0904 8.53881 10.2119 8.40281 10.2832C8.04761 10.5641 7.06778 11.8039 6.70302 14.3706C6.42588 16.3208 6.83768 17.7206 7.21483 18.4684C7.53557 18.1275 7.86297 17.8662 8.03715 17.7452C8.26324 17.5882 8.57314 17.6451 8.72935 17.8724C8.88555 18.0997 8.8289 18.4112 8.60281 18.5683C8.40145 18.7081 7.89993 19.1233 7.58118 19.5949L7.57294 19.6071L7.56401 19.6188C6.66933 20.788 5.87012 22.7829 5.46798 25.0163C5.06663 27.2454 5.07443 29.6376 5.72325 31.594C6.64832 34.3834 8.30227 36.6662 11.0762 38.2862C13.8653 39.915 17.8238 40.8951 23.388 40.9907C29.1164 41.0891 33.6252 40.3433 36.8745 38.6616C40.0964 36.9942 42.105 34.3955 42.8423 30.6899C44.0295 24.7222 41.228 20.8569 39.763 19.7082L39.3954 19.42L39.6575 19.0325C40.4084 17.9225 40.8494 16.3269 41.0128 14.7424C41.1766 13.1548 41.0527 11.6696 40.7504 10.8011C40.4193 9.85021 40.1508 9.51264 39.7344 9.37563C39.4972 9.29761 39.1642 9.26867 38.6642 9.31681ZM6.55265 19.3168C5.99617 18.4544 5.36916 16.6831 5.71789 14.2291C6.11332 11.4466 7.21205 9.91999 7.83447 9.46113L7.85301 9.44746L7.87273 9.43557C8.23774 9.21541 8.88934 9.08218 9.75782 9.15131C10.6454 9.22196 11.807 9.50663 13.2329 10.1836L13.238 10.186L13.243 10.1885C14.3656 10.7527 15.6133 11.562 16.2629 12.0093C18.4793 11.2859 24.1516 10.3618 31.6079 11.634C32.3315 10.7482 34.0208 9.28953 36.502 8.70264C37.3236 8.50831 38.0032 8.37551 38.5693 8.321C39.1334 8.26669 39.6216 8.28596 40.0439 8.42488C40.9463 8.72177 41.3493 9.49305 41.6896 10.4706C42.0587 11.5306 42.1746 13.1791 42.0027 14.8456C41.8467 16.3573 41.4465 17.9587 40.7194 19.2134C42.4691 20.8251 45.0056 24.9173 43.8181 30.8861C43.0206 34.8941 40.8179 37.746 37.33 39.551C33.8697 41.3419 29.1704 42.0906 23.371 41.9909C17.7123 41.8937 13.566 40.8971 10.5763 39.1512C7.57153 37.3964 5.77277 34.9063 4.7792 31.9104C4.06089 29.7445 4.06871 27.171 4.48875 24.8382C4.8772 22.6808 5.62991 20.6653 6.55265 19.3168Z" fill="#111111"/>
<path d="M15.5143 30.6614C15.4569 31.6716 14.7674 32.4536 13.9741 32.4081C13.1808 32.3626 12.5841 31.5068 12.6414 30.4967C12.6988 29.4865 13.3883 28.7045 14.1817 28.75C14.975 28.7955 15.5716 29.6513 15.5143 30.6614Z" fill="#111111"/>
<path d="M24.1858 35.4038C22.9433 35.3633 21.9601 34.583 21.9899 33.661C22.0197 32.7389 23.0511 32.0244 24.2936 32.0649C25.5362 32.1054 26.5193 32.8857 26.4896 33.8077C26.4598 34.7298 25.4284 35.4444 24.1858 35.4038Z" fill="#FFE305"/>
<path fill-rule="evenodd" clip-rule="evenodd" d="M23.2274 34.0778C23.4414 34.2477 23.7876 34.3899 24.2181 34.404C24.6487 34.418 25.0033 34.2986 25.2278 34.143C25.4526 33.9873 25.4927 33.8441 25.495 33.7753C25.4972 33.7065 25.4664 33.561 25.2521 33.3909C25.038 33.221 24.6919 33.0788 24.2613 33.0647C23.8308 33.0507 23.4762 33.1701 23.2517 33.3257C23.0268 33.4814 22.9867 33.6246 22.9845 33.6934C22.9823 33.7622 23.0131 33.9077 23.2274 34.0778ZM21.9899 33.661C21.9601 34.583 22.9433 35.3633 24.1858 35.4038C25.4284 35.4444 26.4598 34.7298 26.4896 33.8077C26.5193 32.8857 25.5362 32.1054 24.2936 32.0649C23.0511 32.0244 22.0197 32.7389 21.9899 33.661Z" fill="black"/>
<path d="M35.2032 30.5417C35.1885 31.5534 34.5325 32.3641 33.7379 32.3524C32.9434 32.3407 32.3113 31.5111 32.326 30.4994C32.3407 29.4877 32.9967 28.6771 33.7913 28.6888C34.5858 28.7005 35.2179 29.5301 35.2032 30.5417Z" fill="#111111"/>
<path d="M30.0306 9.06364C32.2935 10.7386 32.5153 12.6216 32.3434 13.3538L29.9102 18.7911C25.221 20.7442 23.9353 19.6207 23.5647 18.1622C22.5765 13.643 24.4559 9.86478 25.1902 8.8677C25.9245 7.87062 27.2019 6.96993 30.0306 9.06364Z" fill="#E50021"/>
<path fill-rule="evenodd" clip-rule="evenodd" d="M26.7715 7.30853C27.7175 7.19955 28.8708 7.58061 30.3287 8.65969C32.7263 10.4343 33.0555 12.5106 32.8307 13.4675L32.8198 13.5141L30.2861 19.1761L30.1038 19.252C27.7375 20.2376 26.1216 20.4977 25.0103 20.2425C24.4384 20.1112 24.0025 19.8437 23.6833 19.4804C23.3694 19.1231 23.191 18.6992 23.0857 18.2849L23.0836 18.2767L23.0818 18.2684C22.055 13.5724 23.9978 9.64928 24.7934 8.56892C25.1965 8.02166 25.8082 7.4195 26.7715 7.30853ZM26.8848 8.3024C26.3186 8.36762 25.9245 8.71434 25.5932 9.16416C24.9207 10.0774 23.1066 13.7064 24.0519 18.0452C24.1319 18.3566 24.2527 18.6173 24.4292 18.8182C24.6018 19.0146 24.8498 19.1795 25.2319 19.2672C26.0073 19.4453 27.3279 19.3033 29.541 18.4027L31.8709 13.196C31.9741 12.6431 31.812 10.9999 29.7387 9.46526C28.3679 8.45064 27.4682 8.23519 26.8848 8.3024Z" fill="black"/>
<path d="M41.0765 15.0305C39.0092 14.744 36.9285 15.4156 36.1466 15.7872L34.0567 20.541C34.3773 22.0353 35.0566 23.2693 35.3563 23.6995C36.4349 25.2482 37.9877 24.7315 38.6294 24.2796C40.3837 23.1796 41.6596 20.7683 42.0783 19.7001C43.3518 16.3588 41.9411 15.1948 41.0765 15.0305Z" fill="#E50021"/>
<path fill-rule="evenodd" clip-rule="evenodd" d="M36.5257 16.1668L34.5796 20.5936C34.8966 21.9431 35.508 23.0448 35.7652 23.4141C36.2116 24.0549 36.7193 24.2353 37.1646 24.2411C37.6412 24.2474 38.0896 24.0514 38.3452 23.8714L38.3561 23.8637L38.3674 23.8566C39.1609 23.3591 39.8721 22.5452 40.4445 21.6983C41.013 20.8572 41.4193 20.0214 41.6159 19.5203C42.226 17.9185 42.1557 16.9347 41.9211 16.3674C41.6917 15.8126 41.2766 15.5827 40.9965 15.5256C39.1912 15.2793 37.3544 15.814 36.5257 16.1668ZM35.9353 15.3365C36.7724 14.9387 38.9528 14.2325 41.1459 14.5365L41.1582 14.5382L41.1704 14.5405C41.7547 14.6516 42.4693 15.087 42.84 15.9834C43.2084 16.8741 43.2068 18.1423 42.5444 19.8805L42.5435 19.8827L42.5426 19.8849C42.3203 20.4523 41.8796 21.3551 41.2676 22.2605C40.6611 23.1578 39.861 24.0959 38.905 24.6986C38.5177 24.9681 37.8744 25.2509 37.1516 25.2414C36.3904 25.2314 35.5823 24.8957 34.95 23.9878C34.6179 23.5109 33.9081 22.2161 33.5717 20.648L33.5376 20.489L35.7678 15.4161L35.9353 15.3365Z" fill="black"/>
<path d="M31.1459 15.0674C31.2092 15.9677 30.5345 16.7491 29.639 16.8127C28.7435 16.8764 27.9662 16.1982 27.9028 15.2979C27.8395 14.3976 28.5142 13.6162 29.4097 13.5526C30.3053 13.489 31.0826 14.1672 31.1459 15.0674Z" fill="#E50021"/>
<path fill-rule="evenodd" clip-rule="evenodd" d="M29.5688 15.8148C29.9161 15.7901 30.1778 15.4871 30.1532 15.138C30.1287 14.7888 29.8272 14.5258 29.4799 14.5505C29.1326 14.5752 28.8709 14.8782 28.8955 15.2274C28.9201 15.5765 29.2215 15.8395 29.5688 15.8148ZM29.639 16.8127C30.5345 16.7491 31.2092 15.9677 31.1459 15.0674C31.0826 14.1672 30.3053 13.489 29.4097 13.5526C28.5142 13.6162 27.8395 14.3976 27.9028 15.2979C27.9662 16.1982 28.7435 16.8764 29.639 16.8127Z" fill="black"/>
<path d="M38.6627 18.8498C38.7249 19.7345 38.0494 20.5033 37.1539 20.567C36.2583 20.6306 35.4819 19.965 35.4197 19.0803C35.3574 18.1956 36.033 17.4267 36.9285 17.3631C37.8241 17.2994 38.6005 17.9651 38.6627 18.8498Z" fill="#E50021"/>
<path fill-rule="evenodd" clip-rule="evenodd" d="M37.0837 19.5691C37.4473 19.5433 37.6924 19.2377 37.6701 18.9203C37.6477 18.603 37.3624 18.3351 36.9987 18.361C36.635 18.3868 36.39 18.6924 36.4123 19.0097C36.4346 19.3271 36.72 19.595 37.0837 19.5691ZM37.1539 20.567C38.0494 20.5033 38.7249 19.7345 38.6627 18.8498C38.6005 17.9651 37.8241 17.2994 36.9285 17.3631C36.033 17.4267 35.3574 18.1956 35.4197 19.0803C35.4819 19.965 36.2583 20.6306 37.1539 20.567Z" fill="black"/>
<path d="M37.1677 16.8138C37.3238 19.0334 35.6479 20.9608 33.4245 21.1188C31.2011 21.2768 29.2721 19.6056 29.116 17.386C28.9599 15.1664 30.6358 13.239 32.8592 13.0809C35.0826 12.9229 37.0116 14.5942 37.1677 16.8138Z" fill="#E50021"/>
<path fill-rule="evenodd" clip-rule="evenodd" d="M33.3543 20.1209C35.036 20.0014 36.2919 18.5462 36.175 16.8843C36.0582 15.2224 34.6111 13.9593 32.9294 14.0788C31.2477 14.1984 29.9918 15.6535 30.1087 17.3154C30.2256 18.9774 31.6726 20.2404 33.3543 20.1209ZM33.4245 21.1188C35.6479 20.9608 37.3238 19.0334 37.1677 16.8138C37.0116 14.5942 35.0826 12.9229 32.8592 13.0809C30.6358 13.239 28.9599 15.1664 29.116 17.386C29.2721 19.6056 31.2011 21.2768 33.4245 21.1188Z" fill="black"/>
<path fill-rule="evenodd" clip-rule="evenodd" d="M4.59198 28.324C6.07298 28.3199 7.48168 28.4422 8.33334 28.5574C8.60568 28.5943 8.79674 28.8461 8.76008 29.1199C8.72342 29.3937 8.47292 29.5857 8.20058 29.5489C7.38968 29.4391 6.02639 29.3204 4.59471 29.3243C3.15141 29.3283 1.69228 29.4574 0.659905 29.8153C0.400118 29.9053 0.116898 29.7666 0.0273161 29.5055C-0.0622657 29.2443 0.0757131 28.9596 0.335501 28.8696C1.52839 28.4561 3.12262 28.328 4.59198 28.324Z" fill="black"/>
<path fill-rule="evenodd" clip-rule="evenodd" d="M8.61817 32.4631C8.65124 32.7373 8.45689 32.9866 8.18409 33.0198C7.14897 33.146 4.61477 33.6077 2.76144 34.4274C2.50991 34.5387 2.21629 34.4239 2.10562 34.171C1.99494 33.9182 2.10913 33.623 2.36066 33.5118C4.344 32.6345 6.98929 32.1577 8.06434 32.0267C8.33715 31.9935 8.5851 32.1889 8.61817 32.4631Z" fill="black"/>
<path fill-rule="evenodd" clip-rule="evenodd" d="M10.9887 35.5261C11.088 35.7836 10.9609 36.0734 10.7047 36.1733C9.93632 36.4728 8.68718 37.0149 7.45289 37.6618C6.20566 38.3155 5.02563 39.0497 4.35428 39.7246C4.15997 39.92 3.84493 39.92 3.65062 39.7246C3.4563 39.5293 3.4563 39.2126 3.65062 39.0172C4.43721 38.2265 5.73502 37.434 6.99282 36.7748C8.26355 36.1088 9.54662 35.5517 10.3449 35.2406C10.6011 35.1407 10.8894 35.2685 10.9887 35.5261Z" fill="black"/>
<path fill-rule="evenodd" clip-rule="evenodd" d="M39.0894 35.0753C39.1176 34.8005 39.3621 34.6008 39.6355 34.6292C40.6506 34.7348 43.2212 35.4229 45.8238 37.3256C46.046 37.4881 46.0951 37.8009 45.9335 38.0243C45.7719 38.2477 45.4607 38.2971 45.2385 38.1346C42.7766 36.3348 40.3723 35.7116 39.5331 35.6243C39.2597 35.5959 39.0611 35.3501 39.0894 35.0753Z" fill="black"/>
<path fill-rule="evenodd" clip-rule="evenodd" d="M47.5389 27.9112C43.9305 27.4578 41.3099 28.1072 40.5069 28.4532C40.2543 28.562 39.9618 28.4444 39.8536 28.1904C39.7453 27.9365 39.8623 27.6425 40.1149 27.5337C41.1024 27.1082 43.9043 26.4463 47.6623 26.9186C47.935 26.9528 48.1284 27.2028 48.0943 27.4769C48.0602 27.751 47.8116 27.9455 47.5389 27.9112Z" fill="black"/>
<path fill-rule="evenodd" clip-rule="evenodd" d="M47.0338 32.8129C44.3192 32.0549 42.0174 31.9329 41.2392 31.963C40.9646 31.9736 40.7335 31.7585 40.7229 31.4824C40.7123 31.2064 40.9264 30.974 41.201 30.9634C42.0854 30.9292 44.4899 31.0643 47.3001 31.849C47.5649 31.923 47.7199 32.1987 47.6464 32.4649C47.5728 32.731 47.2985 32.8869 47.0338 32.8129Z" fill="black"/>
</g>
<defs>
<clipPath id="clip0_258_1154">
<rect width="48" height="48" fill="white"/>
</clipPath>
</defs>
</svg>
