<svg width="48" height="48" viewBox="0 0 48 48" fill="none" xmlns="http://www.w3.org/2000/svg">
<path d="M39.5999 8.40001C37.8719 4.17601 33.9199 4.88001 32.1599 5.76001C30.4063 6.52246 26.6325 8.79638 24.9525 12C21.6824 10.272 17.3549 9.20001 15.5999 8.88001C7.43986 7.68001 4.07993 9.36001 3.11993 10.08C2.15993 10.8 -1.44007 14.16 4.55993 17.28C9.35993 19.776 15.1199 20.56 16.7999 20.4C13.6799 21.84 10.5599 24.72 10.0799 30C9.66198 34.5975 12.6126 37.2649 14.8799 39.12C17.5199 41.28 21.36 42.06 26.1599 42.96C32.3039 44.112 34.5812 43.3136 35.76 42.96C38.1599 42.24 41.9999 40.8 43.4399 35.28C44.7628 30.2091 42.2399 26.88 40.7999 24.72C41.5199 18.96 41.7599 13.68 39.5999 8.40001Z" fill="#FF86A5"/>
<path fill-rule="evenodd" clip-rule="evenodd" d="M35.8317 5.70846C34.5026 5.48259 33.1528 5.85368 32.321 6.26955L32.3124 6.27386L32.3036 6.2777C31.4538 6.64715 30.0979 7.39101 28.7493 8.43662C27.3989 9.48358 26.0786 10.8156 25.2714 12.3548C25.1921 12.5059 25.1179 12.6589 25.049 12.8138C23.5669 16.1486 24.7778 17.9326 25.4065 18.3726C26.9352 19.4427 29.0037 19.2532 30.9679 18.4088C32.9262 17.5671 34.663 16.1211 35.4564 14.8743C35.5631 14.7065 35.7856 14.6571 35.9533 14.7638C36.1211 14.8706 36.1705 15.0931 36.0638 15.2608C35.1772 16.654 33.314 18.184 31.2523 19.0703C29.1965 19.954 26.8249 20.2444 24.9936 18.9625C24.0223 18.2825 22.8013 16.0985 24.3911 12.5213C24.4174 12.4621 24.4445 12.4031 24.4722 12.3445C21.2929 10.7369 17.2277 9.7309 15.5415 9.42283C7.44258 8.2329 4.19277 9.91301 3.33604 10.5556C3.11379 10.7222 2.73167 11.0475 2.37542 11.4849C2.01783 11.9239 1.70201 12.4566 1.58274 13.0397C1.46589 13.611 1.53297 14.2498 1.97171 14.933C2.41713 15.6267 3.25838 16.3849 4.72613 17.1482C9.46201 19.6108 13.9521 19.9029 15.5659 19.7492C15.7638 19.7303 15.9396 19.8755 15.9584 20.0734C15.9773 20.2714 15.8321 20.4471 15.6342 20.4659C13.888 20.6322 9.25807 20.3163 4.39396 17.787C2.8617 16.9902 1.90295 16.1585 1.36587 15.3221C0.822117 14.4753 0.724202 13.6441 0.877346 12.8954C1.02808 12.1585 1.41725 11.5212 1.81717 11.0302C2.21842 10.5376 2.64629 10.1729 2.90404 9.97956C3.9671 9.18226 7.43572 7.50306 15.6524 8.71139L15.6585 8.71229L15.6646 8.7134C17.3811 9.02638 21.5336 10.05 24.8062 11.7066C25.6851 10.1787 27.0017 8.8805 28.3081 7.86761C29.7003 6.78823 31.1035 6.0154 32.0077 5.62122C32.9367 5.15881 34.4382 4.74132 35.9523 4.99864C37.4993 5.26154 39.0223 6.22449 39.9332 8.45125C42.1329 13.8282 41.6368 19.0082 40.9173 24.7647C40.8926 24.9619 40.7127 25.1019 40.5154 25.0772C40.3181 25.0526 40.1782 24.8726 40.2028 24.6753C40.9233 18.9118 41.3872 13.9069 39.2668 8.72386C38.4498 6.72661 37.1327 5.92956 35.8317 5.70846Z" fill="black"/>
<path fill-rule="evenodd" clip-rule="evenodd" d="M43.2619 34.3274C43.6658 30.7208 42.9059 27.6467 40.302 24.9711L40.818 24.4689C43.6027 27.3304 44.4019 30.6362 43.9762 34.4178L43.9752 34.4276L43.9735 34.4373C43.1941 39.0645 40.6339 41.7393 37.0918 42.9852C33.5823 44.2197 29.1388 44.0431 24.5615 43.0752C19.983 42.1071 15.9079 40.4675 13.2285 37.9164C10.5258 35.3432 9.2695 31.8654 10.3056 27.3276C11.1711 23.5369 13.6829 21.1908 17.2787 19.6596L17.5608 20.322C14.1124 21.7904 11.8077 23.9831 11.0075 27.4879C10.027 31.7823 11.2093 34.9998 13.725 37.395C16.2639 39.8123 20.1869 41.4143 24.7105 42.3708C29.2354 43.3276 33.5255 43.4764 36.8529 42.306C40.1451 41.148 42.524 38.6905 43.2619 34.3274Z" fill="black"/>
<path d="M37.8153 38.7216C37.0016 43.8953 31.035 44.3794 24.4415 42.9852C17.8481 41.591 12.3755 38.9144 13.9384 33.6728C14.7311 29.924 20.7187 28.0151 27.3121 29.4093C33.9056 30.8034 38.1704 34.6513 37.8153 38.7216Z" fill="white"/>
<path fill-rule="evenodd" clip-rule="evenodd" d="M13.9384 33.6728C12.3755 38.9144 17.8481 41.591 24.4415 42.9852C31.035 44.3794 37.0016 43.8953 37.8153 38.7216C38.1704 34.6513 33.9056 30.8034 27.3121 29.4093C20.7187 28.0151 14.7311 29.924 13.9384 33.6728ZM37.1001 38.6345C36.9161 39.7749 36.4589 40.6205 35.8091 41.2489C35.1472 41.8889 34.2451 42.3419 33.1242 42.6171C30.8634 43.1721 27.85 42.97 24.5905 42.2808C21.3202 41.5893 18.431 40.5974 16.5635 39.1959C15.6389 38.5021 14.9976 37.7321 14.6632 36.8801C14.3327 36.038 14.2777 35.0546 14.6283 33.8786L14.6367 33.8505L14.6428 33.8218C14.9622 32.311 16.3647 31.0329 18.6687 30.2984C20.9496 29.5712 23.9658 29.4376 27.1632 30.1137C30.3672 30.7912 32.9585 32.0561 34.6904 33.5994C36.414 35.1353 37.2424 36.8986 37.1001 38.6345Z" fill="black"/>
<path d="M18.8107 34.1481C18.4955 35.3418 17.573 36.1334 16.7502 35.9161C15.9273 35.6988 15.5158 34.555 15.831 33.3613C16.1462 32.1677 17.0688 31.3761 17.8916 31.5934C18.7144 31.8106 19.1259 32.9544 18.8107 34.1481Z" fill="black"/>
<path d="M24.5796 38.3897C23.7553 38.1726 23.2099 37.53 23.3615 36.9545C23.5131 36.3789 24.3042 36.0884 25.1285 36.3055C25.9529 36.5226 26.4982 37.1651 26.3466 37.7407C26.195 38.3162 25.4039 38.6068 24.5796 38.3897Z" fill="#F7F393"/>
<path fill-rule="evenodd" clip-rule="evenodd" d="M23.9706 37.4959C24.12 37.6719 24.373 37.8389 24.7019 37.9255C25.0307 38.0121 25.3332 37.9915 25.5499 37.9119C25.7685 37.8316 25.8576 37.7126 25.8825 37.6184C25.9073 37.5242 25.8882 37.3768 25.7376 37.1993C25.5882 37.0232 25.3351 36.8563 25.0063 36.7696C24.6774 36.683 24.375 36.7037 24.1583 36.7833C23.9397 36.8636 23.8505 36.9825 23.8257 37.0767C23.8009 37.1709 23.8199 37.3184 23.9706 37.4959ZM23.3615 36.9545C23.2099 37.53 23.7553 38.1726 24.5796 38.3897C25.4039 38.6068 26.195 38.3162 26.3466 37.7407C26.4982 37.1651 25.9529 36.5226 25.1285 36.3055C24.3042 36.0884 23.5131 36.3789 23.3615 36.9545Z" fill="black"/>
<path d="M35.4034 36.7864C35.3339 37.93 34.6385 38.8182 33.8502 38.7703C33.0618 38.7224 32.4791 37.7564 32.5487 36.6128C32.6182 35.4692 33.3136 34.5809 34.1019 34.6288C34.8903 34.6768 35.473 35.6427 35.4034 36.7864Z" fill="black"/>
<path fill-rule="evenodd" clip-rule="evenodd" d="M22.9818 38.7167C23.1104 38.6845 23.2407 38.7627 23.2728 38.8913C23.3378 39.1511 23.6939 39.9396 24.7671 40.1542C25.9 40.3808 26.695 39.9951 26.9503 39.7398C27.044 39.6461 27.196 39.6461 27.2897 39.7398C27.3834 39.8335 27.3834 39.9855 27.2897 40.0792C26.905 40.4639 25.9399 40.8783 24.6729 40.6249C23.3646 40.3632 22.9022 39.388 22.8071 39.0077C22.775 38.8791 22.8532 38.7488 22.9818 38.7167Z" fill="black"/>
<path d="M19.68 15.84C18.144 16.992 18.08 19.36 18.24 20.4L18.7199 22.32C19.0399 22.8 20.016 23.856 21.3599 24.24C23.0399 24.72 24.7199 24 24.9599 22.32C25.1519 20.976 23.9199 20.16 23.2799 19.92C23.8559 19.344 23.9999 18.08 23.9999 17.52C23.9999 15.36 21.6 14.4 19.68 15.84Z" fill="#C7E7FE"/>
<path fill-rule="evenodd" clip-rule="evenodd" d="M22.4283 15.6651C21.7162 15.3853 20.7665 15.4751 19.896 16.128C19.2228 16.6329 18.8536 17.4193 18.6758 18.2384C18.5002 19.0471 18.5212 19.8455 18.5934 20.3292L19.0535 22.1697C19.3764 22.6264 20.268 23.5536 21.4589 23.8938C22.2259 24.113 22.9714 24.0518 23.5389 23.768C24.0976 23.4887 24.5009 22.9875 24.6036 22.2691C24.6806 21.7296 24.4775 21.2926 24.1651 20.9476C23.8465 20.5958 23.4303 20.3609 23.1536 20.2571L22.6301 20.0608L23.0254 19.6654C23.2412 19.4496 23.4021 19.0701 23.5056 18.6314C23.6064 18.2037 23.64 17.7757 23.64 17.52C23.64 16.5901 23.1325 15.9417 22.4283 15.6651ZM22.6916 14.9949C23.6674 15.3783 24.36 16.2899 24.36 17.52C24.36 17.8243 24.3215 18.3083 24.2063 18.7966C24.1297 19.1217 24.0129 19.4761 23.8324 19.7829C24.1188 19.943 24.4322 20.1699 24.6988 20.4644C25.1145 20.9234 25.4313 21.5664 25.3163 22.3709C25.179 23.3325 24.6223 24.0313 23.8609 24.412C23.1085 24.7882 22.174 24.847 21.2611 24.5861C19.8087 24.1712 18.77 23.0441 18.4204 22.5197L18.3858 22.4678L17.8867 20.4712L17.8842 20.4548C17.7983 19.8967 17.7737 18.9999 17.9722 18.0856C18.1704 17.1727 18.6011 16.1991 19.464 15.552C20.5134 14.7649 21.7238 14.6147 22.6916 14.9949Z" fill="black"/>
<path d="M14.4 17.04C15.552 17.424 16.64 18.96 17.04 19.68L17.52 22.8C16.56 25.68 14.16 27.36 12.24 25.92C10.704 24.768 11.6 22.88 12.24 22.08C11.6 21.92 10.368 21.12 10.56 19.2C10.8 16.8 12.96 16.56 14.4 17.04Z" fill="#C7E7FE"/>
<path fill-rule="evenodd" clip-rule="evenodd" d="M11.8963 16.7057C12.7466 16.3657 13.7377 16.4398 14.5139 16.6985C15.1804 16.9207 15.7919 17.458 16.2706 17.9943C16.7563 18.5383 17.1433 19.1246 17.3547 19.5052L17.3861 19.5615L17.889 22.8313L17.8615 22.9138C17.3621 24.412 16.4787 25.6304 15.4308 26.2853C14.3662 26.9506 13.1222 27.0316 12.024 26.208C11.1272 25.5354 10.9404 24.6299 11.0683 23.8124C11.1606 23.2227 11.4151 22.6697 11.6816 22.2468C10.924 21.8542 10.0274 20.9088 10.2018 19.1642C10.3345 17.8373 11.0156 17.058 11.8963 16.7057ZM12.1637 17.3743C11.5444 17.622 11.0256 18.1627 10.9183 19.2358C10.7475 20.9436 11.8249 21.6051 12.3274 21.7307L12.8716 21.8668L12.5212 22.3049C12.2274 22.6721 11.8792 23.2873 11.7797 23.9236C11.6836 24.5381 11.8168 25.1526 12.456 25.632C13.2778 26.2484 14.1937 26.2094 15.0492 25.6747C15.9041 25.1404 16.6864 24.1097 17.1508 22.7677L16.6942 19.7996C16.499 19.4586 16.1563 18.9474 15.7335 18.4737C15.2802 17.966 14.7716 17.5433 14.2862 17.3815C13.6223 17.1602 12.8135 17.1143 12.1637 17.3743ZM21.5011 20.5061C20.2946 20.1614 19.4511 20.658 19.2146 20.8946C19.074 21.0351 18.846 21.0351 18.7054 20.8946C18.5648 20.754 18.5648 20.526 18.7054 20.3854C19.1089 19.982 20.2174 19.3906 21.6989 19.8138C21.8901 19.8685 22.0008 20.0677 21.9461 20.2589C21.8915 20.4501 21.6923 20.5608 21.5011 20.5061Z" fill="black"/>
<path fill-rule="evenodd" clip-rule="evenodd" d="M13.4254 21.8254C14.515 20.7358 16.0335 20.8352 16.6588 21.0138C16.85 21.0684 16.9607 21.2677 16.9061 21.4589C16.8515 21.65 16.6522 21.7607 16.461 21.7061C15.9664 21.5648 14.7649 21.5042 13.9345 22.3345C13.7939 22.4751 13.566 22.4751 13.4254 22.3345C13.2848 22.1939 13.2848 21.966 13.4254 21.8254Z" fill="black"/>
<path d="M20.16 21.12C20.16 22.4455 19.0855 23.52 17.76 23.52C16.4345 23.52 15.36 22.4455 15.36 21.12C15.36 19.7945 16.4345 18.72 17.76 18.72C19.0855 18.72 20.16 19.7945 20.16 21.12Z" fill="#C7E7FE"/>
<path fill-rule="evenodd" clip-rule="evenodd" d="M17.76 22.8C18.6878 22.8 19.44 22.0478 19.44 21.12C19.44 20.1922 18.6878 19.44 17.76 19.44C16.8321 19.44 16.08 20.1922 16.08 21.12C16.08 22.0478 16.8321 22.8 17.76 22.8ZM17.76 23.52C19.0855 23.52 20.16 22.4455 20.16 21.12C20.16 19.7945 19.0855 18.72 17.76 18.72C16.4345 18.72 15.36 19.7945 15.36 21.12C15.36 22.4455 16.4345 23.52 17.76 23.52Z" fill="black"/>
</svg>
