<svg width="48" height="48" viewBox="0 0 48 48" fill="none" xmlns="http://www.w3.org/2000/svg">
<path d="M30.9337 11.4685C26.2571 9.65525 19.958 11.7548 16.8085 13.3772L37.7099 33.8957L44.009 31.1281C44.3908 27.2344 42.8319 23.207 42.0048 21.68C39.9051 17.8626 35.6102 13.2818 30.9337 11.4685Z" fill="black"/>
<path d="M17.0691 13.2828C14.3204 14.3517 12.0426 17.1638 11.2472 18.4363C5.71169 18.4363 0.462463 21.872 1.22599 28.8387C1.98951 35.8055 9.14755 38.6685 20.4095 39.9092C29.4191 40.9017 35.6164 40.3227 37.5888 39.9092C38.276 41.2834 39.8476 41.8815 40.5475 42.0087C43.9833 42.8486 45.7967 40.1319 46.2739 38.6685C48.0873 34.4694 45.1286 30.8428 43.1244 30.3657C41.521 29.9839 40.2293 31.4791 39.7839 32.2744C40.4711 30.8238 40.3248 26.4528 40.1657 24.4487C39.7076 19.1043 33.4212 15.2869 30.3353 14.0463C25.1815 11.3741 20.505 11.9467 17.0691 13.2828Z" fill="#F4C2A9"/>
<path fill-rule="evenodd" clip-rule="evenodd" d="M30.268 14.1859C25.1625 11.5387 20.5341 12.1058 17.1305 13.4294C15.7835 13.9532 14.5445 14.9077 13.5401 15.8955C12.5364 16.8825 11.7758 17.8941 11.3846 18.5199C11.356 18.5657 11.3059 18.5935 11.2519 18.5935C8.51404 18.5935 5.85825 19.4434 3.98424 21.1416C2.11522 22.8353 1.00953 25.3852 1.38623 28.8224C1.76114 32.2433 3.70125 34.6606 6.95871 36.3837C10.2246 38.1112 14.8055 39.1346 20.4314 39.7544C29.4299 40.7457 35.6097 40.166 37.5614 39.7568C37.631 39.7422 37.7017 39.7763 37.7335 39.8399C38.0597 40.4924 38.5988 40.9658 39.1481 41.2929C39.6979 41.6203 40.2481 41.7952 40.5802 41.8555C40.5832 41.8561 40.5863 41.8567 40.5893 41.8575C42.2559 42.2649 43.519 41.8104 44.4269 41.0811C45.3411 40.3467 45.8987 39.3296 46.1298 38.6207C46.1306 38.6184 46.1314 38.6161 46.1323 38.6139C46.1331 38.6116 46.134 38.6094 46.135 38.6072C47.021 36.5555 46.741 34.6481 45.9962 33.1934C45.2466 31.7295 44.0375 30.7435 43.0928 30.5186C42.3508 30.3419 41.6738 30.5965 41.1173 31.0054C40.5596 31.4153 40.1391 31.9694 39.9252 32.3515C39.884 32.4251 39.7918 32.4528 39.7169 32.4141C39.642 32.3754 39.6111 32.2843 39.6473 32.2081C39.8079 31.8689 39.9253 31.3444 40.0053 30.7028C40.0848 30.0651 40.1258 29.326 40.1404 28.5668C40.1697 27.0487 40.0937 25.4605 40.0145 24.4623C39.7902 21.8482 38.1382 19.5922 36.1371 17.8266C34.138 16.0628 31.8109 14.807 30.2817 14.1922C30.277 14.1903 30.2725 14.1882 30.268 14.1859ZM30.4054 13.9047C25.206 11.2114 20.4838 11.7897 17.0171 13.1377C15.6154 13.6828 14.3412 14.6687 13.3207 15.6724C12.3372 16.6396 11.5811 17.6313 11.1656 18.2808C8.39807 18.2985 5.69771 19.1666 3.7741 20.9098C1.8255 22.6756 0.688339 25.3269 1.07517 28.8565C1.46377 32.4023 3.48445 34.8999 6.81238 36.6602C10.1319 38.4161 14.761 39.4445 20.3971 40.0654C29.2491 41.0406 35.3991 40.502 37.5094 40.0866C37.8735 40.7525 38.434 41.2318 38.988 41.5617C39.5683 41.9073 40.1514 42.0949 40.5195 42.1625C42.2866 42.5931 43.6467 42.1092 44.6229 41.325C45.5907 40.5476 46.1778 39.4787 46.4251 38.7246C47.349 36.5797 47.0561 34.5768 46.2747 33.0508C45.4972 31.5324 44.2248 30.4664 43.1653 30.2142C42.3039 30.0091 41.5335 30.3113 40.932 30.7533C40.6565 30.9557 40.4131 31.1897 40.208 31.4235C40.2503 31.2109 40.2859 30.9819 40.3158 30.7415C40.3972 30.0891 40.4385 29.3382 40.4533 28.5728C40.4829 27.042 40.4062 25.443 40.3264 24.437L40.3263 24.4361C40.0923 21.706 38.3722 19.3813 36.3442 17.592C34.3171 15.8036 31.9621 14.5315 30.4054 13.9047Z" fill="black"/>
<path d="M17.6581 10.992C16.3601 11.9845 16.5446 13.187 16.7991 13.6642C17.0282 14.1986 17.4672 14.3959 17.6581 14.4277C18.708 14.6186 19.4715 14.3322 20.5213 13.6642C21.5711 12.9962 22.1437 12.7099 22.3346 12.6144L22.3347 12.6144C22.5256 12.519 22.9073 12.4235 22.9073 12.8053C22.9073 13.1107 22.7801 13.8869 22.7164 14.2368C22.5603 15.0957 22.621 16.1455 23.0982 16.909C23.5754 17.6725 24.8161 18.0542 25.6751 17.1953C26.5341 16.3364 26.7249 13.187 26.2477 10.8966C25.7705 8.60614 23.7663 8.98788 22.8119 9.08332C21.8575 9.17875 19.2806 9.75136 17.6581 10.992Z" fill="black"/>
<path d="M29.8776 16.3365C28.885 17.1763 29.2095 18.3406 29.4959 18.8178C30.164 19.6767 31.5001 19.4858 32.2636 19.1041C33.0271 18.7224 34.3633 18.0543 35.2223 17.6726C35.9094 17.3672 36.0176 17.9907 35.9858 18.3406C35.954 18.7224 35.9094 19.6767 35.9858 20.4402C36.0812 21.3945 36.3676 23.1124 37.4174 23.3032C38.4672 23.4941 39.8034 22.4443 39.5171 19.1041C39.2308 15.7639 38.2764 14.905 37.6083 14.6186C36.9402 14.3323 35.3177 14.5232 34.3633 14.7141C33.4089 14.905 31.1183 15.2867 29.8776 16.3365Z" fill="black"/>
<path fill-rule="evenodd" clip-rule="evenodd" d="M22.5781 18.122C22.0196 16.9118 20.83 15.552 18.7319 15.8257C17.89 15.9355 17.128 16.341 16.5139 16.8111C15.8998 17.2812 15.4436 17.8081 15.2142 18.1445L14.9557 17.9683C15.2035 17.6048 15.6826 17.0533 16.3236 16.5627C16.9646 16.0721 17.7773 15.6346 18.6915 15.5154C20.9836 15.2164 22.2755 16.7197 22.8623 17.9908C23.1037 18.5139 23.2006 19.1656 23.2272 19.7577C23.254 20.352 23.2104 20.9013 23.1613 21.229L22.8518 21.1826C22.8981 20.874 22.9404 20.3449 22.9146 19.7717C22.8888 19.1963 22.7948 18.5914 22.5781 18.122Z" fill="black"/>
<path fill-rule="evenodd" clip-rule="evenodd" d="M32.6195 20.7541C31.7485 20.4332 30.8028 20.4307 29.8228 20.664C28.2658 21.0347 27.1951 22.1193 26.8614 22.6046L26.6035 22.4273C26.9697 21.8947 28.1004 20.7524 29.7503 20.3596C30.7746 20.1158 31.7854 20.1133 32.7277 20.4605C33.6711 20.808 34.5313 21.5007 35.2623 22.6214L35.2645 22.6249L35.2666 22.6285C35.449 22.9435 35.6979 23.5012 35.8629 24.1651C36.0278 24.8287 36.1116 25.6095 35.9524 26.3656L35.6462 26.3011C35.7924 25.6066 35.7172 24.8764 35.5592 24.2405C35.4019 23.6075 35.1653 23.079 34.9979 22.7888C34.2977 21.7166 33.4885 21.0742 32.6195 20.7541Z" fill="black"/>
<path fill-rule="evenodd" clip-rule="evenodd" d="M14.0897 34.1039C13.0958 33.895 12.6531 34.3759 12.5583 34.5893L12.2723 34.4622C12.4316 34.1038 13.0296 33.5567 14.166 33.8002L14.1766 33.8025L14.1867 33.8061C14.3791 33.8761 14.6581 34.0258 14.882 34.254C15.1077 34.4841 15.2881 34.8065 15.2432 35.2111L14.9321 35.1766C14.9635 34.894 14.8417 34.6598 14.6586 34.4731C14.4775 34.2885 14.2472 34.1628 14.0897 34.1039Z" fill="black"/>
<path opacity="0.5" d="M16.5255 27.3467C16.3082 28.7531 14.105 29.5801 11.6046 29.1938C9.10417 28.8076 7.25331 27.3543 7.47059 25.9479C7.68787 24.5415 9.89102 23.7145 12.3914 24.1008C14.8919 24.487 16.7427 25.9403 16.5255 27.3467Z" fill="#EFA491"/>
<path opacity="0.5" d="M32.2277 32.8051C31.9283 34.1964 29.6805 34.8928 27.207 34.3607C24.7335 33.8285 22.971 32.2693 23.2704 30.878C23.5697 29.4868 25.8175 28.7903 28.291 29.3225C30.7645 29.8546 32.527 31.4138 32.2277 32.8051Z" fill="#EFA491"/>
<path fill-rule="evenodd" clip-rule="evenodd" d="M9.07953 24.9991C9.25102 25.0206 9.37266 25.1769 9.35122 25.3484C9.33196 25.5025 9.22104 25.5822 9.18711 25.6049C9.14079 25.6359 9.09291 25.6552 9.06329 25.6662C9.03074 25.6782 8.99898 25.6876 8.97848 25.6936C8.95781 25.6997 8.95195 25.7015 8.95192 25.7014C8.95191 25.7014 8.95299 25.701 8.95443 25.7004C8.82935 25.7485 8.71648 25.8018 8.58808 25.866C8.52305 25.8985 8.45673 25.934 8.38657 25.9715L8.38285 25.9735C8.31525 26.0097 8.2437 26.0481 8.17328 26.0833C8.0187 26.1606 7.83073 26.0979 7.75344 25.9433C7.67615 25.7888 7.73881 25.6008 7.89339 25.5235C7.95583 25.4923 8.02075 25.4575 8.09112 25.4199L8.09118 25.4198C8.16006 25.3829 8.23404 25.3433 8.30819 25.3063C8.44356 25.2386 8.57712 25.175 8.72976 25.1163C8.74634 25.1099 8.76251 25.1049 8.77171 25.1022C8.77943 25.0998 8.78843 25.0972 8.7959 25.095C8.79809 25.0943 8.80015 25.0937 8.80201 25.0932C8.80859 25.0913 8.81453 25.0895 8.81993 25.0878C8.88585 25.0223 8.98015 24.9867 9.07953 24.9991ZM8.85424 25.076C8.85424 25.076 8.85401 25.0761 8.85353 25.0763C8.85399 25.0761 8.85423 25.076 8.85424 25.076Z" fill="#E17163"/>
<path fill-rule="evenodd" clip-rule="evenodd" d="M11.3378 25.4435C11.4944 25.3969 11.6809 25.3501 11.875 25.3501C12.0478 25.3501 12.1879 25.4902 12.1879 25.663C12.1879 25.8358 12.0478 25.9759 11.875 25.9759C11.7747 25.9759 11.6593 26.0008 11.5162 26.0433C11.476 26.0553 11.4299 26.07 11.3809 26.0855C11.278 26.1183 11.1622 26.1551 11.0601 26.1799C11.0199 26.1897 10.9807 26.2063 10.9209 26.2356C10.9136 26.2392 10.9057 26.2431 10.8973 26.2473C10.844 26.2736 10.77 26.3103 10.6891 26.3383C10.6327 26.3578 10.575 26.3917 10.4832 26.4475C10.4803 26.4493 10.4773 26.4511 10.4743 26.4529C10.3945 26.5015 10.2826 26.5697 10.1567 26.6116C9.99276 26.6663 9.81555 26.5777 9.76089 26.4137C9.70624 26.2498 9.79485 26.0726 9.95881 26.0179C10.0109 26.0006 10.0662 25.9687 10.1579 25.9128C10.1613 25.9108 10.1648 25.9087 10.1683 25.9065C10.248 25.858 10.359 25.7903 10.4843 25.7469C10.5251 25.7328 10.5603 25.7155 10.6148 25.6887C10.6245 25.6839 10.6348 25.6788 10.6459 25.6734C10.7129 25.6407 10.8026 25.5984 10.9122 25.5718C10.9952 25.5516 11.0715 25.5272 11.1589 25.4992C11.2129 25.482 11.2711 25.4633 11.3378 25.4435Z" fill="#E17163"/>
<path fill-rule="evenodd" clip-rule="evenodd" d="M12.8647 27.1769C13.3601 26.9292 13.9292 26.6698 14.5849 26.6698C14.7577 26.6698 14.8978 26.8099 14.8978 26.9827C14.8978 27.1555 14.7577 27.2956 14.5849 27.2956C14.0896 27.2956 13.6369 27.4905 13.1446 27.7366C12.99 27.8139 12.802 27.7513 12.7248 27.5967C12.6475 27.4421 12.7101 27.2542 12.8647 27.1769Z" fill="#E17163"/>
<path fill-rule="evenodd" clip-rule="evenodd" d="M24.6644 30.9728C24.5996 30.9922 24.5294 31.0132 24.4582 31.0321C24.3853 31.0514 24.3102 31.0794 24.221 31.1142C24.2105 31.1183 24.1997 31.1226 24.1887 31.1269C24.1113 31.1573 24.0221 31.1923 23.9314 31.2208C23.8142 31.2577 23.6967 31.3077 23.5942 31.3661C23.5942 31.3661 23.5943 31.366 23.5942 31.3661L23.5932 31.3667L23.5905 31.3685C23.588 31.3702 23.5848 31.3727 23.5805 31.3762C23.5785 31.3778 23.5764 31.3796 23.5741 31.3815C23.5169 31.4552 23.4274 31.5027 23.3268 31.5027C23.3155 31.5027 23.2895 31.5022 23.2577 31.4953C23.2362 31.4907 23.1497 31.4709 23.0812 31.3879C22.9902 31.2775 23.003 31.1516 23.0283 31.0816C23.0487 31.0251 23.0803 30.9892 23.0888 30.9796C23.1013 30.9654 23.1124 30.9554 23.1168 30.9515C23.1185 30.95 23.12 30.9486 23.1214 30.9474C23.1574 30.9134 23.2138 30.8626 23.2843 30.8224C23.4295 30.7396 23.5886 30.6726 23.7438 30.6238C23.8121 30.6023 23.8795 30.5759 23.9588 30.5448C23.97 30.5404 23.9815 30.5359 23.9932 30.5313C24.0829 30.4963 24.1873 30.4564 24.298 30.4271C24.359 30.411 24.4206 30.3926 24.4879 30.3724L24.4893 30.372C24.5547 30.3524 24.6256 30.3312 24.6978 30.3121C24.8434 30.2736 25.0089 30.2397 25.1878 30.2397C25.3606 30.2397 25.5007 30.3798 25.5007 30.5526C25.5007 30.7254 25.3606 30.8655 25.1878 30.8655C25.0864 30.8655 24.9802 30.8848 24.8577 30.9172C24.7964 30.9334 24.7347 30.9518 24.6674 30.9719L24.6644 30.9728ZM23.3268 30.8768C23.3281 30.8768 23.3298 30.8768 23.3317 30.8769L23.3268 30.8768ZM23.53 31.4215C23.5259 31.4251 23.5243 31.4263 23.5269 31.4241L23.5282 31.423L23.53 31.4215Z" fill="#E17163"/>
<path fill-rule="evenodd" clip-rule="evenodd" d="M28.153 31.8237C28.1099 31.8363 28.0657 31.8492 28.02 31.8622C27.9624 31.8787 27.9023 31.9037 27.8273 31.9374C27.8149 31.943 27.8018 31.949 27.7881 31.9552C27.7257 31.9836 27.6515 32.0175 27.577 32.0454C27.5058 32.0721 27.4404 32.1019 27.3764 32.1376C27.3753 32.1387 27.374 32.1399 27.3725 32.1414C27.3718 32.142 27.3712 32.1427 27.3704 32.1434C27.3657 32.1479 27.3593 32.1541 27.3529 32.1602C27.3392 32.173 27.3145 32.1959 27.2845 32.2171C27.2595 32.2347 27.1977 32.2757 27.1109 32.2865C26.9394 32.3079 26.783 32.1863 26.7616 32.0148C26.7446 31.8791 26.8173 31.7529 26.9333 31.6955C26.9339 31.6949 26.9345 31.6943 26.9352 31.6936C26.936 31.6928 26.9369 31.692 26.9378 31.6911C26.9434 31.6857 26.9511 31.6783 26.9593 31.6707C26.9675 31.6632 26.9785 31.6533 26.9912 31.6431C27.0034 31.6333 27.0218 31.6194 27.045 31.6061C27.147 31.5472 27.2496 31.4998 27.3572 31.4594C27.4098 31.4397 27.4598 31.417 27.5206 31.3894C27.5364 31.3822 27.5529 31.3747 27.5704 31.3668C27.6492 31.3313 27.7441 31.2902 27.8481 31.2605C27.8855 31.2498 27.9246 31.2383 27.965 31.2263C28.2238 31.1499 28.5405 31.0563 28.8623 31.0563C29.0351 31.0563 29.1752 31.1964 29.1752 31.3692C29.1752 31.542 29.0351 31.6821 28.8623 31.6821C28.6381 31.6821 28.418 31.7464 28.153 31.8237ZM27.3868 32.1279C27.3868 32.128 27.3861 32.1286 27.3848 32.1297C27.3862 32.1284 27.3868 32.1279 27.3868 32.1279Z" fill="#E17163"/>
<path fill-rule="evenodd" clip-rule="evenodd" d="M31.4585 32.0939C31.5358 32.2484 31.4731 32.4364 31.3186 32.5137C31.2254 32.5602 31.13 32.5906 31.0552 32.6136C31.043 32.6174 31.0314 32.6209 31.0203 32.6243C30.9562 32.6439 30.9082 32.6585 30.8623 32.6773C30.7917 32.7062 30.7214 32.7326 30.6557 32.757C30.651 32.7588 30.6464 32.7605 30.6417 32.7622C30.58 32.7852 30.5226 32.8066 30.4661 32.8292C30.3451 32.8776 30.2419 32.9264 30.1508 32.9883C30.0078 33.0853 29.8132 33.0481 29.7161 32.9051C29.6191 32.7621 29.6564 32.5675 29.7994 32.4704C29.9442 32.3722 30.0946 32.3038 30.2336 32.2482C30.2974 32.2226 30.3617 32.1987 30.4221 32.1762C30.4272 32.1743 30.4322 32.1724 30.4373 32.1706C30.5033 32.146 30.565 32.1228 30.6251 32.0982C30.7003 32.0674 30.7797 32.0433 30.8424 32.0242C30.8525 32.0212 30.8622 32.0182 30.8713 32.0154C30.9448 31.9929 30.9962 31.9752 31.0387 31.9539C31.1932 31.8767 31.3812 31.9393 31.4585 32.0939Z" fill="#E17163"/>
<path d="M22.6448 23.4032C22.6448 25.6169 21.1177 27.316 18.4454 27.2206C16.2315 27.2206 14.3414 25.426 14.3414 23.2123C14.1506 21.0173 15.6776 19.204 18.4454 19.204C20.6592 19.204 22.6448 21.1895 22.6448 23.4032Z" fill="black"/>
<path d="M19.6675 23.2108C19.6675 24.0541 18.9838 24.7377 18.1405 24.7377C17.2971 24.7377 16.6134 24.0541 16.6134 23.2108C16.6134 22.3675 17.2971 21.6838 18.1405 21.6838C18.9838 21.6838 19.6675 22.3675 19.6675 23.2108Z" fill="white"/>
<path d="M32.8394 26.8359C32.8394 29.5081 30.9226 30.8435 28.64 30.6533C26.3494 30.4624 24.7269 28.9442 24.7269 26.8359C24.7269 24.3546 26.5316 23.0185 28.64 23.0185C31.1214 23.0185 32.8394 24.6409 32.8394 26.8359Z" fill="black"/>
<path d="M29.9772 26.8336C29.9772 27.6769 29.2935 28.3605 28.4501 28.3605C27.6068 28.3605 26.9231 27.6769 26.9231 26.8336C26.9231 25.9902 27.6068 25.3066 28.4501 25.3066C29.2935 25.3066 29.9772 25.9902 29.9772 26.8336Z" fill="white"/>
</svg>
