<svg width="48" height="48" viewBox="0 0 48 48" fill="none" xmlns="http://www.w3.org/2000/svg">
<path d="M41.4162 27.4871C41.7697 37.2205 33.704 42.5493 22.3017 42.9635C10.8993 43.3777 2.05068 38.4691 1.69709 28.7357C1.3435 19.0023 9.25863 8.70378 21.0212 7.71576C32.4235 7.30154 41.7655 16.7115 41.4162 27.4871Z" fill="#659AD2"/>
<path d="M16.2308 32.6688C10.5218 32.2652 7.19149 36.2006 6.23999 38.2187C10.5218 41.246 10.9975 42.0028 18.8474 43.0118C25.1274 43.8191 30.9791 41.8346 33.12 40.7414C32.4064 40.2369 31.6927 38.2187 30.9791 36.9574C30.2655 35.6961 29.314 34.4347 27.8867 33.6779C26.7449 33.0725 24.715 33.4256 23.8428 33.6779L16.2308 32.6688Z" fill="white"/>
<path d="M45.9369 17.7975L42.0969 18.2775L41.8569 19.2375L42.5769 19.9575C43.1369 20.4375 44.4489 21.5415 45.2169 22.1175C45.9849 22.6935 46.3369 22.6775 46.4169 22.5975L45.6969 20.1975L46.8969 18.9975C47.2809 18.0375 46.4169 17.7975 45.9369 17.7975Z" fill="#F1729E"/>
<path d="M24.0969 35.0775L20.7369 35.7975C20.1609 35.9209 19.3769 35.8489 19.0569 35.7975C18.8169 35.7975 18.0009 35.5575 16.6569 34.5975C15.3129 33.6375 14.6569 34.1975 14.4969 34.5975C14.1769 34.9975 13.5849 36.2295 13.7769 37.9575C13.9689 39.6855 15.1369 39.6375 15.6969 39.3975C16.3369 39.0775 17.7609 38.3415 18.3369 37.9575C19.0569 37.4775 19.5369 37.4775 20.7369 37.9575C21.9369 38.4375 24.0969 41.0775 24.8169 39.8775C25.5369 38.6775 26.0169 36.9975 26.0169 35.7975C26.0169 34.8375 24.7369 34.9175 24.0969 35.0775Z" fill="#EC719D"/>
<path d="M15.2929 32.272C15.6874 32.2855 15.9514 32.3154 16.1709 32.3428C16.1984 32.3452 16.2259 32.3477 16.2534 32.3503C16.2574 32.3505 16.2692 32.3518 16.2731 32.3522C17.4513 32.5388 18.6301 32.7223 19.8108 32.8908C20.189 32.9448 20.5674 32.9973 20.9461 33.0478C21.2948 33.0944 21.6442 33.1398 21.9933 33.1842C22.1973 33.2033 22.3916 33.2193 22.5717 33.2344C22.825 33.2556 23.0508 33.2747 23.2364 33.2958C23.4271 33.3175 23.6282 33.3448 23.8251 33.3736C24.0511 33.3144 24.2663 33.2721 24.4523 33.24C24.5164 33.229 24.5742 33.2197 24.6304 33.2109C24.9336 33.1513 25.2413 33.1045 25.5511 33.0736C25.572 33.075 25.5935 33.0766 25.6148 33.0783C25.883 33.1022 26.2075 33.0771 26.7281 33.1195C26.9542 33.1406 27.2192 33.1755 27.5259 33.27C27.7233 33.3326 27.817 33.3938 27.8906 33.4425C27.9125 33.4572 27.933 33.4713 27.9534 33.4852C27.9632 33.4918 27.9732 33.4982 27.9834 33.5044C28.0429 33.5406 28.1114 33.5676 28.1906 33.6009C28.3092 33.6509 28.4527 33.7149 28.6097 33.8456C29.1036 34.2667 29.3209 34.4424 29.4993 34.5689C29.5506 34.6068 29.5968 34.6419 29.6409 34.6809C29.7845 34.8068 29.9552 35.0184 30.0693 35.1877C30.1612 35.321 30.3706 35.5655 30.5264 35.7544C30.5857 35.8255 30.657 35.9282 30.7378 36.0506C30.8214 36.1773 30.9156 36.3251 31.019 36.4814C31.1106 36.6198 31.1845 36.7374 31.2468 36.8381C31.3639 37.0284 31.4386 37.1614 31.5028 37.2759C31.5309 37.3264 31.5569 37.3735 31.5825 37.4203C31.6636 37.5685 31.7593 37.7539 31.8539 37.9411C31.9672 38.1652 32.0802 38.3919 32.1703 38.5613C32.3733 39.0137 32.5746 39.4652 32.8068 39.878C32.9267 40.0906 33.0266 40.2918 33.09 40.447C33.152 40.6026 33.181 40.7117 33.1359 40.7775C33.0938 40.8432 32.9521 40.8446 32.7736 40.7353C32.5957 40.6282 32.4117 40.4285 32.2687 40.2014C31.982 39.7446 31.7477 39.2762 31.5168 38.8111C31.2381 38.2483 30.9745 37.6816 30.6811 37.1559C30.6795 37.1531 30.678 37.1503 30.6764 37.1475C30.4654 36.7724 30.2407 36.4071 29.9958 36.0591C29.9705 36.0232 29.945 35.9876 29.9193 35.9522C29.6923 35.6756 29.4497 35.4181 29.2758 35.2425C29.1324 35.0972 29.0332 34.987 28.9462 34.8938C28.8864 34.8298 28.8321 34.7741 28.7723 34.7236C28.7401 34.6965 28.6956 34.6603 28.6411 34.6177C28.4335 34.4532 28.075 34.2052 27.7181 34.0008C27.6978 33.9888 27.6769 33.9771 27.6558 33.9656C27.5055 33.8833 27.3108 33.8028 27.1097 33.7458C26.8233 33.6632 26.5326 33.6264 26.3868 33.6281C26.1302 33.6304 25.8335 33.6311 25.5693 33.6455C25.3181 33.6586 25.0969 33.6823 24.975 33.7144C24.8288 33.753 24.7011 33.7684 24.5128 33.7969C24.3821 33.8171 24.2214 33.8433 24.0098 33.8972C23.9763 33.9058 23.9415 33.9147 23.9118 33.9225C23.8904 33.9281 23.832 33.934 23.8101 33.9305C23.6052 33.8982 23.4519 33.8682 23.3189 33.8423C23.1011 33.7999 22.937 33.7681 22.6884 33.7533C22.4123 33.7369 22.1247 33.7114 21.9004 33.675C21.7983 33.6584 21.6808 33.6437 21.5587 33.6281C21.3971 33.6075 21.2272 33.5857 21.0731 33.5578C20.9461 33.5348 20.8423 33.5055 20.7506 33.4795C20.722 33.4714 20.6943 33.4637 20.6676 33.4566C20.5658 33.4432 20.4639 33.4299 20.362 33.4167C20.3452 33.417 20.3275 33.4173 20.309 33.4177C20.2164 33.4196 20.1024 33.4219 19.9631 33.412C19.7426 33.3964 19.5517 33.3623 19.3504 33.3263C19.1938 33.2982 19.0307 33.269 18.8423 33.2466C18.7139 33.2312 18.5669 33.218 18.4214 33.2048C18.2053 33.1853 17.992 33.166 17.8453 33.1406C17.7903 33.1311 17.7438 33.1152 17.6981 33.0994L17.6976 33.0989C17.6945 33.0978 17.6913 33.0967 17.6883 33.0956C17.3282 33.055 16.968 33.0151 16.6078 32.9756C16.5764 32.9739 16.5445 32.9722 16.5131 32.9705C16.3972 32.9639 16.2836 32.9573 16.1925 32.9559L16.2103 32.9578C16.1809 32.9592 16.1539 32.961 16.1301 32.9634C16.0234 32.9741 15.772 32.9702 15.4964 32.9794C15.3187 32.9851 15.1375 32.9962 14.9873 33.0122C14.9003 33.0215 14.8175 33.0159 14.7328 33.0113C14.6529 33.0069 14.5688 33.0036 14.4801 33.0141C14.4356 33.0193 14.3881 33.0283 14.3376 33.038C14.293 33.0465 14.2471 33.0557 14.1965 33.0642C14.15 33.0721 14.0454 33.0797 13.9134 33.0923C13.8322 33.1001 13.7391 33.1099 13.6411 33.1233C13.387 33.1745 13.1329 33.2362 12.8854 33.3066C12.8349 33.3288 12.7922 33.3521 12.7603 33.3759C12.7375 33.393 12.719 33.4113 12.7003 33.4298C12.6749 33.455 12.6486 33.481 12.6103 33.5072C12.5801 33.5278 12.5429 33.5436 12.5147 33.5475C12.5017 33.5493 12.4911 33.5488 12.4814 33.548C12.4703 33.547 12.4602 33.5459 12.4495 33.5494C12.4418 33.5519 12.4344 33.5573 12.4256 33.5639C12.4116 33.5744 12.3936 33.5882 12.3628 33.5986C12.2476 33.6373 12.1177 33.68 11.9892 33.7256C11.8472 33.7759 11.7107 33.8283 11.6029 33.8766C11.4832 33.93 11.3082 33.9965 11.1347 34.0692C11.0147 34.1192 10.8924 34.1734 10.792 34.2239C10.6939 34.2732 10.5956 34.3351 10.5023 34.3964C10.3907 34.4697 10.2851 34.5427 10.1873 34.5933C10.1676 34.6035 10.1377 34.6083 10.1006 34.6144C10.0744 34.6187 10.0443 34.6236 10.0115 34.6317C9.89431 34.7089 9.77808 34.7885 9.66466 34.8689C9.66156 34.8731 9.65799 34.8777 9.65481 34.882L9.59575 34.9622C9.53042 35.0466 9.44256 35.1421 9.29763 35.2275C9.24909 35.2561 9.21276 35.2669 9.17997 35.2767C9.14765 35.2864 9.11909 35.2948 9.08575 35.3194C9.04784 35.3474 9.01022 35.3891 8.97044 35.4347C8.91447 35.4988 8.85452 35.5699 8.77544 35.6245C8.77009 35.6282 8.76406 35.6321 8.7581 35.6363C8.70104 35.676 8.61907 35.7336 8.527 35.7848C8.30532 35.9872 8.09137 36.1984 7.88622 36.4177C7.54477 36.7826 7.22385 37.175 6.94169 37.5853C6.80242 37.7876 6.65745 37.9688 6.52497 38.0967C6.39311 38.2232 6.28492 38.2806 6.21466 38.2472C6.14442 38.2152 6.11755 38.0916 6.15138 37.9008C6.1857 37.7091 6.27744 37.4744 6.412 37.2478C6.62949 36.8813 6.87012 36.531 7.13153 36.1955C7.14431 36.1775 7.15735 36.1594 7.17044 36.1416C7.26873 36.0075 7.35347 35.8779 7.44185 35.7488C7.46211 35.7191 7.48318 35.6889 7.50372 35.6597C7.65867 35.4346 8.0452 35.0775 8.26919 34.8938C8.27317 34.8904 8.27692 34.8868 8.28091 34.8834C8.33295 34.84 8.38215 34.7982 8.44028 34.7494C8.58122 34.6329 8.76487 34.4745 9.19216 34.1944C9.31073 34.1082 9.43339 34.0233 9.55731 33.9417C10.893 33.0588 12.4494 32.5138 14.0325 32.3541C14.0525 32.3513 14.0728 32.3483 14.0934 32.3456C14.4868 32.2921 14.9828 32.2603 15.2929 32.272Z" fill="black"/>
<path d="M14.737 30.7575C14.545 31.7175 17.537 33.2375 19.057 33.8775L20.2569 34.1175C21.4569 33.9575 24.0969 33.5415 25.0569 33.1575C26.0169 32.7735 25.1369 31.7175 24.5769 31.2375C24.0969 30.8375 22.9449 29.8935 22.1769 29.3175C21.4089 28.7415 20.2569 28.7575 19.7769 28.8375C18.1769 29.0775 14.929 29.7975 14.737 30.7575Z" fill="#FFE06A"/>
<path d="M15.3626 28.1297C15.2551 28.8632 14.7202 29.3923 14.1679 29.3114C13.6155 29.2305 13.2548 28.5702 13.3622 27.8367C13.4697 27.1031 14.0046 26.574 14.5569 26.6549C15.1093 26.7358 15.47 27.3961 15.3626 28.1297Z" fill="#231F20"/>
<path d="M27.8522 29.9694C27.6459 30.6815 27.044 31.1329 26.5078 30.9775C25.9715 30.8222 25.704 30.119 25.9103 29.4069C26.1166 28.6948 26.7185 28.2434 27.2547 28.3987C27.791 28.5541 28.0585 29.2573 27.8522 29.9694Z" fill="#231F20"/>
<path d="M22.005 7.40608C22.6442 7.34038 23.5164 7.34191 24.4158 7.45265C25.8834 7.63122 27.3335 7.97372 28.7288 8.47284C28.8024 8.49789 28.8761 8.52369 28.9493 8.54973C29.493 8.7436 29.9966 8.93241 30.4942 9.14044C30.6084 9.18825 30.7226 9.23724 30.8363 9.28749C31.7117 9.65367 33.2606 10.6339 34.0419 11.2635C34.0565 11.2748 34.0708 11.2863 34.0854 11.2976C34.2733 11.444 34.4495 11.5834 34.6535 11.7512C35.1317 12.1573 35.8065 12.6882 36.9725 14.0235C37.3157 14.4076 37.6444 14.8056 37.9567 15.2152C40.6246 18.6936 42.0987 23.1073 41.91 27.4975C41.9421 28.6686 41.8572 29.8471 41.625 31.0009C41.6119 31.0703 41.5977 31.1421 41.583 31.2135C41.3213 32.5979 40.6521 34.2349 40.0632 35.1638C39.3307 36.3539 38.6785 37.0504 38.1342 37.597C34.9858 40.7751 30.6258 42.2636 26.3614 42.908C25.0195 43.1084 23.6669 43.2249 22.3132 43.2742C22.3082 43.2743 22.3031 43.2745 22.2982 43.2747C21.0463 43.3196 19.7907 43.304 18.5398 43.2166C17.8129 43.1743 17.1193 43.1108 16.4777 43.0316C15.5783 42.921 14.779 42.7781 14.1291 42.6319C12.5511 42.2869 10.8217 41.6612 9.60054 41.0483C9.3999 40.9494 9.2157 40.8543 9.04274 40.7618C8.08072 40.265 7.1595 39.6791 6.30966 38.9965C6.25554 38.9475 6.2011 38.8974 6.1466 38.8463C5.47854 38.2043 4.61304 37.4372 3.60262 35.9466C3.16973 35.2953 2.72186 34.4995 2.33607 33.5037C2.08954 32.8574 2.01729 32.516 1.9526 32.2315C1.93476 32.1495 1.91881 32.0723 1.90223 31.9941C1.84579 31.7272 1.76549 31.4424 1.68544 31.1136C1.58118 30.6807 1.47111 30.1563 1.43696 29.4514C1.42532 29.2036 1.41933 28.9685 1.41648 28.7457C1.41058 26.9958 1.51001 26.149 1.56079 25.4875C1.58133 25.2689 1.60308 25.0721 1.63314 24.8709C1.72726 24.2174 1.96057 23.3058 2.19126 22.6353C2.36593 22.1015 2.71985 21.0362 3.04733 20.2476C3.16832 19.9497 3.35105 19.5519 3.58477 19.0958C3.82721 18.6222 4.12556 18.0842 4.46428 17.5211C5.33006 16.1002 5.89928 15.4158 6.34668 14.863C6.47576 14.7069 6.59812 14.5628 6.72226 14.4202C7.11379 13.9697 7.62388 13.4315 8.17193 12.9172C8.8251 12.3008 9.53361 11.7226 10.0886 11.3049C11.5499 10.2527 13.1462 9.3856 14.8209 8.73558C15.6834 8.39932 16.5422 8.17707 17.1907 8.07911C17.8341 7.98259 18.2123 8.005 18.2328 8.10036C18.2536 8.19807 17.9183 8.36236 17.3295 8.59566C16.7344 8.83066 15.936 9.12675 15.1115 9.46473C13.4539 10.1412 11.8856 11.0377 10.4571 12.1156C8.71692 13.428 7.1825 15.0078 5.91196 16.7767C5.02335 18.0137 4.26565 19.345 3.66291 20.7431C3.60078 20.8872 3.54036 21.0323 3.48168 21.1775C3.02471 22.3728 2.70712 23.6093 2.53672 24.4882C2.39414 25.2138 2.30947 25.7463 2.24723 26.2032C2.2051 26.5182 2.17498 26.7983 2.15906 27.0817C2.15057 27.2344 2.14196 27.443 2.13769 27.6941C2.13273 27.9846 2.13406 28.334 2.15006 28.7191C2.18668 29.6956 2.3413 30.901 2.63022 31.9944C2.80566 32.6754 3.06419 33.4453 3.38928 34.1541C3.84659 35.1695 4.44255 36.0349 4.77859 36.4381C5.36246 37.1535 6.10896 37.9115 6.83828 38.5055C7.53182 39.0759 8.19328 39.5016 8.58728 39.7159C9.0571 39.9697 9.45349 40.1948 10.0627 40.4958C10.4856 40.7025 11.0107 40.9447 11.7535 41.2163C12.6059 41.525 13.2288 41.7101 13.7553 41.858C14.5014 42.0628 15.0718 42.1967 15.9283 42.317C16.882 42.4497 17.8897 42.5395 18.6779 42.6008C19.0399 42.6296 19.4508 42.6508 19.8819 42.6636C20.4529 42.6809 21.0539 42.6825 21.5988 42.6819C21.8508 42.6817 22.0801 42.683 22.2917 42.6844C22.4586 42.6855 22.6135 42.6867 22.7595 42.6871C22.8628 42.6874 22.9618 42.6876 23.0573 42.6866C23.412 42.6663 23.7792 42.6395 24.1347 42.6081C24.1922 42.6 24.2525 42.5916 24.3153 42.5823C24.6349 42.535 25.0246 42.4735 25.5058 42.4011C26.2709 42.2853 26.9369 42.1861 27.6401 42.0572C28.1852 41.9565 28.7529 41.8373 29.3904 41.6615C29.8262 41.5413 30.3173 41.3865 30.7945 41.2169C31.5089 40.965 32.1936 40.6749 32.6666 40.4702C32.8455 40.3932 33.0013 40.3338 33.1544 40.2738C33.155 40.2735 33.156 40.273 33.1567 40.2727C33.167 40.2687 33.1774 40.2649 33.1877 40.2608C34.3161 39.7069 35.3919 39.0373 36.3593 38.244C36.4419 38.1736 36.5243 38.1016 36.6048 38.0297C37.002 37.6766 37.3605 37.3092 37.5774 37.0544C37.8137 36.7812 38.4205 36.1009 38.9349 35.2986C39.2752 34.7757 39.5774 34.206 39.7881 33.7239C39.9108 33.4448 40.0365 33.1786 40.1542 32.9043C40.2641 32.6481 40.3701 32.3754 40.4567 32.0748C40.5002 31.9237 40.5417 31.7565 40.5812 31.5787C40.6157 31.4236 40.6493 31.2581 40.6833 31.0834C40.7154 30.9184 40.7953 30.5674 40.8679 30.0964C40.9122 29.8109 40.9533 29.4801 40.9816 29.1321C41.0132 28.5929 41.016 28.0522 40.9918 27.5027L40.9917 27.4731C41.0011 27.0904 40.9977 26.712 40.9826 26.3313C40.9654 26.1384 40.943 25.9718 40.9169 25.8412C40.8982 25.7475 40.8772 25.6683 40.8552 25.5873C40.8251 25.4772 40.7933 25.3622 40.7601 25.2047C40.7342 25.0815 40.7124 24.9358 40.7064 24.8371C40.7037 24.7912 40.7045 24.7555 40.7051 24.7231C40.7057 24.6861 40.706 24.6527 40.7006 24.6131C40.6967 24.5846 40.6889 24.5552 40.6794 24.5191C40.6641 24.4614 40.6446 24.3861 40.6267 24.2705C40.5604 23.8406 40.4708 23.3535 40.3624 22.8814C40.2425 22.3557 40.0986 21.8488 39.9656 21.4497C39.8183 21.0031 39.6018 20.3673 39.3427 19.7457C39.1631 19.3119 38.9646 18.8845 38.7791 18.5255C38.5977 18.1735 38.3865 17.8182 38.1713 17.4819C37.9134 17.0781 37.649 16.7006 37.4313 16.3751C37.3873 16.3092 37.342 16.2204 37.2837 16.1098C37.2425 16.0315 37.1941 15.9416 37.1356 15.8417C36.8322 15.4437 36.5133 15.0565 36.1807 14.6822C36.1675 14.6704 36.1537 14.6583 36.14 14.6461L36.1395 14.6452C35.8281 14.3711 35.4011 14.0063 34.8523 13.4415C34.7123 13.298 34.6302 13.2002 34.5561 13.1122C34.4834 13.026 34.4179 12.949 34.3088 12.8514C34.1847 12.7406 34.0274 12.622 33.854 12.496C33.6109 12.3192 33.3352 12.1282 33.0722 11.9174C33.0543 11.9031 33.0348 11.8872 33.0147 11.8712C32.824 11.7193 32.5371 11.499 32.2529 11.275C31.3607 10.6849 30.4208 10.1665 29.4438 9.72787C27.815 8.99629 26.0845 8.48922 24.3118 8.23085C23.4509 8.10382 22.6195 8.01289 21.9984 7.93307C21.3825 7.85318 21.0237 7.77915 21.0202 7.68108C21.0162 7.58551 21.3703 7.4719 22.005 7.40608Z" fill="black"/>
<path d="M20.1446 28.5466C20.4401 28.5379 20.7346 28.5561 21.0272 28.6033C21.2967 28.6472 21.5657 28.7173 21.8251 28.8269C21.9786 28.8844 22.1228 28.9522 22.2516 29.0285C22.2848 29.0481 22.3171 29.0683 22.3482 29.0889C22.4708 29.1689 22.5801 29.2427 22.6707 29.3088C22.9371 29.5032 23.2214 29.7461 23.431 29.927C23.4653 29.9566 23.4976 29.9846 23.5276 30.0105C23.7022 30.1442 23.8765 30.2784 24.0507 30.4131C24.0601 30.4247 24.0691 30.4362 24.0788 30.4483C24.1986 30.5992 24.3759 30.7437 24.6568 30.9756C24.683 30.9973 24.7115 31.0205 24.7388 31.0431C24.8482 31.1368 24.963 31.2453 25.0833 31.3774C25.1822 31.4866 25.2177 31.5564 25.2465 31.6127C25.2549 31.6293 25.2625 31.6451 25.2708 31.6605C25.2993 31.7134 25.3455 31.7567 25.3988 31.8114C25.4672 31.8824 25.5513 31.9731 25.6046 32.1306C25.7873 32.6295 25.6486 32.9978 25.5165 33.1591C25.4789 33.2094 25.4378 33.2522 25.3946 33.287C25.3291 33.3396 25.248 33.3826 25.1597 33.4145C25.0694 33.4468 24.9704 33.4716 24.8907 33.4863C24.772 33.5094 24.5513 33.5886 24.3844 33.6508C24.3213 33.6745 24.2346 33.6962 24.1304 33.7211C24.0248 33.7464 23.9005 33.7748 23.7704 33.8116C23.4409 33.9041 23.265 33.9482 23.1235 33.9841C23.0834 33.9942 23.0457 34.0033 23.0082 34.0127C22.8898 34.0422 22.742 34.0756 22.5924 34.1083C22.4137 34.1474 22.2316 34.1859 22.0941 34.2185C21.7307 34.2698 21.3686 34.3147 21.0038 34.3567C20.817 34.3782 20.6331 34.3688 20.4938 34.3291C20.3562 34.2891 20.2699 34.2234 20.2608 34.1449C20.2491 34.0667 20.3147 33.981 20.4347 33.9053C20.5567 33.8294 20.7285 33.7692 20.9115 33.7356C21.2807 33.668 21.6473 33.5971 22.0149 33.5247C22.462 33.4365 22.9082 33.3464 23.3518 33.2552C23.6622 33.1911 23.972 33.1247 24.2733 33.0499C24.305 33.042 24.3365 33.0338 24.3671 33.026C24.5732 32.9535 24.7793 32.8733 24.9174 32.8089C24.9391 32.7986 24.9571 32.7891 24.9722 32.7803C25.0564 32.7309 25.0809 32.7102 25.1016 32.695C25.115 32.6841 25.1251 32.6723 25.1274 32.6524C25.1285 32.6418 25.1291 32.6255 25.126 32.6003C25.1244 32.5014 24.9858 32.2237 24.8063 31.9797C24.7295 31.8702 24.6338 31.7409 24.5344 31.623C24.4849 31.5641 24.4348 31.5081 24.3872 31.4589C24.2925 31.3644 24.2041 31.2813 24.1463 31.2391C23.9888 31.1239 23.8208 30.9736 23.6733 30.8425C23.5318 30.7167 23.4079 30.6077 23.3265 30.5589C23.2293 30.5008 23.1587 30.4358 23.0537 30.3395C22.9808 30.2728 22.8909 30.1909 22.764 30.0864C22.6176 29.966 22.5188 29.875 22.4344 29.7977C22.3161 29.6892 22.2257 29.6069 22.0716 29.5136C22.062 29.5078 22.0525 29.502 22.043 29.4963C21.8973 29.4093 21.7384 29.338 21.6108 29.2778C21.5492 29.2485 21.4751 29.2215 21.3966 29.1972C21.2927 29.1649 21.1805 29.1376 21.0779 29.1095C20.9933 29.0864 20.924 29.0596 20.8613 29.0374C20.8419 29.0305 20.8225 29.0239 20.8041 29.0181C20.7337 29.0099 20.6623 29.004 20.5913 28.9999C20.5796 29.0016 20.5674 29.0034 20.5547 29.0055C20.4903 29.0161 20.4123 29.0308 20.3166 29.0397C20.1652 29.0542 20.033 29.0534 19.8966 29.0613C19.8693 29.0629 19.8417 29.0647 19.8155 29.0674C19.7274 29.0757 19.6342 29.0869 19.5347 29.1053C19.4432 29.1223 19.3381 29.1469 19.2371 29.1714C19.084 29.2083 18.9354 29.2461 18.8288 29.2614C18.7884 29.2672 18.753 29.2645 18.7177 29.2619L18.7172 29.2614C18.7149 29.2612 18.7126 29.2611 18.7102 29.261C18.4556 29.3203 18.2019 29.3849 17.9504 29.4541C17.9291 29.4617 17.9075 29.4694 17.8862 29.477C17.7814 29.5147 17.6806 29.5521 17.6171 29.5853C17.5483 29.6213 17.3673 29.6794 17.1793 29.7452C17.056 29.7881 16.9292 29.8345 16.8287 29.8769C16.7691 29.9019 16.7085 29.9114 16.6468 29.9214C16.5883 29.9311 16.5288 29.9416 16.4691 29.9655C16.4388 29.9776 16.4065 29.9934 16.373 30.0105C16.3435 30.0256 16.3134 30.0414 16.2802 30.0569C16.2488 30.0715 16.1779 30.0929 16.0866 30.1235C16.0297 30.1426 15.9685 30.1636 15.9019 30.1895C15.7371 30.2714 15.5784 30.3599 15.4383 30.4572C15.4124 30.4844 15.3941 30.5109 15.384 30.536C15.3767 30.5539 15.3735 30.5719 15.3694 30.5908C15.3644 30.6162 15.3599 30.6422 15.3502 30.6686C15.3431 30.6888 15.3289 30.7071 15.3155 30.7131C15.3093 30.716 15.303 30.7165 15.2972 30.7169C15.2907 30.7173 15.2846 30.7177 15.2808 30.7216C15.2782 30.7244 15.2774 30.7293 15.2766 30.7352C15.2752 30.7448 15.2734 30.7576 15.2644 30.768C15.2305 30.8061 15.2078 30.8429 15.2044 30.8491C15.2035 30.8504 15.2029 30.8507 15.2026 30.8505C15.2017 30.8419 15.1979 30.8529 15.2072 30.8767C15.2174 30.9054 15.2423 30.9858 15.2996 31.0788C15.3373 31.1417 15.3869 31.209 15.4365 31.2644C15.4831 31.3169 15.5448 31.3668 15.6052 31.4125C15.6782 31.468 15.7525 31.5203 15.8054 31.5747C15.8162 31.5858 15.8237 31.6073 15.834 31.6342C15.8411 31.6533 15.8505 31.6759 15.8616 31.6985C15.94 31.7581 16.022 31.818 16.1044 31.8766C16.1083 31.8773 16.1126 31.8782 16.1166 31.8789C16.2068 31.8951 16.3291 31.9156 16.4466 32.028C16.4769 32.0568 16.4914 32.0833 16.5038 32.1067C16.5161 32.1297 16.5274 32.1502 16.5516 32.1681C16.579 32.1884 16.6178 32.2035 16.6594 32.2188C16.7181 32.2403 16.7848 32.2641 16.838 32.3102C16.8416 32.3133 16.8457 32.317 16.8497 32.3205C16.8883 32.3536 16.9462 32.4026 16.9974 32.4625C17.1857 32.5782 17.3762 32.6917 17.5688 32.8028C17.8894 32.9878 18.217 33.1678 18.5457 33.3386C18.7076 33.4227 18.8491 33.5253 18.9446 33.6302C19.0393 33.7348 19.0767 33.8316 19.0463 33.903C19.0167 33.9746 18.9207 34.0162 18.7768 34.0174C18.6324 34.0182 18.4565 33.9794 18.2827 33.9086C18.0026 33.7944 17.7234 33.6748 17.4469 33.5481C17.432 33.5423 17.4168 33.5363 17.4019 33.5303C17.2914 33.4859 17.1838 33.4542 17.0762 33.4216C17.0515 33.4141 17.0268 33.4064 17.0021 33.3986C16.8132 33.3402 16.4922 33.1428 16.3187 33.0283C16.3155 33.0262 16.3125 33.0238 16.3093 33.0217C16.2679 32.9947 16.228 32.9705 16.1818 32.9416C16.0706 32.8708 15.9214 32.7803 15.6272 32.5478C15.5378 32.4864 15.4476 32.4216 15.361 32.3556C15.1357 32.1832 14.9122 31.9944 14.7071 31.758C14.5206 31.5189 14.2401 31.2226 14.3227 30.6747C14.4771 30.1283 14.8335 29.9611 15.1032 29.7855C15.3916 29.6202 15.6773 29.5048 15.9662 29.4011C15.9798 29.3956 15.9937 29.3899 16.0079 29.3842C16.2804 29.2741 16.619 29.1592 16.838 29.1081C17.1159 29.043 17.3053 29.0095 17.4615 28.983C18.2168 28.8144 18.9761 28.6838 19.7387 28.5808C19.8751 28.5606 20.0095 28.5509 20.1446 28.5466Z" fill="black"/>
<path d="M14.6652 33.9681C15.1947 33.6452 15.538 33.7643 15.7537 33.7909C15.8164 33.8037 15.8766 33.8191 15.9327 33.8354C16.1144 33.8878 16.3235 33.9786 16.5182 34.0867C16.643 34.1557 16.7581 34.2276 16.8684 34.3014C16.958 34.361 17.0425 34.4147 17.1159 34.4593C17.5023 34.7343 17.8986 34.9907 18.3102 35.1995C18.5207 35.3063 18.7144 35.4188 18.8507 35.5168C18.9866 35.616 19.0543 35.6911 19.057 35.77C19.063 35.8498 18.9362 35.9253 18.7363 35.9289C18.5356 35.9343 18.2809 35.8735 18.0421 35.7672C17.5602 35.5521 17.1119 35.2901 16.6804 35.0064C16.6087 34.9591 16.539 34.9121 16.4676 34.8629C16.0648 34.5852 15.5972 34.3652 15.2366 34.4167C15.0393 34.4414 14.8776 34.5672 14.812 34.7237C14.8036 34.7429 14.7752 34.7937 14.7618 34.8095C14.7021 34.8832 14.6401 34.9806 14.5851 35.0795C14.5661 35.1137 14.5476 35.149 14.5293 35.185C14.4004 35.4879 14.3166 35.8135 14.2668 36.0428C14.2254 36.2327 14.191 36.3707 14.1637 36.49C14.145 36.5726 14.1304 36.6465 14.1234 36.7211C14.1196 36.7615 14.1152 36.8165 14.1116 36.8832C14.097 37.1288 14.101 37.5304 14.1337 37.9178C14.137 37.96 14.141 38.001 14.1449 38.0401C14.1626 38.2186 14.1935 38.4232 14.2523 38.5993C14.3325 38.855 14.4844 39.035 14.5827 39.0906C14.7477 39.1948 14.9736 39.2568 15.194 39.2462C15.3485 39.2407 15.4917 39.2033 15.5849 39.1609C15.616 39.1441 15.6461 39.1273 15.6688 39.1126C15.7964 39.0308 15.9121 38.9792 16.0865 38.9003C16.2071 38.8457 16.3545 38.7787 16.5515 38.679C16.7782 38.5642 16.9419 38.4888 17.0807 38.4245C17.2758 38.3339 17.4229 38.2648 17.623 38.1306C17.8233 37.9959 18.0338 37.8579 18.1991 37.7509C18.2192 37.7378 18.239 37.7255 18.2582 37.7139C18.3503 37.6582 18.4571 37.5937 18.5784 37.5348C18.7374 37.4566 18.9266 37.3931 19.1048 37.3754C19.2515 37.3603 19.3716 37.3766 19.4727 37.3961C19.5047 37.4022 19.5343 37.4087 19.5632 37.4153C19.6726 37.4265 19.7791 37.4454 19.8829 37.4687C19.9001 37.4701 19.919 37.4718 19.9373 37.4734C20.0331 37.4824 20.149 37.497 20.2865 37.5329C20.4876 37.5858 20.6556 37.657 20.8265 37.734C20.841 37.7405 20.8554 37.7476 20.8701 37.7547C21.0293 37.8315 21.1758 37.9258 21.3384 38.0289C21.4484 38.0988 21.5744 38.1803 21.6946 38.2618C21.8741 38.3835 22.0461 38.5073 22.1568 38.6022C22.1984 38.6378 22.2293 38.6751 22.2595 38.7114L22.2599 38.7118C22.262 38.7143 22.264 38.7169 22.266 38.7193C22.5477 38.9341 22.8272 39.1488 23.1102 39.3451C23.1361 39.3609 23.162 39.3767 23.1876 39.392C23.3123 39.467 23.4361 39.5356 23.5199 39.5692C23.6107 39.6054 23.8273 39.7288 24.0374 39.7932C24.1757 39.8378 24.3025 39.842 24.3529 39.8186C24.3837 39.8058 24.4052 39.8067 24.4387 39.7937C24.4679 39.7823 24.5039 39.7582 24.5324 39.707C24.5332 39.7056 24.534 39.7041 24.5348 39.7028C24.5556 39.6657 24.5756 39.6232 24.5962 39.5781C24.6142 39.5386 24.6332 39.4958 24.6538 39.4525C24.6731 39.412 24.7255 39.3266 24.7888 39.2143C24.828 39.145 24.8714 39.0654 24.9145 38.9804C25.0132 38.7485 25.1019 38.5115 25.1816 38.2717C25.1912 38.2191 25.1955 38.1722 25.1934 38.1334C25.1919 38.1056 25.1871 38.0805 25.1821 38.0551C25.1754 38.0206 25.1683 37.9851 25.168 37.9393C25.1678 37.9035 25.1759 37.8638 25.1882 37.8395C25.1939 37.8282 25.2004 37.8201 25.2065 37.8128C25.2134 37.8044 25.2198 37.797 25.2229 37.7865C25.2251 37.779 25.2244 37.77 25.2238 37.7593C25.2229 37.7423 25.2218 37.72 25.2304 37.6895C25.2624 37.5757 25.2996 37.4465 25.333 37.3197C25.3704 37.1782 25.4032 37.0387 25.4226 36.9273C25.4445 36.8024 25.4859 36.6268 25.5191 36.4501C25.5425 36.327 25.5617 36.2031 25.5716 36.0976C25.581 35.9988 25.5797 35.8951 25.574 35.7976C25.5737 35.7946 25.5734 35.7912 25.5731 35.7882C25.5644 35.7079 25.5423 35.665 25.5351 35.6312C25.5334 35.624 25.5396 35.6107 25.5445 35.5918C25.5479 35.5785 25.5506 35.5624 25.5491 35.5445C25.5083 35.501 25.4388 35.458 25.3457 35.4264C25.342 35.4268 25.3379 35.4273 25.334 35.4278H25.3335C25.2434 35.4398 25.1273 35.4663 24.9454 35.4292C24.8988 35.4199 24.8682 35.4054 24.8404 35.3926C24.8131 35.3802 24.7882 35.3693 24.7518 35.3687C24.7104 35.368 24.6617 35.3796 24.6093 35.3936C24.5358 35.4132 24.455 35.4378 24.3702 35.4404C24.3646 35.4406 24.358 35.4411 24.3515 35.4414C24.3086 35.4431 24.2504 35.4462 24.1893 35.4475C24.1867 35.4481 24.1791 35.4498 24.1766 35.4503C24.1465 35.4508 24.1152 35.4508 24.0838 35.4493C23.7866 35.5057 23.489 35.5608 23.1913 35.6153C22.6951 35.7061 22.1983 35.7947 21.7016 35.8834C21.46 35.9265 21.2221 35.9406 21.0402 35.92C20.8585 35.8993 20.7477 35.8462 20.7313 35.7704C20.7151 35.6946 20.7947 35.6009 20.9521 35.5075C21.1095 35.4142 21.3319 35.3291 21.5699 35.2693C21.9582 35.1721 22.3467 35.0749 22.7352 34.9787C22.7554 34.9728 22.7756 34.9667 22.7957 34.9609C22.9459 34.9176 23.0829 34.8659 23.2199 34.8142C23.2514 34.8023 23.283 34.7903 23.3146 34.7786C23.4783 34.7176 23.7538 34.6577 23.9966 34.6103L23.9812 34.614C24.1127 34.5834 24.2348 34.5646 24.3318 34.5526C24.3373 34.5519 24.3431 34.5514 24.3487 34.5507C24.4207 34.5422 24.4889 34.5344 24.5695 34.5278C24.7647 34.526 25.014 34.4527 25.6181 34.6492C25.7952 34.7088 25.9875 34.8075 26.1473 34.975C26.3713 35.2028 26.4618 35.5362 26.4562 35.7976C26.4173 37.2233 25.9819 38.5238 25.3279 39.7304C25.3187 39.7481 25.3093 39.7663 25.2998 39.7843C25.2512 39.8764 25.1968 39.9742 25.1395 40.0712C25.037 40.252 24.8393 40.4457 24.6046 40.5165C24.3718 40.5897 24.1742 40.5603 24.0374 40.5282C23.5717 40.3953 23.3725 40.2183 23.1866 40.0947C22.2564 39.4723 21.5035 38.621 20.6413 38.1967C20.5361 38.1531 20.4318 38.1118 20.3277 38.0729C19.9899 37.9478 19.6459 37.8411 19.3316 37.8465C19.0439 37.8484 18.7762 37.9675 18.5076 38.147C18.4977 38.1541 18.4876 38.1612 18.4776 38.1686C18.3182 38.2835 18.1683 38.3822 18.0276 38.4737C17.8159 38.6108 17.6262 38.7278 17.4665 38.8192C17.0822 39.0389 16.6323 39.2588 16.297 39.4192C16.2426 39.4452 16.1909 39.4695 16.1423 39.4928C16.0375 39.5484 15.9324 39.6045 15.8277 39.6592C15.8247 39.6608 15.8155 39.6647 15.8123 39.6662C15.6177 39.7522 15.4154 39.8024 15.2038 39.8186C15.1803 39.8168 15.1564 39.8144 15.1321 39.8115C14.8452 39.7704 14.4077 39.7289 14.0109 39.2795C13.8459 39.0884 13.712 38.8284 13.6302 38.5243C13.5781 38.3268 13.5806 38.2235 13.5801 38.1381C13.5804 38.114 13.5807 38.0909 13.5805 38.0678C13.5804 38.0393 13.5778 38.0104 13.5735 37.9801C13.5661 37.9279 13.5532 37.8735 13.5398 37.8132C13.5126 37.6896 13.4827 37.5405 13.499 37.3412C13.5576 36.7089 13.579 36.4345 13.5838 36.219C13.5865 36.1563 13.5899 36.099 13.5979 36.0414C13.6231 35.8536 13.7091 35.5965 13.7962 35.4118C13.8629 35.2646 13.9704 34.9613 14.0812 34.7322C14.1172 34.6572 14.1704 34.5644 14.2523 34.4561C14.3329 34.2765 14.4713 34.1022 14.6652 33.9681Z" fill="black"/>
<path d="M33.2899 7.7071C34.9278 7.4867 38.5764 7.81133 40.6569 10.8375C43.2969 14.6775 42.3369 17.7975 41.8569 19.2375C42.6569 19.8775 44.1129 21.3975 43.5369 22.3575C42.9609 23.3175 40.8969 24.0375 39.9369 24.2775C38.2569 23.6375 34.2729 21.5895 31.7769 18.5175C28.6569 14.6775 28.1769 10.5975 28.1769 8.4375L29.8569 6.5175C30.3369 5.9575 31.5369 5.1735 32.4969 6.5175C33.006 7.23025 33.2226 7.56951 33.2899 7.7071Z" fill="white"/>
<path d="M30.0084 5.86471C30.3822 5.5901 30.8754 5.38604 31.3996 5.44752C31.9256 5.50613 32.3524 5.8243 32.6465 6.16471C32.6867 6.21083 32.7238 6.25739 32.7609 6.30674C32.9887 6.61112 33.1477 6.93007 33.2306 7.18893C33.2826 7.35176 33.3019 7.4828 33.2981 7.57284C33.3706 7.52426 33.4879 7.47408 33.6463 7.43127C33.9421 7.3516 34.3463 7.30959 34.7713 7.33002C35.4598 7.36266 36.1469 7.47099 36.8146 7.65768C36.8503 7.6667 36.8855 7.67589 36.9206 7.68534C37.1826 7.7562 37.426 7.82181 37.6692 7.89909C37.7254 7.91704 37.7803 7.93517 37.836 7.9544C38.2645 8.09057 39.0152 8.53733 39.3852 8.84034C39.3921 8.84567 39.399 8.85138 39.4059 8.85674C39.4943 8.92609 39.5795 8.9938 39.6749 9.07377C39.8998 9.27007 40.2235 9.52711 40.732 10.1983C40.8337 10.3267 40.9272 10.453 41.0202 10.5878C41.067 10.6557 41.1125 10.7237 41.1571 10.7913C42.6046 12.9066 43.2435 15.7103 42.5437 18.2214C42.5362 18.2533 42.5285 18.2855 42.5207 18.3175C42.4593 18.5714 42.379 18.8479 42.2948 19.1125C42.4645 19.2608 42.613 19.4053 42.7317 19.5311C43.174 20.0033 43.4275 20.3739 43.6092 20.7011C43.8767 21.1731 44.1769 21.8589 43.7929 22.511C42.771 23.7964 41.3493 24.1237 39.9988 24.5252C39.964 24.5345 39.88 24.528 39.846 24.5158C39.7896 24.4939 39.7291 24.4698 39.6693 24.4455C39.0876 24.2075 38.522 23.9348 37.9673 23.6458C37.4584 23.38 36.9546 23.095 36.464 22.7964C36.1734 22.6275 35.9008 22.4635 35.6493 22.3061C35.2961 22.0851 34.9884 21.8794 34.7395 21.7C34.1386 21.2696 33.5005 20.7218 33.051 20.2891C32.9774 20.2187 32.9083 20.1511 32.8448 20.0885C32.4831 19.7497 32.1347 19.3949 31.8051 19.0216C31.7857 18.9944 31.7665 18.9667 31.747 18.9386C31.6914 18.8588 31.6314 18.776 31.567 18.6878C31.3484 18.3878 31.0697 18.0326 30.7143 17.5103C30.5148 17.2159 30.2918 16.8673 30.0543 16.4449C29.9006 16.1703 29.8417 16.0212 29.7923 15.8983C29.778 15.8624 29.7645 15.8288 29.7506 15.7952C29.7032 15.6804 29.6329 15.5645 29.5542 15.4305C29.4513 15.2549 29.3302 15.0419 29.2213 14.7381C28.8815 13.7691 28.7283 13.3493 28.5979 13.0296C28.5614 12.9368 28.5281 12.8506 28.499 12.7619C28.4039 12.4752 28.3151 12.053 28.2684 11.7302C28.2293 11.4751 28.1221 10.9713 28.0518 10.5855C28.0247 10.4405 27.9996 10.242 27.9759 10.0061C27.9515 9.76416 27.9288 9.48219 27.906 9.18018C27.8838 8.88447 27.8735 8.64107 27.8681 8.43768C27.8671 8.38352 27.9095 8.27576 27.9445 8.23424C28.1474 7.98956 28.2919 7.8157 28.4174 7.66471C28.4758 7.59447 28.5305 7.529 28.5848 7.46362C28.7566 7.25685 28.9719 7.00192 29.1899 6.74409C29.3231 6.58656 29.4573 6.42785 29.5832 6.27815C29.7205 6.11267 29.8687 5.97487 30.0084 5.86471ZM32.1787 6.58424C31.6773 5.99177 30.9326 5.96979 30.3684 6.46799C30.2728 6.54719 30.1828 6.63681 30.1049 6.73002C29.5781 7.34538 29.0503 7.95596 28.5196 8.56377C28.5256 9.24313 28.5768 9.92426 28.6692 10.5977C28.6789 10.669 28.6888 10.7389 28.6996 10.8105C28.8085 11.3885 28.9532 11.9541 29.0638 12.3508C29.1546 12.6776 29.2161 12.9181 29.2715 13.1238C29.3092 13.2634 29.3459 13.3907 29.3887 13.5124C29.4118 13.5782 29.4448 13.6696 29.4857 13.7777C29.6503 14.2196 29.968 14.9597 30.2906 15.6147C30.4335 15.9087 30.6018 16.2437 30.7776 16.5621C31.0268 17.016 31.285 17.4228 31.4348 17.6181C31.609 17.8462 31.7996 18.0988 31.9921 18.3428C32.0843 18.4598 32.1771 18.5746 32.2677 18.6831C32.5323 19.0003 32.7802 19.2655 32.9348 19.4022C33.1197 19.5653 33.2657 19.7164 33.4893 19.9347C33.6449 20.086 33.8382 20.2694 34.1142 20.5042C34.4329 20.7746 34.6621 20.9655 34.8567 21.1249C35.1326 21.3494 35.3431 21.5141 35.6817 21.7253C36.0579 21.9596 36.4539 22.1984 36.7617 22.3938C36.9008 22.4823 37.0639 22.5791 37.236 22.6783C37.4604 22.8077 37.7049 22.9428 37.9199 23.0669C38.101 23.1713 38.2453 23.2636 38.3727 23.3439C38.4119 23.3686 38.4525 23.3938 38.4899 23.4166C38.6361 23.4898 38.7849 23.5622 38.9348 23.6327C38.9601 23.6419 38.9866 23.6516 39.014 23.6613C39.1518 23.7101 39.3258 23.7709 39.5315 23.8502C39.6791 23.9071 39.8195 23.9635 39.9534 24.0166C40.0713 23.988 40.19 23.9591 40.3101 23.9266C40.554 23.8602 40.8067 23.7837 41.0873 23.6749C41.2789 23.6005 41.4929 23.5063 41.6999 23.4053C42.0082 23.256 42.2988 23.0883 42.4954 22.9713C42.5697 22.9274 42.636 22.8949 42.7012 22.8611H42.7021C42.7065 22.8589 42.7109 22.8564 42.7152 22.8541C42.9637 22.6738 43.1938 22.465 43.3288 22.2325C43.4254 22.0668 43.4395 21.8657 43.3912 21.6522C43.3801 21.6105 43.3674 21.5699 43.3523 21.528C43.2796 21.3265 43.1625 21.1348 43.0743 21.0194C42.9813 20.8931 42.7461 20.5667 42.4448 20.2563C42.25 20.0525 42.0319 19.8525 41.8471 19.7036C41.7713 19.6424 41.7012 19.5787 41.6334 19.5166C41.5293 19.4301 41.4725 19.2518 41.5176 19.1242C41.5328 19.0867 41.5491 19.0483 41.5654 19.0085C41.6149 18.8884 41.6655 18.7617 41.7046 18.6227C41.7246 18.5518 41.7425 18.4764 41.7609 18.3939C41.7772 18.3205 41.7926 18.2469 41.8106 18.1656C41.8263 18.0936 41.8724 17.931 41.9217 17.7217C41.9522 17.592 41.9836 17.4438 42.0107 17.2886C42.0663 16.8734 42.0906 16.4566 42.0815 16.0403C42.072 15.9526 42.0588 15.8788 42.0421 15.82C42.0301 15.7779 42.016 15.742 42.0013 15.7052C41.9814 15.6555 41.9604 15.6059 41.9409 15.5355C41.9256 15.4805 41.9156 15.414 41.916 15.3705C41.9162 15.3501 41.9185 15.334 41.9207 15.3194C41.9232 15.3027 41.9251 15.2875 41.9231 15.2697C41.9215 15.2569 41.9173 15.2436 41.9118 15.2275C41.903 15.202 41.8915 15.1675 41.8846 15.1169C41.8588 14.9252 41.8242 14.7052 41.781 14.4935C41.733 14.2555 41.6737 14.0269 41.6174 13.8485C41.5538 13.6449 41.469 13.3597 41.3634 13.0722C41.2917 12.8755 41.2107 12.6771 41.1337 12.5111C41.0582 12.3481 40.9663 12.1843 40.874 12.0297C40.7629 11.8433 40.6501 11.6681 40.5632 11.5113C40.5458 11.4797 40.531 11.4336 40.514 11.3796C40.5017 11.3408 40.487 11.2957 40.4676 11.246C40.4259 11.1828 40.3833 11.1193 40.3396 11.0556C40.2541 10.931 40.1682 10.8143 40.0752 10.6956C40.0691 10.6905 40.0629 10.685 40.0565 10.6797H40.056C39.9123 10.5615 39.7153 10.4055 39.4912 10.1402C39.4336 10.0724 39.4028 10.0233 39.3749 9.9794C39.3474 9.9363 39.3231 9.89859 39.2756 9.8533C39.2217 9.8021 39.1501 9.75138 39.0717 9.69862C38.9596 9.62293 38.8351 9.54465 38.7201 9.44737C38.7123 9.44077 38.704 9.43359 38.6952 9.42627C38.6127 9.35696 38.486 9.2555 38.3634 9.14924C37.9596 8.89333 37.5302 8.67841 37.0809 8.50284C36.3332 8.21093 35.5351 8.02856 34.7296 7.95674C34.3349 7.92133 33.9616 7.8901 33.6759 7.85221C33.4177 7.81726 33.2547 7.77548 33.2198 7.70971C33.1435 7.71007 33.0236 7.59271 32.8551 7.3933C32.6929 7.20107 32.4954 6.94844 32.2762 6.69346C32.2434 6.65528 32.2115 6.61968 32.1787 6.58424Z" fill="black"/>
<path d="M35.3768 16.5975C30.9608 12.1815 30.9768 7.55749 31.5368 5.79749C30.7687 5.60549 30.0968 6.19749 29.8568 6.51749C29.6968 6.99749 29.5208 8.62949 30.0968 11.3175C30.8168 14.6775 32.9768 17.3175 35.6168 19.7175C37.7288 21.6375 41.1368 22.9175 42.5768 23.3175L43.2968 22.5975C43.8728 21.8295 43.5368 21.4775 43.2968 21.3975C39.8408 20.4375 36.5768 17.7975 35.3768 16.5975Z" fill="#F1729E"/>
<path d="M29.9938 5.89547C30.3343 5.62412 30.7766 5.4871 31.1006 5.52422C31.4258 5.55936 31.5637 5.69881 31.5435 5.77031C31.5397 5.78518 31.5298 5.79707 31.5163 5.80875C31.5337 5.80286 31.5491 5.80102 31.5632 5.80593C31.6381 5.82881 31.6621 5.98638 31.6649 6.24422C31.6674 6.50174 31.6529 6.84033 31.6382 7.19578C31.6133 7.77742 31.6527 8.36213 31.7399 8.93765C31.7455 8.96775 31.7511 8.99825 31.7568 9.02859C31.7989 9.25187 31.8571 9.45654 31.9204 9.65812C31.935 9.70469 31.95 9.75256 31.9649 9.79781C32.0748 10.1522 32.2569 10.8365 32.3882 11.2083C32.3905 11.215 32.3925 11.2217 32.3948 11.2284C32.4245 11.3158 32.4552 11.3983 32.4927 11.4956C32.5828 11.7225 32.6994 12.0372 32.9962 12.6689C33.0888 12.8459 33.1896 13.0287 33.2896 13.2014C33.9412 14.3271 34.7507 15.3634 35.669 16.305C36.2925 16.9378 36.9934 17.5305 37.7141 18.0858C37.737 18.1025 37.7601 18.1194 37.7835 18.1364C38.2362 18.467 38.8142 18.8503 39.1771 19.0927C39.6378 19.4021 39.9575 19.6013 40.2215 19.7625C41.2209 20.332 42.2721 20.8167 43.3696 21.1364C43.3724 21.1371 43.3802 21.1398 43.3827 21.1406C43.7492 21.2482 43.9436 21.704 43.8656 22.0087C43.807 22.3197 43.6559 22.5454 43.5027 22.7517C43.4984 22.7577 43.484 22.774 43.4788 22.7794C43.3655 22.891 43.2522 23.0027 43.139 23.1145C43.0107 23.2412 42.8826 23.3682 42.7546 23.4952C42.7017 23.5502 42.5834 23.5784 42.5095 23.5594C42.1327 23.4525 41.7619 23.3297 41.3971 23.2003C40.9011 23.0239 40.4125 22.8322 39.9285 22.6256C39.6437 22.5114 39.376 22.3994 39.1279 22.2909C38.7796 22.1388 38.4726 21.9941 38.2237 21.8648C37.6239 21.5558 36.9744 21.1413 36.5141 20.8017C36.4385 20.7464 36.3676 20.6936 36.3027 20.6442C35.9972 20.4248 35.6995 20.1908 35.4154 19.9387C35.3574 19.8873 35.2995 19.8358 35.242 19.7841C35.222 19.7615 35.2022 19.7384 35.182 19.7152C34.9298 19.4244 34.5852 19.1052 34.0663 18.5756C33.8409 18.3445 33.583 18.0725 33.2924 17.7403C33.1056 17.5261 33.0238 17.4034 32.9573 17.3039C32.9378 17.2747 32.9195 17.247 32.9006 17.2195C32.8352 17.1251 32.7509 17.0392 32.6516 16.9359C32.5234 16.8023 32.3699 16.6401 32.2101 16.3931C31.7062 15.6048 31.4725 15.2677 31.2857 15.0141C31.232 14.9394 31.184 14.8707 31.1385 14.7984C30.9903 14.5645 30.821 14.2068 30.7134 13.9284C30.6259 13.7088 30.4248 13.2815 30.2849 12.9497C30.2315 12.8248 30.1702 12.6507 30.1049 12.4444C30.0372 12.2304 29.9654 11.9814 29.8912 11.7131C29.858 11.5934 29.8296 11.483 29.8045 11.3803C29.6898 10.9099 29.6324 10.6217 29.586 10.3819C29.5699 10.2973 29.556 10.2217 29.542 10.1428C29.498 9.89764 29.4514 9.59038 29.4149 9.27703C29.3707 8.90276 29.3424 8.51862 29.3273 8.22515C29.3307 7.6296 29.3324 7.06091 29.5251 6.40687C29.5321 6.38437 29.5633 6.32663 29.5771 6.3075C29.7053 6.14358 29.8422 6.01458 29.9938 5.89547ZM31.4559 5.84484C31.3832 5.8761 31.2715 5.90402 31.1376 5.95031C30.9137 6.02548 30.642 6.17123 30.3871 6.38578C30.2918 6.46528 30.2005 6.55707 30.1274 6.64922C30.0094 7.12769 30.0059 7.72904 30.0262 8.28468C30.0649 9.1891 30.1985 10.0969 30.3787 10.9936C30.3955 11.0769 30.413 11.1606 30.4312 11.2458C30.5453 11.7808 30.698 12.3063 30.8873 12.8203C30.9098 12.8814 30.9327 12.9425 30.9562 13.0031C31.1681 13.4909 31.4173 13.9592 31.6002 14.2847C31.751 14.5536 31.8567 14.7524 31.9495 14.9222C32.0133 15.0387 32.0717 15.1414 32.137 15.2409C32.172 15.2944 32.2205 15.3674 32.2804 15.4542C32.5232 15.8102 32.9643 16.395 33.3834 16.92C33.568 17.1535 33.7842 17.425 33.9974 17.6798C34.3015 18.0441 34.5998 18.3747 34.7634 18.5278C35.0505 18.7972 35.3716 19.1156 35.6606 19.3922C35.7065 19.4362 35.7515 19.4794 35.7956 19.5211C36.0098 19.7241 36.2064 19.8867 36.3351 19.9739C36.5203 20.0989 36.6684 20.2179 36.8957 20.3883C37.0536 20.506 37.2501 20.6481 37.5285 20.8247C37.8503 21.0279 38.0802 21.1704 38.2766 21.2897C38.5535 21.4566 38.766 21.5787 39.0998 21.7233C39.4708 21.8836 39.8594 22.0458 40.162 22.1827C40.3008 22.2456 40.4609 22.3121 40.627 22.3786C40.8488 22.4675 41.0835 22.5571 41.2949 22.643C41.4705 22.7143 41.6103 22.7799 41.7384 22.8384C41.778 22.8565 41.8138 22.8731 41.8513 22.8895C41.9957 22.938 42.1351 22.9831 42.2812 23.0278C42.3051 23.0326 42.3284 23.0371 42.3552 23.0423C42.3978 23.0505 42.4433 23.0591 42.4912 23.0681C42.5126 23.044 42.5345 23.0189 42.5577 22.9936C42.7477 22.7869 42.9283 22.6126 43.1151 22.4362C43.1322 22.4146 43.1486 22.3942 43.1652 22.3716C43.2883 22.2051 43.4035 21.9972 43.387 21.8245C43.379 21.7293 43.3158 21.6539 43.2281 21.6262C43.204 21.6203 43.1799 21.6141 43.1559 21.608C42.8386 21.5275 42.5293 21.4331 42.3206 21.3516C42.2424 21.3211 42.1783 21.2872 42.1152 21.2531L42.1143 21.2527C42.11 21.2503 42.1055 21.2479 42.1012 21.2456C41.5898 21.0594 41.0895 20.8454 40.5998 20.6105C40.5566 20.5917 40.513 20.5725 40.4699 20.5533C40.2594 20.4594 40.0573 20.3636 39.921 20.3072C39.774 20.2469 39.4207 20.0613 39.0576 19.8516C38.8196 19.7147 38.5768 19.5678 38.3774 19.448C38.2624 19.379 38.1585 19.2976 38.0563 19.2155C37.9594 19.1377 37.8618 19.058 37.7474 18.9802C37.6898 18.9409 37.6263 18.9005 37.5595 18.8578C37.5005 18.8201 37.4367 18.7788 37.3729 18.735C37.3142 18.6948 37.186 18.5935 37.027 18.4636C36.9271 18.3821 36.8161 18.2904 36.6988 18.1927C36.3801 17.9484 36.0665 17.6952 35.7599 17.4309C35.6924 17.3827 35.6287 17.3405 35.5762 17.3123C35.5381 17.2918 35.5055 17.2787 35.4688 17.2622C35.4196 17.2403 35.3687 17.2178 35.3085 17.1806C35.259 17.1493 35.2078 17.1065 35.1801 17.0733C35.1674 17.058 35.1582 17.0437 35.1501 17.0306C35.1408 17.0157 35.1327 17.0025 35.1196 16.9898C35.1102 16.9807 35.0987 16.9731 35.0845 16.9641C35.0718 16.956 35.057 16.9468 35.0404 16.9341C35.0268 16.9235 35.0114 16.9106 34.9949 16.8942C34.8555 16.7553 34.7077 16.5983 34.5618 16.4372C34.3985 16.257 34.2499 16.0844 34.124 15.9408C33.9857 15.7834 33.8033 15.5454 33.6299 15.3028C33.5099 15.1352 33.3888 14.9585 33.2891 14.8134C33.1895 14.6686 33.0792 14.5195 32.9779 14.377C32.8531 14.2015 32.7394 14.0334 32.6573 13.8787C32.6406 13.8473 32.6282 13.8033 32.6132 13.7484C32.6025 13.7095 32.5904 13.6647 32.5748 13.6153C32.4658 13.4272 32.3573 13.2281 32.2579 13.0336C32.2529 13.0274 32.2476 13.0212 32.2424 13.0148V13.0144C32.125 12.8689 31.9652 12.668 31.8515 12.3342C31.8235 12.2511 31.814 12.1912 31.8065 12.1397C31.799 12.0887 31.7926 12.0433 31.7704 11.9827C31.7452 11.9137 31.7058 11.8375 31.6631 11.7506C31.6031 11.629 31.5405 11.4985 31.5023 11.3498C31.4997 11.3399 31.4971 11.3291 31.4943 11.318C31.4672 11.2116 31.43 11.058 31.4085 10.8956C31.2776 10.4421 31.1747 9.98053 31.102 9.51375C30.9811 8.73515 30.942 7.9417 31.0115 7.15359C31.045 6.77003 31.1369 6.40671 31.2529 6.15375C31.3223 6.0015 31.3942 5.89813 31.4559 5.84484Z" fill="black"/>
<path d="M45.937 17.3794C46.3574 17.4055 46.8056 17.4921 47.1534 17.9264C47.1624 17.9377 47.1717 17.9494 47.1806 17.9616C47.3707 18.199 47.3964 18.5844 47.3451 18.7608C47.3056 18.9266 47.2535 19.0334 47.2077 19.1217C47.1986 19.1493 47.1529 19.2124 47.1337 19.2342C47.1055 19.256 47.0794 19.2757 47.0549 19.2942C46.6953 19.6186 46.337 19.9445 45.9857 20.2772C46.0322 20.4429 46.0797 20.6083 46.1292 20.7731C46.177 20.9327 46.2264 21.0919 46.2763 21.2508C46.3119 21.3413 46.3473 21.4269 46.3804 21.5063C46.4269 21.6178 46.4687 21.717 46.4976 21.8006C46.5671 22.0021 46.6232 22.2376 46.6649 22.4123C46.6717 22.4408 46.6781 22.4677 46.6842 22.4925C46.6867 22.4999 46.6891 22.5076 46.6917 22.515C46.7227 22.5993 46.6794 22.7332 46.6199 22.8005C46.5098 22.903 46.43 22.9095 46.3635 22.9233C46.2979 22.933 46.2437 22.9318 46.1934 22.928C46.0929 22.9194 46.0092 22.8984 45.9304 22.8745C45.9206 22.8679 45.911 22.8606 45.9009 22.8534C45.7789 22.7642 45.6315 22.6957 45.4171 22.5628C45.3243 22.5049 45.2205 22.4352 45.1049 22.3463C45.0914 22.3358 45.0793 22.3255 45.0684 22.3158C45.0228 22.2748 44.9997 22.2411 44.9821 22.2141C44.9756 22.2042 44.9692 22.1948 44.9624 22.1859C44.9386 22.155 44.903 22.1413 44.8584 22.1231C44.8018 22.1006 44.7334 22.0731 44.6709 22.0008C44.4738 21.7715 44.3479 21.7192 44.2523 21.6806C44.2242 21.6692 44.1985 21.6589 44.1749 21.6455C44.098 21.6015 44.0108 21.5122 43.9504 21.4378C43.9025 21.3788 43.7775 21.2961 43.6781 21.2391C43.6406 21.2176 43.5958 21.1809 43.5435 21.1378C43.4891 21.093 43.4261 21.0408 43.3542 20.9916C43.1717 20.8666 43.076 20.7993 42.9988 20.745C42.9771 20.7297 42.9559 20.7147 42.9356 20.7005C42.8711 20.6552 42.792 20.5959 42.7129 20.5364C42.6181 20.4651 42.5216 20.3926 42.4462 20.3405C42.4087 20.3058 42.372 20.2712 42.3365 20.2378C42.3319 20.2343 42.3201 20.2223 42.3159 20.2186C42.1898 20.0806 42.0643 19.9416 41.939 19.8028C41.8577 19.7126 41.8004 19.6052 41.781 19.5033C41.7617 19.4012 41.7814 19.3131 41.8373 19.2572C41.8932 19.2013 41.9813 19.1816 42.0834 19.2009C42.1854 19.2203 42.2931 19.2775 42.3834 19.3589C42.5162 19.4788 42.6492 19.5987 42.7813 19.7194L42.9173 19.8253C43.1515 20.0089 43.3835 20.1939 43.6115 20.3845C43.7709 20.5178 43.9297 20.652 44.0877 20.7867C44.104 20.8006 44.1203 20.8146 44.1365 20.8284C44.2835 20.9243 44.4294 21.0207 44.5284 21.0928C44.6102 21.1526 44.6612 21.2068 44.7046 21.2531C44.7348 21.2853 44.7609 21.3134 44.7918 21.337C44.8085 21.3498 44.8318 21.3666 44.8593 21.3867C44.9724 21.4694 45.1646 21.6091 45.3243 21.7547C45.3545 21.7824 45.3885 21.8145 45.4204 21.8461C45.4618 21.8869 45.5035 21.9284 45.5446 21.968C45.6503 22.0701 45.7528 22.1576 45.8137 22.1845C45.899 22.2228 45.9892 22.2713 46.0701 22.3102C46.0696 22.3082 46.0692 22.306 46.0687 22.3041C46.0367 22.1844 46.022 22.0973 46.0096 22.0233C45.9921 21.9191 45.9793 21.8405 45.9281 21.7331C45.8711 21.6139 45.8192 21.4869 45.7945 21.382C45.7832 21.3343 45.7665 21.2806 45.749 21.225C45.7259 21.1514 45.7014 21.074 45.6871 21.0009C45.6754 20.9409 45.6757 20.8882 45.6759 20.8416C45.6759 20.827 45.6757 20.8128 45.6754 20.7994C45.6612 20.7529 45.6472 20.7061 45.6327 20.6597C45.6281 20.6529 45.6229 20.646 45.6177 20.6386C45.5917 20.6012 45.5602 20.5549 45.5329 20.4942C45.4981 20.4168 45.4794 20.3429 45.4635 20.2673C45.4462 20.1931 45.4674 20.0755 45.5245 20.025C45.5386 20.0131 45.5531 20.0014 45.5676 19.9894C45.6258 19.9412 45.6864 19.8907 45.7481 19.8253C45.7901 19.7807 45.8353 19.7272 45.8798 19.6739C45.9458 19.5948 46.0111 19.5167 46.0649 19.4709C46.0851 19.4538 46.1084 19.4444 46.131 19.4353C46.1325 19.4347 46.1342 19.434 46.1357 19.4334C46.2518 19.307 46.3674 19.1801 46.4826 19.0528C46.4913 19.0406 46.5 19.028 46.5088 19.0158C46.544 18.967 46.5773 18.9187 46.6002 18.8789L46.6181 18.8006C46.6238 18.7732 46.629 18.7448 46.6326 18.7167C46.6409 18.654 46.6398 18.5948 46.6293 18.555C46.6233 18.5319 46.6313 18.5118 46.6377 18.4898C46.6438 18.47 46.6479 18.4482 46.6382 18.4303C46.6335 18.4217 46.6251 18.4134 46.6162 18.4059C46.6082 18.3992 46.5995 18.3927 46.5913 18.3853C46.5837 18.3784 46.5758 18.3574 46.5557 18.3291C46.5433 18.3116 46.5261 18.2912 46.5032 18.2714C46.4337 18.2327 46.3448 18.2026 46.2492 18.1838C46.2272 18.1871 46.2076 18.1945 46.191 18.2058C46.1792 18.2139 46.1684 18.2244 46.1577 18.2353C46.1432 18.2502 46.1287 18.2658 46.1109 18.2775C46.0968 18.2866 46.082 18.2893 46.0729 18.2836C46.0686 18.2809 46.0654 18.2764 46.0626 18.2723C46.0594 18.2678 46.0567 18.2639 46.0527 18.2634C46.0499 18.2632 46.0464 18.2658 46.0424 18.2691C46.0362 18.2743 46.0276 18.2809 46.0162 18.2803C45.9914 18.2791 45.9642 18.2772 45.9384 18.2761C45.9211 18.2767 45.9036 18.2775 45.8863 18.278C45.8116 18.2802 45.7385 18.2823 45.6806 18.2883C45.6157 18.295 45.5223 18.29 45.4288 18.285C45.3636 18.2815 45.2981 18.278 45.2423 18.2784C45.1875 18.2789 45.131 18.2886 45.0763 18.2981C45.0108 18.3096 44.9477 18.3207 44.8931 18.3145C44.882 18.3133 44.8678 18.3021 44.8499 18.2883C44.8372 18.2784 44.8224 18.2671 44.8059 18.2569C44.7372 18.2613 44.6684 18.2655 44.5996 18.2691C44.5973 18.2708 44.595 18.2728 44.5926 18.2747C44.5386 18.3165 44.4645 18.3738 44.354 18.3497C44.3259 18.3436 44.3077 18.3299 44.2912 18.3178C44.275 18.3059 44.2603 18.295 44.2401 18.2939C44.2171 18.2927 44.1906 18.3026 44.1618 18.3131C44.1214 18.3279 44.0761 18.3443 44.0292 18.3347C44.026 18.334 44.0224 18.3335 44.0188 18.3328C43.9848 18.326 43.9344 18.3159 43.8834 18.2925C43.7364 18.2949 43.5893 18.2958 43.4423 18.2963C43.1971 18.2969 42.9516 18.2954 42.7063 18.2939C42.5871 18.2931 42.4706 18.2645 42.3829 18.2119C42.2952 18.1591 42.2431 18.0872 42.2381 18.0098C42.233 17.9325 42.2756 17.8546 42.3557 17.7909C42.4359 17.7273 42.5478 17.6834 42.666 17.6672C42.8587 17.6409 43.0517 17.6146 43.2445 17.5894C43.2544 17.5871 43.2645 17.5849 43.2745 17.5828C43.3493 17.5671 43.4181 17.5407 43.4868 17.5144C43.5025 17.5083 43.5184 17.5025 43.5342 17.4966C43.6548 17.4515 43.893 17.4513 44.024 17.4511C44.0263 17.4511 44.0287 17.4511 44.031 17.4511C44.0621 17.4511 44.0918 17.4495 44.1262 17.4478C44.2081 17.4438 44.3188 17.4382 44.5509 17.4469C44.618 17.4416 44.6853 17.4372 44.7524 17.4328C45.1377 17.4078 45.5236 17.3912 45.9098 17.3798C45.9152 17.3792 45.9315 17.3797 45.937 17.3794ZM46.2899 22.3702C46.2902 22.3666 46.2832 22.3576 46.2552 22.3753C46.2766 22.3777 46.2895 22.3766 46.2899 22.3702Z" fill="black"/>
</svg>
