<svg width="48" height="48" viewBox="0 0 48 48" fill="none" xmlns="http://www.w3.org/2000/svg">
<g clip-path="url(#clip0_503_1015)">
<path d="M45.443 3.84375C44.901 7.38474 42.0344 15.7887 34.9046 21.0783L34.6289 20.9527C35.2909 21.6549 36.5348 23.5115 36.72 25.92C36.96 29.04 36.48 30 37.2 31.92C37.92 33.84 38.16 36.48 36 39.12C34.2721 41.232 30.3201 43.04 28.56 43.68C26.88 44.16 22.464 44.688 18.24 42.96C14.0161 41.232 11.3601 38.56 10.56 37.44C9.84008 36.432 9.32477 35.1811 9.84003 33.12C10.56 30.24 11.0401 29.04 10.8 27.12C10.5715 25.2921 10.5611 23.4647 12.8386 21.0155L12.7013 21.0783C5.57147 15.7887 2.70487 7.38472 2.16284 3.84375C9.3001 5.57083 14.7973 13.4708 17.0696 17.97C19.0095 17.0462 21.0273 16.56 22.56 16.56C24.4562 16.56 27.219 16.436 30.4927 18.0558C32.7378 13.572 38.2601 5.58195 45.443 3.84375Z" fill="#FFD81A"/>
<path d="M45.444 3.84737C43.7954 4.24631 42.2342 4.97461 40.7801 5.91428C41.2141 7.5343 41.9177 11.4582 41.2592 14.1935C43.8676 10.1432 45.1065 6.05236 45.444 3.84737Z" fill="black"/>
<path d="M2.16181 3.84737C3.81046 4.24631 5.37163 4.97461 6.82577 5.91428C6.39169 7.5343 5.68814 11.4582 6.34663 14.1935C3.7382 10.1432 2.49932 6.05236 2.16181 3.84737Z" fill="black"/>
<path d="M18.2399 29.04C18.2399 30.498 17.1654 31.68 15.8399 31.68C14.5145 31.68 13.4399 30.498 13.4399 29.04C13.4399 27.582 14.5145 26.4 15.8399 26.4C17.1654 26.4 18.2399 27.582 18.2399 29.04Z" fill="black"/>
<path d="M34.08 29.04C34.08 30.498 32.8981 31.68 31.44 31.68C29.982 31.68 28.8 30.498 28.8 29.04C28.8 27.582 29.982 26.4 31.44 26.4C32.8981 26.4 34.08 27.582 34.08 29.04Z" fill="black"/>
<path d="M17.76 28.08C17.76 28.7427 17.2227 29.28 16.56 29.28C15.8972 29.28 15.36 28.7427 15.36 28.08C15.36 27.4173 15.8972 26.88 16.56 26.88C17.2227 26.88 17.76 27.4173 17.76 28.08Z" fill="white"/>
<path d="M31.68 28.08C31.68 28.7427 31.1428 29.28 30.48 29.28C29.8173 29.28 29.28 28.7427 29.28 28.08C29.28 27.4173 29.8173 26.88 30.48 26.88C31.1428 26.88 31.68 27.4173 31.68 28.08Z" fill="white"/>
<path d="M16.3201 30.24C15.5521 30.432 15.0401 30.16 14.8801 30C14.4961 29.616 14.2401 29.68 14.1601 29.76C13.7761 30.336 14.4801 30.8 14.8801 30.96C16.0801 31.44 16.8001 30.96 17.0401 30.72C17.2801 30.48 17.2801 30 16.3201 30.24Z" fill="#3D1C00"/>
<path d="M31.0934 30.24C31.8614 30.432 32.3734 30.16 32.5334 30C32.9174 29.616 33.1734 29.68 33.2534 29.76C33.6374 30.336 32.9334 30.8 32.5334 30.96C31.3334 31.44 30.6134 30.96 30.3734 30.72C30.1334 30.48 30.1334 30 31.0934 30.24Z" fill="#3D1C00"/>
<path d="M23.6161 33.6483C23.7 33.5849 23.8322 33.5888 23.9133 33.6558C23.9786 33.7099 24.0432 33.7635 24.1073 33.8147C24.8893 34.4608 25.8561 34.828 26.88 34.8591C27.311 34.8796 27.7401 34.7955 28.0012 34.4611C28.0979 34.3427 28.1741 34.2016 28.2347 34.0514C28.2433 34.0299 28.2596 34.0119 28.2806 34.0017C28.3016 33.9915 28.3257 33.9897 28.3476 33.997C28.3696 34.0044 28.388 34.0203 28.3987 34.0411C28.4094 34.0619 28.4113 34.0862 28.4053 34.1086C28.3594 34.2775 28.2937 34.4455 28.1934 34.5998C27.9233 35.0472 27.3506 35.215 26.88 35.2209C25.7885 35.2753 24.6523 34.8939 23.8078 34.1897C23.7863 34.1726 23.7653 34.1545 23.744 34.1372C23.0182 34.6007 22.2228 34.8708 21.3914 34.9894C20.8065 35.0735 20.147 34.9618 19.6908 34.5539C19.5553 34.4326 19.4368 34.2923 19.3594 34.1203C19.3502 34.099 19.3489 34.0745 19.3565 34.0523C19.3642 34.0303 19.3804 34.012 19.4011 34.0017C19.4218 33.9914 19.4459 33.9899 19.4681 33.997C19.4904 34.0042 19.509 34.0196 19.5206 34.0397C19.5968 34.1667 19.713 34.279 19.8389 34.3687C20.2654 34.6724 20.8185 34.7176 21.3286 34.6106C22.1444 34.4412 22.9579 34.1086 23.6161 33.6483Z" fill="black"/>
<path d="M45.3753 3.56385C45.5965 3.51036 45.7623 3.66223 45.7278 3.88721C44.5502 10.0473 41.3188 15.7691 36.6215 19.8667C36.0886 20.3251 35.5404 20.756 34.969 21.1651C34.946 21.1815 34.9174 21.1887 34.8893 21.1845C34.8611 21.1802 34.8357 21.165 34.8188 21.1422C34.8019 21.1194 34.7948 21.0908 34.7989 21.0626C34.803 21.0345 34.8181 21.0091 34.8406 20.9918C35.3926 20.5672 35.9204 20.1229 36.4329 19.6537C40.8294 15.5769 43.8635 10.0589 45.0692 4.24373C39.1795 6.00661 34.8712 11.0806 31.6445 16.2378C31.2839 16.8318 30.9393 17.4356 30.6171 18.0485C30.6039 18.0737 30.5813 18.0929 30.5542 18.1018C30.5271 18.1106 30.4978 18.1083 30.4724 18.0955C30.4472 18.0828 30.428 18.0606 30.419 18.0337C30.41 18.0066 30.4117 17.9768 30.4241 17.9512C30.7273 17.3227 31.0545 16.7035 31.3992 16.0938C34.5264 10.7446 38.8558 5.42493 45.1298 3.62574C45.2113 3.60433 45.2933 3.58368 45.3753 3.56385Z" fill="black"/>
<path d="M2.23021 3.56373C2.00903 3.51037 1.84361 3.66225 1.87808 3.88721C3.05581 10.049 6.28833 15.7724 10.9879 19.8701C11.5197 20.3272 12.0668 20.757 12.6369 21.1651C12.66 21.1815 12.6885 21.1887 12.7166 21.1845C12.7448 21.1802 12.7702 21.165 12.7871 21.1422C12.804 21.1194 12.8111 21.0908 12.807 21.0626C12.8029 21.0344 12.7879 21.0091 12.7653 20.9918C12.2147 20.5682 11.6879 20.125 11.1765 19.6571C6.77818 15.5799 3.74349 10.0605 2.53714 4.24384C8.39552 5.99216 12.6906 11.0333 15.913 16.1559C16.2743 16.7474 16.6201 17.3488 16.9438 17.9593C16.9571 17.9844 16.9796 18.0038 17.0067 18.0125C17.0338 18.0212 17.0634 18.0187 17.0886 18.0058C17.1138 17.993 17.1328 17.9704 17.1417 17.9434C17.1506 17.9164 17.1485 17.8868 17.1361 17.8613C16.8314 17.2354 16.5034 16.6185 16.1579 16.0114C13.0261 10.6829 8.69411 5.38269 2.4262 3.61285C2.36108 3.59602 2.29561 3.57955 2.23021 3.56373Z" fill="black"/>
<path d="M23.7624 16.0345C25.9827 16.0275 28.2612 16.5821 30.1547 17.7487C30.3644 17.8751 30.5713 18.0083 30.7763 18.1481C30.7994 18.1639 30.8163 18.1877 30.8227 18.2151C30.829 18.2426 30.8246 18.2715 30.81 18.2953C30.7954 18.3191 30.7717 18.3358 30.7444 18.3426C30.7171 18.3495 30.6883 18.3453 30.6638 18.3319C30.4493 18.2144 30.2344 18.1036 30.0188 17.9986C28.0646 17.0275 25.92 16.6081 23.7549 16.6101C23.3455 16.6048 22.9327 16.6086 22.5169 16.6055C20.8089 16.6149 19.0942 17.1928 17.5045 17.9419C17.2863 18.0462 17.0698 18.155 16.8553 18.2686C16.8306 18.2817 16.8015 18.2856 16.7742 18.2784C16.747 18.2712 16.7238 18.2537 16.7095 18.2297C16.6953 18.2057 16.6911 18.1769 16.6978 18.1495C16.7045 18.1222 16.7214 18.0984 16.7447 18.083C16.9497 17.9471 17.1585 17.8166 17.3705 17.6911C18.919 16.7892 20.6473 16.0855 22.5169 16.0401C22.9264 16.0364 23.3441 16.0291 23.7624 16.0345Z" fill="black"/>
<path d="M13.1686 20.5331C13.1969 20.5333 13.2241 20.5446 13.244 20.5645C13.264 20.5845 13.2753 20.6116 13.2754 20.64C13.2756 20.6684 13.2644 20.6959 13.245 20.7164C12.9325 21.0459 12.6338 21.3888 12.359 21.7476C11.1291 23.2558 10.6518 25.1887 11.0142 27.0891C11.3482 29.2221 10.5305 31.2323 10.0879 33.1898C10.0582 33.3092 10.0313 33.4273 10.0078 33.5451C9.72091 34.8538 9.94296 36.2063 10.7493 37.282C12.3632 39.3758 14.6288 41.0208 17.0175 42.2719C17.4211 42.4802 17.8319 42.6764 18.2493 42.8601C18.2752 42.8715 18.2961 42.8925 18.307 42.9187C18.3178 42.9449 18.3177 42.9742 18.307 43.0003C18.2963 43.0264 18.2759 43.0473 18.2498 43.0584C18.2237 43.0695 18.1942 43.0698 18.1678 43.0598C17.7369 42.8965 17.3118 42.7189 16.8932 42.5273C14.4076 41.3655 12.0673 39.8029 10.3078 37.598C9.40583 36.4566 9.12139 34.8297 9.44294 33.4322C9.46837 33.3049 9.49717 33.1779 9.52919 33.0501C9.98806 31.059 10.7915 29.1268 10.5229 27.1509C10.1831 25.1921 10.8008 23.0295 12.1373 21.5695C12.4367 21.2146 12.7582 20.8807 13.0922 20.5636C13.1127 20.5441 13.1402 20.533 13.1686 20.5331Z" fill="black"/>
<path d="M34.32 20.7731C34.3484 20.773 34.3759 20.7841 34.3964 20.8036C34.7421 21.1386 35.0307 21.523 35.2917 21.9197C36.0622 23.1051 36.5698 24.4754 36.7017 25.9031C36.9781 27.9244 36.4765 30.0249 37.2249 31.8206C37.5208 32.5989 37.7116 33.4264 37.7513 34.2675C37.8592 36.1005 37.1272 37.9202 35.9635 39.2864C34.2448 41.2105 31.9494 42.3129 29.6794 43.2849C29.2456 43.4623 28.8023 43.6321 28.3571 43.7817C28.3303 43.7907 28.3007 43.7891 28.275 43.777C28.2494 43.7649 28.2294 43.7431 28.2197 43.7166C28.21 43.69 28.2116 43.6603 28.2235 43.6345C28.2354 43.6088 28.2567 43.5886 28.283 43.5783C28.714 43.4084 29.1448 43.2196 29.5655 43.0242C31.7623 41.968 34.0069 40.7677 35.5566 38.9536C36.6317 37.6356 37.2718 35.9777 37.1756 34.2947C37.1391 33.5212 36.9666 32.7528 36.6952 32.0194C35.8995 29.9834 36.4783 27.916 36.2583 25.9369C36.1756 24.5846 35.7431 23.2515 35.0503 22.0702C34.8165 21.6757 34.5518 21.2871 34.2436 20.9564C34.2241 20.9359 34.213 20.9084 34.2131 20.88C34.2133 20.8517 34.2246 20.8245 34.2446 20.8045C34.2645 20.7846 34.2917 20.7733 34.32 20.7731Z" fill="black"/>
<path d="M9.80854 33.12C9.29328 35.1811 9.80859 36.432 10.5285 37.44C10.8036 37.825 11.2979 38.3935 12 39.044C12.4 39.0693 13.392 38.976 14.16 38.4C15.12 37.68 15.6 34.8 13.68 33.12C12.144 31.776 10.459 32.56 9.80854 33.12Z" fill="#FE260C"/>
<path d="M9.67925 32.9695C10.7926 31.9651 12.7166 31.8551 13.8375 32.9399C14.0493 33.1243 14.2418 33.3308 14.4103 33.5554C15.4583 35.0002 15.6526 37.1809 14.2786 38.5579C13.6037 39.0357 12.7985 39.232 11.9907 39.194C11.966 39.193 11.9165 39.171 11.8978 39.1546C11.6026 38.8675 11.3183 38.57 11.0489 38.2579C10.839 38.0137 10.6368 37.762 10.4555 37.4924C10.2598 37.2358 10.0795 36.9637 9.92909 36.6731C9.34108 35.5801 9.33016 34.2513 9.61597 33.0717C9.62252 33.0439 9.65804 32.9884 9.67925 32.9695ZM13.5225 33.2999C12.5701 32.3771 11.0109 32.4272 9.98393 33.2343C9.69251 34.3365 9.65747 35.5247 10.1424 36.5695C10.2695 36.8533 10.4267 37.1258 10.6017 37.3879C10.7924 37.6363 11.0049 37.8709 11.2238 38.0981C11.4905 38.374 11.7696 38.6374 12.0567 38.8926C12.7579 38.8844 13.4937 38.6642 14.0414 38.242C15.0903 37.152 14.9674 35.0789 14.0264 33.8437C13.8781 33.6461 13.7092 33.4641 13.5225 33.2999Z" fill="black"/>
<path d="M35.76 39.12C37.2667 37.2786 37.6056 35.4371 37.4285 33.84C37.2724 33.44 36.7391 32.88 35.76 32.88C34.56 32.88 32.16 33.84 32.4 37.68C32.48 38.4 33.264 39.696 35.76 39.12Z" fill="#FE260C"/>
<path d="M35.7602 32.6442C36.494 32.6368 37.3166 32.9956 37.6314 33.7608C37.6356 33.7718 37.6439 33.8044 37.645 33.8161C37.8224 35.4504 37.3413 37.127 36.4066 38.4403C36.2277 38.6969 36.0343 38.9427 35.8295 39.1772C35.8202 39.1878 35.7941 39.2049 35.7803 39.2077C35.4784 39.2875 35.1689 39.3477 34.8527 39.375C33.8007 39.5229 32.3819 38.9833 32.207 37.7016C32.2069 37.6997 32.2062 37.6941 32.2061 37.6922C32.039 36.0141 32.5087 33.9341 34.202 33.0525C34.6784 32.7992 35.2068 32.6462 35.7602 32.6442ZM35.7602 33.1158C35.3065 33.1212 34.839 33.2559 34.4289 33.4753C32.9786 34.2245 32.4963 36.0354 32.5942 37.6678L32.6045 37.7503C32.7545 38.6837 33.8453 39.212 34.8391 39.1383C35.1292 39.1302 35.4203 39.0927 35.7086 39.0375C35.887 38.8026 36.0553 38.5606 36.2088 38.3105C37.0333 36.9905 37.4082 35.4199 37.2156 33.8995C36.9835 33.3947 36.3612 33.0994 35.7602 33.1158Z" fill="black"/>
<path d="M23.76 30.6808C23.8591 30.6808 23.9582 30.6936 24.0572 30.7192C24.1741 30.7494 24.2911 30.7974 24.4079 30.8631C24.4096 30.864 24.4114 30.865 24.413 30.8659C24.4353 30.8785 24.4577 30.8918 24.48 30.9058V31.1758C24.4577 31.1897 24.4353 31.203 24.413 31.2156C24.4114 31.2165 24.4096 31.2175 24.4079 31.2184C24.2911 31.2841 24.1741 31.3322 24.0572 31.3623C23.9582 31.3879 23.8591 31.4008 23.76 31.4008C23.6674 31.4008 23.5747 31.3894 23.4821 31.367C23.3587 31.3372 23.2355 31.2877 23.1122 31.2184C23.0882 31.2049 23.064 31.1908 23.04 31.1758V30.9058C23.064 30.8908 23.0882 30.8766 23.1122 30.8631C23.2355 30.7938 23.3587 30.7443 23.4821 30.7145C23.5747 30.6921 23.6674 30.6808 23.76 30.6808Z" fill="black"/>
</g>
<defs>
<clipPath id="clip0_503_1015">
<rect width="48" height="48" fill="white"/>
</clipPath>
</defs>
</svg>
