<svg width="48" height="48" viewBox="0 0 48 48" fill="none" xmlns="http://www.w3.org/2000/svg">
<path d="M46.56 17.04C46.56 20.6188 43.5513 23.52 39.84 23.52C36.1286 23.52 33.12 20.6188 33.12 17.04C33.12 13.4612 36.1286 10.56 39.84 10.56C43.5513 10.56 46.56 13.4612 46.56 17.04Z" fill="#C78312"/>
<path d="M45.6 17.04C45.6 14.024 43.0544 11.52 39.84 11.52C36.6256 11.52 34.08 14.024 34.08 17.04C34.08 20.056 36.6256 22.56 39.84 22.56V23.52C36.1286 23.52 33.12 20.6188 33.12 17.04C33.12 13.4612 36.1286 10.56 39.84 10.56C43.5513 10.56 46.56 13.4612 46.56 17.04C46.56 20.6188 43.5513 23.52 39.84 23.52V22.56C43.0544 22.56 45.6 20.056 45.6 17.04Z" fill="#4F3731"/>
<path d="M1.91999 15.12C1.91999 18.9639 4.92863 22.08 8.63999 22.08C12.3513 22.08 15.36 18.9639 15.36 15.12C15.36 11.2761 12.3513 8.16 8.63999 8.16C4.92863 8.16 1.91999 11.2761 1.91999 15.12Z" fill="#C78312"/>
<path d="M2.87999 15.12C2.87999 11.7743 5.4903 9.12 8.63999 9.12C11.7897 9.12 14.4 11.7743 14.4 15.12C14.4 18.4657 11.7897 21.12 8.63999 21.12V22.08C12.3513 22.08 15.36 18.9639 15.36 15.12C15.36 11.2761 12.3513 8.16 8.63999 8.16C4.92863 8.16 1.91999 11.2761 1.91999 15.12C1.91999 18.9639 4.92863 22.08 8.63999 22.08V21.12C5.4903 21.12 2.87999 18.4657 2.87999 15.12Z" fill="#4F3731"/>
<path d="M39.8401 23.52C43.5514 23.52 46.5601 20.6188 46.5601 17.04C46.5601 17.04 42.7201 14.88 39.8401 17.04C38.8001 18 37.3441 20.64 39.8401 23.52Z" fill="#FFD100"/>
<path d="M39.84 17.04C42.7151 14.8838 46.5468 17.0326 46.56 17.04L46.5577 17.2074C46.4657 20.7088 43.4934 23.52 39.84 23.52L39.7261 23.385C37.3897 20.5578 38.8163 17.985 39.84 17.04ZM44.0879 17.1703C42.9163 16.9307 41.5788 16.9597 40.4569 17.7778C40.0736 18.1463 39.6007 18.8442 39.4622 19.7114C39.3401 20.4766 39.4658 21.448 40.2868 22.5436C43.0789 22.3396 45.2753 20.2387 45.5668 17.6311C45.5599 17.6282 45.5527 17.6251 45.5457 17.6222C45.1817 17.4705 44.6722 17.2898 44.0879 17.1703Z" fill="#4F3731"/>
<path d="M8.64006 22.0802C4.32005 22.0802 1.20005 18 2.16005 13.68C2.16005 13.68 4.32006 12.9601 6.72006 14.1602C8.64006 15.3601 10.7521 18.4324 8.64006 22.0802Z" fill="#FFD100"/>
<path d="M6.71999 14.1601C4.32005 12.9601 2.15999 13.6801 2.15999 13.6801C1.20006 18 4.32007 22.08 8.63999 22.0801L8.73609 21.9094C10.6241 18.4501 8.73776 15.5321 6.90046 14.2782L6.71999 14.1601ZM3.57421 14.4296C4.28393 14.4043 5.24013 14.5041 6.24937 14.9987C7.04162 15.5054 7.87624 16.4027 8.29077 17.5327C8.65356 18.5218 8.71072 19.727 8.07421 21.0915C4.88986 20.7748 2.57598 17.8125 2.99484 14.4816C3.15824 14.4581 3.35345 14.4375 3.57421 14.4296ZM2.46234 14.5913L2.46093 14.5918H2.45999C2.46075 14.5916 2.46167 14.5912 2.46281 14.5908L2.46234 14.5913Z" fill="#4F3731"/>
<path d="M41.8775 32.2597C40.8609 40.748 32.4942 44.1947 21.6544 42.8965C10.8146 41.5983 2.99152 37.2 4.14493 27.5691C5.29834 17.9383 14.0756 11.3046 25.3357 12.1578C36.1755 13.456 43.7034 22.9703 41.8775 32.2597Z" fill="#C78312"/>
<path d="M4.14492 27.5692C5.29833 17.9383 14.0758 11.3046 25.3358 12.1578C36.1756 13.4561 43.7034 22.9705 41.8775 32.2599L41.8247 32.654C40.5991 40.8545 32.3249 44.1741 21.6546 42.8963L21.7687 41.9431C27.0793 42.5791 31.6757 42.0372 35.0256 40.3871C38.3295 38.7595 40.4574 36.0441 40.9243 32.1458L40.9286 32.1099L40.9357 32.0744C42.6337 23.435 35.6182 14.3663 25.2408 13.1133C14.4066 12.302 6.17866 18.6609 5.09811 27.6833C4.56107 32.1677 6.09355 35.3431 8.99213 37.6002C11.9575 39.9092 16.4198 41.3025 21.7687 41.9431L21.6546 42.8963L21.1484 42.8333C10.7401 41.4813 3.2504 37.1887 4.09746 28.0167L4.14492 27.5692Z" fill="#4F3731"/>
<path d="M26.7801 35.4362C26.4001 38.2335 23.971 38.9298 21.1436 38.5457C18.3162 38.1615 16.1542 36.8924 16.5411 34.045C16.8266 31.9436 19.3502 30.5514 22.1776 30.9356C25.0051 31.3198 27.0657 33.3348 26.7801 35.4362Z" fill="#FDFFFF"/>
<path d="M16.32 30.48C16.32 31.6729 15.3529 32.64 14.16 32.64C12.9671 32.64 12 31.6729 12 30.48C12 29.2871 12.9671 28.32 14.16 28.32C15.3529 28.32 16.32 29.2871 16.32 30.48Z" fill="#4E3736"/>
<path d="M23.04 33.36C23.04 34.0227 22.5028 34.56 21.84 34.56C21.1773 34.56 20.64 34.0227 20.64 33.36C20.64 32.6973 21.1773 32.16 21.84 32.16C22.5028 32.16 23.04 32.6973 23.04 33.36Z" fill="#4E3736"/>
<path d="M32.6399 31.92C32.6399 33.1129 31.6729 34.08 30.4799 34.08C29.287 34.08 28.3199 33.1129 28.3199 31.92C28.3199 30.7271 29.287 29.76 30.4799 29.76C31.6729 29.76 32.6399 30.7271 32.6399 31.92Z" fill="#4E3736"/>
<path d="M21.5831 33.24C21.8042 33.2339 22.0109 33.3503 22.1207 33.5424C22.4073 34.0439 23.3159 35.2611 24.5376 35.9592C24.8253 36.1236 24.9251 36.49 24.7607 36.7777C24.5963 37.0653 24.23 37.1652 23.9423 37.0008C22.9009 36.4057 22.0731 35.5236 21.554 34.8408C21.5379 34.856 21.5229 34.8723 21.5067 34.8872C21.2536 35.1198 20.9561 35.3459 20.6563 35.5524C20.057 35.9652 19.4077 36.3269 18.9881 36.5367C18.6917 36.6848 18.3314 36.5645 18.1832 36.2681C18.0352 35.9718 18.1555 35.6115 18.4518 35.4633C18.8321 35.2731 19.4312 34.9388 19.9757 34.5638C20.2478 34.3763 20.4964 34.1855 20.6943 34.0036C20.9001 33.8145 21.0156 33.6671 21.0632 33.5719C21.1621 33.374 21.362 33.2462 21.5831 33.24Z" fill="#4E3736"/>
</svg>
