<svg width="48" height="48" viewBox="0 0 48 48" fill="none" xmlns="http://www.w3.org/2000/svg">
<g clip-path="url(#clip0_503_952)">
<path d="M12.8325 10.7152C14.84 13.1935 17.1958 16.5684 18.197 18.8546C15.3739 20.4031 12.5963 23.1506 11.4428 24.3954C9.88131 21.2074 6.32132 16.4352 3.50108 13.5836C0.680844 10.732 0.966084 6.55871 3.77753 5.56151C6.58897 4.56431 10.1317 7.38097 12.8325 10.7152Z" fill="#0096DF"/>
<path d="M8.84898 4.9703C10.4296 5.93699 11.9463 7.48634 13.3198 9.22248C15.5341 12.0212 17.6708 16.3643 18.6455 18.7716C18.7383 19.0006 18.6421 19.2627 18.4231 19.3772C14.738 21.3015 12.9522 23.4726 11.7941 24.7191C11.685 24.8364 11.5248 24.8916 11.3666 24.8662C11.2083 24.8407 11.0731 24.7379 11.0064 24.5922C9.51261 21.3315 5.93126 16.4406 3.09758 13.5515C1.5726 11.9967 0.919207 10.0215 1.06378 8.25705C1.20842 6.49182 2.16198 4.90595 3.86695 4.24298C5.55564 3.58639 7.2626 4.00013 8.84898 4.9703ZM12.5673 9.81829C11.2235 8.11983 9.78931 6.67067 8.34828 5.78935C6.91299 4.91155 5.5272 4.62758 4.21488 5.13783C2.919 5.64174 2.14139 6.85929 2.02038 8.33518C1.89937 9.81203 2.44587 11.5163 3.7827 12.8793C6.49375 15.6434 9.87833 20.1972 11.5676 23.5458C12.7054 22.3016 14.4722 20.4348 17.5907 18.7334C16.5705 16.3104 14.5858 12.3698 12.5673 9.81829Z" fill="#004898"/>
<path d="M35.6249 8.62759C33.4775 11.7872 33.0669 16.4476 33.13 18.3828C34.9205 18.3474 37.6399 19.1439 38.7759 19.5465C40.7847 15.8228 43.9632 13.3513 45.4951 11.1956C47.027 9.04 47.0935 5.49638 44.4318 4.27372C41.77 3.05105 38.3091 4.67802 35.6249 8.62759Z" fill="#E85292"/>
<path d="M41.6853 32.7385C41.948 39.97 35.3255 43.9519 25.9831 44.2913C16.6406 44.6307 9.40508 41.0078 9.14238 33.7764C8.87968 26.5449 15.3926 18.8706 25.0317 18.1039C34.3741 17.7645 42.0014 24.7307 41.6853 32.7385Z" fill="#FFFAC6"/>
<path d="M39.5854 3.27454C41.2388 2.45091 42.9551 2.34767 44.4816 3.10902C46.0279 3.8803 46.7825 5.33613 46.9489 6.8613C47.1143 8.37695 46.7089 10.0079 45.8888 11.2407C45.1086 12.4135 43.8907 13.6765 42.6872 15.0679C41.4644 16.4817 40.2064 18.079 39.2485 19.9996C39.1377 20.2217 38.8755 20.3225 38.6442 20.2323C38.0778 20.0113 37.1082 19.6765 36.058 19.3979C34.9995 19.1172 33.8967 18.9039 33.05 18.9048C32.7941 18.905 32.5831 18.7044 32.5703 18.4489C32.517 17.3767 32.5742 15.5765 32.9136 13.6182C33.2523 11.6638 33.8785 9.51307 34.9868 7.76769C36.3452 5.62839 37.9404 4.09401 39.5854 3.27454ZM44.0532 3.968C42.8461 3.36597 41.4509 3.41762 40.0131 4.13386C38.567 4.85432 37.0911 6.24464 35.7974 8.282C34.7839 9.87803 34.1873 11.8904 33.8595 13.7818C33.576 15.4172 33.4982 16.9337 33.515 17.9614C34.3912 18.0195 35.3904 18.2279 36.3037 18.4701C37.1732 18.7007 37.9891 18.9687 38.5869 19.1858C39.569 17.3304 40.7996 15.7827 41.9611 14.4398C43.2214 12.9828 44.3537 11.8144 45.0891 10.7089C45.7847 9.6633 46.1352 8.25766 45.9943 6.96556C45.8543 5.68304 45.2403 4.56014 44.0532 3.968Z" fill="#004898"/>
<path d="M8.01121 33.6714C7.72793 25.8735 14.5122 17.6068 24.5665 16.7922C34.3119 16.4382 42.2777 23.9596 41.9582 32.5939L41.9662 32.9567C42.0251 40.5247 35.1855 44.6823 25.5924 45.0308L25.5575 44.0714C30.3169 43.8985 34.2724 42.767 36.9756 40.8245C39.6376 38.9114 41.1282 36.1892 40.9989 32.6288L40.9976 32.5937L40.9986 32.5584C41.2944 24.5652 33.8812 17.4257 24.6225 17.7508C15.054 18.537 8.7075 26.3947 8.97057 33.6366C9.09935 37.1807 10.8576 39.8288 13.7521 41.5879C16.6838 43.3697 20.8046 44.2441 25.5575 44.0714L25.5924 45.0308C15.9992 45.3793 8.53111 41.5905 8.03 34.0338L8.01121 33.6714Z" fill="#004898"/>
<path d="M33.6372 15.5421C31.6566 16.9991 32.9525 19.334 33.8479 20.3194C30.5727 18.4479 29.2984 19.6801 29.0706 20.5301C28.5604 23.1762 31.5046 23.5013 33.0404 23.3331C29.9338 25.2835 30.6087 27.1539 31.3345 27.8453C33.3612 29.1834 34.9638 26.6644 35.5117 25.2376C35.5445 28.8243 37.3053 29.3623 38.1815 29.183C40.5694 28.4314 39.232 25.5718 38.2648 24.236C41.1691 26.0081 42.6598 24.8339 43.0421 24.0253C44.1087 21.5282 40.644 21.2293 38.7783 21.392C42.5407 19.2198 41.8338 17.407 41.0101 16.7722C38.6124 15.3347 37.1848 18.0662 36.7707 19.6117C36.3306 15.3196 34.4983 15.1102 33.6372 15.5421Z" fill="white"/>
<path d="M23.182 37.1117C23.1944 36.9132 23.3658 36.7627 23.5642 36.7751C23.7625 36.7877 23.9131 36.9585 23.9007 37.1569C23.8833 37.4352 24.149 37.7721 24.5882 37.8724C24.7902 37.9185 24.9969 37.9016 25.1774 37.8112C25.3543 37.7226 25.5357 37.5487 25.666 37.2269L25.6915 37.1755C25.7605 37.0615 25.8886 36.9935 26.0247 37.003C26.1801 37.0139 26.3107 37.1237 26.3486 37.2748C26.3596 37.3184 26.4412 37.4489 26.6505 37.5889C26.8447 37.7188 27.0888 37.8145 27.3224 37.8342C27.5506 37.8535 27.7502 37.8004 27.906 37.6584C28.066 37.5126 28.2284 37.2291 28.2857 36.6917C28.3068 36.4941 28.484 36.3508 28.6816 36.3717C28.8793 36.3928 29.0227 36.5704 29.0016 36.7681C28.9327 37.414 28.7232 37.8879 28.3909 38.1907C28.0545 38.4972 27.641 38.5839 27.2615 38.5518C26.8874 38.5202 26.5284 38.3736 26.2501 38.1874C26.1759 38.1377 26.1026 38.0805 26.0329 38.0185C25.88 38.2095 25.6998 38.3551 25.5 38.4552C25.15 38.6304 24.7693 38.6524 24.428 38.5745C23.7808 38.4267 23.1347 37.8653 23.182 37.1117Z" fill="#E85292"/>
<path d="M25.7072 37.3801C25.1921 37.1717 24.9435 36.5852 25.1519 36.0701C25.3604 35.555 25.9469 35.3064 26.462 35.5148C26.9771 35.7233 27.2257 36.3098 27.0172 36.8249C26.8088 37.34 26.2222 37.5886 25.7072 37.3801Z" fill="#E85292"/>
<path d="M18.2273 34.6866C18.0677 35.9809 17.2467 36.9449 16.3936 36.8397C15.5406 36.7344 14.9785 35.5999 15.1381 34.3055C15.2978 33.0112 16.1188 32.0472 16.9718 32.1524C17.8249 32.2577 18.387 33.3922 18.2273 34.6866Z" fill="#0096DF"/>
<path d="M36.4395 34.314C36.3209 35.6781 35.5672 36.7267 34.7561 36.6562C33.9449 36.5857 33.3834 35.4227 33.502 34.0587C33.6206 32.6947 34.3743 31.6461 35.1854 31.7166C35.9966 31.7871 36.5581 32.95 36.4395 34.314Z" fill="#0096DF"/>
<path d="M33.9144 16.3618C32.8462 17.5663 32.9993 18.8497 33.8478 20.3194C30.6023 19.4498 29.8695 20.3301 29.6417 21.1801C29.2069 22.8029 31.0615 23.2998 33.0403 23.3331C29.9337 25.2835 30.6086 27.1539 31.3344 27.8453C33.3611 29.1834 34.9637 26.6644 35.5116 25.2376C35.5444 28.8243 37.3052 29.3623 38.1814 29.183C40.5693 28.4314 39.2319 25.5719 38.2646 24.236C41.169 26.0081 42.6597 24.8339 43.042 24.0253C44.1086 21.5283 40.6439 21.2293 38.7782 21.392C41.4858 19.6328 41.2913 18.5041 40.4675 17.8692C39.2319 16.917 37.1847 18.0663 36.7706 19.6117C35.8932 16.395 35.0281 15.9148 33.9144 16.3618Z" fill="#F29600"/>
<path d="M33.1383 21.6342C33.2775 22.6502 34.3821 22.717 34.9171 22.6234C33.5905 23.3513 33.7872 24.0706 34.0514 24.3393C34.913 25.1062 35.6119 24.15 35.8537 23.576C35.9501 25.0953 36.7634 25.2756 37.158 25.1759C38.0443 24.7656 37.4444 23.6453 37.0337 23.1364C38.3444 23.9229 38.8873 23.4275 38.995 23.0815C39.1927 22.0801 37.889 21.9111 37.2125 21.9518C38.4297 21.3314 38.2968 20.5494 38.0781 20.236C37.3805 19.3078 36.5884 20.4517 36.2796 21.1397C36.2318 19.342 35.4332 19.1856 35.0398 19.3322C34.0442 19.85 34.7559 20.9564 35.2362 21.4449C33.5886 20.6438 33.1511 21.2373 33.1383 21.6342Z" fill="#FFE33F"/>
<path d="M39.3171 15.9182C39.8877 15.825 40.4967 15.9378 41.1297 16.2875L41.2568 16.3603L41.3031 16.3921C41.8282 16.7969 42.3247 17.5881 42.0809 18.6164C41.9093 19.3401 41.3843 20.109 40.3737 20.9018C40.9956 20.947 41.6339 21.0554 42.1799 21.2625C42.7146 21.4654 43.2283 21.7887 43.5101 22.309C43.8033 22.8503 43.7895 23.4976 43.4836 24.214C43.4812 24.2195 43.4784 24.2248 43.4758 24.2303C43.2255 24.7596 42.6405 25.3599 41.7025 25.5672C41.083 25.704 40.341 25.662 39.4724 25.354C39.693 25.8304 39.8737 26.3456 39.9551 26.8524C40.0427 27.3975 40.0232 27.9785 39.7681 28.4939C39.5055 29.0245 39.0258 29.4206 38.3257 29.6409C38.31 29.6459 38.2939 29.65 38.2777 29.6533C37.6955 29.7725 36.867 29.6463 36.1889 28.9602C35.7403 28.5062 35.3849 27.8343 35.1916 26.8867C34.9373 27.2665 34.6378 27.6341 34.2962 27.9372C33.8913 28.2964 33.4023 28.5882 32.8401 28.6772C32.2656 28.7682 31.6657 28.639 31.0699 28.2456C31.0463 28.23 31.024 28.2124 31.0035 28.1929C30.5495 27.7604 30.1173 26.9682 30.2762 25.9846C30.3897 25.2821 30.7954 24.5443 31.6042 23.8101C31.0918 23.7553 30.5623 23.6379 30.0901 23.4243C29.595 23.2003 29.1348 22.8581 28.8426 22.3461C28.5471 21.8282 28.4545 21.1907 28.5994 20.4393C28.6016 20.4281 28.604 20.4169 28.6069 20.4059C28.7622 19.8264 29.2618 19.162 30.205 18.9371C30.8189 18.7907 31.5833 18.8402 32.5216 19.1711C32.3815 18.8673 32.2653 18.5425 32.1942 18.2069C32.0871 17.7011 32.0771 17.1536 32.2522 16.6161C32.4289 16.0735 32.7838 15.5736 33.3526 15.1552C33.3745 15.1392 33.3979 15.1254 33.4221 15.1132C33.9999 14.8234 34.8867 14.7624 35.6751 15.4417C36.2128 15.905 36.664 16.6806 36.962 17.8723C37.1919 17.4604 37.4738 17.0615 37.8099 16.731C38.2128 16.3349 38.7152 16.0167 39.3171 15.9182ZM40.7377 17.169C40.2291 16.8702 39.8124 16.81 39.4718 16.8657C39.1188 16.9235 38.7885 17.1153 38.483 17.4156C37.8599 18.0282 37.43 19.0056 37.2343 19.736L37.2213 19.7771C37.1479 19.9777 36.9486 20.1074 36.7322 20.0901C36.5015 20.0716 36.3167 19.8911 36.2931 19.6609C36.0776 17.5601 35.5307 16.5848 35.0483 16.1691C34.6151 15.7958 34.1759 15.8255 33.8905 15.9531C33.4893 16.2567 33.2716 16.586 33.165 16.9131C33.054 17.254 33.0524 17.6251 33.1336 18.0083C33.2987 18.7876 33.7913 19.5436 34.2032 19.9968C34.3619 20.1715 34.3699 20.4355 34.2222 20.6196C34.0744 20.8038 33.8146 20.8531 33.6096 20.736C32.0227 19.8293 31.0155 19.7312 30.4278 19.8713C29.8654 20.0054 29.6136 20.3743 29.5375 20.644C29.4339 21.2032 29.5175 21.592 29.6763 21.8702C29.8405 22.1581 30.1171 22.3827 30.4861 22.5497C31.2404 22.8909 32.2628 22.9356 32.9881 22.8561C33.2105 22.8318 33.4201 22.9642 33.4936 23.1755C33.5671 23.3867 33.4848 23.6207 33.2954 23.7397C31.8066 24.6744 31.3228 25.5275 31.2242 26.1376C31.1292 26.7256 31.3733 27.1999 31.6336 27.4659C32.0367 27.7225 32.3854 27.7772 32.6899 27.729C33.0153 27.6775 33.3418 27.5008 33.6593 27.2191C34.3024 26.6486 34.8046 25.7403 35.0637 25.0656L35.0806 25.026C35.1742 24.8351 35.3843 24.727 35.5969 24.7654C35.8238 24.8064 35.9897 25.0028 35.9918 25.2333C36.0076 26.9571 36.438 27.8463 36.8716 28.2851C37.29 28.7086 37.7659 28.769 38.062 28.7162C38.5391 28.5605 38.782 28.3222 38.9078 28.0679C39.0433 27.794 39.0765 27.4352 39.0074 27.0046C38.8674 26.134 38.3384 25.1565 37.8758 24.5176C37.7417 24.3324 37.7572 24.078 37.9124 23.9101C38.0676 23.7423 38.3195 23.7074 38.5147 23.8264C39.8984 24.6707 40.8701 24.7677 41.4956 24.6295C42.1186 24.4919 42.4689 24.1065 42.6038 23.8278C42.8269 23.3008 42.7802 22.9769 42.666 22.7662C42.5399 22.5332 42.2708 22.3235 41.8395 22.1598C40.9732 21.8312 39.7257 21.7911 38.82 21.87C38.5959 21.8896 38.388 21.7509 38.3204 21.5362C38.2528 21.3216 38.3434 21.0889 38.5383 20.9764C40.378 19.9142 41.0019 19.0066 41.1469 18.3948C41.2811 17.8286 41.0278 17.403 40.7377 17.169Z" fill="#004898"/>
</g>
<defs>
<clipPath id="clip0_503_952">
<rect width="48" height="48" fill="white"/>
</clipPath>
</defs>
</svg>
