<svg width="48" height="48" viewBox="0 0 48 48" fill="none" xmlns="http://www.w3.org/2000/svg">
<g clip-path="url(#clip0_258_1151)">
<path d="M16.4961 14.8697C12.2422 12.4739 7.0589 10.0846 4.04042 8.77159C3.43632 8.5088 2.78169 8.99963 2.8503 9.65482C3.72276 17.9862 4.45049 22.7012 4.79684 24.4971C4.85685 24.8083 5.08928 25.0538 5.39367 25.1419L8.21722 25.9593C8.51602 26.0458 8.83826 25.966 9.06218 25.7501L16.8086 18.2803C16.9935 18.102 17.0901 17.851 17.0724 17.5948L16.9323 15.563C16.9123 15.2731 16.7493 15.0123 16.4961 14.8697Z" fill="#403A3A"/>
<path fill-rule="evenodd" clip-rule="evenodd" d="M2.42156 9.70062C2.31923 8.72336 3.29975 7.97453 4.21722 8.37364C7.24145 9.68919 12.4402 12.0853 16.7128 14.4916C17.0949 14.7068 17.3393 15.0996 17.3693 15.5337L17.5094 17.5655C17.5359 17.9498 17.3911 18.3262 17.1137 18.5936L9.36728 26.0634C9.0314 26.3873 8.54804 26.507 8.09984 26.3772L5.2763 25.5599C4.82176 25.4283 4.46581 25.0581 4.3736 24.5799C4.02379 22.766 3.29453 18.0369 2.42156 9.70062ZM3.87053 9.17062C3.5798 9.04415 3.25108 9.27697 3.28596 9.6101C4.15791 17.9366 4.88411 22.6374 5.227 24.4154C5.2548 24.5595 5.36373 24.6804 5.51797 24.725L8.34151 25.5424C8.49091 25.5856 8.65203 25.5457 8.76399 25.4378L16.5104 17.968C16.6029 17.8788 16.6512 17.7534 16.6423 17.6253L16.5022 15.5935C16.4922 15.4478 16.4106 15.3189 16.2863 15.2489C12.0512 12.8637 6.88326 10.4812 3.87053 9.17062Z" fill="black"/>
<path d="M31.2056 14.8697C35.4594 12.4739 40.6428 10.0846 43.6612 8.77159C44.2653 8.5088 44.92 8.99963 44.8514 9.65482C43.9789 17.9862 43.2512 22.7012 42.9048 24.4971C42.8448 24.8083 42.6124 25.0538 42.308 25.1419L39.4844 25.9593C39.1856 26.0458 38.8634 25.966 38.6395 25.7501L30.893 18.2803C30.7081 18.102 30.6116 17.851 30.6293 17.5948L30.7694 15.563C30.7894 15.2731 30.9524 15.0123 31.2056 14.8697Z" fill="#403A3A"/>
<path fill-rule="evenodd" clip-rule="evenodd" d="M45.2801 9.70062C45.3824 8.72336 44.4019 7.97453 43.4844 8.37364C40.4602 9.68919 35.2615 12.0853 30.9889 14.4916C30.6067 14.7068 30.3623 15.0996 30.3324 15.5337L30.1923 17.5655C30.1658 17.9498 30.3106 18.3262 30.5879 18.5936L38.3344 26.0634C38.6703 26.3873 39.1536 26.507 39.6018 26.3772L42.4254 25.5599C42.8799 25.4283 43.2358 25.0581 43.3281 24.5799C43.6779 22.766 44.4071 18.0369 45.2801 9.70062ZM43.8311 9.17062C44.1219 9.04415 44.4506 9.27697 44.4157 9.6101C43.5438 17.9366 42.8175 22.6374 42.4747 24.4154C42.4469 24.5595 42.3379 24.6804 42.1837 24.725L39.3601 25.5424C39.2108 25.5856 39.0496 25.5457 38.9377 25.4378L31.1912 17.968C31.0988 17.8788 31.0505 17.7534 31.0593 17.6253L31.1995 15.5935C31.2095 15.4478 31.2911 15.3189 31.4154 15.2489C35.6505 12.8637 40.8184 10.4812 43.8311 9.17062Z" fill="black"/>
<path d="M4.40003 7.4012C4.40003 8.61624 3.41505 9.60122 2.20002 9.60122C0.984981 9.60122 0 8.61624 0 7.4012C0 6.18617 0.984981 5.20119 2.20002 5.20119C3.41505 5.20119 4.40003 6.18617 4.40003 7.4012Z" fill="#403A3A"/>
<path fill-rule="evenodd" clip-rule="evenodd" d="M2.20002 8.7321C2.93505 8.7321 3.53091 8.13624 3.53091 7.4012C3.53091 6.66617 2.93505 6.07031 2.20002 6.07031C1.46499 6.07031 0.869125 6.66617 0.869125 7.4012C0.869125 8.13624 1.46499 8.7321 2.20002 8.7321ZM2.20002 9.60122C3.41505 9.60122 4.40003 8.61624 4.40003 7.4012C4.40003 6.18617 3.41505 5.20119 2.20002 5.20119C0.984981 5.20119 0 6.18617 0 7.4012C0 8.61624 0.984981 9.60122 2.20002 9.60122Z" fill="black"/>
<path d="M48 7.20002C48 8.41505 47.015 9.40003 45.8 9.40003C44.585 9.40003 43.6 8.41505 43.6 7.20002C43.6 5.98498 44.585 5 45.8 5C47.015 5 48 5.98498 48 7.20002Z" fill="#403A3A"/>
<path fill-rule="evenodd" clip-rule="evenodd" d="M45.8 8.53091C46.535 8.53091 47.1309 7.93505 47.1309 7.20002C47.1309 6.46499 46.535 5.86913 45.8 5.86913C45.065 5.86913 44.4691 6.46499 44.4691 7.20002C44.4691 7.93505 45.065 8.53091 45.8 8.53091ZM45.8 9.40003C47.015 9.40003 48 8.41505 48 7.20002C48 5.98498 47.015 5 45.8 5C44.585 5 43.6 5.98498 43.6 7.20002C43.6 8.41505 44.585 9.40003 45.8 9.40003Z" fill="black"/>
<path d="M41.1984 30.8015C41.1984 40.3015 33.4529 44.4016 23.8983 44.4016C14.3437 44.4016 6.59814 39.7015 6.59814 30.8015C6.59814 23.2903 14.1982 16.3013 23.8983 16.3013C34.5984 16.3013 41.1984 23.2903 41.1984 30.8015Z" fill="#403A3A"/>
<path fill-rule="evenodd" clip-rule="evenodd" d="M35.6297 40.4543C38.5225 38.4099 40.3293 35.2785 40.3293 30.8015C40.3293 23.855 34.2076 17.1705 23.8983 17.1705C14.5536 17.1705 7.46727 23.8861 7.46727 30.8015C7.46727 34.9644 9.26329 38.1076 12.178 40.2373C15.1208 42.3875 19.2503 43.5324 23.8983 43.5324C28.5695 43.5324 32.6961 42.5275 35.6297 40.4543ZM23.8983 44.4016C33.4529 44.4016 41.1984 40.3015 41.1984 30.8015C41.1984 23.2903 34.5984 16.3013 23.8983 16.3013C14.1982 16.3013 6.59814 23.2903 6.59814 30.8015C6.59814 39.7015 14.3437 44.4016 23.8983 44.4016Z" fill="black"/>
<path d="M24.1982 44.4026C29.5983 44.4026 36.5983 42.9026 36.5983 36.646C36.5983 32.2007 32.5983 29.7648 30.2983 29.3025L24.1982 31.8025L18.3982 29.3025C12.4781 30.1025 11.5315 34.6648 11.5981 36.646C11.5981 42.7026 18.1982 44.4026 24.1982 44.4026Z" fill="white"/>
<path fill-rule="evenodd" clip-rule="evenodd" d="M12.4673 36.6314V36.646C12.4673 39.2687 13.8558 40.9439 16.0322 42.0159C18.2595 43.1129 21.2555 43.5335 24.1982 43.5335C26.8431 43.5335 29.7933 43.1624 32.049 42.0861C33.1679 41.5523 34.0826 40.8608 34.7168 39.987C35.344 39.1229 35.7292 38.0368 35.7292 36.646C35.7292 34.7095 34.8651 33.2054 33.7124 32.1109C32.6371 31.09 31.3436 30.4603 30.3732 30.2111L24.1897 32.7453L18.2801 30.198C15.7081 30.6017 14.2821 31.7751 13.4816 33.0053C12.6335 34.3088 12.4378 35.7569 12.4668 36.6167L12.4673 36.6314ZM18.3982 29.3025L24.1982 31.8025L30.2983 29.3025C32.5983 29.7648 36.5983 32.2007 36.5983 36.646C36.5983 42.9026 29.5983 44.4026 24.1982 44.4026C18.1982 44.4026 11.5981 42.7026 11.5981 36.646C11.5315 34.6648 12.4781 30.1025 18.3982 29.3025Z" fill="black"/>
<path d="M25.3987 38.6004C25.3987 39.1527 24.7718 39.6004 23.9986 39.6004C23.2254 39.6004 22.5986 39.1527 22.5986 38.6004C22.5986 38.0481 23.2254 37.6004 23.9986 37.6004C24.7718 37.6004 25.3987 38.0481 25.3987 38.6004Z" fill="#ED7BA8"/>
<path fill-rule="evenodd" clip-rule="evenodd" d="M24.6518 38.836C24.7973 38.7322 24.8192 38.6409 24.8192 38.6004C24.8192 38.56 24.7973 38.4687 24.6518 38.3648C24.5075 38.2617 24.2784 38.1798 23.9986 38.1798C23.7189 38.1798 23.4898 38.2617 23.3455 38.3648C23.2 38.4687 23.178 38.56 23.178 38.6004C23.178 38.6409 23.2 38.7322 23.3455 38.836C23.4898 38.9391 23.7189 39.021 23.9986 39.021C24.2784 39.021 24.5075 38.9391 24.6518 38.836ZM23.9986 39.6004C24.7718 39.6004 25.3987 39.1527 25.3987 38.6004C25.3987 38.0481 24.7718 37.6004 23.9986 37.6004C23.2254 37.6004 22.5986 38.0481 22.5986 38.6004C22.5986 39.1527 23.2254 39.6004 23.9986 39.6004Z" fill="black"/>
<path fill-rule="evenodd" clip-rule="evenodd" d="M33.1438 32.2877C32.9477 32.5096 32.7021 32.6654 32.515 32.7551C32.4979 32.7633 32.4827 32.7742 32.4698 32.787C32.4448 32.7522 32.4194 32.7182 32.3936 32.685L29.4092 34.3399C29.4071 34.645 29.4348 34.9645 29.4952 35.2902C29.8101 36.9882 30.897 38.2104 31.923 38.0201C32.9489 37.8299 33.5254 36.2991 33.2105 34.6012C33.198 34.5342 33.1844 34.4679 33.1696 34.4025C33.4489 34.1532 33.5944 33.8915 33.6619 33.6682C33.7031 33.5319 33.5437 33.4936 33.4494 33.6003C33.3248 33.7413 33.1801 33.8556 33.0432 33.9432C32.9561 33.6767 32.8495 33.4279 32.7277 33.2016C32.7309 33.1995 32.7341 33.1973 32.7373 33.1949C33.1006 32.9155 33.2793 32.6105 33.3563 32.3556C33.3975 32.2193 33.2381 32.181 33.1438 32.2877Z" fill="#111111"/>
<path fill-rule="evenodd" clip-rule="evenodd" d="M14.9527 32.0872C15.1577 32.3275 15.4197 32.4959 15.6171 32.5915C15.6436 32.6044 15.6655 32.6238 15.6814 32.6469C15.7106 32.6064 15.7404 32.5669 15.7707 32.5285L18.8787 34.2817C18.8786 34.6007 18.8473 34.9346 18.7816 35.2747C18.4395 37.0478 17.2936 38.3176 16.2222 38.1108C15.1509 37.9041 14.5598 36.2991 14.902 34.526C14.9157 34.4546 14.9308 34.3841 14.9471 34.3144C14.635 34.0407 14.4791 33.752 14.4112 33.5097C14.3727 33.3725 14.5331 33.3362 14.6256 33.4446C14.7647 33.6076 14.93 33.7375 15.0836 33.8341C15.1764 33.558 15.2892 33.3004 15.4175 33.0661C15.4053 33.0614 15.3936 33.0549 15.3826 33.0464C14.9974 32.7472 14.8137 32.4212 14.7383 32.1523C14.6998 32.0152 14.8603 31.9789 14.9527 32.0872Z" fill="#111111"/>
<path fill-rule="evenodd" clip-rule="evenodd" d="M22.1909 40.0541C22.3816 39.994 22.585 40.0999 22.6451 40.2906C22.6679 40.363 22.9498 40.8373 24.0062 40.8373C25.0629 40.8373 25.3325 40.3635 25.3528 40.2957C25.4101 40.1041 25.6119 39.9952 25.8035 40.0525C25.9951 40.1098 26.104 40.3116 26.0467 40.5032C25.9075 40.9688 25.2766 41.5616 24.0062 41.5616C22.7357 41.5616 22.0996 40.9693 21.9543 40.5083C21.8942 40.3176 22.0001 40.1142 22.1909 40.0541Z" fill="black"/>
<path fill-rule="evenodd" clip-rule="evenodd" d="M25.9001 29.2824C27.7996 28.9361 28.4002 27.8852 28.4002 26.3015C28.4002 24.058 26.3855 22.2014 23.9002 22.2014C21.4149 22.2014 19.4001 23.858 19.4001 26.3015C19.4001 28.0331 20.19 29.1279 22.5001 29.3608V30.2015H23.4001V29.4071C23.5296 29.4081 23.663 29.4072 23.8001 29.4041V30.2015H24.4001V29.4072C24.5377 29.4062 24.671 29.403 24.8001 29.3976V30.2015H25.9001V29.2824ZM22.2388 27.0261C22.0791 27.6912 21.5577 28.1363 21.0744 28.0202C20.5911 27.9041 20.3288 27.2708 20.4886 26.6057C20.6484 25.9406 21.1697 25.4956 21.653 25.6117C22.1363 25.7278 22.3986 26.3611 22.2388 27.0261ZM26.6536 28.0202C26.1703 28.1363 25.649 27.6912 25.4892 27.0261C25.3294 26.3611 25.5917 25.7278 26.075 25.6117C26.5583 25.4956 27.0796 25.9406 27.2394 26.6057C27.3992 27.2708 27.1369 27.9041 26.6536 28.0202Z" fill="#ED93AF"/>
</g>
<defs>
<clipPath id="clip0_258_1151">
<rect width="48" height="48" fill="white"/>
</clipPath>
</defs>
</svg>
