<svg width="48" height="48" viewBox="0 0 48 48" fill="none" xmlns="http://www.w3.org/2000/svg">
<g clip-path="url(#clip0_503_941)">
<path d="M27.9697 14.88C25.0897 13.344 21.9739 13.2 20.0497 13.2C17.4097 13.2 14.6097 14.2453 13.5697 14.88C5.50567 19.104 5.56967 29.44 6.60967 34.08C5.24967 34.8 3.15367 37.152 5.64967 40.8C8.76967 45.36 18.3697 45.6 21.9697 45.6C25.5697 45.6 33.4897 44.88 36.3697 40.8C38.6737 37.536 36.5297 34.96 35.1697 34.08C38.0497 22.56 31.5697 16.8 27.9697 14.88Z" fill="white"/>
<path d="M15.0358 34.8696C14.9818 35.9696 14.3027 36.8301 13.519 36.7917C12.7353 36.7532 12.1437 35.8304 12.1977 34.7304C12.2517 33.6304 12.9307 32.7699 13.7145 32.8083C14.4982 32.8468 15.0898 33.7697 15.0358 34.8696Z" fill="black"/>
<path d="M29.7044 34.7132C29.7466 35.8581 29.1411 36.8099 28.3518 36.8391C27.5626 36.8682 26.8885 35.9636 26.8463 34.8186C26.804 33.6737 27.4096 32.7219 28.1988 32.6927C28.9881 32.6636 29.6621 33.5682 29.7044 34.7132Z" fill="black"/>
<path d="M21.0097 38.3292C19.9493 38.3292 19.0897 37.6844 19.0897 36.8892C19.0897 36.0939 19.9493 35.4492 21.0097 35.4492C22.0701 35.4492 22.9297 36.0939 22.9297 36.8892C22.9297 37.6844 22.0701 38.3292 21.0097 38.3292Z" fill="black"/>
<path d="M19.0599 12.8414C19.258 12.8249 19.4319 12.9719 19.4485 13.17C19.465 13.3681 19.3179 13.542 19.1199 13.5586C16.3052 13.7932 14.7584 14.5765 13.7574 15.1875C13.7507 15.1916 13.7437 15.1951 13.7367 15.1988C9.82441 17.2481 7.87222 20.782 7.02611 24.4059C6.17862 28.0359 6.45057 31.7242 6.96095 34.0013C6.99645 34.1597 6.9216 34.3223 6.77814 34.3983C6.16056 34.7253 5.37134 35.4289 5.02502 36.457C4.68561 37.4647 4.75047 38.8477 5.94705 40.5966C7.4202 42.7496 10.4699 43.9288 13.6983 44.5566C16.9031 45.1797 20.1751 45.24 21.9699 45.24C23.7512 45.24 26.6002 45.0611 29.3531 44.3803C32.1216 43.6956 34.713 42.5225 36.0755 40.5924C37.1619 39.0533 37.1818 37.716 36.8049 36.668C36.4196 35.5969 35.6048 34.7903 34.9744 34.3824C34.8452 34.2987 34.7833 34.1422 34.8206 33.9928C37.6514 22.6696 30.8114 16.1235 26.8899 14.7394C26.7024 14.6732 26.6043 14.4675 26.6705 14.28C26.7367 14.0927 26.942 13.9946 27.1294 14.0606C31.3384 15.5462 38.3484 22.3548 35.5767 33.9239C36.2673 34.4273 37.0746 35.2897 37.4827 36.4242C37.9416 37.7002 37.8813 39.2828 36.6638 41.0077C35.1462 43.1574 32.3376 44.3844 29.5261 45.0797C26.6993 45.7788 23.7884 45.96 21.9699 45.96C20.1646 45.96 16.8361 45.9003 13.561 45.2634C10.3095 44.6312 6.99951 43.4102 5.35267 41.0034C4.05328 39.1043 3.91795 37.4873 4.34252 36.2269C4.71671 35.1162 5.50921 34.3328 6.20392 33.8991C5.71165 31.5234 5.4803 27.8618 6.32533 24.2424C7.20214 20.4869 9.24608 16.7451 13.3875 14.5692C14.4666 13.9113 16.1194 13.0865 19.0599 12.8414Z" fill="black"/>
<path d="M40.9298 16.56C35.9378 14.64 31.8098 15.44 30.3698 16.08C33.0098 18.96 34.9298 21.36 40.9298 22.8C45.7298 23.952 47.0898 22.8 47.1698 22.08C47.1698 21.04 45.9218 18.48 40.9298 16.56Z" fill="black"/>
<path d="M3.78532 11.6022C3.65369 17.179 6.26031 20.1165 7.58005 21.12C9.77021 17.2256 11.7104 14.7021 10.8818 8.43914C10.2189 3.42875 8.4317 1.62881 7.57999 1.92001C6.39725 2.4472 3.91696 6.02548 3.78532 11.6022Z" fill="black"/>
<path d="M27.4897 11.52C26.9137 11.328 25.9697 11.76 25.5697 12C25.0483 12.2528 24.5524 12.9053 24.3697 13.2C23.8897 14.4 25.0897 14.4 25.3297 14.16C25.5697 13.92 26.7697 13.2 27.4897 12.96C28.2097 12.72 28.2097 11.76 27.4897 11.52Z" fill="black"/>
<path d="M21.7298 13.92C21.1538 13.92 21.1698 12.96 21.2498 12.48C21.4898 11.52 22.4498 9.84 23.6498 9.6C24.8498 9.36 24.8498 10.56 24.1298 11.04C23.4098 11.52 22.9298 12.48 22.6898 12.96C22.4498 13.44 22.4498 13.92 21.7298 13.92Z" fill="black"/>
<path d="M19.3297 13.2C18.9457 12.432 17.8897 11.28 17.4097 10.8C16.324 9.60001 17.8897 9.12001 18.8497 9.60001C19.8097 10.08 20.5297 12.24 20.5297 12.96C20.5297 13.68 19.8097 14.16 19.3297 13.2Z" fill="black"/>
</g>
<defs>
<clipPath id="clip0_503_941">
<rect width="48" height="48" fill="white"/>
</clipPath>
</defs>
</svg>
