<svg width="48" height="48" viewBox="0 0 48 48" fill="none" xmlns="http://www.w3.org/2000/svg">
<path d="M4.42868 27.563C5.44982 26.5418 6.81134 27.1375 7.36445 27.563L7.68044 31.2646L8.25795 38.0297C7.33892 38.8466 6.00293 38.7104 5.44982 38.5402C3.53518 38.1573 2.51404 35.4768 2.51404 33.0516C2.51404 30.6264 3.15225 28.8394 4.42868 27.563Z" fill="#31ABD0"/>
<path fill-rule="evenodd" clip-rule="evenodd" d="M6.14154 26.5112C6.7846 26.6003 7.34475 26.9002 7.6763 27.1552C7.79045 27.243 7.86244 27.3748 7.87468 27.5183L8.76818 37.9849C8.78195 38.1462 8.71881 38.3045 8.59784 38.412C8.03278 38.9143 7.35311 39.1116 6.76186 39.165C6.18811 39.2169 5.66099 39.1372 5.32305 39.0371C4.15672 38.7931 3.32711 37.8701 2.80122 36.7843C2.26739 35.6822 2 34.327 2 33.0505C2 30.5328 2.66529 28.5987 4.06491 27.1991C4.71075 26.5533 5.47809 26.4192 6.14154 26.5112ZM6.00065 27.5276C5.58978 27.4707 5.16579 27.5494 4.79049 27.9247C3.63727 29.0779 3.02613 30.7178 3.02613 33.0505C3.02613 34.1992 3.26931 35.3968 3.72471 36.337C4.18427 37.2858 4.81439 37.889 5.54946 38.036C5.56642 38.0394 5.5832 38.0437 5.59973 38.0488C5.81625 38.1154 6.22164 38.1835 6.66953 38.143C7.03644 38.1099 7.40544 38.0067 7.7221 37.795L7.20834 31.7766H4.81063C4.52727 31.7766 4.29756 31.5469 4.29756 31.2635C4.29756 30.9801 4.52727 30.7504 4.81063 30.7504H7.12074L6.87295 27.8477C6.6458 27.7097 6.33338 27.5737 6.00065 27.5276Z" fill="black"/>
<path fill-rule="evenodd" clip-rule="evenodd" d="M4.42529 34.9651C4.42529 34.6817 4.655 34.452 4.93836 34.452H7.74649C8.02985 34.452 8.25956 34.6817 8.25956 34.9651C8.25956 35.2484 8.02985 35.4781 7.74649 35.4781H4.93836C4.655 35.4781 4.42529 35.2484 4.42529 34.9651Z" fill="black"/>
<path d="M43.8664 27.6856C41.8241 25.9497 40.7179 27.2176 40.42 28.0686L39.6542 37.1312C40.7774 38.3566 42.1645 37.8971 42.7176 37.5141C47.1085 33.4296 45.313 29.2599 43.8664 27.6856Z" fill="#31ABD0"/>
<path fill-rule="evenodd" clip-rule="evenodd" d="M40.9244 28.1812L40.1845 36.9374C40.5945 37.311 41.0178 37.4191 41.3899 37.4127C41.811 37.4054 42.1843 37.2495 42.3963 37.1112C44.4684 35.1709 45.0405 33.2597 44.9676 31.6821C44.8939 30.0887 44.1592 28.7745 43.5088 28.0558C42.5785 27.2737 41.9897 27.2708 41.663 27.3892C41.312 27.5165 41.0532 27.8548 40.9244 28.1812ZM41.3132 26.4246C42.1218 26.1313 43.0998 26.3613 44.1977 27.2946C44.2137 27.3082 44.2289 27.3228 44.2432 27.3384C45.0343 28.1992 45.9053 29.7459 45.9926 31.6347C46.0811 33.5492 45.3611 35.7547 43.0661 37.8897C43.0481 37.9064 43.0289 37.9219 43.0087 37.9359C42.6615 38.1762 42.0796 38.4271 41.4075 38.4387C40.7135 38.4506 39.9419 38.2053 39.275 37.4778C39.1781 37.3721 39.1299 37.2307 39.142 37.0879L39.9078 28.0252C39.9115 27.9822 39.9205 27.9397 39.9348 27.8989C40.1125 27.3911 40.5463 26.7026 41.3132 26.4246Z" fill="black"/>
<path fill-rule="evenodd" clip-rule="evenodd" d="M39.6542 30.8767C39.6542 30.5933 39.8839 30.3636 40.1672 30.3636H42.5924C42.8758 30.3636 43.1055 30.5933 43.1055 30.8767C43.1055 31.1601 42.8758 31.3898 42.5924 31.3898H40.1672C39.8839 31.3898 39.6542 31.1601 39.6542 30.8767Z" fill="black"/>
<path fill-rule="evenodd" clip-rule="evenodd" d="M39.5279 33.983C39.5745 33.7035 39.8389 33.5147 40.1184 33.5612L42.4159 33.9442C42.6954 33.9907 42.8843 34.2551 42.8377 34.5346C42.7911 34.8141 42.5267 35.0029 42.2472 34.9563L39.9497 34.5734C39.6702 34.5268 39.4814 34.2625 39.5279 33.983Z" fill="black"/>
<path d="M9.79023 19.9024C5.60356 24.7018 7.02464 34.8366 8.25852 39.3041L39.0202 38.9212C41.2668 33.407 40.8072 26.5824 40.2967 23.8594C39.5819 19.6727 36.5099 16.3284 35.0633 15.1796C36.7993 14.0564 36.8078 12.2438 36.595 11.478C35.7015 8.92513 33.021 9.01022 31.9999 9.30804C32.3062 5.01924 28.2983 5.22347 26.256 5.86168C22.1714 7.08706 21.1503 10.9674 21.1503 12.7544C19.1081 13.1373 13.9769 15.103 9.79023 19.9024Z" fill="#5EC0BF"/>
<path d="M35.3172 14.9216C30.0072 12.1645 23.6166 12.1779 21.2765 12.6034C21.6594 6.09359 27.531 4.94475 29.8285 5.45533C31.6666 5.86378 32.041 8.28415 31.9985 9.3053C33.7344 9.20319 34.9342 9.58247 35.3172 9.92285C37.6147 11.7305 36.3383 14.2834 35.3172 14.9216Z" fill="#31ABD0"/>
<path d="M33.5299 22.8389C29.9559 21.7156 27.4456 24.0728 26.6372 25.3917C26.1266 26.0797 24.5949 29.6039 26.2542 32.2844C27.5817 34.4288 30.1261 35.1351 31.2323 35.2202C35.419 35.6287 37.2315 32.4121 37.6144 30.7527C38.4313 26.1576 35.2318 23.5622 33.5299 22.8389Z" fill="white"/>
<path fill-rule="evenodd" clip-rule="evenodd" d="M33.3548 23.3199C30.1116 22.3147 27.821 24.4457 27.0774 25.659C27.0695 25.6719 27.061 25.6844 27.052 25.6966C26.8538 25.9637 26.3681 26.9387 26.1394 28.1827C25.9126 29.4171 25.9561 30.8226 26.6933 32.0135C27.2923 32.9811 28.1737 33.6363 29.0526 34.0619C29.9347 34.4889 30.7848 34.6701 31.2745 34.7078C31.278 34.708 31.2815 34.7083 31.2849 34.7087C33.2228 34.8977 34.5787 34.2522 35.5017 33.3867C36.4357 32.5109 36.9395 31.395 37.1144 30.649C37.8619 26.4055 34.9347 24.0024 33.3548 23.3199ZM26.2138 25.1044C27.0972 23.6791 29.8111 21.1305 33.6865 22.3485C33.7024 22.3535 33.718 22.3593 33.7334 22.3658C35.5612 23.1426 38.9967 25.9234 38.1224 30.8416C38.1209 30.8502 38.1191 30.8587 38.1172 30.8672C37.9064 31.7805 37.3129 33.095 36.2035 34.1353C35.0787 35.19 33.4366 35.9482 31.1905 35.7305C30.5737 35.6822 29.6012 35.4676 28.6055 34.9855C27.6038 34.5005 26.5493 33.7304 25.8208 32.5536C24.8987 31.064 24.8784 29.3671 25.1302 27.9972C25.3765 26.6574 25.8997 25.5399 26.2138 25.1044Z" fill="black"/>
<path d="M14.7682 22.8389C18.3422 21.7156 20.8525 24.0728 21.6609 25.3917C22.1715 26.0797 23.7032 29.6039 22.0439 32.2844C20.7164 34.4288 18.172 35.1351 17.0658 35.2202C12.8791 35.6287 11.0666 32.4121 10.6837 30.7527C9.86677 26.1576 13.0663 23.5622 14.7682 22.8389Z" fill="white"/>
<path fill-rule="evenodd" clip-rule="evenodd" d="M14.9472 23.3199C18.1904 22.3147 20.481 24.4457 21.2246 25.659C21.2325 25.6719 21.241 25.6844 21.25 25.6966C21.4482 25.9637 21.9339 26.9387 22.1626 28.1827C22.3895 29.4171 22.3459 30.8226 21.6087 32.0135C21.0097 32.9811 20.1283 33.6363 19.2494 34.0619C18.3673 34.4889 17.5172 34.6701 17.0275 34.7078C17.024 34.708 17.0205 34.7083 17.0171 34.7087C15.0792 34.8977 13.7233 34.2522 12.8004 33.3867C11.8663 32.5109 11.3625 31.395 11.1876 30.649C10.4401 26.4055 13.3673 24.0024 14.9472 23.3199ZM22.0882 25.1044C21.2048 23.6791 18.4909 21.1305 14.6155 22.3485C14.5996 22.3535 14.584 22.3593 14.5686 22.3658C12.7408 23.1426 9.30526 25.9234 10.1796 30.8416C10.1811 30.8502 10.1829 30.8587 10.1848 30.8672C10.3956 31.7805 10.9891 33.095 12.0985 34.1353C13.2233 35.19 14.8654 35.9482 17.1115 35.7305C17.7283 35.6822 18.7008 35.4676 19.6965 34.9855C20.6982 34.5005 21.7527 33.7304 22.4812 32.5536C23.4033 31.064 23.4236 29.3671 23.1718 27.9972C22.9255 26.6574 22.4023 25.5399 22.0882 25.1044Z" fill="black"/>
<path d="M30.7168 30.1141C30.7168 30.8191 30.1453 31.3906 29.4404 31.3906C28.7354 31.3906 28.1639 30.8191 28.1639 30.1141C28.1639 29.4092 28.7354 28.8377 29.4404 28.8377C30.1453 28.8377 30.7168 29.4092 30.7168 30.1141Z" fill="black"/>
<path d="M20.517 30.1141C20.517 30.8191 19.9455 31.3906 19.2405 31.3906C18.5356 31.3906 17.9641 30.8191 17.9641 30.1141C17.9641 29.4092 18.5356 28.8377 19.2405 28.8377C19.9455 28.8377 20.517 29.4092 20.517 30.1141Z" fill="black"/>
<path fill-rule="evenodd" clip-rule="evenodd" d="M30.0903 6.22318C29.0173 5.86645 27.6264 6.04616 26.6526 6.35048L26.6469 6.3522C22.871 7.48498 21.9069 11.0802 21.9069 12.7535C21.9069 12.9979 21.7345 13.2084 21.4948 13.2565C19.0139 13.7546 14.4297 14.9905 10.4415 20.2129C8.60996 22.6113 7.92213 26.2084 7.86866 29.8327C7.81843 33.2378 8.32906 36.5795 8.89508 38.7852L38.9135 38.4115C40.9654 33.082 40.5278 26.5765 40.0359 23.953L40.0344 23.9448C39.3488 19.9286 36.3793 16.6855 34.9878 15.5805C34.8584 15.4777 34.7864 15.3189 34.7944 15.1539C34.8024 14.9888 34.8894 14.8377 35.0281 14.748C36.5032 13.7935 36.5185 12.2678 36.3485 11.63C35.9634 10.5461 35.2191 10.0374 34.4475 9.81631C33.6457 9.58655 32.8203 9.67333 32.3871 9.79967C32.2259 9.8467 32.0518 9.81184 31.9212 9.70635C31.7905 9.60086 31.7197 9.43809 31.7317 9.27057C31.8027 8.27634 31.6199 7.60223 31.3293 7.14463C31.0405 6.68998 30.612 6.39662 30.0903 6.22318ZM32.7706 8.68283C32.7467 7.83903 32.5463 7.14688 32.1955 6.59447C31.7551 5.90113 31.1114 5.48129 30.4141 5.24945C29.0503 4.79605 27.4178 5.03675 26.3493 5.37019C22.2591 6.59876 21.0439 10.2962 20.8966 12.3329C18.2155 12.9117 13.6214 14.3582 9.62599 19.5901C7.59211 22.2534 6.89714 26.1234 6.84264 29.8176C6.7879 33.5285 7.37839 37.162 8.00749 39.4398C8.06955 39.6645 8.27532 39.8191 8.50842 39.8162L39.2702 39.4333C39.4764 39.4308 39.6611 39.3049 39.7389 39.1139C42.0367 33.474 41.5644 26.5416 41.0453 23.7681C40.3748 19.8495 37.739 16.6688 36.1238 15.2021C37.5703 13.9205 37.5588 12.153 37.3329 11.3398C37.3299 11.3289 37.3265 11.3182 37.3228 11.3076C36.8127 9.85005 35.7737 9.12889 34.7302 8.82988C34.033 8.63011 33.332 8.61644 32.7706 8.68283Z" fill="black"/>
<path d="M27.6617 8.66836C27.318 9.4 27.1934 9.83683 27.1511 10.7106C27.55 10.0776 28.1723 9.30658 28.2999 9.17894C28.4275 9.05129 27.6617 8.66836 27.6617 8.66836Z" fill="black"/>
<path d="M32.5121 11.2212C32.3107 11.6671 32.272 11.9191 32.2568 12.37C32.4906 12.0286 32.639 11.8352 33.0227 11.4765L32.5121 11.2212Z" fill="black"/>
<path fill-rule="evenodd" clip-rule="evenodd" d="M27.8141 8.36372L27.6611 8.66965C27.8141 8.36372 27.814 8.3637 27.8141 8.36372L27.8151 8.36424L27.8172 8.36532L27.8247 8.36908C27.831 8.37228 27.8399 8.37686 27.8511 8.38265C27.8734 8.39422 27.9048 8.41071 27.9419 8.43087C28.0155 8.4708 28.1148 8.52682 28.2117 8.5885C28.3034 8.64685 28.4137 8.7231 28.4953 8.80474C28.5326 8.84208 28.593 8.90846 28.6278 8.99885C28.6467 9.04813 28.6636 9.11893 28.6518 9.20183C28.6392 9.28994 28.5978 9.36549 28.5412 9.42209C28.4955 9.46778 28.3209 9.67496 28.0977 9.96508C27.8796 10.2487 27.6314 10.5903 27.4399 10.8943C27.3571 11.0258 27.196 11.0849 27.0477 11.0382C26.8995 10.9915 26.8014 10.8507 26.8089 10.6954C26.8534 9.77371 26.9903 9.29328 27.3515 8.52423C27.3907 8.44081 27.4619 8.37673 27.549 8.34651C27.636 8.31629 27.7316 8.3225 27.8141 8.36372ZM27.8205 9.15061C27.8028 9.1928 27.7861 9.23416 27.7701 9.27493C27.7994 9.23853 27.8275 9.20402 27.854 9.17178C27.8509 9.16975 27.8477 9.1677 27.8444 9.16564C27.8365 9.1606 27.8285 9.15559 27.8205 9.15061ZM32.397 10.9002C32.4847 10.8691 32.5812 10.875 32.6645 10.9166L33.175 11.1719C33.2752 11.2219 33.3445 11.3179 33.3606 11.4287C33.3766 11.5395 33.3375 11.6512 33.2557 11.7277C32.8935 12.0662 32.7609 12.2396 32.5384 12.5646C32.4525 12.69 32.2941 12.7437 32.1496 12.6963C32.0051 12.6489 31.9092 12.5118 31.9144 12.3598C31.9307 11.8751 31.976 11.5772 32.1998 11.0817C32.2381 10.9969 32.3093 10.9314 32.397 10.9002Z" fill="black"/>
<path d="M9.15122 38.408C6.18991 39.6334 7.49155 40.9183 8.51269 41.4715C9.69091 42.1097 13.9504 42.0841 24.9787 41.982C38.7641 41.8544 39.7852 41.3438 39.9129 40.195C40.015 39.276 39.1896 38.6208 38.7641 38.408C36.892 37.8549 32.2288 36.7487 28.5527 36.7487H19.4901C14.6907 36.8508 10.5978 37.8975 9.15122 38.408Z" fill="#F3B4CF" stroke="black" stroke-linecap="round" stroke-linejoin="round"/>
<path d="M9.28162 40.2038C10.2177 39.8634 12.6003 39.2082 14.6426 39.3103C17.1954 39.4379 19.3654 41.2249 23.8329 41.2249C28.3003 41.2249 29.8321 39.3103 33.406 39.3103C36.2652 39.3103 37.6608 39.7357 38.0012 39.9485" stroke="black" stroke-linecap="round" stroke-linejoin="round"/>
</svg>
