<svg width="284" height="220" viewBox="0 0 284 220" fill="none" xmlns="http://www.w3.org/2000/svg">
<g clip-path="url(#clip0_2473_1605)">
<rect width="141" height="22" fill="#E09512"/>
<path d="M24.7441 11.5195V12.4219H20.4551V15.9844H19.3652V12.4219H15.1348V11.5195H24.7441ZM23.5371 6.05859V10.1836H16.3418V6.05859H23.5371ZM17.4316 6.94922V9.31641H22.4238V6.94922H17.4316ZM34.241 5.49609V15.9961H33.1863V5.49609H34.241ZM32.0262 5.76562V15.4805H30.9715V10.6055H28.9207C28.2938 11.8242 27.2977 12.8906 25.8152 13.7578L25.1824 12.9609C27.409 11.6367 28.4813 9.87305 28.6746 7.71094H25.6746V6.79688H29.7762C29.7703 7.82227 29.6297 8.80078 29.3074 9.71484H30.9715V5.76562H32.0262ZM35.9215 11.7656C35.9332 9.5625 36.5543 7.72266 37.6559 6.15234H38.8043C37.9957 7.3125 37.2223 9.67969 37.2223 11.7656C37.2223 13.8633 37.9957 16.2188 38.8043 17.3906H37.6559C36.5543 15.8203 35.9332 13.9805 35.9215 11.7656ZM39.6527 15V6.51562H40.9066V11.3203H41.0121L43.5316 8.63672H45.0316L42.4652 11.3672L45.2074 15H43.6723L41.516 12.1406L40.9066 12.7383V15H39.6527ZM48.1184 17.5195C46.5129 17.5195 45.4582 16.8047 45.341 15.6211H46.6184C46.7355 16.2188 47.298 16.5117 48.1301 16.5117C49.1262 16.5117 49.759 16.0898 49.759 15.0938V13.8398H49.677C49.4543 14.25 48.9973 14.9062 47.8254 14.9062C46.3254 14.9062 45.1652 13.7812 45.1652 11.7539C45.1652 9.72656 46.302 8.55469 47.8371 8.55469C49.0207 8.55469 49.4543 9.26953 49.6887 9.66797H49.7707V8.63672H50.9895V15.1406C50.9895 16.7695 49.759 17.5195 48.1184 17.5195ZM48.1066 13.875C49.173 13.875 49.7707 13.0898 49.7707 11.7773C49.7707 10.4883 49.1848 9.62109 48.1066 9.62109C46.9934 9.62109 46.4426 10.5586 46.4426 11.7773C46.4426 13.0195 47.0168 13.875 48.1066 13.875ZM54.7207 11.7656C54.709 13.9805 54.0879 15.8203 52.9863 17.3906H51.8379C52.6465 16.2188 53.4199 13.8633 53.4199 11.7656C53.4199 9.67969 52.6465 7.3125 51.8379 6.15234H52.9863C54.0879 7.72266 54.709 9.5625 54.7207 11.7656Z" fill="white"/>
<path d="M82.9746 6.46875V8.97656H84.9785V6.46875H86.0098V13.4062H81.9199V6.46875H82.9746ZM82.9746 12.5039H84.9785V9.85547H82.9746V12.5039ZM90.6035 5.49609V15.9961H89.5371V10.5234H88.2363V15.4805H87.1816V5.69531H88.2363V9.60938H89.5371V5.49609H90.6035ZM96.9715 9.17578V10.6406H101.214V11.543H91.6395V10.6406H95.8699V9.17578H96.9715ZM96.9832 6.10547C96.9832 7.44141 98.6238 8.61328 100.651 8.87109L100.218 9.75C98.5477 9.48633 97.077 8.67188 96.4207 7.51172C95.7469 8.67188 94.2762 9.48633 92.6004 9.75L92.1902 8.87109C94.2059 8.61328 95.8465 7.42969 95.8582 6.10547V5.66016H96.9832V6.10547ZM96.4207 12.3164C98.6941 12.3164 100.042 12.9727 100.042 14.1562C100.042 15.3281 98.6941 15.9844 96.4207 15.9727C94.1355 15.9844 92.7762 15.3281 92.7762 14.1562C92.7762 12.9727 94.1355 12.3164 96.4207 12.3164ZM96.4207 13.1719C94.8035 13.1719 93.9012 13.5117 93.9012 14.1562C93.9012 14.7891 94.8035 15.1289 96.4207 15.1289C98.0145 15.1289 98.9285 14.7891 98.9285 14.1562C98.9285 13.5117 98.0145 13.1719 96.4207 13.1719ZM110.406 5.49609V16.0195H109.293V5.49609H110.406ZM103.41 6.375V9.07031H106.234V6.375H107.336V13.5H102.296V6.375H103.41ZM103.41 12.5859H106.234V9.94922H103.41V12.5859ZM112.414 11.7656C112.426 9.5625 113.047 7.72266 114.149 6.15234H115.297C114.489 7.3125 113.715 9.67969 113.715 11.7656C113.715 13.8633 114.489 16.2188 115.297 17.3906H114.149C113.047 15.8203 112.426 13.9805 112.414 11.7656ZM117.833 15L116.861 11.25H115.618V10.2539H116.603L115.63 6.51562H116.884L117.775 10.2539H119.275L120.212 6.51562H121.501L122.439 10.2539H123.939L124.829 6.51562H126.083L125.111 10.2539H126.095V11.25H124.853L123.868 15H122.579L121.607 11.25H120.107L119.134 15H117.833ZM118.021 11.25L118.466 13.1367H118.548L119.029 11.25H118.021ZM120.376 10.2539H121.349L120.892 8.50781H120.821L120.376 10.2539ZM122.696 11.25L123.165 13.1484H123.236L123.693 11.25H122.696ZM129.299 11.7656C129.287 13.9805 128.666 15.8203 127.564 17.3906H126.416C127.225 16.2188 127.998 13.8633 127.998 11.7656C127.998 9.67969 127.225 7.3125 126.416 6.15234H127.564C128.666 7.72266 129.287 9.5625 129.299 11.7656Z" fill="white"/>
<mask id="path-5-inside-1_2473_1605" fill="white">
<path d="M0 22H141V44H0V22Z"/>
</mask>
<path d="M0 22H141V44H0V22Z" fill="#FFF8DA"/>
<path d="M141 44V43H0V44V45H141V44Z" fill="white" mask="url(#path-5-inside-1_2473_1605)"/>
<path d="M30.5578 37.1172C28.5891 37.1172 27.4406 35.5352 27.4406 32.7578C27.4406 30.0039 28.6125 28.3984 30.5578 28.3984C32.5031 28.3984 33.675 30.0039 33.675 32.7578C33.675 35.5352 32.5148 37.1172 30.5578 37.1172ZM30.5578 36.0039C31.7062 36.0039 32.3859 34.8789 32.3859 32.7578C32.3859 30.6484 31.6945 29.4883 30.5578 29.4883C29.4211 29.4883 28.7297 30.6484 28.7297 32.7578C28.7297 34.8789 29.4094 36.0039 30.5578 36.0039ZM35.2266 37.082C34.7695 37.082 34.3828 36.707 34.3945 36.25C34.3828 35.793 34.7695 35.418 35.2266 35.418C35.6719 35.418 36.0586 35.793 36.0586 36.25C36.0586 36.707 35.6719 37.082 35.2266 37.082ZM40.0008 37.1172C38.3953 37.1172 37.1883 36.1328 37.1297 34.7852H38.3836C38.4539 35.5117 39.1453 36.0391 40.0008 36.0391C41.032 36.0391 41.7703 35.2891 41.7703 34.2812C41.7703 33.25 41.0086 32.5 39.9422 32.4883C39.2625 32.4883 38.7469 32.7109 38.4539 33.2383H37.2352L37.7859 28.5156H42.5906V29.6172H38.8523L38.5711 31.9961H38.6531C39.0047 31.6562 39.6023 31.4219 40.2469 31.4219C41.8406 31.4219 43.0242 32.6055 43.0242 34.2461C43.0242 35.9219 41.7703 37.1172 40.0008 37.1172Z" fill="#767676"/>
<path d="M93.6117 28.3984C95.1703 28.4102 96.8109 29.3477 96.8109 32.4531C96.8109 35.4297 95.5336 37.1172 93.4945 37.1172C91.9359 37.1172 90.8344 36.1562 90.6352 34.7734H91.9125C92.0883 35.4883 92.6391 35.9922 93.4945 35.9922C94.807 35.9922 95.5688 34.8438 95.5805 32.9102H95.475C95.018 33.625 94.2211 34.0586 93.307 34.0586C91.7836 34.0586 90.5648 32.8984 90.5648 31.2695C90.5648 29.6523 91.7719 28.3867 93.6117 28.3984ZM93.6117 29.4766C92.5805 29.4766 91.8188 30.2734 91.8188 31.2461C91.8188 32.2305 92.557 33.0039 93.5883 33.0039C94.6078 33.0039 95.4047 32.1719 95.4047 31.2344C95.4047 30.3203 94.6547 29.4766 93.6117 29.4766ZM99.0773 36.1914L98.1398 39.4258H97.1437L97.7648 36.1914H99.0773ZM100.277 35.3477V34.3047L104.027 28.5156H105.621V34.2578H106.781V35.3477H105.621V37H104.402V35.3477H100.277ZM101.637 34.2578H104.402V30.0508H104.309L101.637 34.1875V34.2578ZM110.747 37.1172C108.907 37.1172 107.618 36.1211 107.63 34.7383C107.618 33.6484 108.403 32.7578 109.399 32.6055V32.5586C108.532 32.3594 107.946 31.5859 107.946 30.6602C107.946 29.3594 109.13 28.3984 110.747 28.3984C112.352 28.3984 113.524 29.3594 113.536 30.6602C113.524 31.5859 112.938 32.3594 112.083 32.5586V32.6055C113.067 32.7578 113.852 33.6484 113.864 34.7383C113.852 36.1211 112.563 37.1172 110.747 37.1172ZM110.747 36.0508C111.848 36.0508 112.552 35.4766 112.552 34.6445C112.552 33.7656 111.79 33.1328 110.747 33.1328C109.692 33.1328 108.919 33.7656 108.942 34.6445C108.919 35.4766 109.622 36.0508 110.747 36.0508ZM110.747 32.1133C111.638 32.1133 112.27 31.5742 112.27 30.7773C112.27 29.9922 111.649 29.4531 110.747 29.4531C109.809 29.4531 109.2 29.9805 109.2 30.7773C109.2 31.5742 109.845 32.1133 110.747 32.1133ZM117.853 37.1172C115.884 37.1172 114.736 35.5352 114.736 32.7578C114.736 30.0039 115.908 28.3984 117.853 28.3984C119.798 28.3984 120.97 30.0039 120.97 32.7578C120.97 35.5352 119.81 37.1172 117.853 37.1172ZM117.853 36.0039C119.002 36.0039 119.681 34.8789 119.681 32.7578C119.681 30.6484 118.99 29.4883 117.853 29.4883C116.716 29.4883 116.025 30.6484 116.025 32.7578C116.025 34.8789 116.705 36.0039 117.853 36.0039Z" fill="#767676"/>
<mask id="path-9-inside-2_2473_1605" fill="white">
<path d="M0 44H141V66H0V44Z"/>
</mask>
<path d="M0 44H141V66H0V44Z" fill="#FFF8DA"/>
<path d="M141 66V65H0V66V67H141V66Z" fill="white" mask="url(#path-9-inside-2_2473_1605)"/>
<path d="M31.9465 50.5156V59H30.6457V51.8047H30.5988L28.5715 53.1289V51.8984L30.6809 50.5156H31.9465ZM34.1543 59.082C33.6973 59.082 33.3105 58.707 33.3223 58.25C33.3105 57.793 33.6973 57.418 34.1543 57.418C34.5996 57.418 34.9863 57.793 34.9863 58.25C34.9863 58.707 34.5996 59.082 34.1543 59.082ZM38.823 59.1172C36.8543 59.1172 35.7059 57.5352 35.7059 54.7578C35.7059 52.0039 36.8777 50.3984 38.823 50.3984C40.7684 50.3984 41.9402 52.0039 41.9402 54.7578C41.9402 57.5352 40.7801 59.1172 38.823 59.1172ZM38.823 58.0039C39.9715 58.0039 40.6512 56.8789 40.6512 54.7578C40.6512 52.6484 39.9598 51.4883 38.823 51.4883C37.6863 51.4883 36.9949 52.6484 36.9949 54.7578C36.9949 56.8789 37.6746 58.0039 38.823 58.0039Z" fill="#767676"/>
<path d="M91.6641 50.5156V59H90.3633V51.8047H90.3164L88.2891 53.1289V51.8984L90.3984 50.5156H91.6641ZM96.4734 59.1172C94.5047 59.1172 93.3563 57.5352 93.3563 54.7578C93.3563 52.0039 94.5281 50.3984 96.4734 50.3984C98.4188 50.3984 99.5906 52.0039 99.5906 54.7578C99.5906 57.5352 98.4305 59.1172 96.4734 59.1172ZM96.4734 58.0039C97.6219 58.0039 98.3016 56.8789 98.3016 54.7578C98.3016 52.6484 97.6102 51.4883 96.4734 51.4883C95.3367 51.4883 94.6453 52.6484 94.6453 54.7578C94.6453 56.8789 95.325 58.0039 96.4734 58.0039ZM101.834 58.1914L100.896 61.4258H99.9L100.521 58.1914H101.834ZM105.893 59.1172C104.053 59.1172 102.764 58.1211 102.776 56.7383C102.764 55.6484 103.549 54.7578 104.545 54.6055V54.5586C103.678 54.3594 103.092 53.5859 103.092 52.6602C103.092 51.3594 104.276 50.3984 105.893 50.3984C107.498 50.3984 108.67 51.3594 108.682 52.6602C108.67 53.5859 108.084 54.3594 107.229 54.5586V54.6055C108.213 54.7578 108.998 55.6484 109.01 56.7383C108.998 58.1211 107.709 59.1172 105.893 59.1172ZM105.893 58.0508C106.995 58.0508 107.698 57.4766 107.698 56.6445C107.698 55.7656 106.936 55.1328 105.893 55.1328C104.838 55.1328 104.065 55.7656 104.088 56.6445C104.065 57.4766 104.768 58.0508 105.893 58.0508ZM105.893 54.1133C106.784 54.1133 107.416 53.5742 107.416 52.7773C107.416 51.9922 106.795 51.4531 105.893 51.4531C104.955 51.4531 104.346 51.9805 104.346 52.7773C104.346 53.5742 104.991 54.1133 105.893 54.1133ZM112.999 59.1172C111.03 59.1172 109.882 57.5352 109.882 54.7578C109.882 52.0039 111.054 50.3984 112.999 50.3984C114.945 50.3984 116.116 52.0039 116.116 54.7578C116.116 57.5352 114.956 59.1172 112.999 59.1172ZM112.999 58.0039C114.148 58.0039 114.827 56.8789 114.827 54.7578C114.827 52.6484 114.136 51.4883 112.999 51.4883C111.862 51.4883 111.171 52.6484 111.171 54.7578C111.171 56.8789 111.851 58.0039 112.999 58.0039ZM120.105 59.1172C118.137 59.1172 116.988 57.5352 116.988 54.7578C116.988 52.0039 118.16 50.3984 120.105 50.3984C122.051 50.3984 123.223 52.0039 123.223 54.7578C123.223 57.5352 122.062 59.1172 120.105 59.1172ZM120.105 58.0039C121.254 58.0039 121.934 56.8789 121.934 54.7578C121.934 52.6484 121.242 51.4883 120.105 51.4883C118.969 51.4883 118.277 52.6484 118.277 54.7578C118.277 56.8789 118.957 58.0039 120.105 58.0039Z" fill="#767676"/>
<mask id="path-13-inside-3_2473_1605" fill="white">
<path d="M0 66H141V88H0V66Z"/>
</mask>
<path d="M0 66H141V88H0V66Z" fill="#FFF8DA"/>
<path d="M141 88V87H0V88V89H141V88Z" fill="white" mask="url(#path-13-inside-3_2473_1605)"/>
<path d="M31.923 72.5156V81H30.6223V73.8047H30.5754L28.548 75.1289V73.8984L30.6574 72.5156H31.923ZM34.1309 81.082C33.6738 81.082 33.2871 80.707 33.2988 80.25C33.2871 79.793 33.6738 79.418 34.1309 79.418C34.5762 79.418 34.9629 79.793 34.9629 80.25C34.9629 80.707 34.5762 81.082 34.1309 81.082ZM38.9051 81.1172C37.2996 81.1172 36.0926 80.1328 36.034 78.7852H37.2879C37.3582 79.5117 38.0496 80.0391 38.9051 80.0391C39.9363 80.0391 40.6746 79.2891 40.6746 78.2812C40.6746 77.25 39.9129 76.5 38.8465 76.4883C38.1668 76.4883 37.6512 76.7109 37.3582 77.2383H36.1395L36.6902 72.5156H41.4949V73.6172H37.7566L37.4754 75.9961H37.5574C37.909 75.6562 38.5066 75.4219 39.1512 75.4219C40.7449 75.4219 41.9285 76.6055 41.9285 78.2461C41.9285 79.9219 40.6746 81.1172 38.9051 81.1172Z" fill="#767676"/>
<path d="M91.3887 72.5156V81H90.0879V73.8047H90.041L88.0137 75.1289V73.8984L90.123 72.5156H91.3887ZM93.2449 81V80.0625L96.1863 77.0977C97.1121 76.125 97.5809 75.5859 97.5809 74.8477C97.5809 74.0156 96.9012 73.4766 96.0105 73.4766C95.073 73.4766 94.4637 74.0742 94.4637 74.9766H93.2449C93.2332 73.4297 94.4168 72.3984 96.034 72.3984C97.6746 72.3984 98.7996 73.4297 98.8113 74.8125C98.7996 75.7617 98.3543 76.5117 96.7605 78.082L95.0379 79.8281V79.8984H98.952V81H93.2449ZM101.605 80.1914L100.668 83.4258H99.6715L100.293 80.1914H101.605ZM102.805 79.3477V78.3047L106.555 72.5156H108.149V78.2578H109.309V79.3477H108.149V81H106.93V79.3477H102.805ZM104.164 78.2578H106.93V74.0508H106.836L104.164 78.1875V78.2578ZM113.275 81.1172C111.435 81.1172 110.146 80.1211 110.157 78.7383C110.146 77.6484 110.931 76.7578 111.927 76.6055V76.5586C111.06 76.3594 110.474 75.5859 110.474 74.6602C110.474 73.3594 111.657 72.3984 113.275 72.3984C114.88 72.3984 116.052 73.3594 116.064 74.6602C116.052 75.5859 115.466 76.3594 114.611 76.5586V76.6055C115.595 76.7578 116.38 77.6484 116.392 78.7383C116.38 80.1211 115.091 81.1172 113.275 81.1172ZM113.275 80.0508C114.376 80.0508 115.079 79.4766 115.079 78.6445C115.079 77.7656 114.318 77.1328 113.275 77.1328C112.22 77.1328 111.446 77.7656 111.47 78.6445C111.446 79.4766 112.15 80.0508 113.275 80.0508ZM113.275 76.1133C114.165 76.1133 114.798 75.5742 114.798 74.7773C114.798 73.9922 114.177 73.4531 113.275 73.4531C112.337 73.4531 111.728 73.9805 111.728 74.7773C111.728 75.5742 112.372 76.1133 113.275 76.1133ZM120.381 81.1172C118.412 81.1172 117.264 79.5352 117.264 76.7578C117.264 74.0039 118.436 72.3984 120.381 72.3984C122.326 72.3984 123.498 74.0039 123.498 76.7578C123.498 79.5352 122.338 81.1172 120.381 81.1172ZM120.381 80.0039C121.529 80.0039 122.209 78.8789 122.209 76.7578C122.209 74.6484 121.518 73.4883 120.381 73.4883C119.244 73.4883 118.553 74.6484 118.553 76.7578C118.553 78.8789 119.232 80.0039 120.381 80.0039Z" fill="#767676"/>
<mask id="path-17-inside-4_2473_1605" fill="white">
<path d="M0 88H141V110H0V88Z"/>
</mask>
<path d="M0 88H141V110H0V88Z" fill="#FFF8DA"/>
<path d="M141 110V109H0V110V111H141V110Z" fill="white" mask="url(#path-17-inside-4_2473_1605)"/>
<path d="M27.6047 103V102.062L30.5461 99.0977C31.4719 98.125 31.9406 97.5859 31.9406 96.8477C31.9406 96.0156 31.2609 95.4766 30.3703 95.4766C29.4328 95.4766 28.8234 96.0742 28.8234 96.9766H27.6047C27.593 95.4297 28.7766 94.3984 30.3937 94.3984C32.0344 94.3984 33.1594 95.4297 33.1711 96.8125C33.1594 97.7617 32.7141 98.5117 31.1203 100.082L29.3977 101.828V101.898H33.3117V103H27.6047ZM35.2734 103.082C34.8164 103.082 34.4297 102.707 34.4414 102.25C34.4297 101.793 34.8164 101.418 35.2734 101.418C35.7188 101.418 36.1055 101.793 36.1055 102.25C36.1055 102.707 35.7188 103.082 35.2734 103.082ZM39.9422 103.117C37.9734 103.117 36.825 101.535 36.825 98.7578C36.825 96.0039 37.9969 94.3984 39.9422 94.3984C41.8875 94.3984 43.0594 96.0039 43.0594 98.7578C43.0594 101.535 41.8992 103.117 39.9422 103.117ZM39.9422 102.004C41.0906 102.004 41.7703 100.879 41.7703 98.7578C41.7703 96.6484 41.0789 95.4883 39.9422 95.4883C38.8055 95.4883 38.1141 96.6484 38.1141 98.7578C38.1141 100.879 38.7937 102.004 39.9422 102.004Z" fill="#767676"/>
<path d="M91.5938 94.5156V103H90.293V95.8047H90.2461L88.2188 97.1289V95.8984L90.3281 94.5156H91.5938ZM96.4617 103.117C94.7039 103.117 93.45 102.168 93.4031 100.785H94.7156C94.7625 101.535 95.5008 102.004 96.45 102.004C97.4695 102.004 98.2195 101.441 98.2195 100.621C98.2195 99.7891 97.5164 99.1797 96.3094 99.1797H95.5828V98.125H96.3094C97.2703 98.125 97.95 97.5859 97.95 96.7773C97.95 96.0039 97.3758 95.4766 96.4734 95.4766C95.618 95.4766 94.868 95.9453 94.8328 96.7188H93.5906C93.6258 95.3359 94.9031 94.3984 96.4852 94.3984C98.1492 94.3984 99.2039 95.4531 99.1922 96.707C99.2039 97.668 98.6063 98.3711 97.6922 98.5938V98.6523C98.8523 98.8164 99.5203 99.5898 99.5203 100.668C99.5203 102.086 98.2195 103.117 96.4617 103.117ZM101.904 102.191L100.966 105.426H99.9703L100.591 102.191H101.904ZM105.963 103.117C104.123 103.117 102.834 102.121 102.846 100.738C102.834 99.6484 103.62 98.7578 104.616 98.6055V98.5586C103.748 98.3594 103.163 97.5859 103.163 96.6602C103.163 95.3594 104.346 94.3984 105.963 94.3984C107.569 94.3984 108.741 95.3594 108.752 96.6602C108.741 97.5859 108.155 98.3594 107.299 98.5586V98.6055C108.284 98.7578 109.069 99.6484 109.08 100.738C109.069 102.121 107.78 103.117 105.963 103.117ZM105.963 102.051C107.065 102.051 107.768 101.477 107.768 100.645C107.768 99.7656 107.006 99.1328 105.963 99.1328C104.909 99.1328 104.135 99.7656 104.159 100.645C104.135 101.477 104.838 102.051 105.963 102.051ZM105.963 98.1133C106.854 98.1133 107.487 97.5742 107.487 96.7773C107.487 95.9922 106.866 95.4531 105.963 95.4531C105.026 95.4531 104.416 95.9805 104.416 96.7773C104.416 97.5742 105.061 98.1133 105.963 98.1133ZM113.07 103.117C111.101 103.117 109.952 101.535 109.952 98.7578C109.952 96.0039 111.124 94.3984 113.07 94.3984C115.015 94.3984 116.187 96.0039 116.187 98.7578C116.187 101.535 115.027 103.117 113.07 103.117ZM113.07 102.004C114.218 102.004 114.898 100.879 114.898 98.7578C114.898 96.6484 114.206 95.4883 113.07 95.4883C111.933 95.4883 111.241 96.6484 111.241 98.7578C111.241 100.879 111.921 102.004 113.07 102.004ZM120.176 103.117C118.207 103.117 117.059 101.535 117.059 98.7578C117.059 96.0039 118.23 94.3984 120.176 94.3984C122.121 94.3984 123.293 96.0039 123.293 98.7578C123.293 101.535 122.133 103.117 120.176 103.117ZM120.176 102.004C121.324 102.004 122.004 100.879 122.004 98.7578C122.004 96.6484 121.312 95.4883 120.176 95.4883C119.039 95.4883 118.348 96.6484 118.348 98.7578C118.348 100.879 119.027 102.004 120.176 102.004Z" fill="#767676"/>
<mask id="path-21-inside-5_2473_1605" fill="white">
<path d="M0 110H141V132H0V110Z"/>
</mask>
<path d="M0 110H141V132H0V110Z" fill="#FFF8DA"/>
<path d="M141 132V131H0V132V133H141V132Z" fill="white" mask="url(#path-21-inside-5_2473_1605)"/>
<path d="M27.5812 125V124.062L30.5227 121.098C31.4484 120.125 31.9172 119.586 31.9172 118.848C31.9172 118.016 31.2375 117.477 30.3469 117.477C29.4094 117.477 28.8 118.074 28.8 118.977H27.5812C27.5695 117.43 28.7531 116.398 30.3703 116.398C32.0109 116.398 33.1359 117.43 33.1477 118.812C33.1359 119.762 32.6906 120.512 31.0969 122.082L29.3742 123.828V123.898H33.2883V125H27.5812ZM35.25 125.082C34.793 125.082 34.4062 124.707 34.418 124.25C34.4062 123.793 34.793 123.418 35.25 123.418C35.6953 123.418 36.082 123.793 36.082 124.25C36.082 124.707 35.6953 125.082 35.25 125.082ZM40.0242 125.117C38.4187 125.117 37.2117 124.133 37.1531 122.785H38.407C38.4773 123.512 39.1687 124.039 40.0242 124.039C41.0555 124.039 41.7937 123.289 41.7937 122.281C41.7937 121.25 41.032 120.5 39.9656 120.488C39.2859 120.488 38.7703 120.711 38.4773 121.238H37.2586L37.8094 116.516H42.6141V117.617H38.8758L38.5945 119.996H38.6766C39.0281 119.656 39.6258 119.422 40.2703 119.422C41.8641 119.422 43.0477 120.605 43.0477 122.246C43.0477 123.922 41.7937 125.117 40.0242 125.117Z" fill="#767676"/>
<path d="M91.4707 116.516V125H90.1699V117.805H90.123L88.0957 119.129V117.898L90.2051 116.516H91.4707ZM96.2098 125.117C94.6043 125.117 93.3973 124.133 93.3387 122.785H94.5926C94.6629 123.512 95.3543 124.039 96.2098 124.039C97.241 124.039 97.9793 123.289 97.9793 122.281C97.9793 121.25 97.2176 120.5 96.1512 120.488C95.4715 120.488 94.9559 120.711 94.6629 121.238H93.4441L93.9949 116.516H98.7996V117.617H95.0613L94.7801 119.996H94.8621C95.2137 119.656 95.8113 119.422 96.4559 119.422C98.0496 119.422 99.2332 120.605 99.2332 122.246C99.2332 123.922 97.9793 125.117 96.2098 125.117ZM101.523 124.191L100.586 127.426H99.5895L100.211 124.191H101.523ZM102.723 123.348V122.305L106.473 116.516H108.067V122.258H109.227V123.348H108.067V125H106.848V123.348H102.723ZM104.082 122.258H106.848V118.051H106.754L104.082 122.188V122.258ZM113.193 125.117C111.353 125.117 110.064 124.121 110.075 122.738C110.064 121.648 110.849 120.758 111.845 120.605V120.559C110.978 120.359 110.392 119.586 110.392 118.66C110.392 117.359 111.575 116.398 113.193 116.398C114.798 116.398 115.97 117.359 115.982 118.66C115.97 119.586 115.384 120.359 114.529 120.559V120.605C115.513 120.758 116.298 121.648 116.31 122.738C116.298 124.121 115.009 125.117 113.193 125.117ZM113.193 124.051C114.294 124.051 114.997 123.477 114.997 122.645C114.997 121.766 114.236 121.133 113.193 121.133C112.138 121.133 111.364 121.766 111.388 122.645C111.364 123.477 112.068 124.051 113.193 124.051ZM113.193 120.113C114.083 120.113 114.716 119.574 114.716 118.777C114.716 117.992 114.095 117.453 113.193 117.453C112.255 117.453 111.646 117.98 111.646 118.777C111.646 119.574 112.29 120.113 113.193 120.113ZM120.299 125.117C118.33 125.117 117.182 123.535 117.182 120.758C117.182 118.004 118.354 116.398 120.299 116.398C122.244 116.398 123.416 118.004 123.416 120.758C123.416 123.535 122.256 125.117 120.299 125.117ZM120.299 124.004C121.447 124.004 122.127 122.879 122.127 120.758C122.127 118.648 121.436 117.488 120.299 117.488C119.162 117.488 118.471 118.648 118.471 120.758C118.471 122.879 119.15 124.004 120.299 124.004Z" fill="#767676"/>
<mask id="path-25-inside-6_2473_1605" fill="white">
<path d="M0 132H141V154H0V132Z"/>
</mask>
<path d="M0 132H141V154H0V132Z" fill="#FFF8DA"/>
<path d="M141 154V153H0V154V155H141V154Z" fill="white" mask="url(#path-25-inside-6_2473_1605)"/>
<path d="M30.5695 147.117C28.8117 147.117 27.5578 146.168 27.5109 144.785H28.8234C28.8703 145.535 29.6086 146.004 30.5578 146.004C31.5773 146.004 32.3273 145.441 32.3273 144.621C32.3273 143.789 31.6242 143.18 30.4172 143.18H29.6906V142.125H30.4172C31.3781 142.125 32.0578 141.586 32.0578 140.777C32.0578 140.004 31.4836 139.477 30.5812 139.477C29.7258 139.477 28.9758 139.945 28.9406 140.719H27.6984C27.7336 139.336 29.0109 138.398 30.593 138.398C32.257 138.398 33.3117 139.453 33.3 140.707C33.3117 141.668 32.7141 142.371 31.8 142.594V142.652C32.9602 142.816 33.6281 143.59 33.6281 144.668C33.6281 146.086 32.3273 147.117 30.5695 147.117ZM35.3203 147.082C34.8633 147.082 34.4766 146.707 34.4883 146.25C34.4766 145.793 34.8633 145.418 35.3203 145.418C35.7656 145.418 36.1523 145.793 36.1523 146.25C36.1523 146.707 35.7656 147.082 35.3203 147.082ZM39.9891 147.117C38.0203 147.117 36.8719 145.535 36.8719 142.758C36.8719 140.004 38.0437 138.398 39.9891 138.398C41.9344 138.398 43.1062 140.004 43.1062 142.758C43.1062 145.535 41.9461 147.117 39.9891 147.117ZM39.9891 146.004C41.1375 146.004 41.8172 144.879 41.8172 142.758C41.8172 140.648 41.1258 139.488 39.9891 139.488C38.8523 139.488 38.1609 140.648 38.1609 142.758C38.1609 144.879 38.8406 146.004 39.9891 146.004Z" fill="#767676"/>
<path d="M92.4961 138.516V147H91.1953V139.805H91.1484L89.1211 141.129V139.898L91.2305 138.516H92.4961ZM94.6453 147L98.4305 139.688V139.617H94.0594V138.516H99.7664V139.664L95.993 147H94.6453ZM100.826 146.191L99.8883 149.426H98.8922L99.5133 146.191H100.826ZM104.85 147.117C102.881 147.117 101.733 145.535 101.733 142.758C101.733 140.004 102.905 138.398 104.85 138.398C106.795 138.398 107.967 140.004 107.967 142.758C107.967 145.535 106.807 147.117 104.85 147.117ZM104.85 146.004C105.998 146.004 106.678 144.879 106.678 142.758C106.678 140.648 105.987 139.488 104.85 139.488C103.713 139.488 103.022 140.648 103.022 142.758C103.022 144.879 103.702 146.004 104.85 146.004ZM108.816 145.348V144.305L112.566 138.516H114.159V144.258H115.32V145.348H114.159V147H112.941V145.348H108.816ZM110.175 144.258H112.941V140.051H112.847L110.175 144.188V144.258ZM119.273 147.117C117.305 147.117 116.156 145.535 116.156 142.758C116.156 140.004 117.328 138.398 119.273 138.398C121.219 138.398 122.391 140.004 122.391 142.758C122.391 145.535 121.23 147.117 119.273 147.117ZM119.273 146.004C120.422 146.004 121.102 144.879 121.102 142.758C121.102 140.648 120.41 139.488 119.273 139.488C118.137 139.488 117.445 140.648 117.445 142.758C117.445 144.879 118.125 146.004 119.273 146.004Z" fill="#767676"/>
<mask id="path-29-inside-7_2473_1605" fill="white">
<path d="M0 154H141V176H0V154Z"/>
</mask>
<path d="M0 154H141V176H0V154Z" fill="#FFF8DA"/>
<path d="M141 176V175H0V176V177H141V176Z" fill="white" mask="url(#path-29-inside-7_2473_1605)"/>
<path d="M30.5461 169.117C28.7883 169.117 27.5344 168.168 27.4875 166.785H28.8C28.8469 167.535 29.5852 168.004 30.5344 168.004C31.5539 168.004 32.3039 167.441 32.3039 166.621C32.3039 165.789 31.6008 165.18 30.3937 165.18H29.6672V164.125H30.3937C31.3547 164.125 32.0344 163.586 32.0344 162.777C32.0344 162.004 31.4602 161.477 30.5578 161.477C29.7023 161.477 28.9523 161.945 28.9172 162.719H27.675C27.7102 161.336 28.9875 160.398 30.5695 160.398C32.2336 160.398 33.2883 161.453 33.2766 162.707C33.2883 163.668 32.6906 164.371 31.7766 164.594V164.652C32.9367 164.816 33.6047 165.59 33.6047 166.668C33.6047 168.086 32.3039 169.117 30.5461 169.117ZM35.2969 169.082C34.8398 169.082 34.4531 168.707 34.4648 168.25C34.4531 167.793 34.8398 167.418 35.2969 167.418C35.7422 167.418 36.1289 167.793 36.1289 168.25C36.1289 168.707 35.7422 169.082 35.2969 169.082ZM40.0711 169.117C38.4656 169.117 37.2586 168.133 37.2 166.785H38.4539C38.5242 167.512 39.2156 168.039 40.0711 168.039C41.1023 168.039 41.8406 167.289 41.8406 166.281C41.8406 165.25 41.0789 164.5 40.0125 164.488C39.3328 164.488 38.8172 164.711 38.5242 165.238H37.3055L37.8562 160.516H42.6609V161.617H38.9227L38.6414 163.996H38.7234C39.075 163.656 39.6727 163.422 40.3172 163.422C41.9109 163.422 43.0945 164.605 43.0945 166.246C43.0945 167.922 41.8406 169.117 40.0711 169.117Z" fill="#767676"/>
<path d="M91.6113 160.516V169H90.3105V161.805H90.2637L88.2363 163.129V161.898L90.3457 160.516H91.6113ZM96.4324 169.117C94.5926 169.117 93.3035 168.121 93.3152 166.738C93.3035 165.648 94.0887 164.758 95.0848 164.605V164.559C94.2176 164.359 93.6316 163.586 93.6316 162.66C93.6316 161.359 94.8152 160.398 96.4324 160.398C98.0379 160.398 99.2098 161.359 99.2215 162.66C99.2098 163.586 98.6238 164.359 97.7684 164.559V164.605C98.7527 164.758 99.5379 165.648 99.5496 166.738C99.5379 168.121 98.2488 169.117 96.4324 169.117ZM96.4324 168.051C97.534 168.051 98.2371 167.477 98.2371 166.645C98.2371 165.766 97.4754 165.133 96.4324 165.133C95.3777 165.133 94.6043 165.766 94.6277 166.645C94.6043 167.477 95.3074 168.051 96.4324 168.051ZM96.4324 164.113C97.323 164.113 97.9559 163.574 97.9559 162.777C97.9559 161.992 97.3348 161.453 96.4324 161.453C95.4949 161.453 94.8855 161.98 94.8855 162.777C94.8855 163.574 95.5301 164.113 96.4324 164.113ZM101.851 168.191L100.914 171.426H99.9176L100.539 168.191H101.851ZM105.993 169.117C104.422 169.105 102.782 168.18 102.782 165.039C102.782 162.086 104.059 160.398 106.098 160.398C107.657 160.398 108.746 161.371 108.946 162.719H107.668C107.504 162.027 106.954 161.523 106.098 161.523C104.786 161.523 104.024 162.672 104.024 164.582H104.118C104.575 163.867 105.371 163.434 106.297 163.434C107.809 163.434 109.028 164.594 109.028 166.223C109.028 167.863 107.821 169.129 105.993 169.117ZM105.981 168.039C107.012 168.039 107.774 167.242 107.774 166.246C107.774 165.273 107.036 164.488 106.016 164.488C104.973 164.488 104.188 165.309 104.176 166.258C104.188 167.195 104.938 168.039 105.981 168.039ZM113.052 169.117C111.083 169.117 109.935 167.535 109.935 164.758C109.935 162.004 111.107 160.398 113.052 160.398C114.997 160.398 116.169 162.004 116.169 164.758C116.169 167.535 115.009 169.117 113.052 169.117ZM113.052 168.004C114.2 168.004 114.88 166.879 114.88 164.758C114.88 162.648 114.189 161.488 113.052 161.488C111.915 161.488 111.224 162.648 111.224 164.758C111.224 166.879 111.904 168.004 113.052 168.004ZM120.158 169.117C118.189 169.117 117.041 167.535 117.041 164.758C117.041 162.004 118.213 160.398 120.158 160.398C122.104 160.398 123.275 162.004 123.275 164.758C123.275 167.535 122.115 169.117 120.158 169.117ZM120.158 168.004C121.307 168.004 121.986 166.879 121.986 164.758C121.986 162.648 121.295 161.488 120.158 161.488C119.021 161.488 118.33 162.648 118.33 164.758C118.33 166.879 119.01 168.004 120.158 168.004Z" fill="#767676"/>
<mask id="path-33-inside-8_2473_1605" fill="white">
<path d="M0 176H141V198H0V176Z"/>
</mask>
<path d="M0 176H141V198H0V176Z" fill="#FFF8DA"/>
<path d="M141 198V197H0V198V199H141V198Z" fill="white" mask="url(#path-33-inside-8_2473_1605)"/>
<path d="M27.3352 189.348V188.305L31.0852 182.516H32.6789V188.258H33.8391V189.348H32.6789V191H31.4602V189.348H27.3352ZM28.6945 188.258H31.4602V184.051H31.3664L28.6945 188.188V188.258ZM35.3555 191.082C34.8984 191.082 34.5117 190.707 34.5234 190.25C34.5117 189.793 34.8984 189.418 35.3555 189.418C35.8008 189.418 36.1875 189.793 36.1875 190.25C36.1875 190.707 35.8008 191.082 35.3555 191.082ZM40.0242 191.117C38.0555 191.117 36.907 189.535 36.907 186.758C36.907 184.004 38.0789 182.398 40.0242 182.398C41.9695 182.398 43.1414 184.004 43.1414 186.758C43.1414 189.535 41.9812 191.117 40.0242 191.117ZM40.0242 190.004C41.1727 190.004 41.8523 188.879 41.8523 186.758C41.8523 184.648 41.1609 183.488 40.0242 183.488C38.8875 183.488 38.1961 184.648 38.1961 186.758C38.1961 188.879 38.8758 190.004 40.0242 190.004Z" fill="#767676"/>
<path d="M88.916 191V190.062L91.8574 187.098C92.7832 186.125 93.252 185.586 93.252 184.848C93.252 184.016 92.5723 183.477 91.6816 183.477C90.7441 183.477 90.1348 184.074 90.1348 184.977H88.916C88.9043 183.43 90.0879 182.398 91.7051 182.398C93.3457 182.398 94.4707 183.43 94.4824 184.812C94.4707 185.762 94.0254 186.512 92.4316 188.082L90.709 189.828V189.898H94.623V191H88.916ZM98.7059 191.117C96.7371 191.117 95.5887 189.535 95.5887 186.758C95.5887 184.004 96.7605 182.398 98.7059 182.398C100.651 182.398 101.823 184.004 101.823 186.758C101.823 189.535 100.663 191.117 98.7059 191.117ZM98.7059 190.004C99.8543 190.004 100.534 188.879 100.534 186.758C100.534 184.648 99.8426 183.488 98.7059 183.488C97.5691 183.488 96.8777 184.648 96.8777 186.758C96.8777 188.879 97.5574 190.004 98.7059 190.004ZM104.066 190.191L103.129 193.426H102.132L102.754 190.191H104.066ZM107.645 182.516V191H106.344V183.805H106.297L104.27 185.129V183.898L106.379 182.516H107.645ZM112.571 191.117C111.001 191.105 109.361 190.18 109.361 187.039C109.361 184.086 110.638 182.398 112.677 182.398C114.236 182.398 115.325 183.371 115.525 184.719H114.247C114.083 184.027 113.532 183.523 112.677 183.523C111.364 183.523 110.603 184.672 110.603 186.582H110.696C111.154 185.867 111.95 185.434 112.876 185.434C114.388 185.434 115.607 186.594 115.607 188.223C115.607 189.863 114.4 191.129 112.571 191.117ZM112.56 190.039C113.591 190.039 114.353 189.242 114.353 188.246C114.353 187.273 113.614 186.488 112.595 186.488C111.552 186.488 110.767 187.309 110.755 188.258C110.767 189.195 111.517 190.039 112.56 190.039ZM119.631 191.117C117.662 191.117 116.514 189.535 116.514 186.758C116.514 184.004 117.686 182.398 119.631 182.398C121.576 182.398 122.748 184.004 122.748 186.758C122.748 189.535 121.588 191.117 119.631 191.117ZM119.631 190.004C120.779 190.004 121.459 188.879 121.459 186.758C121.459 184.648 120.768 183.488 119.631 183.488C118.494 183.488 117.803 184.648 117.803 186.758C117.803 188.879 118.482 190.004 119.631 190.004Z" fill="#767676"/>
<rect width="141" height="22" transform="translate(0 198)" fill="#FFF8DA"/>
<path d="M27.3117 211.348V210.305L31.0617 204.516H32.6555V210.258H33.8156V211.348H32.6555V213H31.4367V211.348H27.3117ZM28.6711 210.258H31.4367V206.051H31.343L28.6711 210.188V210.258ZM35.332 213.082C34.875 213.082 34.4883 212.707 34.5 212.25C34.4883 211.793 34.875 211.418 35.332 211.418C35.7773 211.418 36.1641 211.793 36.1641 212.25C36.1641 212.707 35.7773 213.082 35.332 213.082ZM40.1062 213.117C38.5008 213.117 37.2937 212.133 37.2352 210.785H38.4891C38.5594 211.512 39.2508 212.039 40.1062 212.039C41.1375 212.039 41.8758 211.289 41.8758 210.281C41.8758 209.25 41.1141 208.5 40.0477 208.488C39.368 208.488 38.8523 208.711 38.5594 209.238H37.3406L37.8914 204.516H42.6961V205.617H38.9578L38.6766 207.996H38.7586C39.1102 207.656 39.7078 207.422 40.3523 207.422C41.9461 207.422 43.1297 208.605 43.1297 210.246C43.1297 211.922 41.8758 213.117 40.1062 213.117Z" fill="#767676"/>
<path d="M89.1094 213V212.062L92.0508 209.098C92.9766 208.125 93.4453 207.586 93.4453 206.848C93.4453 206.016 92.7656 205.477 91.875 205.477C90.9375 205.477 90.3281 206.074 90.3281 206.977H89.1094C89.0977 205.43 90.2812 204.398 91.8984 204.398C93.5391 204.398 94.6641 205.43 94.6758 206.812C94.6641 207.762 94.2188 208.512 92.625 210.082L90.9023 211.828V211.898H94.8164V213H89.1094ZM99.1688 204.516V213H97.868V205.805H97.8211L95.7938 207.129V205.898L97.9031 204.516H99.1688ZM102.068 212.191L101.13 215.426H100.134L100.755 212.191H102.068ZM103.526 213L107.311 205.688V205.617H102.94V204.516H108.647V205.664L104.873 213H103.526ZM109.648 213V212.062L112.589 209.098C113.515 208.125 113.984 207.586 113.984 206.848C113.984 206.016 113.304 205.477 112.413 205.477C111.476 205.477 110.866 206.074 110.866 206.977H109.648C109.636 205.43 110.82 204.398 112.437 204.398C114.077 204.398 115.202 205.43 115.214 206.812C115.202 207.762 114.757 208.512 113.163 210.082L111.441 211.828V211.898H115.355V213H109.648ZM119.438 213.117C117.469 213.117 116.32 211.535 116.32 208.758C116.32 206.004 117.492 204.398 119.438 204.398C121.383 204.398 122.555 206.004 122.555 208.758C122.555 211.535 121.395 213.117 119.438 213.117ZM119.438 212.004C120.586 212.004 121.266 210.879 121.266 208.758C121.266 206.648 120.574 205.488 119.438 205.488C118.301 205.488 117.609 206.648 117.609 208.758C117.609 210.879 118.289 212.004 119.438 212.004Z" fill="#767676"/>
<rect width="141" height="22" transform="translate(143)" fill="#E09512"/>
<path d="M167.744 11.5195V12.4219H163.455V15.9844H162.365V12.4219H158.135V11.5195H167.744ZM166.537 6.05859V10.1836H159.342V6.05859H166.537ZM160.432 6.94922V9.31641H165.424V6.94922H160.432ZM177.241 5.49609V15.9961H176.186V5.49609H177.241ZM175.026 5.76562V15.4805H173.971V10.6055H171.921C171.294 11.8242 170.298 12.8906 168.815 13.7578L168.182 12.9609C170.409 11.6367 171.481 9.87305 171.675 7.71094H168.675V6.79688H172.776C172.77 7.82227 172.63 8.80078 172.307 9.71484H173.971V5.76562H175.026ZM178.921 11.7656C178.933 9.5625 179.554 7.72266 180.656 6.15234H181.804C180.996 7.3125 180.222 9.67969 180.222 11.7656C180.222 13.8633 180.996 16.2188 181.804 17.3906H180.656C179.554 15.8203 178.933 13.9805 178.921 11.7656ZM182.653 15V6.51562H183.907V11.3203H184.012L186.532 8.63672H188.032L185.465 11.3672L188.207 15H186.672L184.516 12.1406L183.907 12.7383V15H182.653ZM191.118 17.5195C189.513 17.5195 188.458 16.8047 188.341 15.6211H189.618C189.736 16.2188 190.298 16.5117 191.13 16.5117C192.126 16.5117 192.759 16.0898 192.759 15.0938V13.8398H192.677C192.454 14.25 191.997 14.9062 190.825 14.9062C189.325 14.9062 188.165 13.7812 188.165 11.7539C188.165 9.72656 189.302 8.55469 190.837 8.55469C192.021 8.55469 192.454 9.26953 192.689 9.66797H192.771V8.63672H193.989V15.1406C193.989 16.7695 192.759 17.5195 191.118 17.5195ZM191.107 13.875C192.173 13.875 192.771 13.0898 192.771 11.7773C192.771 10.4883 192.185 9.62109 191.107 9.62109C189.993 9.62109 189.443 10.5586 189.443 11.7773C189.443 13.0195 190.017 13.875 191.107 13.875ZM197.721 11.7656C197.709 13.9805 197.088 15.8203 195.986 17.3906H194.838C195.646 16.2188 196.42 13.8633 196.42 11.7656C196.42 9.67969 195.646 7.3125 194.838 6.15234H195.986C197.088 7.72266 197.709 9.5625 197.721 11.7656Z" fill="white"/>
<path d="M225.975 6.46875V8.97656H227.979V6.46875H229.01V13.4062H224.92V6.46875H225.975ZM225.975 12.5039H227.979V9.85547H225.975V12.5039ZM233.604 5.49609V15.9961H232.537V10.5234H231.236V15.4805H230.182V5.69531H231.236V9.60938H232.537V5.49609H233.604ZM239.971 9.17578V10.6406H244.214V11.543H234.639V10.6406H238.87V9.17578H239.971ZM239.983 6.10547C239.983 7.44141 241.624 8.61328 243.651 8.87109L243.218 9.75C241.548 9.48633 240.077 8.67188 239.421 7.51172C238.747 8.67188 237.276 9.48633 235.6 9.75L235.19 8.87109C237.206 8.61328 238.846 7.42969 238.858 6.10547V5.66016H239.983V6.10547ZM239.421 12.3164C241.694 12.3164 243.042 12.9727 243.042 14.1562C243.042 15.3281 241.694 15.9844 239.421 15.9727C237.136 15.9844 235.776 15.3281 235.776 14.1562C235.776 12.9727 237.136 12.3164 239.421 12.3164ZM239.421 13.1719C237.804 13.1719 236.901 13.5117 236.901 14.1562C236.901 14.7891 237.804 15.1289 239.421 15.1289C241.014 15.1289 241.929 14.7891 241.929 14.1562C241.929 13.5117 241.014 13.1719 239.421 13.1719ZM253.406 5.49609V16.0195H252.293V5.49609H253.406ZM246.41 6.375V9.07031H249.234V6.375H250.336V13.5H245.296V6.375H246.41ZM246.41 12.5859H249.234V9.94922H246.41V12.5859ZM255.414 11.7656C255.426 9.5625 256.047 7.72266 257.149 6.15234H258.297C257.489 7.3125 256.715 9.67969 256.715 11.7656C256.715 13.8633 257.489 16.2188 258.297 17.3906H257.149C256.047 15.8203 255.426 13.9805 255.414 11.7656ZM260.833 15L259.861 11.25H258.618V10.2539H259.603L258.63 6.51562H259.884L260.775 10.2539H262.275L263.212 6.51562H264.501L265.439 10.2539H266.939L267.829 6.51562H269.083L268.111 10.2539H269.095V11.25H267.853L266.868 15H265.579L264.607 11.25H263.107L262.134 15H260.833ZM261.021 11.25L261.466 13.1367H261.548L262.029 11.25H261.021ZM263.376 10.2539H264.349L263.892 8.50781H263.821L263.376 10.2539ZM265.696 11.25L266.165 13.1484H266.236L266.693 11.25H265.696ZM272.299 11.7656C272.287 13.9805 271.666 15.8203 270.564 17.3906H269.416C270.225 16.2188 270.998 13.8633 270.998 11.7656C270.998 9.67969 270.225 7.3125 269.416 6.15234H270.564C271.666 7.72266 272.287 9.5625 272.299 11.7656Z" fill="white"/>
<mask id="path-42-inside-9_2473_1605" fill="white">
<path d="M143 22H284V44H143V22Z"/>
</mask>
<path d="M143 22H284V44H143V22Z" fill="#FFF8DA"/>
<path d="M284 44V43H143V44V45H284V44Z" fill="white" mask="url(#path-42-inside-9_2473_1605)"/>
<path d="M173.57 37.1172C171.964 37.1172 170.757 36.1328 170.698 34.7852H171.952C172.023 35.5117 172.714 36.0391 173.57 36.0391C174.601 36.0391 175.339 35.2891 175.339 34.2812C175.339 33.25 174.577 32.5 173.511 32.4883C172.831 32.4883 172.316 32.7109 172.023 33.2383H170.804L171.355 28.5156H176.159V29.6172H172.421L172.14 31.9961H172.222C172.573 31.6562 173.171 31.4219 173.816 31.4219C175.409 31.4219 176.593 32.6055 176.593 34.2461C176.593 35.9219 175.339 37.1172 173.57 37.1172ZM178.191 37.082C177.734 37.082 177.348 36.707 177.359 36.25C177.348 35.793 177.734 35.418 178.191 35.418C178.637 35.418 179.023 35.793 179.023 36.25C179.023 36.707 178.637 37.082 178.191 37.082ZM182.86 37.1172C180.891 37.1172 179.743 35.5352 179.743 32.7578C179.743 30.0039 180.915 28.3984 182.86 28.3984C184.805 28.3984 185.977 30.0039 185.977 32.7578C185.977 35.5352 184.817 37.1172 182.86 37.1172ZM182.86 36.0039C184.009 36.0039 184.688 34.8789 184.688 32.7578C184.688 30.6484 183.997 29.4883 182.86 29.4883C181.723 29.4883 181.032 30.6484 181.032 32.7578C181.032 34.8789 181.712 36.0039 182.86 36.0039Z" fill="#767676"/>
<path d="M230.316 37V36.0625L233.258 33.0977C234.184 32.125 234.652 31.5859 234.652 30.8477C234.652 30.0156 233.973 29.4766 233.082 29.4766C232.145 29.4766 231.535 30.0742 231.535 30.9766H230.316C230.305 29.4297 231.488 28.3984 233.105 28.3984C234.746 28.3984 235.871 29.4297 235.883 30.8125C235.871 31.7617 235.426 32.5117 233.832 34.082L232.109 35.8281V35.8984H236.023V37H230.316ZM240.223 37.1172C238.653 37.1055 237.013 36.1797 237.013 33.0391C237.013 30.0859 238.29 28.3984 240.329 28.3984C241.888 28.3984 242.977 29.3711 243.177 30.7188H241.899C241.735 30.0273 241.184 29.5234 240.329 29.5234C239.016 29.5234 238.255 30.6719 238.255 32.582H238.348C238.805 31.8672 239.602 31.4336 240.528 31.4336C242.04 31.4336 243.259 32.5938 243.259 34.2227C243.259 35.8633 242.052 37.1289 240.223 37.1172ZM240.212 36.0391C241.243 36.0391 242.005 35.2422 242.005 34.2461C242.005 33.2734 241.266 32.4883 240.247 32.4883C239.204 32.4883 238.419 33.3086 238.407 34.2578C238.419 35.1953 239.169 36.0391 240.212 36.0391ZM245.466 36.1914L244.529 39.4258H243.533L244.154 36.1914H245.466ZM246.666 35.3477V34.3047L250.416 28.5156H252.01V34.2578H253.17V35.3477H252.01V37H250.791V35.3477H246.666ZM248.026 34.2578H250.791V30.0508H250.698L248.026 34.1875V34.2578ZM257.124 37.1172C255.155 37.1172 254.007 35.5352 254.007 32.7578C254.007 30.0039 255.179 28.3984 257.124 28.3984C259.07 28.3984 260.241 30.0039 260.241 32.7578C260.241 35.5352 259.081 37.1172 257.124 37.1172ZM257.124 36.0039C258.273 36.0039 258.952 34.8789 258.952 32.7578C258.952 30.6484 258.261 29.4883 257.124 29.4883C255.987 29.4883 255.296 30.6484 255.296 32.7578C255.296 34.8789 255.976 36.0039 257.124 36.0039ZM264.23 37.1172C262.262 37.1172 261.113 35.5352 261.113 32.7578C261.113 30.0039 262.285 28.3984 264.23 28.3984C266.176 28.3984 267.348 30.0039 267.348 32.7578C267.348 35.5352 266.188 37.1172 264.23 37.1172ZM264.23 36.0039C265.379 36.0039 266.059 34.8789 266.059 32.7578C266.059 30.6484 265.367 29.4883 264.23 29.4883C263.094 29.4883 262.402 30.6484 262.402 32.7578C262.402 34.8789 263.082 36.0039 264.23 36.0039Z" fill="#767676"/>
<mask id="path-46-inside-10_2473_1605" fill="white">
<path d="M143 44H284V66H143V44Z"/>
</mask>
<path d="M143 44H284V66H143V44Z" fill="#FFF8DA"/>
<path d="M284 66V65H143V66V67H284V66Z" fill="white" mask="url(#path-46-inside-10_2473_1605)"/>
<path d="M173.546 59.1172C171.941 59.1172 170.734 58.1328 170.675 56.7852H171.929C171.999 57.5117 172.691 58.0391 173.546 58.0391C174.577 58.0391 175.316 57.2891 175.316 56.2812C175.316 55.25 174.554 54.5 173.487 54.4883C172.808 54.4883 172.292 54.7109 171.999 55.2383H170.78L171.331 50.5156H176.136V51.6172H172.398L172.116 53.9961H172.198C172.55 53.6562 173.148 53.4219 173.792 53.4219C175.386 53.4219 176.57 54.6055 176.57 56.2461C176.57 57.9219 175.316 59.1172 173.546 59.1172ZM178.168 59.082C177.711 59.082 177.324 58.707 177.336 58.25C177.324 57.793 177.711 57.418 178.168 57.418C178.613 57.418 179 57.793 179 58.25C179 58.707 178.613 59.082 178.168 59.082ZM182.942 59.1172C181.337 59.1172 180.13 58.1328 180.071 56.7852H181.325C181.395 57.5117 182.087 58.0391 182.942 58.0391C183.973 58.0391 184.712 57.2891 184.712 56.2812C184.712 55.25 183.95 54.5 182.884 54.4883C182.204 54.4883 181.688 54.7109 181.395 55.2383H180.177L180.727 50.5156H185.532V51.6172H181.794L181.512 53.9961H181.595C181.946 53.6562 182.544 53.4219 183.188 53.4219C184.782 53.4219 185.966 54.6055 185.966 56.2461C185.966 57.9219 184.712 59.1172 182.942 59.1172Z" fill="#767676"/>
<path d="M231.465 59V58.0625L234.406 55.0977C235.332 54.125 235.801 53.5859 235.801 52.8477C235.801 52.0156 235.121 51.4766 234.23 51.4766C233.293 51.4766 232.684 52.0742 232.684 52.9766H231.465C231.453 51.4297 232.637 50.3984 234.254 50.3984C235.895 50.3984 237.02 51.4297 237.031 52.8125C237.02 53.7617 236.574 54.5117 234.98 56.082L233.258 57.8281V57.8984H237.172V59H231.465ZM238.595 59L242.38 51.6875V51.6172H238.009V50.5156H243.716V51.6641L239.942 59H238.595ZM244.775 58.1914L243.837 61.4258H242.841L243.462 58.1914H244.775ZM248.916 59.1172C247.346 59.1055 245.705 58.1797 245.705 55.0391C245.705 52.0859 246.983 50.3984 249.022 50.3984C250.58 50.3984 251.67 51.3711 251.87 52.7188H250.592C250.428 52.0273 249.877 51.5234 249.022 51.5234C247.709 51.5234 246.948 52.6719 246.948 54.582H247.041C247.498 53.8672 248.295 53.4336 249.221 53.4336C250.733 53.4336 251.952 54.5938 251.952 56.2227C251.952 57.8633 250.745 59.1289 248.916 59.1172ZM248.905 58.0391C249.936 58.0391 250.698 57.2422 250.698 56.2461C250.698 55.2734 249.959 54.4883 248.94 54.4883C247.897 54.4883 247.112 55.3086 247.1 56.2578C247.112 57.1953 247.862 58.0391 248.905 58.0391ZM255.976 59.1172C254.007 59.1172 252.859 57.5352 252.859 54.7578C252.859 52.0039 254.03 50.3984 255.976 50.3984C257.921 50.3984 259.093 52.0039 259.093 54.7578C259.093 57.5352 257.933 59.1172 255.976 59.1172ZM255.976 58.0039C257.124 58.0039 257.804 56.8789 257.804 54.7578C257.804 52.6484 257.112 51.4883 255.976 51.4883C254.839 51.4883 254.148 52.6484 254.148 54.7578C254.148 56.8789 254.827 58.0039 255.976 58.0039ZM263.082 59.1172C261.113 59.1172 259.965 57.5352 259.965 54.7578C259.965 52.0039 261.137 50.3984 263.082 50.3984C265.027 50.3984 266.199 52.0039 266.199 54.7578C266.199 57.5352 265.039 59.1172 263.082 59.1172ZM263.082 58.0039C264.23 58.0039 264.91 56.8789 264.91 54.7578C264.91 52.6484 264.219 51.4883 263.082 51.4883C261.945 51.4883 261.254 52.6484 261.254 54.7578C261.254 56.8789 261.934 58.0039 263.082 58.0039Z" fill="#767676"/>
<mask id="path-50-inside-11_2473_1605" fill="white">
<path d="M143 66H284V88H143V66Z"/>
</mask>
<path d="M143 66H284V88H143V66Z" fill="#FFF8DA"/>
<path d="M284 88V87H143V88V89H284V88Z" fill="white" mask="url(#path-50-inside-11_2473_1605)"/>
<path d="M173.698 81.1172C172.128 81.1055 170.487 80.1797 170.487 77.0391C170.487 74.0859 171.765 72.3984 173.804 72.3984C175.362 72.3984 176.452 73.3711 176.652 74.7188H175.374C175.21 74.0273 174.659 73.5234 173.804 73.5234C172.491 73.5234 171.73 74.6719 171.73 76.582H171.823C172.28 75.8672 173.077 75.4336 174.003 75.4336C175.515 75.4336 176.734 76.5938 176.734 78.2227C176.734 79.8633 175.527 81.1289 173.698 81.1172ZM173.687 80.0391C174.718 80.0391 175.48 79.2422 175.48 78.2461C175.48 77.2734 174.741 76.4883 173.722 76.4883C172.679 76.4883 171.894 77.3086 171.882 78.2578C171.894 79.1953 172.644 80.0391 173.687 80.0391ZM178.25 81.082C177.793 81.082 177.406 80.707 177.418 80.25C177.406 79.793 177.793 79.418 178.25 79.418C178.695 79.418 179.082 79.793 179.082 80.25C179.082 80.707 178.695 81.082 178.25 81.082ZM182.919 81.1172C180.95 81.1172 179.802 79.5352 179.802 76.7578C179.802 74.0039 180.973 72.3984 182.919 72.3984C184.864 72.3984 186.036 74.0039 186.036 76.7578C186.036 79.5352 184.876 81.1172 182.919 81.1172ZM182.919 80.0039C184.067 80.0039 184.747 78.8789 184.747 76.7578C184.747 74.6484 184.055 73.4883 182.919 73.4883C181.782 73.4883 181.091 74.6484 181.091 76.7578C181.091 78.8789 181.77 80.0039 182.919 80.0039Z" fill="#767676"/>
<path d="M230.527 81V80.0625L233.469 77.0977C234.395 76.125 234.863 75.5859 234.863 74.8477C234.863 74.0156 234.184 73.4766 233.293 73.4766C232.355 73.4766 231.746 74.0742 231.746 74.9766H230.527C230.516 73.4297 231.699 72.3984 233.316 72.3984C234.957 72.3984 236.082 73.4297 236.094 74.8125C236.082 75.7617 235.637 76.5117 234.043 78.082L232.32 79.8281V79.8984H236.234V81H230.527ZM240.329 81.1172C238.489 81.1172 237.2 80.1211 237.212 78.7383C237.2 77.6484 237.985 76.7578 238.981 76.6055V76.5586C238.114 76.3594 237.528 75.5859 237.528 74.6602C237.528 73.3594 238.712 72.3984 240.329 72.3984C241.934 72.3984 243.106 73.3594 243.118 74.6602C243.106 75.5859 242.52 76.3594 241.665 76.5586V76.6055C242.649 76.7578 243.434 77.6484 243.446 78.7383C243.434 80.1211 242.145 81.1172 240.329 81.1172ZM240.329 80.0508C241.43 80.0508 242.134 79.4766 242.134 78.6445C242.134 77.7656 241.372 77.1328 240.329 77.1328C239.274 77.1328 238.501 77.7656 238.524 78.6445C238.501 79.4766 239.204 80.0508 240.329 80.0508ZM240.329 76.1133C241.22 76.1133 241.852 75.5742 241.852 74.7773C241.852 73.9922 241.231 73.4531 240.329 73.4531C239.391 73.4531 238.782 73.9805 238.782 74.7773C238.782 75.5742 239.427 76.1133 240.329 76.1133ZM245.748 80.1914L244.81 83.4258H243.814L244.435 80.1914H245.748ZM249.807 81.1172C247.967 81.1172 246.678 80.1211 246.69 78.7383C246.678 77.6484 247.463 76.7578 248.459 76.6055V76.5586C247.592 76.3594 247.006 75.5859 247.006 74.6602C247.006 73.3594 248.19 72.3984 249.807 72.3984C251.412 72.3984 252.584 73.3594 252.596 74.6602C252.584 75.5859 251.998 76.3594 251.143 76.5586V76.6055C252.127 76.7578 252.912 77.6484 252.924 78.7383C252.912 80.1211 251.623 81.1172 249.807 81.1172ZM249.807 80.0508C250.909 80.0508 251.612 79.4766 251.612 78.6445C251.612 77.7656 250.85 77.1328 249.807 77.1328C248.752 77.1328 247.979 77.7656 248.002 78.6445C247.979 79.4766 248.682 80.0508 249.807 80.0508ZM249.807 76.1133C250.698 76.1133 251.33 75.5742 251.33 74.7773C251.33 73.9922 250.709 73.4531 249.807 73.4531C248.87 73.4531 248.26 73.9805 248.26 74.7773C248.26 75.5742 248.905 76.1133 249.807 76.1133ZM256.913 81.1172C254.945 81.1172 253.796 79.5352 253.796 76.7578C253.796 74.0039 254.968 72.3984 256.913 72.3984C258.859 72.3984 260.03 74.0039 260.03 76.7578C260.03 79.5352 258.87 81.1172 256.913 81.1172ZM256.913 80.0039C258.062 80.0039 258.741 78.8789 258.741 76.7578C258.741 74.6484 258.05 73.4883 256.913 73.4883C255.777 73.4883 255.085 74.6484 255.085 76.7578C255.085 78.8789 255.765 80.0039 256.913 80.0039ZM264.02 81.1172C262.051 81.1172 260.902 79.5352 260.902 76.7578C260.902 74.0039 262.074 72.3984 264.02 72.3984C265.965 72.3984 267.137 74.0039 267.137 76.7578C267.137 79.5352 265.977 81.1172 264.02 81.1172ZM264.02 80.0039C265.168 80.0039 265.848 78.8789 265.848 76.7578C265.848 74.6484 265.156 73.4883 264.02 73.4883C262.883 73.4883 262.191 74.6484 262.191 76.7578C262.191 78.8789 262.871 80.0039 264.02 80.0039Z" fill="#767676"/>
<mask id="path-54-inside-12_2473_1605" fill="white">
<path d="M143 88H284V110H143V88Z"/>
</mask>
<path d="M143 88H284V110H143V88Z" fill="#FFF8DA"/>
<path d="M284 110V109H143V110V111H284V110Z" fill="white" mask="url(#path-54-inside-12_2473_1605)"/>
<path d="M173.675 103.117C172.105 103.105 170.464 102.18 170.464 99.0391C170.464 96.0859 171.741 94.3984 173.78 94.3984C175.339 94.3984 176.429 95.3711 176.628 96.7188H175.351C175.187 96.0273 174.636 95.5234 173.78 95.5234C172.468 95.5234 171.706 96.6719 171.706 98.582H171.8C172.257 97.8672 173.054 97.4336 173.98 97.4336C175.491 97.4336 176.71 98.5938 176.71 100.223C176.71 101.863 175.503 103.129 173.675 103.117ZM173.663 102.039C174.695 102.039 175.456 101.242 175.456 100.246C175.456 99.2734 174.718 98.4883 173.698 98.4883C172.655 98.4883 171.87 99.3086 171.859 100.258C171.87 101.195 172.62 102.039 173.663 102.039ZM178.227 103.082C177.77 103.082 177.383 102.707 177.395 102.25C177.383 101.793 177.77 101.418 178.227 101.418C178.672 101.418 179.059 101.793 179.059 102.25C179.059 102.707 178.672 103.082 178.227 103.082ZM183.001 103.117C181.395 103.117 180.188 102.133 180.13 100.785H181.384C181.454 101.512 182.145 102.039 183.001 102.039C184.032 102.039 184.77 101.289 184.77 100.281C184.77 99.25 184.009 98.5 182.942 98.4883C182.262 98.4883 181.747 98.7109 181.454 99.2383H180.235L180.786 94.5156H185.591V95.6172H181.852L181.571 97.9961H181.653C182.005 97.6562 182.602 97.4219 183.247 97.4219C184.841 97.4219 186.024 98.6055 186.024 100.246C186.024 101.922 184.77 103.117 183.001 103.117Z" fill="#767676"/>
<path d="M234.922 103.117C233.164 103.117 231.91 102.168 231.863 100.785H233.176C233.223 101.535 233.961 102.004 234.91 102.004C235.93 102.004 236.68 101.441 236.68 100.621C236.68 99.7891 235.977 99.1797 234.77 99.1797H234.043V98.125H234.77C235.73 98.125 236.41 97.5859 236.41 96.7773C236.41 96.0039 235.836 95.4766 234.934 95.4766C234.078 95.4766 233.328 95.9453 233.293 96.7188H232.051C232.086 95.3359 233.363 94.3984 234.945 94.3984C236.609 94.3984 237.664 95.4531 237.652 96.707C237.664 97.668 237.066 98.3711 236.152 98.5938V98.6523C237.312 98.8164 237.98 99.5898 237.98 100.668C237.98 102.086 236.68 103.117 234.922 103.117ZM242.052 103.117C240.083 103.117 238.934 101.535 238.934 98.7578C238.934 96.0039 240.106 94.3984 242.052 94.3984C243.997 94.3984 245.169 96.0039 245.169 98.7578C245.169 101.535 244.009 103.117 242.052 103.117ZM242.052 102.004C243.2 102.004 243.88 100.879 243.88 98.7578C243.88 96.6484 243.188 95.4883 242.052 95.4883C240.915 95.4883 240.223 96.6484 240.223 98.7578C240.223 100.879 240.903 102.004 242.052 102.004ZM247.412 102.191L246.474 105.426H245.478L246.099 102.191H247.412ZM250.991 94.5156V103H249.69V95.8047H249.643L247.616 97.1289V95.8984L249.725 94.5156H250.991ZM252.847 103V102.062L255.788 99.0977C256.714 98.125 257.183 97.5859 257.183 96.8477C257.183 96.0156 256.503 95.4766 255.612 95.4766C254.675 95.4766 254.066 96.0742 254.066 96.9766H252.847C252.835 95.4297 254.019 94.3984 255.636 94.3984C257.277 94.3984 258.402 95.4297 258.413 96.8125C258.402 97.7617 257.956 98.5117 256.362 100.082L254.64 101.828V101.898H258.554V103H252.847ZM262.637 103.117C260.668 103.117 259.52 101.535 259.52 98.7578C259.52 96.0039 260.691 94.3984 262.637 94.3984C264.582 94.3984 265.754 96.0039 265.754 98.7578C265.754 101.535 264.594 103.117 262.637 103.117ZM262.637 102.004C263.785 102.004 264.465 100.879 264.465 98.7578C264.465 96.6484 263.773 95.4883 262.637 95.4883C261.5 95.4883 260.809 96.6484 260.809 98.7578C260.809 100.879 261.488 102.004 262.637 102.004Z" fill="#767676"/>
<mask id="path-58-inside-13_2473_1605" fill="white">
<path d="M143 110H284V132H143V110Z"/>
</mask>
<path d="M143 110H284V132H143V110Z" fill="#FFF8DA"/>
<path d="M284 132V131H143V132V133H284V132Z" fill="white" mask="url(#path-58-inside-13_2473_1605)"/>
<path d="M171.841 125L175.626 117.688V117.617H171.255V116.516H176.962V117.664L173.189 125H171.841ZM177.33 125.082C176.873 125.082 176.486 124.707 176.498 124.25C176.486 123.793 176.873 123.418 177.33 123.418C177.775 123.418 178.162 123.793 178.162 124.25C178.162 124.707 177.775 125.082 177.33 125.082ZM181.999 125.117C180.03 125.117 178.882 123.535 178.882 120.758C178.882 118.004 180.054 116.398 181.999 116.398C183.944 116.398 185.116 118.004 185.116 120.758C185.116 123.535 183.956 125.117 181.999 125.117ZM181.999 124.004C183.147 124.004 183.827 122.879 183.827 120.758C183.827 118.648 183.136 117.488 181.999 117.488C180.862 117.488 180.171 118.648 180.171 120.758C180.171 122.879 180.85 124.004 181.999 124.004Z" fill="#767676"/>
<path d="M234.6 125.117C232.842 125.117 231.588 124.168 231.541 122.785H232.854C232.9 123.535 233.639 124.004 234.588 124.004C235.607 124.004 236.357 123.441 236.357 122.621C236.357 121.789 235.654 121.18 234.447 121.18H233.721V120.125H234.447C235.408 120.125 236.088 119.586 236.088 118.777C236.088 118.004 235.514 117.477 234.611 117.477C233.756 117.477 233.006 117.945 232.971 118.719H231.729C231.764 117.336 233.041 116.398 234.623 116.398C236.287 116.398 237.342 117.453 237.33 118.707C237.342 119.668 236.744 120.371 235.83 120.594V120.652C236.99 120.816 237.658 121.59 237.658 122.668C237.658 124.086 236.357 125.117 234.6 125.117ZM241.999 116.516V125H240.698V117.805H240.651L238.624 119.129V117.898L240.733 116.516H241.999ZM244.898 124.191L243.961 127.426H242.964L243.586 124.191H244.898ZM248.993 125.117C247.235 125.117 245.981 124.168 245.934 122.785H247.246C247.293 123.535 248.032 124.004 248.981 124.004C250 124.004 250.75 123.441 250.75 122.621C250.75 121.789 250.047 121.18 248.84 121.18H248.114V120.125H248.84C249.801 120.125 250.481 119.586 250.481 118.777C250.481 118.004 249.907 117.477 249.004 117.477C248.149 117.477 247.399 117.945 247.364 118.719H246.121C246.157 117.336 247.434 116.398 249.016 116.398C250.68 116.398 251.735 117.453 251.723 118.707C251.735 119.668 251.137 120.371 250.223 120.594V120.652C251.383 120.816 252.051 121.59 252.051 122.668C252.051 124.086 250.75 125.117 248.993 125.117ZM253.169 125V124.062L256.111 121.098C257.036 120.125 257.505 119.586 257.505 118.848C257.505 118.016 256.825 117.477 255.935 117.477C254.997 117.477 254.388 118.074 254.388 118.977H253.169C253.157 117.43 254.341 116.398 255.958 116.398C257.599 116.398 258.724 117.43 258.736 118.812C258.724 119.762 258.279 120.512 256.685 122.082L254.962 123.828V123.898H258.876V125H253.169ZM262.959 125.117C260.99 125.117 259.842 123.535 259.842 120.758C259.842 118.004 261.014 116.398 262.959 116.398C264.904 116.398 266.076 118.004 266.076 120.758C266.076 123.535 264.916 125.117 262.959 125.117ZM262.959 124.004C264.107 124.004 264.787 122.879 264.787 120.758C264.787 118.648 264.096 117.488 262.959 117.488C261.822 117.488 261.131 118.648 261.131 120.758C261.131 122.879 261.811 124.004 262.959 124.004Z" fill="#767676"/>
<mask id="path-62-inside-14_2473_1605" fill="white">
<path d="M143 132H284V154H143V132Z"/>
</mask>
<path d="M143 132H284V154H143V132Z" fill="#FFF8DA"/>
<path d="M284 154V153H143V154V155H284V154Z" fill="white" mask="url(#path-62-inside-14_2473_1605)"/>
<path d="M171.818 147L175.603 139.688V139.617H171.232V138.516H176.939V139.664L173.165 147H171.818ZM177.307 147.082C176.85 147.082 176.463 146.707 176.475 146.25C176.463 145.793 176.85 145.418 177.307 145.418C177.752 145.418 178.139 145.793 178.139 146.25C178.139 146.707 177.752 147.082 177.307 147.082ZM182.081 147.117C180.475 147.117 179.268 146.133 179.21 144.785H180.464C180.534 145.512 181.225 146.039 182.081 146.039C183.112 146.039 183.85 145.289 183.85 144.281C183.85 143.25 183.089 142.5 182.022 142.488C181.343 142.488 180.827 142.711 180.534 143.238H179.315L179.866 138.516H184.671V139.617H180.932L180.651 141.996H180.733C181.085 141.656 181.682 141.422 182.327 141.422C183.921 141.422 185.104 142.605 185.104 144.246C185.104 145.922 183.85 147.117 182.081 147.117Z" fill="#767676"/>
<path d="M233.504 147.117C231.746 147.117 230.492 146.168 230.445 144.785H231.758C231.805 145.535 232.543 146.004 233.492 146.004C234.512 146.004 235.262 145.441 235.262 144.621C235.262 143.789 234.559 143.18 233.352 143.18H232.625V142.125H233.352C234.312 142.125 234.992 141.586 234.992 140.777C234.992 140.004 234.418 139.477 233.516 139.477C232.66 139.477 231.91 139.945 231.875 140.719H230.633C230.668 139.336 231.945 138.398 233.527 138.398C235.191 138.398 236.246 139.453 236.234 140.707C236.246 141.668 235.648 142.371 234.734 142.594V142.652C235.895 142.816 236.562 143.59 236.562 144.668C236.562 146.086 235.262 147.117 233.504 147.117ZM237.68 147V146.062L240.622 143.098C241.548 142.125 242.016 141.586 242.016 140.848C242.016 140.016 241.337 139.477 240.446 139.477C239.509 139.477 238.899 140.074 238.899 140.977H237.68C237.669 139.43 238.852 138.398 240.47 138.398C242.11 138.398 243.235 139.43 243.247 140.812C243.235 141.762 242.79 142.512 241.196 144.082L239.473 145.828V145.898H243.388V147H237.68ZM246.041 146.191L245.103 149.426H244.107L244.728 146.191H246.041ZM250.17 147.117C248.565 147.117 247.358 146.133 247.299 144.785H248.553C248.623 145.512 249.315 146.039 250.17 146.039C251.202 146.039 251.94 145.289 251.94 144.281C251.94 143.25 251.178 142.5 250.112 142.488C249.432 142.488 248.916 142.711 248.623 143.238H247.405L247.955 138.516H252.76V139.617H249.022L248.741 141.996H248.823C249.174 141.656 249.772 141.422 250.416 141.422C252.01 141.422 253.194 142.605 253.194 144.246C253.194 145.922 251.94 147.117 250.17 147.117ZM254.265 147V146.062L257.206 143.098C258.132 142.125 258.601 141.586 258.601 140.848C258.601 140.016 257.921 139.477 257.03 139.477C256.093 139.477 255.484 140.074 255.484 140.977H254.265C254.253 139.43 255.437 138.398 257.054 138.398C258.695 138.398 259.82 139.43 259.831 140.812C259.82 141.762 259.374 142.512 257.78 144.082L256.058 145.828V145.898H259.972V147H254.265ZM264.055 147.117C262.086 147.117 260.938 145.535 260.938 142.758C260.938 140.004 262.109 138.398 264.055 138.398C266 138.398 267.172 140.004 267.172 142.758C267.172 145.535 266.012 147.117 264.055 147.117ZM264.055 146.004C265.203 146.004 265.883 144.879 265.883 142.758C265.883 140.648 265.191 139.488 264.055 139.488C262.918 139.488 262.227 140.648 262.227 142.758C262.227 144.879 262.906 146.004 264.055 146.004Z" fill="#767676"/>
<mask id="path-66-inside-15_2473_1605" fill="white">
<path d="M143 154H284V176H143V154Z"/>
</mask>
<path d="M143 154H284V176H143V154Z" fill="#FFF8DA"/>
<path d="M284 176V175H143V176V177H284V176Z" fill="white" mask="url(#path-66-inside-15_2473_1605)"/>
<path d="M173.558 169.117C171.718 169.117 170.429 168.121 170.441 166.738C170.429 165.648 171.214 164.758 172.21 164.605V164.559C171.343 164.359 170.757 163.586 170.757 162.66C170.757 161.359 171.941 160.398 173.558 160.398C175.163 160.398 176.335 161.359 176.347 162.66C176.335 163.586 175.749 164.359 174.894 164.559V164.605C175.878 164.758 176.663 165.648 176.675 166.738C176.663 168.121 175.374 169.117 173.558 169.117ZM173.558 168.051C174.659 168.051 175.362 167.477 175.362 166.645C175.362 165.766 174.601 165.133 173.558 165.133C172.503 165.133 171.73 165.766 171.753 166.645C171.73 167.477 172.433 168.051 173.558 168.051ZM173.558 164.113C174.448 164.113 175.081 163.574 175.081 162.777C175.081 161.992 174.46 161.453 173.558 161.453C172.62 161.453 172.011 161.98 172.011 162.777C172.011 163.574 172.655 164.113 173.558 164.113ZM178.285 169.082C177.828 169.082 177.441 168.707 177.453 168.25C177.441 167.793 177.828 167.418 178.285 167.418C178.73 167.418 179.117 167.793 179.117 168.25C179.117 168.707 178.73 169.082 178.285 169.082ZM182.954 169.117C180.985 169.117 179.837 167.535 179.837 164.758C179.837 162.004 181.009 160.398 182.954 160.398C184.899 160.398 186.071 162.004 186.071 164.758C186.071 167.535 184.911 169.117 182.954 169.117ZM182.954 168.004C184.102 168.004 184.782 166.879 184.782 164.758C184.782 162.648 184.091 161.488 182.954 161.488C181.817 161.488 181.126 162.648 181.126 164.758C181.126 166.879 181.805 168.004 182.954 168.004Z" fill="#767676"/>
<path d="M233.779 169.117C232.021 169.117 230.768 168.168 230.721 166.785H232.033C232.08 167.535 232.818 168.004 233.768 168.004C234.787 168.004 235.537 167.441 235.537 166.621C235.537 165.789 234.834 165.18 233.627 165.18H232.9V164.125H233.627C234.588 164.125 235.268 163.586 235.268 162.777C235.268 162.004 234.693 161.477 233.791 161.477C232.936 161.477 232.186 161.945 232.15 162.719H230.908C230.943 161.336 232.221 160.398 233.803 160.398C235.467 160.398 236.521 161.453 236.51 162.707C236.521 163.668 235.924 164.371 235.01 164.594V164.652C236.17 164.816 236.838 165.59 236.838 166.668C236.838 168.086 235.537 169.117 233.779 169.117ZM240.968 169.117C239.21 169.117 237.956 168.168 237.909 166.785H239.221C239.268 167.535 240.007 168.004 240.956 168.004C241.975 168.004 242.725 167.441 242.725 166.621C242.725 165.789 242.022 165.18 240.815 165.18H240.089V164.125H240.815C241.776 164.125 242.456 163.586 242.456 162.777C242.456 162.004 241.882 161.477 240.979 161.477C240.124 161.477 239.374 161.945 239.339 162.719H238.096C238.132 161.336 239.409 160.398 240.991 160.398C242.655 160.398 243.71 161.453 243.698 162.707C243.71 163.668 243.112 164.371 242.198 164.594V164.652C243.358 164.816 244.026 165.59 244.026 166.668C244.026 168.086 242.725 169.117 240.968 169.117ZM246.41 168.191L245.472 171.426H244.476L245.097 168.191H246.41ZM247.868 169L251.653 161.688V161.617H247.282V160.516H252.989V161.664L249.215 169H247.868ZM253.989 169V168.062L256.931 165.098C257.857 164.125 258.325 163.586 258.325 162.848C258.325 162.016 257.646 161.477 256.755 161.477C255.818 161.477 255.208 162.074 255.208 162.977H253.989C253.978 161.43 255.161 160.398 256.779 160.398C258.419 160.398 259.544 161.43 259.556 162.812C259.544 163.762 259.099 164.512 257.505 166.082L255.782 167.828V167.898H259.696V169H253.989ZM263.779 169.117C261.811 169.117 260.662 167.535 260.662 164.758C260.662 162.004 261.834 160.398 263.779 160.398C265.725 160.398 266.896 162.004 266.896 164.758C266.896 167.535 265.736 169.117 263.779 169.117ZM263.779 168.004C264.928 168.004 265.607 166.879 265.607 164.758C265.607 162.648 264.916 161.488 263.779 161.488C262.643 161.488 261.951 162.648 261.951 164.758C261.951 166.879 262.631 168.004 263.779 168.004Z" fill="#767676"/>
<mask id="path-70-inside-16_2473_1605" fill="white">
<path d="M143 176H284V198H143V176Z"/>
</mask>
<path d="M143 176H284V198H143V176Z" fill="#FFF8DA"/>
<path d="M284 198V197H143V198V199H284V198Z" fill="white" mask="url(#path-70-inside-16_2473_1605)"/>
<path d="M173.534 191.117C171.695 191.117 170.405 190.121 170.417 188.738C170.405 187.648 171.191 186.758 172.187 186.605V186.559C171.32 186.359 170.734 185.586 170.734 184.66C170.734 183.359 171.917 182.398 173.534 182.398C175.14 182.398 176.312 183.359 176.323 184.66C176.312 185.586 175.726 186.359 174.87 186.559V186.605C175.855 186.758 176.64 187.648 176.652 188.738C176.64 190.121 175.351 191.117 173.534 191.117ZM173.534 190.051C174.636 190.051 175.339 189.477 175.339 188.645C175.339 187.766 174.577 187.133 173.534 187.133C172.48 187.133 171.706 187.766 171.73 188.645C171.706 189.477 172.409 190.051 173.534 190.051ZM173.534 186.113C174.425 186.113 175.058 185.574 175.058 184.777C175.058 183.992 174.437 183.453 173.534 183.453C172.597 183.453 171.987 183.98 171.987 184.777C171.987 185.574 172.632 186.113 173.534 186.113ZM178.262 191.082C177.805 191.082 177.418 190.707 177.43 190.25C177.418 189.793 177.805 189.418 178.262 189.418C178.707 189.418 179.094 189.793 179.094 190.25C179.094 190.707 178.707 191.082 178.262 191.082ZM183.036 191.117C181.43 191.117 180.223 190.133 180.165 188.785H181.419C181.489 189.512 182.18 190.039 183.036 190.039C184.067 190.039 184.805 189.289 184.805 188.281C184.805 187.25 184.044 186.5 182.977 186.488C182.298 186.488 181.782 186.711 181.489 187.238H180.27L180.821 182.516H185.626V183.617H181.887L181.606 185.996H181.688C182.04 185.656 182.637 185.422 183.282 185.422C184.876 185.422 186.059 186.605 186.059 188.246C186.059 189.922 184.805 191.117 183.036 191.117Z" fill="#767676"/>
<path d="M233.369 191.117C231.611 191.117 230.357 190.168 230.311 188.785H231.623C231.67 189.535 232.408 190.004 233.357 190.004C234.377 190.004 235.127 189.441 235.127 188.621C235.127 187.789 234.424 187.18 233.217 187.18H232.49V186.125H233.217C234.178 186.125 234.857 185.586 234.857 184.777C234.857 184.004 234.283 183.477 233.381 183.477C232.525 183.477 231.775 183.945 231.74 184.719H230.498C230.533 183.336 231.811 182.398 233.393 182.398C235.057 182.398 236.111 183.453 236.1 184.707C236.111 185.668 235.514 186.371 234.6 186.594V186.652C235.76 186.816 236.428 187.59 236.428 188.668C236.428 190.086 235.127 191.117 233.369 191.117ZM240.429 191.117C238.823 191.117 237.616 190.133 237.557 188.785H238.811C238.882 189.512 239.573 190.039 240.429 190.039C241.46 190.039 242.198 189.289 242.198 188.281C242.198 187.25 241.436 186.5 240.37 186.488C239.69 186.488 239.175 186.711 238.882 187.238H237.663L238.214 182.516H243.018V183.617H239.28L238.999 185.996H239.081C239.432 185.656 240.03 185.422 240.675 185.422C242.268 185.422 243.452 186.605 243.452 188.246C243.452 189.922 242.198 191.117 240.429 191.117ZM245.742 190.191L244.804 193.426H243.808L244.429 190.191H245.742ZM249.766 191.117C247.797 191.117 246.649 189.535 246.649 186.758C246.649 184.004 247.821 182.398 249.766 182.398C251.711 182.398 252.883 184.004 252.883 186.758C252.883 189.535 251.723 191.117 249.766 191.117ZM249.766 190.004C250.914 190.004 251.594 188.879 251.594 186.758C251.594 184.648 250.903 183.488 249.766 183.488C248.629 183.488 247.938 184.648 247.938 186.758C247.938 188.879 248.618 190.004 249.766 190.004ZM253.732 189.348V188.305L257.482 182.516H259.075V188.258H260.236V189.348H259.075V191H257.857V189.348H253.732ZM255.091 188.258H257.857V184.051H257.763L255.091 188.188V188.258ZM264.189 191.117C262.221 191.117 261.072 189.535 261.072 186.758C261.072 184.004 262.244 182.398 264.189 182.398C266.135 182.398 267.307 184.004 267.307 186.758C267.307 189.535 266.146 191.117 264.189 191.117ZM264.189 190.004C265.338 190.004 266.018 188.879 266.018 186.758C266.018 184.648 265.326 183.488 264.189 183.488C263.053 183.488 262.361 184.648 262.361 186.758C262.361 188.879 263.041 190.004 264.189 190.004Z" fill="#767676"/>
<rect width="141" height="22" transform="translate(143 198)" fill="#FFF8DA"/>
<path d="M173.511 204.398C175.07 204.41 176.71 205.348 176.71 208.453C176.71 211.43 175.433 213.117 173.394 213.117C171.835 213.117 170.734 212.156 170.534 210.773H171.812C171.987 211.488 172.538 211.992 173.394 211.992C174.706 211.992 175.468 210.844 175.48 208.91H175.374C174.917 209.625 174.12 210.059 173.206 210.059C171.683 210.059 170.464 208.898 170.464 207.27C170.464 205.652 171.671 204.387 173.511 204.398ZM173.511 205.477C172.48 205.477 171.718 206.273 171.718 207.246C171.718 208.23 172.456 209.004 173.487 209.004C174.507 209.004 175.304 208.172 175.304 207.234C175.304 206.32 174.554 205.477 173.511 205.477ZM178.285 213.082C177.828 213.082 177.441 212.707 177.453 212.25C177.441 211.793 177.828 211.418 178.285 211.418C178.73 211.418 179.117 211.793 179.117 212.25C179.117 212.707 178.73 213.082 178.285 213.082ZM182.954 213.117C180.985 213.117 179.837 211.535 179.837 208.758C179.837 206.004 181.009 204.398 182.954 204.398C184.899 204.398 186.071 206.004 186.071 208.758C186.071 211.535 184.911 213.117 182.954 213.117ZM182.954 212.004C184.102 212.004 184.782 210.879 184.782 208.758C184.782 206.648 184.091 205.488 182.954 205.488C181.817 205.488 181.126 206.648 181.126 208.758C181.126 210.879 181.805 212.004 182.954 212.004Z" fill="#767676"/>
<path d="M233.381 213.117C231.623 213.117 230.369 212.168 230.322 210.785H231.635C231.682 211.535 232.42 212.004 233.369 212.004C234.389 212.004 235.139 211.441 235.139 210.621C235.139 209.789 234.436 209.18 233.229 209.18H232.502V208.125H233.229C234.189 208.125 234.869 207.586 234.869 206.777C234.869 206.004 234.295 205.477 233.393 205.477C232.537 205.477 231.787 205.945 231.752 206.719H230.51C230.545 205.336 231.822 204.398 233.404 204.398C235.068 204.398 236.123 205.453 236.111 206.707C236.123 207.668 235.525 208.371 234.611 208.594V208.652C235.771 208.816 236.439 209.59 236.439 210.668C236.439 212.086 235.139 213.117 233.381 213.117ZM240.628 213.117C239.057 213.105 237.417 212.18 237.417 209.039C237.417 206.086 238.694 204.398 240.733 204.398C242.292 204.398 243.382 205.371 243.581 206.719H242.304C242.139 206.027 241.589 205.523 240.733 205.523C239.421 205.523 238.659 206.672 238.659 208.582H238.753C239.21 207.867 240.007 207.434 240.932 207.434C242.444 207.434 243.663 208.594 243.663 210.223C243.663 211.863 242.456 213.129 240.628 213.117ZM240.616 212.039C241.647 212.039 242.409 211.242 242.409 210.246C242.409 209.273 241.671 208.488 240.651 208.488C239.608 208.488 238.823 209.309 238.811 210.258C238.823 211.195 239.573 212.039 240.616 212.039ZM245.871 212.191L244.933 215.426H243.937L244.558 212.191H245.871ZM247.258 213V212.062L250.2 209.098C251.125 208.125 251.594 207.586 251.594 206.848C251.594 206.016 250.914 205.477 250.024 205.477C249.086 205.477 248.477 206.074 248.477 206.977H247.258C247.246 205.43 248.43 204.398 250.047 204.398C251.688 204.398 252.813 205.43 252.825 206.812C252.813 207.762 252.368 208.512 250.774 210.082L249.051 211.828V211.898H252.965V213H247.258ZM253.72 211.348V210.305L257.47 204.516H259.064V210.258H260.224V211.348H259.064V213H257.845V211.348H253.72ZM255.079 210.258H257.845V206.051H257.751L255.079 210.188V210.258ZM264.178 213.117C262.209 213.117 261.061 211.535 261.061 208.758C261.061 206.004 262.232 204.398 264.178 204.398C266.123 204.398 267.295 206.004 267.295 208.758C267.295 211.535 266.135 213.117 264.178 213.117ZM264.178 212.004C265.326 212.004 266.006 210.879 266.006 208.758C266.006 206.648 265.314 205.488 264.178 205.488C263.041 205.488 262.35 206.648 262.35 208.758C262.35 210.879 263.029 212.004 264.178 212.004Z" fill="#767676"/>
</g>
<defs>
<clipPath id="clip0_2473_1605">
<rect width="284" height="220" rx="8" fill="white"/>
</clipPath>
</defs>
</svg>
