<svg width="284" height="264" viewBox="0 0 284 264" fill="none" xmlns="http://www.w3.org/2000/svg">
<g clip-path="url(#clip0_2473_1693)">
<rect width="284" height="22" fill="#E09512"/>
<path d="M50.0422 11.4141V12.3164H45.7766V15.9844H44.6867V12.3164H40.468V11.4141H50.0422ZM49.1398 6.11719V7.00781H45.8937C45.9113 8.30859 47.5285 9.46875 49.5148 9.73828L49.1047 10.6172C47.382 10.3477 45.8937 9.49805 45.2609 8.29688C44.6105 9.49805 43.1281 10.3477 41.4289 10.6172L41.007 9.73828C42.9699 9.46875 44.5871 8.30859 44.6281 7.00781H41.3586V6.11719H49.1398ZM60.1367 10.8047V11.707H55.9648V13.7461H54.8633V11.707H50.5273V10.8047H60.1367ZM58.8945 5.98828V9.71484H51.7578V5.98828H58.8945ZM52.8477 6.86719V8.83594H57.793V6.86719H52.8477ZM59.0703 14.8711V15.7734H51.7227V12.75H52.8359V14.8711H59.0703ZM71.6305 6.02344V6.82031C71.6305 7.64648 71.6305 8.58398 71.3609 9.85547H72.8492V10.7695H63.2398V9.85547H70.2359C70.5172 8.63086 70.5289 7.73438 70.5289 6.9375H64.4469V6.02344H71.6305ZM71.6422 12.1055V15.8672H64.4117V12.1055H71.6422ZM65.5016 12.9844V14.9648H70.5406V12.9844H65.5016ZM75.807 6.14062C77.2016 6.14062 78.2211 7.18359 78.2211 8.66016C78.2211 10.1367 77.2016 11.1445 75.807 11.1445C74.4008 11.1445 73.393 10.1367 73.4047 8.66016C73.393 7.18359 74.4008 6.14062 75.807 6.14062ZM75.807 7.10156C74.9867 7.10156 74.4008 7.72266 74.4008 8.66016C74.4008 9.57422 74.9867 10.2188 75.807 10.207C76.6156 10.2188 77.2016 9.57422 77.2133 8.66016C77.2016 7.72266 76.6156 7.10156 75.807 7.10156ZM82.2641 5.50781V11.7656H81.2094V9.05859H79.9906V11.6953H78.9477V5.69531H79.9906V8.15625H81.2094V5.50781H82.2641ZM82.2641 12.3047V15.9961H81.1625V13.1953H75.1273V12.3047H82.2641ZM84.0148 11.7656C84.0266 9.5625 84.6477 7.72266 85.7492 6.15234H86.8977C86.0891 7.3125 85.3156 9.67969 85.3156 11.7656C85.3156 13.8633 86.0891 16.2188 86.8977 17.3906H85.7492C84.6477 15.8203 84.0266 13.9805 84.0148 11.7656ZM89.4336 15L88.4609 11.25H87.2188V10.2539H88.2031L87.2305 6.51562H88.4844L89.375 10.2539H90.875L91.8125 6.51562H93.1016L94.0391 10.2539H95.5391L96.4297 6.51562H97.6836L96.7109 10.2539H97.6953V11.25H96.4531L95.4688 15H94.1797L93.207 11.25H91.707L90.7344 15H89.4336ZM89.6211 11.25L90.0664 13.1367H90.1484L90.6289 11.25H89.6211ZM91.9766 10.2539H92.9492L92.4922 8.50781H92.4219L91.9766 10.2539ZM94.2969 11.25L94.7656 13.1484H94.8359L95.293 11.25H94.2969ZM100.899 11.7656C100.887 13.9805 100.266 15.8203 99.1648 17.3906H98.0164C98.825 16.2188 99.5984 13.8633 99.5984 11.7656C99.5984 9.67969 98.825 7.3125 98.0164 6.15234H99.1648C100.266 7.72266 100.887 9.5625 100.899 11.7656Z" fill="white"/>
<path d="M198.428 14.6953H188.818V13.7695H193.049V11.6133H189.92V6.21094H191.033V8.01562H196.189V6.21094H197.291V11.6133H194.15V13.7695H198.428V14.6953ZM196.189 10.7109V8.91797H191.033V10.7109H196.189ZM207.643 11.8594H206.53V9.57422H204.889V8.64844H206.53V5.49609H207.643V11.8594ZM207.643 15.8672H200.718V12.375H207.643V15.8672ZM201.819 14.9648H206.554V13.2539H201.819V14.9648ZM205.054 7.42969H198.901V6.53906H201.432V5.40234H202.534V6.53906H205.054V7.42969ZM201.983 7.91016C202.46 7.91016 202.884 7.99023 203.255 8.15039C203.63 8.30664 203.921 8.52734 204.128 8.8125C204.339 9.09766 204.444 9.42188 204.444 9.78516C204.444 10.1562 204.339 10.4844 204.128 10.7695C203.921 11.0547 203.63 11.2754 203.255 11.4316C202.884 11.5879 202.46 11.668 201.983 11.6719C201.507 11.668 201.081 11.5879 200.706 11.4316C200.331 11.2754 200.038 11.0547 199.827 10.7695C199.616 10.4844 199.511 10.1562 199.511 9.78516C199.511 9.42188 199.616 9.09961 199.827 8.81836C200.038 8.5332 200.331 8.31055 200.706 8.15039C201.081 7.99023 201.507 7.91016 201.983 7.91016ZM201.983 8.76562C201.706 8.76172 201.46 8.80273 201.245 8.88867C201.034 8.9707 200.87 9.08984 200.753 9.24609C200.636 9.40234 200.577 9.58203 200.577 9.78516C200.577 10.1055 200.704 10.3594 200.958 10.5469C201.216 10.7344 201.557 10.8281 201.983 10.8281C202.401 10.8281 202.737 10.7344 202.991 10.5469C203.249 10.3594 203.378 10.1055 203.378 9.78516C203.378 9.58203 203.319 9.40234 203.202 9.24609C203.085 9.08984 202.921 8.9707 202.71 8.88867C202.499 8.80273 202.257 8.76172 201.983 8.76562ZM218.57 14.7422H208.961V13.8047H211.586V11.9531H210.132V8.61328H216.296V7.14844H210.109V6.23438H217.398V9.51562H211.234V11.0391H217.644V11.9531H216.05V13.8047H218.57V14.7422ZM214.961 13.8047V11.9531H212.664V13.8047H214.961ZM219.664 11.7656C219.676 9.65625 220.254 7.78516 221.399 6.15234H222.547C222.274 6.54688 222.016 7.05469 221.774 7.67578C221.532 8.29297 221.336 8.96289 221.188 9.68555C221.039 10.4043 220.965 11.0977 220.965 11.7656C220.965 12.4375 221.039 13.1348 221.188 13.8574C221.336 14.5762 221.532 15.2441 221.774 15.8613C222.016 16.4824 222.274 16.9922 222.547 17.3906H221.399C220.254 15.7578 219.676 13.8828 219.664 11.7656ZM224.111 11.25H222.868V10.2539H223.853L222.88 6.51562H224.134L225.025 10.2539H226.525L227.462 6.51562H228.751L229.689 10.2539H231.183L232.079 6.51562H233.333L232.355 10.2539H233.345V11.25H232.097L231.118 15H229.829L228.857 11.25H227.357L226.384 15H225.083L224.111 11.25ZM225.716 13.1367H225.798L226.273 11.25H225.265L225.716 13.1367ZM228.593 10.2539L228.142 8.50781H228.071L227.62 10.2539H228.593ZM230.415 13.1484H230.486L230.943 11.25H229.941L230.415 13.1484ZM236.549 11.7656C236.537 13.8828 235.959 15.7578 234.814 17.3906H233.666C233.939 16.9922 234.197 16.4824 234.439 15.8613C234.682 15.2441 234.877 14.5762 235.025 13.8574C235.174 13.1348 235.248 12.4375 235.248 11.7656C235.248 11.0977 235.174 10.4043 235.025 9.68555C234.877 8.96289 234.682 8.29297 234.439 7.67578C234.197 7.05469 233.939 6.54688 233.666 6.15234H234.814C235.959 7.78516 236.537 9.65625 236.549 11.7656Z" fill="white"/>
<mask id="path-4-inside-1_2473_1693" fill="white">
<path d="M0 22H284V44H0V22Z"/>
</mask>
<path d="M0 22H284V44H0V22Z" fill="#FFF8DA"/>
<path d="M284 44V43H0V44V45H284V44Z" fill="white" mask="url(#path-4-inside-1_2473_1693)"/>
<path d="M46.7246 37V36.0625L49.666 33.0977C50.5918 32.125 51.0605 31.5859 51.0605 30.8477C51.0605 30.0156 50.3809 29.4766 49.4902 29.4766C48.5527 29.4766 47.9434 30.0742 47.9434 30.9766H46.7246C46.7129 29.4297 47.8965 28.3984 49.5137 28.3984C51.1543 28.3984 52.2793 29.4297 52.291 30.8125C52.2793 31.7617 51.834 32.5117 50.2402 34.082L48.5176 35.8281V35.8984H52.4316V37H46.7246ZM58.5184 28.4219V33.3203H53.6082V28.4219H58.5184ZM54.698 29.3242V32.4414H57.4285V29.3242H54.698ZM61.448 27.4844V30.625H62.9715V31.5625H61.448V35.1836H60.3348V27.4844H61.448ZM61.8934 36.8711V37.7734H54.7918V34.4453H55.9051V36.8711H61.8934ZM71.9996 27.5078V35.4648H70.8863V34.457H68.777V33.6719H70.8863V27.5078H71.9996ZM72.2574 36.8711V37.7734H64.6754V34.6914H65.777V36.8711H72.2574ZM63.2223 32.3008C65.1676 32.2891 67.7809 32.2656 70.0191 31.9844L70.0895 32.7812C69.193 32.9277 68.2496 33.0273 67.3238 33.0859V35.1367H66.2105V33.1445C65.191 33.1914 64.2125 33.1973 63.3629 33.1914L63.2223 32.3008ZM66.6559 27.9062C68.191 27.9062 69.2574 28.6445 69.2574 29.7578C69.2574 30.8711 68.191 31.5859 66.6559 31.5859C65.0973 31.5859 64.0426 30.8711 64.0426 29.7578C64.0426 28.6445 65.0973 27.9062 66.6559 27.9062ZM66.6559 28.7383C65.7184 28.7266 65.0855 29.125 65.0973 29.7578C65.0855 30.3789 65.7184 30.7656 66.6559 30.7656C67.5582 30.7656 68.191 30.3789 68.2027 29.7578C68.191 29.125 67.5582 28.7266 66.6559 28.7383ZM84.6652 27.4961V38.0195H83.552V27.4961H84.6652ZM79.052 28.2812C80.6105 28.2812 81.759 29.7109 81.759 31.9609C81.759 34.2227 80.6105 35.6523 79.052 35.6523C77.4699 35.6523 76.3332 34.2227 76.3332 31.9609C76.3332 29.7109 77.4699 28.2812 79.052 28.2812ZM79.052 29.2773C78.0793 29.2773 77.4113 30.3086 77.4113 31.9609C77.4113 33.625 78.0793 34.6562 79.052 34.6562C80.0129 34.6562 80.6809 33.625 80.6809 31.9609C80.6809 30.3086 80.0129 29.2773 79.052 29.2773ZM94.2207 27.4961V31.75H95.9082V32.6758H94.2207V37.9961H93.1191V27.4961H94.2207ZM92.2051 29.1367V30.0508H85.9824V29.1367H88.5723V27.6367H89.6855V29.1367H92.2051ZM89.1348 30.8242C90.6348 30.8242 91.7363 31.832 91.748 33.2617C91.7363 34.7031 90.6348 35.6992 89.1348 35.7109C87.623 35.6992 86.5215 34.7031 86.5215 33.2617C86.5215 31.832 87.623 30.8242 89.1348 30.8242ZM89.1348 31.7383C88.2441 31.7383 87.5762 32.3594 87.5879 33.2617C87.5762 34.1758 88.2441 34.7852 89.1348 34.7734C90.0254 34.7852 90.6816 34.1758 90.6816 33.2617C90.6816 32.3594 90.0254 31.7383 89.1348 31.7383Z" fill="#767676"/>
<path d="M205.888 37.1172C205.361 37.1172 204.882 37.0176 204.452 36.8184C204.023 36.6152 203.681 36.3379 203.427 35.9863C203.173 35.6309 203.036 35.2305 203.017 34.7852H204.271C204.294 35.0234 204.38 35.2383 204.529 35.4297C204.677 35.6211 204.87 35.7715 205.109 35.8809C205.347 35.9863 205.607 36.0391 205.888 36.0391C206.228 36.0391 206.53 35.9629 206.796 35.8105C207.066 35.6582 207.277 35.4492 207.429 35.1836C207.581 34.9141 207.657 34.6133 207.657 34.2812C207.657 33.9414 207.579 33.6367 207.423 33.3672C207.267 33.0938 207.05 32.8809 206.773 32.7285C206.495 32.5723 206.181 32.4922 205.829 32.4883C205.114 32.4883 204.618 32.7383 204.341 33.2383H203.122L203.673 28.5156H208.478V29.6172H204.739L204.458 31.9961H204.54C204.72 31.8242 204.95 31.6855 205.232 31.5801C205.517 31.4746 205.818 31.4219 206.134 31.4219C206.657 31.4219 207.13 31.543 207.552 31.7852C207.978 32.0273 208.31 32.3633 208.548 32.793C208.79 33.2227 208.911 33.707 208.911 34.2461C208.911 34.7969 208.782 35.291 208.525 35.7285C208.267 36.166 207.907 36.5078 207.446 36.7539C206.989 36.9961 206.47 37.1172 205.888 37.1172ZM212.936 37.1172C212.283 37.1172 211.723 36.9473 211.254 36.6074C210.789 36.2676 210.434 35.7715 210.188 35.1191C209.941 34.4629 209.818 33.6758 209.818 32.7578C209.818 31.8477 209.941 31.0664 210.188 30.4141C210.438 29.7578 210.797 29.2578 211.266 28.9141C211.734 28.5703 212.291 28.3984 212.936 28.3984C213.58 28.3984 214.137 28.5703 214.605 28.9141C215.074 29.2578 215.432 29.7578 215.678 30.4141C215.928 31.0664 216.053 31.8477 216.053 32.7578C216.053 33.6758 215.93 34.4609 215.684 35.1133C215.438 35.7656 215.08 36.2637 214.611 36.6074C214.143 36.9473 213.584 37.1172 212.936 37.1172ZM212.936 36.0039C213.318 36.0039 213.646 35.8809 213.92 35.6348C214.193 35.3848 214.402 35.0176 214.547 34.5332C214.691 34.0488 214.764 33.457 214.764 32.7578C214.764 32.0625 214.689 31.4707 214.541 30.9824C214.396 30.4902 214.188 30.1191 213.914 29.8691C213.641 29.6152 213.314 29.4883 212.936 29.4883C212.557 29.4883 212.23 29.6152 211.957 29.8691C211.684 30.1191 211.473 30.4902 211.324 30.9824C211.18 31.4707 211.107 32.0625 211.107 32.7578C211.107 33.457 211.18 34.0488 211.324 34.5332C211.469 35.0176 211.678 35.3848 211.951 35.6348C212.225 35.8809 212.553 36.0039 212.936 36.0039ZM220.042 37.1172C219.389 37.1172 218.829 36.9473 218.36 36.6074C217.895 36.2676 217.54 35.7715 217.294 35.1191C217.048 34.4629 216.925 33.6758 216.925 32.7578C216.925 31.8477 217.048 31.0664 217.294 30.4141C217.544 29.7578 217.903 29.2578 218.372 28.9141C218.841 28.5703 219.397 28.3984 220.042 28.3984C220.686 28.3984 221.243 28.5703 221.712 28.9141C222.18 29.2578 222.538 29.7578 222.784 30.4141C223.034 31.0664 223.159 31.8477 223.159 32.7578C223.159 33.6758 223.036 34.4609 222.79 35.1133C222.544 35.7656 222.186 36.2637 221.718 36.6074C221.249 36.9473 220.69 37.1172 220.042 37.1172ZM220.042 36.0039C220.425 36.0039 220.753 35.8809 221.026 35.6348C221.3 35.3848 221.509 35.0176 221.653 34.5332C221.798 34.0488 221.87 33.457 221.87 32.7578C221.87 32.0625 221.796 31.4707 221.647 30.9824C221.503 30.4902 221.294 30.1191 221.02 29.8691C220.747 29.6152 220.421 29.4883 220.042 29.4883C219.663 29.4883 219.337 29.6152 219.063 29.8691C218.79 30.1191 218.579 30.4902 218.43 30.9824C218.286 31.4707 218.214 32.0625 218.214 32.7578C218.214 33.457 218.286 34.0488 218.43 34.5332C218.575 35.0176 218.784 35.3848 219.057 35.6348C219.331 35.8809 219.659 36.0039 220.042 36.0039Z" fill="#767676"/>
<mask id="path-8-inside-2_2473_1693" fill="white">
<path d="M0 44H284V66H0V44Z"/>
</mask>
<path d="M0 44H284V66H0V44Z" fill="#FFF8DA"/>
<path d="M284 66V65H0V66V67H284V66Z" fill="white" mask="url(#path-8-inside-2_2473_1693)"/>
<path d="M18.1145 59V58.0625L21.0559 55.0977C21.9816 54.125 22.4504 53.5859 22.4504 52.8477C22.4504 52.0156 21.7707 51.4766 20.8801 51.4766C19.9426 51.4766 19.3332 52.0742 19.3332 52.9766H18.1145C18.1027 51.4297 19.2863 50.3984 20.9035 50.3984C22.5441 50.3984 23.6691 51.4297 23.6809 52.8125C23.6691 53.7617 23.2238 54.5117 21.6301 56.082L19.9074 57.8281V57.8984H23.8215V59H18.1145ZM29.9082 50.4219V55.3203H24.998V50.4219H29.9082ZM26.0879 51.3242V54.4414H28.8184V51.3242H26.0879ZM32.8379 49.4844V52.625H34.3613V53.5625H32.8379V57.1836H31.7246V49.4844H32.8379ZM33.2832 58.8711V59.7734H26.1816V56.4453H27.2949V58.8711H33.2832ZM43.3895 49.5078V57.4648H42.2762V56.457H40.1668V55.6719H42.2762V49.5078H43.3895ZM43.6473 58.8711V59.7734H36.0652V56.6914H37.1668V58.8711H43.6473ZM34.6121 54.3008C36.5574 54.2891 39.1707 54.2656 41.409 53.9844L41.4793 54.7812C40.5828 54.9277 39.6395 55.0273 38.7137 55.0859V57.1367H37.6004V55.1445C36.5809 55.1914 35.6023 55.1973 34.7527 55.1914L34.6121 54.3008ZM38.0457 49.9062C39.5809 49.9062 40.6473 50.6445 40.6473 51.7578C40.6473 52.8711 39.5809 53.5859 38.0457 53.5859C36.4871 53.5859 35.4324 52.8711 35.4324 51.7578C35.4324 50.6445 36.4871 49.9062 38.0457 49.9062ZM38.0457 50.7383C37.1082 50.7266 36.4754 51.125 36.4871 51.7578C36.4754 52.3789 37.1082 52.7656 38.0457 52.7656C38.948 52.7656 39.5809 52.3789 39.5926 51.7578C39.5809 51.125 38.948 50.7266 38.0457 50.7383ZM56.9691 57.793V58.707H47.3598V57.793H51.602V55.5078H52.7035V57.793H56.9691ZM56.0785 51.0898V51.9922H52.7152C52.7621 53.4629 54.3207 54.6816 56.477 55.0039L56.0551 55.8711C54.3031 55.5957 52.8383 54.7637 52.1527 53.5391C51.4672 54.7637 50.0082 55.5957 48.2504 55.8711L47.8285 55.0039C49.9848 54.6816 51.5316 53.4629 51.5902 51.9922H48.227V51.0898H51.602V49.6836H52.7035V51.0898H56.0785ZM63.2785 50.6211V51.2656C63.2785 52.1445 63.2785 53.5039 62.9738 55.3789L61.8723 55.2969C62.1359 53.6152 62.1652 52.4023 62.177 51.5234H57.9113V50.6211H63.2785ZM60.5832 53.6211V56.7617C61.7023 56.7266 62.8391 56.6504 63.8879 56.5156L63.9465 57.3477C61.7551 57.6992 59.3176 57.7461 57.4543 57.7344L57.3254 56.832C57.9816 56.8262 58.7141 56.8203 59.4816 56.7969V53.6211H60.5832ZM65.6105 49.4961V53.832H67.216V54.7812H65.6105V59.9961H64.4855V49.4961H65.6105ZM68.2402 54.5352C68.627 54.1016 69.1074 53.8789 69.6348 53.8789C70.5488 53.8789 71.3574 54.5469 72.248 54.5469C72.7871 54.5469 73.2559 54.3125 73.6191 53.8438V54.9688C73.2207 55.4023 72.752 55.625 72.2246 55.625C71.3105 55.625 70.4902 54.957 69.5996 54.957C69.0723 54.957 68.6152 55.1914 68.2402 55.6602V54.5352ZM78.077 59.1172C76.4715 59.1172 75.2645 58.1328 75.2059 56.7852H76.4598C76.5301 57.5117 77.2215 58.0391 78.077 58.0391C79.1082 58.0391 79.8465 57.2891 79.8465 56.2812C79.8465 55.25 79.0848 54.5 78.0184 54.4883C77.3387 54.4883 76.823 54.7109 76.5301 55.2383H75.3113L75.8621 50.5156H80.6668V51.6172H76.9285L76.6473 53.9961H76.7293C77.0809 53.6562 77.6785 53.4219 78.323 53.4219C79.9168 53.4219 81.1004 54.6055 81.1004 56.2461C81.1004 57.9219 79.8465 59.1172 78.077 59.1172ZM87.1285 50.4219V55.3203H82.2184V50.4219H87.1285ZM83.3082 51.3242V54.4414H86.0387V51.3242H83.3082ZM90.0582 49.4844V52.625H91.5816V53.5625H90.0582V57.1836H88.9449V49.4844H90.0582ZM90.5035 58.8711V59.7734H83.4019V56.4453H84.5152V58.8711H90.5035ZM100.61 49.5078V57.4648H99.4965V56.457H97.3871V55.6719H99.4965V49.5078H100.61ZM100.868 58.8711V59.7734H93.2856V56.6914H94.3871V58.8711H100.868ZM91.8324 54.3008C93.7777 54.2891 96.391 54.2656 98.6293 53.9844L98.6996 54.7812C97.8031 54.9277 96.8598 55.0273 95.934 55.0859V57.1367H94.8207V55.1445C93.8012 55.1914 92.8227 55.1973 91.9731 55.1914L91.8324 54.3008ZM95.266 49.9062C96.8012 49.9062 97.8676 50.6445 97.8676 51.7578C97.8676 52.8711 96.8012 53.5859 95.266 53.5859C93.7074 53.5859 92.6527 52.8711 92.6527 51.7578C92.6527 50.6445 93.7074 49.9062 95.266 49.9062ZM95.266 50.7383C94.3285 50.7266 93.6957 51.125 93.7074 51.7578C93.6957 52.3789 94.3285 52.7656 95.266 52.7656C96.1684 52.7656 96.8012 52.3789 96.8129 51.7578C96.8012 51.125 96.1684 50.7266 95.266 50.7383ZM113.275 49.4961V60.0195H112.162V49.4961H113.275ZM107.662 50.2812C109.221 50.2812 110.369 51.7109 110.369 53.9609C110.369 56.2227 109.221 57.6523 107.662 57.6523C106.08 57.6523 104.943 56.2227 104.943 53.9609C104.943 51.7109 106.08 50.2812 107.662 50.2812ZM107.662 51.2773C106.689 51.2773 106.021 52.3086 106.021 53.9609C106.021 55.625 106.689 56.6562 107.662 56.6562C108.623 56.6562 109.291 55.625 109.291 53.9609C109.291 52.3086 108.623 51.2773 107.662 51.2773ZM122.831 49.4961V53.75H124.518V54.6758H122.831V59.9961H121.729V49.4961H122.831ZM120.815 51.1367V52.0508H114.593V51.1367H117.182V49.6367H118.296V51.1367H120.815ZM117.745 52.8242C119.245 52.8242 120.346 53.832 120.358 55.2617C120.346 56.7031 119.245 57.6992 117.745 57.7109C116.233 57.6992 115.132 56.7031 115.132 55.2617C115.132 53.832 116.233 52.8242 117.745 52.8242ZM117.745 53.7383C116.854 53.7383 116.186 54.3594 116.198 55.2617C116.186 56.1758 116.854 56.7852 117.745 56.7734C118.636 56.7852 119.292 56.1758 119.292 55.2617C119.292 54.3594 118.636 53.7383 117.745 53.7383Z" fill="#767676"/>
<path d="M202.608 50.5156V59H201.307V51.8047H201.26L199.233 53.1289V51.8984L201.342 50.5156H202.608ZM205.507 58.1914L204.57 61.4258H203.573L204.195 58.1914H205.507ZM206.895 59V58.0625L209.836 55.0977C210.762 54.125 211.23 53.5859 211.23 52.8477C211.23 52.0156 210.551 51.4766 209.66 51.4766C208.723 51.4766 208.113 52.0742 208.113 52.9766H206.895C206.883 51.4297 208.066 50.3984 209.684 50.3984C211.324 50.3984 212.449 51.4297 212.461 52.8125C212.449 53.7617 212.004 54.5117 210.41 56.082L208.688 57.8281V57.8984H212.602V59H206.895ZM216.614 59.1172C215.009 59.1172 213.802 58.1328 213.743 56.7852H214.997C215.067 57.5117 215.759 58.0391 216.614 58.0391C217.645 58.0391 218.384 57.2891 218.384 56.2812C218.384 55.25 217.622 54.5 216.555 54.4883C215.876 54.4883 215.36 54.7109 215.067 55.2383H213.848L214.399 50.5156H219.204V51.6172H215.466L215.184 53.9961H215.266C215.618 53.6562 216.216 53.4219 216.86 53.4219C218.454 53.4219 219.637 54.6055 219.637 56.2461C219.637 57.9219 218.384 59.1172 216.614 59.1172ZM223.662 59.1172C221.693 59.1172 220.545 57.5352 220.545 54.7578C220.545 52.0039 221.716 50.3984 223.662 50.3984C225.607 50.3984 226.779 52.0039 226.779 54.7578C226.779 57.5352 225.619 59.1172 223.662 59.1172ZM223.662 58.0039C224.81 58.0039 225.49 56.8789 225.49 54.7578C225.49 52.6484 224.798 51.4883 223.662 51.4883C222.525 51.4883 221.834 52.6484 221.834 54.7578C221.834 56.8789 222.513 58.0039 223.662 58.0039Z" fill="#767676"/>
<mask id="path-12-inside-3_2473_1693" fill="white">
<path d="M0 66H284V88H0V66Z"/>
</mask>
<path d="M0 66H284V88H0V66Z" fill="#FFF8DA"/>
<path d="M284 88V87H0V88V89H284V88Z" fill="white" mask="url(#path-12-inside-3_2473_1693)"/>
<path d="M18.323 81.1172C16.7176 81.1172 15.5105 80.1328 15.452 78.7852H16.7059C16.7762 79.5117 17.4676 80.0391 18.323 80.0391C19.3543 80.0391 20.0926 79.2891 20.0926 78.2812C20.0926 77.25 19.3309 76.5 18.2645 76.4883C17.5848 76.4883 17.0691 76.7109 16.7762 77.2383H15.5574L16.1082 72.5156H20.9129V73.6172H17.1746L16.8934 75.9961H16.9754C17.327 75.6562 17.9246 75.4219 18.5691 75.4219C20.1629 75.4219 21.3465 76.6055 21.3465 78.2461C21.3465 79.9219 20.0926 81.1172 18.323 81.1172ZM27.3746 72.4219V77.3203H22.4645V72.4219H27.3746ZM23.5543 73.3242V76.4414H26.2848V73.3242H23.5543ZM30.3043 71.4844V74.625H31.8277V75.5625H30.3043V79.1836H29.191V71.4844H30.3043ZM30.7496 80.8711V81.7734H23.648V78.4453H24.7613V80.8711H30.7496ZM40.8559 71.5078V79.4648H39.7426V78.457H37.6332V77.6719H39.7426V71.5078H40.8559ZM41.1137 80.8711V81.7734H33.5316V78.6914H34.6332V80.8711H41.1137ZM32.0785 76.3008C34.0238 76.2891 36.6371 76.2656 38.8754 75.9844L38.9457 76.7812C38.0492 76.9277 37.1059 77.0273 36.1801 77.0859V79.1367H35.0668V77.1445C34.0473 77.1914 33.0688 77.1973 32.2191 77.1914L32.0785 76.3008ZM35.5121 71.9062C37.0473 71.9062 38.1137 72.6445 38.1137 73.7578C38.1137 74.8711 37.0473 75.5859 35.5121 75.5859C33.9535 75.5859 32.8988 74.8711 32.8988 73.7578C32.8988 72.6445 33.9535 71.9062 35.5121 71.9062ZM35.5121 72.7383C34.5746 72.7266 33.9418 73.125 33.9535 73.7578C33.9418 74.3789 34.5746 74.7656 35.5121 74.7656C36.4145 74.7656 37.0473 74.3789 37.059 73.7578C37.0473 73.125 36.4145 72.7266 35.5121 72.7383ZM54.4355 79.793V80.707H44.8262V79.793H49.0684V77.5078H50.1699V79.793H54.4355ZM53.5449 73.0898V73.9922H50.1816C50.2285 75.4629 51.7871 76.6816 53.9434 77.0039L53.5215 77.8711C51.7695 77.5957 50.3047 76.7637 49.6191 75.5391C48.9336 76.7637 47.4746 77.5957 45.7168 77.8711L45.2949 77.0039C47.4512 76.6816 48.998 75.4629 49.0566 73.9922H45.6934V73.0898H49.0684V71.6836H50.1699V73.0898H53.5449ZM60.7449 72.6211V73.2656C60.7449 74.1445 60.7449 75.5039 60.4402 77.3789L59.3387 77.2969C59.6023 75.6152 59.6316 74.4023 59.6434 73.5234H55.3777V72.6211H60.7449ZM58.0496 75.6211V78.7617C59.1688 78.7266 60.3055 78.6504 61.3543 78.5156L61.4129 79.3477C59.2215 79.6992 56.784 79.7461 54.9207 79.7344L54.7918 78.832C55.448 78.8262 56.1805 78.8203 56.948 78.7969V75.6211H58.0496ZM63.077 71.4961V75.832H64.6824V76.7812H63.077V81.9961H61.952V71.4961H63.077ZM65.7066 76.5352C66.0934 76.1016 66.5738 75.8789 67.1012 75.8789C68.0152 75.8789 68.8238 76.5469 69.7145 76.5469C70.2535 76.5469 70.7223 76.3125 71.0855 75.8438V76.9688C70.6871 77.4023 70.2184 77.625 69.691 77.625C68.777 77.625 67.9566 76.957 67.066 76.957C66.5387 76.957 66.0816 77.1914 65.7066 77.6602V76.5352ZM75.8832 72.5156V81H74.5824V73.8047H74.5356L72.5082 75.1289V73.8984L74.6176 72.5156H75.8832ZM80.6926 81.1172C78.7238 81.1172 77.5754 79.5352 77.5754 76.7578C77.5754 74.0039 78.7473 72.3984 80.6926 72.3984C82.6379 72.3984 83.8098 74.0039 83.8098 76.7578C83.8098 79.5352 82.6496 81.1172 80.6926 81.1172ZM80.6926 80.0039C81.841 80.0039 82.5207 78.8789 82.5207 76.7578C82.5207 74.6484 81.8293 73.4883 80.6926 73.4883C79.5559 73.4883 78.8645 74.6484 78.8645 76.7578C78.8645 78.8789 79.5441 80.0039 80.6926 80.0039ZM89.8027 72.4219V77.3203H84.8926V72.4219H89.8027ZM85.9824 73.3242V76.4414H88.7129V73.3242H85.9824ZM92.7324 71.4844V74.625H94.2559V75.5625H92.7324V79.1836H91.6191V71.4844H92.7324ZM93.1777 80.8711V81.7734H86.0762V78.4453H87.1895V80.8711H93.1777ZM103.284 71.5078V79.4648H102.171V78.457H100.061V77.6719H102.171V71.5078H103.284ZM103.542 80.8711V81.7734H95.9598V78.6914H97.0613V80.8711H103.542ZM94.5066 76.3008C96.452 76.2891 99.0652 76.2656 101.304 75.9844L101.374 76.7812C100.477 76.9277 99.534 77.0273 98.6082 77.0859V79.1367H97.4949V77.1445C96.4754 77.1914 95.4969 77.1973 94.6473 77.1914L94.5066 76.3008ZM97.9402 71.9062C99.4754 71.9062 100.542 72.6445 100.542 73.7578C100.542 74.8711 99.4754 75.5859 97.9402 75.5859C96.3816 75.5859 95.327 74.8711 95.327 73.7578C95.327 72.6445 96.3816 71.9062 97.9402 71.9062ZM97.9402 72.7383C97.0027 72.7266 96.3699 73.125 96.3816 73.7578C96.3699 74.3789 97.0027 74.7656 97.9402 74.7656C98.8426 74.7656 99.4754 74.3789 99.4871 73.7578C99.4754 73.125 98.8426 72.7266 97.9402 72.7383ZM115.95 71.4961V82.0195H114.836V71.4961H115.95ZM110.336 72.2812C111.895 72.2812 113.043 73.7109 113.043 75.9609C113.043 78.2227 111.895 79.6523 110.336 79.6523C108.754 79.6523 107.618 78.2227 107.618 75.9609C107.618 73.7109 108.754 72.2812 110.336 72.2812ZM110.336 73.2773C109.364 73.2773 108.696 74.3086 108.696 75.9609C108.696 77.625 109.364 78.6562 110.336 78.6562C111.297 78.6562 111.965 77.625 111.965 75.9609C111.965 74.3086 111.297 73.2773 110.336 73.2773ZM125.505 71.4961V75.75H127.193V76.6758H125.505V81.9961H124.404V71.4961H125.505ZM123.489 73.1367V74.0508H117.267V73.1367H119.857V71.6367H120.97V73.1367H123.489ZM120.419 74.8242C121.919 74.8242 123.021 75.832 123.032 77.2617C123.021 78.7031 121.919 79.6992 120.419 79.7109C118.907 79.6992 117.806 78.7031 117.806 77.2617C117.806 75.832 118.907 74.8242 120.419 74.8242ZM120.419 75.7383C119.529 75.7383 118.861 76.3594 118.872 77.2617C118.861 78.1758 119.529 78.7852 120.419 78.7734C121.31 78.7852 121.966 78.1758 121.966 77.2617C121.966 76.3594 121.31 75.7383 120.419 75.7383Z" fill="#767676"/>
<path d="M198.178 81V80.0625L201.12 77.0977C202.045 76.125 202.514 75.5859 202.514 74.8477C202.514 74.0156 201.834 73.4766 200.944 73.4766C200.006 73.4766 199.397 74.0742 199.397 74.9766H198.178C198.166 73.4297 199.35 72.3984 200.967 72.3984C202.608 72.3984 203.733 73.4297 203.745 74.8125C203.733 75.7617 203.287 76.5117 201.694 78.082L199.971 79.8281V79.8984H203.885V81H198.178ZM206.538 80.1914L205.601 83.4258H204.605L205.226 80.1914H206.538ZM210.633 81.1172C208.875 81.1172 207.621 80.168 207.574 78.7852H208.887C208.934 79.5352 209.672 80.0039 210.621 80.0039C211.641 80.0039 212.391 79.4414 212.391 78.6211C212.391 77.7891 211.688 77.1797 210.48 77.1797H209.754V76.125H210.48C211.441 76.125 212.121 75.5859 212.121 74.7773C212.121 74.0039 211.547 73.4766 210.645 73.4766C209.789 73.4766 209.039 73.9453 209.004 74.7188H207.762C207.797 73.3359 209.074 72.3984 210.656 72.3984C212.32 72.3984 213.375 73.4531 213.363 74.707C213.375 75.668 212.777 76.3711 211.863 76.5938V76.6523C213.023 76.8164 213.691 77.5898 213.691 78.668C213.691 80.0859 212.391 81.1172 210.633 81.1172ZM217.762 81.1172C215.794 81.1172 214.645 79.5352 214.645 76.7578C214.645 74.0039 215.817 72.3984 217.762 72.3984C219.708 72.3984 220.88 74.0039 220.88 76.7578C220.88 79.5352 219.72 81.1172 217.762 81.1172ZM217.762 80.0039C218.911 80.0039 219.591 78.8789 219.591 76.7578C219.591 74.6484 218.899 73.4883 217.762 73.4883C216.626 73.4883 215.934 74.6484 215.934 76.7578C215.934 78.8789 216.614 80.0039 217.762 80.0039ZM224.869 81.1172C222.9 81.1172 221.752 79.5352 221.752 76.7578C221.752 74.0039 222.923 72.3984 224.869 72.3984C226.814 72.3984 227.986 74.0039 227.986 76.7578C227.986 79.5352 226.826 81.1172 224.869 81.1172ZM224.869 80.0039C226.017 80.0039 226.697 78.8789 226.697 76.7578C226.697 74.6484 226.005 73.4883 224.869 73.4883C223.732 73.4883 223.041 74.6484 223.041 76.7578C223.041 78.8789 223.72 80.0039 224.869 80.0039Z" fill="#767676"/>
<mask id="path-16-inside-4_2473_1693" fill="white">
<path d="M0 88H284V110H0V88Z"/>
</mask>
<path d="M0 88H284V110H0V88Z" fill="#FFF8DA"/>
<path d="M284 110V109H0V110V111H284V110Z" fill="white" mask="url(#path-16-inside-4_2473_1693)"/>
<path d="M16.1234 94.5156V103H14.8227V95.8047H14.7758L12.7484 97.1289V95.8984L14.8578 94.5156H16.1234ZM20.9328 103.117C18.9641 103.117 17.8156 101.535 17.8156 98.7578C17.8156 96.0039 18.9875 94.3984 20.9328 94.3984C22.8781 94.3984 24.05 96.0039 24.05 98.7578C24.05 101.535 22.8898 103.117 20.9328 103.117ZM20.9328 102.004C22.0812 102.004 22.7609 100.879 22.7609 98.7578C22.7609 96.6484 22.0695 95.4883 20.9328 95.4883C19.7961 95.4883 19.1047 96.6484 19.1047 98.7578C19.1047 100.879 19.7844 102.004 20.9328 102.004ZM30.043 94.4219V99.3203H25.1328V94.4219H30.043ZM26.2227 95.3242V98.4414H28.9531V95.3242H26.2227ZM32.9727 93.4844V96.625H34.4961V97.5625H32.9727V101.184H31.8594V93.4844H32.9727ZM33.418 102.871V103.773H26.3164V100.445H27.4297V102.871H33.418ZM43.5242 93.5078V101.465H42.4109V100.457H40.3016V99.6719H42.4109V93.5078H43.5242ZM43.782 102.871V103.773H36.2V100.691H37.3016V102.871H43.782ZM34.7469 98.3008C36.6922 98.2891 39.3055 98.2656 41.5437 97.9844L41.6141 98.7812C40.7176 98.9277 39.7742 99.0273 38.8484 99.0859V101.137H37.7352V99.1445C36.7156 99.1914 35.7371 99.1973 34.8875 99.1914L34.7469 98.3008ZM38.1805 93.9062C39.7156 93.9062 40.782 94.6445 40.782 95.7578C40.782 96.8711 39.7156 97.5859 38.1805 97.5859C36.6219 97.5859 35.5672 96.8711 35.5672 95.7578C35.5672 94.6445 36.6219 93.9062 38.1805 93.9062ZM38.1805 94.7383C37.243 94.7266 36.6102 95.125 36.6219 95.7578C36.6102 96.3789 37.243 96.7656 38.1805 96.7656C39.0828 96.7656 39.7156 96.3789 39.7273 95.7578C39.7156 95.125 39.0828 94.7266 38.1805 94.7383ZM57.1039 101.793V102.707H47.4945V101.793H51.7367V99.5078H52.8383V101.793H57.1039ZM56.2133 95.0898V95.9922H52.85C52.8969 97.4629 54.4555 98.6816 56.6117 99.0039L56.1898 99.8711C54.4379 99.5957 52.973 98.7637 52.2875 97.5391C51.602 98.7637 50.143 99.5957 48.3852 99.8711L47.9633 99.0039C50.1195 98.6816 51.6664 97.4629 51.725 95.9922H48.3617V95.0898H51.7367V93.6836H52.8383V95.0898H56.2133ZM63.4133 94.6211V95.2656C63.4133 96.1445 63.4133 97.5039 63.1086 99.3789L62.007 99.2969C62.2707 97.6152 62.3 96.4023 62.3117 95.5234H58.0461V94.6211H63.4133ZM60.718 97.6211V100.762C61.8371 100.727 62.9738 100.65 64.0227 100.516L64.0812 101.348C61.8898 101.699 59.4523 101.746 57.5891 101.734L57.4602 100.832C58.1164 100.826 58.8488 100.82 59.6164 100.797V97.6211H60.718ZM65.7453 93.4961V97.832H67.3508V98.7812H65.7453V103.996H64.6203V93.4961H65.7453ZM68.375 98.5352C68.7617 98.1016 69.2422 97.8789 69.7695 97.8789C70.6836 97.8789 71.4922 98.5469 72.3828 98.5469C72.9219 98.5469 73.3906 98.3125 73.7539 97.8438V98.9688C73.3555 99.4023 72.8867 99.625 72.3594 99.625C71.4453 99.625 70.625 98.957 69.7344 98.957C69.207 98.957 68.75 99.1914 68.375 99.6602V98.5352ZM78.5516 94.5156V103H77.2508V95.8047H77.2039L75.1766 97.1289V95.8984L77.2859 94.5156H78.5516ZM83.2906 103.117C81.6852 103.117 80.4781 102.133 80.4195 100.785H81.6734C81.7438 101.512 82.4352 102.039 83.2906 102.039C84.3219 102.039 85.0602 101.289 85.0602 100.281C85.0602 99.25 84.2984 98.5 83.232 98.4883C82.5523 98.4883 82.0367 98.7109 81.7438 99.2383H80.525L81.0758 94.5156H85.8805V95.6172H82.1422L81.8609 97.9961H81.943C82.2945 97.6562 82.8922 97.4219 83.5367 97.4219C85.1305 97.4219 86.3141 98.6055 86.3141 100.246C86.3141 101.922 85.0602 103.117 83.2906 103.117ZM92.3422 94.4219V99.3203H87.432V94.4219H92.3422ZM88.5219 95.3242V98.4414H91.2523V95.3242H88.5219ZM95.2719 93.4844V96.625H96.7953V97.5625H95.2719V101.184H94.1586V93.4844H95.2719ZM95.7172 102.871V103.773H88.6156V100.445H89.7289V102.871H95.7172ZM105.823 93.5078V101.465H104.71V100.457H102.601V99.6719H104.71V93.5078H105.823ZM106.081 102.871V103.773H98.4992V100.691H99.6008V102.871H106.081ZM97.0461 98.3008C98.9914 98.2891 101.605 98.2656 103.843 97.9844L103.913 98.7812C103.017 98.9277 102.073 99.0273 101.148 99.0859V101.137H100.034V99.1445C99.0148 99.1914 98.0363 99.1973 97.1867 99.1914L97.0461 98.3008ZM100.48 93.9062C102.015 93.9062 103.081 94.6445 103.081 95.7578C103.081 96.8711 102.015 97.5859 100.48 97.5859C98.9211 97.5859 97.8664 96.8711 97.8664 95.7578C97.8664 94.6445 98.9211 93.9062 100.48 93.9062ZM100.48 94.7383C99.5422 94.7266 98.9094 95.125 98.9211 95.7578C98.9094 96.3789 99.5422 96.7656 100.48 96.7656C101.382 96.7656 102.015 96.3789 102.027 95.7578C102.015 95.125 101.382 94.7266 100.48 94.7383ZM118.489 93.4961V104.02H117.376V93.4961H118.489ZM112.876 94.2812C114.434 94.2812 115.583 95.7109 115.583 97.9609C115.583 100.223 114.434 101.652 112.876 101.652C111.294 101.652 110.157 100.223 110.157 97.9609C110.157 95.7109 111.294 94.2812 112.876 94.2812ZM112.876 95.2773C111.903 95.2773 111.235 96.3086 111.235 97.9609C111.235 99.625 111.903 100.656 112.876 100.656C113.837 100.656 114.505 99.625 114.505 97.9609C114.505 96.3086 113.837 95.2773 112.876 95.2773ZM128.045 93.4961V97.75H129.732V98.6758H128.045V103.996H126.943V93.4961H128.045ZM126.029 95.1367V96.0508H119.806V95.1367H122.396V93.6367H123.509V95.1367H126.029ZM122.959 96.8242C124.459 96.8242 125.56 97.832 125.572 99.2617C125.56 100.703 124.459 101.699 122.959 101.711C121.447 101.699 120.345 100.703 120.345 99.2617C120.345 97.832 121.447 96.8242 122.959 96.8242ZM122.959 97.7383C122.068 97.7383 121.4 98.3594 121.412 99.2617C121.4 100.176 122.068 100.785 122.959 100.773C123.849 100.785 124.505 100.176 124.505 99.2617C124.505 98.3594 123.849 97.7383 122.959 97.7383Z" fill="#767676"/>
<path d="M201.19 103.117C199.432 103.117 198.178 102.168 198.131 100.785H199.444C199.491 101.535 200.229 102.004 201.178 102.004C202.198 102.004 202.948 101.441 202.948 100.621C202.948 99.7891 202.245 99.1797 201.037 99.1797H200.311V98.125H201.037C201.998 98.125 202.678 97.5859 202.678 96.7773C202.678 96.0039 202.104 95.4766 201.202 95.4766C200.346 95.4766 199.596 95.9453 199.561 96.7188H198.319C198.354 95.3359 199.631 94.3984 201.213 94.3984C202.877 94.3984 203.932 95.4531 203.92 96.707C203.932 97.668 203.334 98.3711 202.42 98.5938V98.6523C203.58 98.8164 204.248 99.5898 204.248 100.668C204.248 102.086 202.948 103.117 201.19 103.117ZM206.632 102.191L205.695 105.426H204.698L205.32 102.191H206.632ZM210.656 103.117C208.688 103.117 207.539 101.535 207.539 98.7578C207.539 96.0039 208.711 94.3984 210.656 94.3984C212.602 94.3984 213.773 96.0039 213.773 98.7578C213.773 101.535 212.613 103.117 210.656 103.117ZM210.656 102.004C211.805 102.004 212.484 100.879 212.484 98.7578C212.484 96.6484 211.793 95.4883 210.656 95.4883C209.52 95.4883 208.828 96.6484 208.828 98.7578C208.828 100.879 209.508 102.004 210.656 102.004ZM217.762 103.117C215.794 103.117 214.645 101.535 214.645 98.7578C214.645 96.0039 215.817 94.3984 217.762 94.3984C219.708 94.3984 220.88 96.0039 220.88 98.7578C220.88 101.535 219.72 103.117 217.762 103.117ZM217.762 102.004C218.911 102.004 219.591 100.879 219.591 98.7578C219.591 96.6484 218.899 95.4883 217.762 95.4883C216.626 95.4883 215.934 96.6484 215.934 98.7578C215.934 100.879 216.614 102.004 217.762 102.004ZM224.869 103.117C222.9 103.117 221.752 101.535 221.752 98.7578C221.752 96.0039 222.923 94.3984 224.869 94.3984C226.814 94.3984 227.986 96.0039 227.986 98.7578C227.986 101.535 226.826 103.117 224.869 103.117ZM224.869 102.004C226.017 102.004 226.697 100.879 226.697 98.7578C226.697 96.6484 226.005 95.4883 224.869 95.4883C223.732 95.4883 223.041 96.6484 223.041 98.7578C223.041 100.879 223.72 102.004 224.869 102.004Z" fill="#767676"/>
<mask id="path-20-inside-5_2473_1693" fill="white">
<path d="M0 110H284V132H0V110Z"/>
</mask>
<path d="M0 110H284V132H0V110Z" fill="#FFF8DA"/>
<path d="M284 132V131H0V132V133H284V132Z" fill="white" mask="url(#path-20-inside-5_2473_1693)"/>
<path d="M15.4145 116.516V125H14.1137V117.805H14.0668L12.0395 119.129V117.898L14.1488 116.516H15.4145ZM20.1535 125.117C18.548 125.117 17.341 124.133 17.2824 122.785H18.5363C18.6066 123.512 19.298 124.039 20.1535 124.039C21.1848 124.039 21.923 123.289 21.923 122.281C21.923 121.25 21.1613 120.5 20.0949 120.488C19.4152 120.488 18.8996 120.711 18.6066 121.238H17.3879L17.9387 116.516H22.7434V117.617H19.0051L18.7238 119.996H18.8059C19.1574 119.656 19.7551 119.422 20.3996 119.422C21.9934 119.422 23.177 120.605 23.177 122.246C23.177 123.922 21.923 125.117 20.1535 125.117ZM29.2051 116.422V121.32H24.2949V116.422H29.2051ZM25.3848 117.324V120.441H28.1152V117.324H25.3848ZM32.1348 115.484V118.625H33.6582V119.562H32.1348V123.184H31.0215V115.484H32.1348ZM32.5801 124.871V125.773H25.4785V122.445H26.5918V124.871H32.5801ZM42.6863 115.508V123.465H41.573V122.457H39.4637V121.672H41.573V115.508H42.6863ZM42.9441 124.871V125.773H35.3621V122.691H36.4637V124.871H42.9441ZM33.909 120.301C35.8543 120.289 38.4676 120.266 40.7059 119.984L40.7762 120.781C39.8797 120.928 38.9363 121.027 38.0105 121.086V123.137H36.8973V121.145C35.8777 121.191 34.8992 121.197 34.0496 121.191L33.909 120.301ZM37.3426 115.906C38.8777 115.906 39.9441 116.645 39.9441 117.758C39.9441 118.871 38.8777 119.586 37.3426 119.586C35.784 119.586 34.7293 118.871 34.7293 117.758C34.7293 116.645 35.784 115.906 37.3426 115.906ZM37.3426 116.738C36.4051 116.727 35.7723 117.125 35.784 117.758C35.7723 118.379 36.4051 118.766 37.3426 118.766C38.2449 118.766 38.8777 118.379 38.8895 117.758C38.8777 117.125 38.2449 116.727 37.3426 116.738ZM56.266 123.793V124.707H46.6566V123.793H50.8988V121.508H52.0004V123.793H56.266ZM55.3754 117.09V117.992H52.0121C52.059 119.463 53.6176 120.682 55.7738 121.004L55.352 121.871C53.6 121.596 52.1352 120.764 51.4496 119.539C50.7641 120.764 49.3051 121.596 47.5473 121.871L47.1254 121.004C49.2816 120.682 50.8285 119.463 50.8871 117.992H47.5238V117.09H50.8988V115.684H52.0004V117.09H55.3754ZM62.5754 116.621V117.266C62.5754 118.145 62.5754 119.504 62.2707 121.379L61.1691 121.297C61.4328 119.615 61.4621 118.402 61.4738 117.523H57.2082V116.621H62.5754ZM59.8801 119.621V122.762C60.9992 122.727 62.1359 122.65 63.1848 122.516L63.2434 123.348C61.052 123.699 58.6145 123.746 56.7512 123.734L56.6223 122.832C57.2785 122.826 58.0109 122.82 58.7785 122.797V119.621H59.8801ZM64.9074 115.496V119.832H66.5129V120.781H64.9074V125.996H63.7824V115.496H64.9074ZM67.5371 120.535C67.9238 120.102 68.4043 119.879 68.9316 119.879C69.8457 119.879 70.6543 120.547 71.5449 120.547C72.084 120.547 72.5527 120.312 72.916 119.844V120.969C72.5176 121.402 72.0488 121.625 71.5215 121.625C70.6074 121.625 69.7871 120.957 68.8965 120.957C68.3691 120.957 67.9121 121.191 67.5371 121.66V120.535ZM74.1512 125V124.062L77.0926 121.098C78.0184 120.125 78.4871 119.586 78.4871 118.848C78.4871 118.016 77.8074 117.477 76.9168 117.477C75.9793 117.477 75.3699 118.074 75.3699 118.977H74.1512C74.1395 117.43 75.323 116.398 76.9402 116.398C78.5809 116.398 79.7059 117.43 79.7176 118.812C79.7059 119.762 79.2605 120.512 77.6668 122.082L75.9441 123.828V123.898H79.8582V125H74.1512ZM83.941 125.117C81.9723 125.117 80.8238 123.535 80.8238 120.758C80.8238 118.004 81.9957 116.398 83.941 116.398C85.8863 116.398 87.0582 118.004 87.0582 120.758C87.0582 123.535 85.898 125.117 83.941 125.117ZM83.941 124.004C85.0895 124.004 85.7691 122.879 85.7691 120.758C85.7691 118.648 85.0777 117.488 83.941 117.488C82.8043 117.488 82.1129 118.648 82.1129 120.758C82.1129 122.879 82.7926 124.004 83.941 124.004ZM93.0512 116.422V121.32H88.141V116.422H93.0512ZM89.2309 117.324V120.441H91.9613V117.324H89.2309ZM95.9809 115.484V118.625H97.5043V119.562H95.9809V123.184H94.8676V115.484H95.9809ZM96.4262 124.871V125.773H89.3246V122.445H90.4379V124.871H96.4262ZM106.532 115.508V123.465H105.419V122.457H103.31V121.672H105.419V115.508H106.532ZM106.79 124.871V125.773H99.2082V122.691H100.31V124.871H106.79ZM97.7551 120.301C99.7004 120.289 102.314 120.266 104.552 119.984L104.622 120.781C103.726 120.928 102.782 121.027 101.857 121.086V123.137H100.743V121.145C99.7238 121.191 98.7453 121.197 97.8957 121.191L97.7551 120.301ZM101.189 115.906C102.724 115.906 103.79 116.645 103.79 117.758C103.79 118.871 102.724 119.586 101.189 119.586C99.6301 119.586 98.5754 118.871 98.5754 117.758C98.5754 116.645 99.6301 115.906 101.189 115.906ZM101.189 116.738C100.251 116.727 99.6184 117.125 99.6301 117.758C99.6184 118.379 100.251 118.766 101.189 118.766C102.091 118.766 102.724 118.379 102.736 117.758C102.724 117.125 102.091 116.727 101.189 116.738ZM119.198 115.496V126.02H118.085V115.496H119.198ZM113.585 116.281C115.143 116.281 116.292 117.711 116.292 119.961C116.292 122.223 115.143 123.652 113.585 123.652C112.003 123.652 110.866 122.223 110.866 119.961C110.866 117.711 112.003 116.281 113.585 116.281ZM113.585 117.277C112.612 117.277 111.944 118.309 111.944 119.961C111.944 121.625 112.612 122.656 113.585 122.656C114.546 122.656 115.214 121.625 115.214 119.961C115.214 118.309 114.546 117.277 113.585 117.277ZM128.754 115.496V119.75H130.441V120.676H128.754V125.996H127.652V115.496H128.754ZM126.738 117.137V118.051H120.515V117.137H123.105V115.637H124.218V117.137H126.738ZM123.668 118.824C125.168 118.824 126.269 119.832 126.281 121.262C126.269 122.703 125.168 123.699 123.668 123.711C122.156 123.699 121.054 122.703 121.054 121.262C121.054 119.832 122.156 118.824 123.668 118.824ZM123.668 119.738C122.777 119.738 122.109 120.359 122.121 121.262C122.109 122.176 122.777 122.785 123.668 122.773C124.558 122.785 125.214 122.176 125.214 121.262C125.214 120.359 124.558 119.738 123.668 119.738Z" fill="#767676"/>
<path d="M201.155 125.117C199.397 125.117 198.143 124.168 198.096 122.785H199.409C199.455 123.535 200.194 124.004 201.143 124.004C202.162 124.004 202.912 123.441 202.912 122.621C202.912 121.789 202.209 121.18 201.002 121.18H200.276V120.125H201.002C201.963 120.125 202.643 119.586 202.643 118.777C202.643 118.004 202.069 117.477 201.166 117.477C200.311 117.477 199.561 117.945 199.526 118.719H198.284C198.319 117.336 199.596 116.398 201.178 116.398C202.842 116.398 203.897 117.453 203.885 118.707C203.897 119.668 203.299 120.371 202.385 120.594V120.652C203.545 120.816 204.213 121.59 204.213 122.668C204.213 124.086 202.912 125.117 201.155 125.117ZM206.597 124.191L205.659 127.426H204.663L205.284 124.191H206.597ZM210.738 125.117C209.168 125.105 207.527 124.18 207.527 121.039C207.527 118.086 208.805 116.398 210.844 116.398C212.402 116.398 213.492 117.371 213.691 118.719H212.414C212.25 118.027 211.699 117.523 210.844 117.523C209.531 117.523 208.77 118.672 208.77 120.582H208.863C209.32 119.867 210.117 119.434 211.043 119.434C212.555 119.434 213.773 120.594 213.773 122.223C213.773 123.863 212.566 125.129 210.738 125.117ZM210.727 124.039C211.758 124.039 212.52 123.242 212.52 122.246C212.52 121.273 211.781 120.488 210.762 120.488C209.719 120.488 208.934 121.309 208.922 122.258C208.934 123.195 209.684 124.039 210.727 124.039ZM217.798 125.117C215.829 125.117 214.68 123.535 214.68 120.758C214.68 118.004 215.852 116.398 217.798 116.398C219.743 116.398 220.915 118.004 220.915 120.758C220.915 123.535 219.755 125.117 217.798 125.117ZM217.798 124.004C218.946 124.004 219.626 122.879 219.626 120.758C219.626 118.648 218.934 117.488 217.798 117.488C216.661 117.488 215.97 118.648 215.97 120.758C215.97 122.879 216.649 124.004 217.798 124.004ZM224.904 125.117C222.935 125.117 221.787 123.535 221.787 120.758C221.787 118.004 222.959 116.398 224.904 116.398C226.849 116.398 228.021 118.004 228.021 120.758C228.021 123.535 226.861 125.117 224.904 125.117ZM224.904 124.004C226.052 124.004 226.732 122.879 226.732 120.758C226.732 118.648 226.041 117.488 224.904 117.488C223.767 117.488 223.076 118.648 223.076 120.758C223.076 122.879 223.755 124.004 224.904 124.004Z" fill="#767676"/>
<mask id="path-24-inside-6_2473_1693" fill="white">
<path d="M0 132H284V154H0V132Z"/>
</mask>
<path d="M0 132H284V154H0V132Z" fill="#FFF8DA"/>
<path d="M284 154V153H0V154V155H284V154Z" fill="white" mask="url(#path-24-inside-6_2473_1693)"/>
<path d="M11.3129 147V146.062L14.2543 143.098C15.1801 142.125 15.6488 141.586 15.6488 140.848C15.6488 140.016 14.9691 139.477 14.0785 139.477C13.141 139.477 12.5316 140.074 12.5316 140.977H11.3129C11.3012 139.43 12.4848 138.398 14.102 138.398C15.7426 138.398 16.8676 139.43 16.8793 140.812C16.8676 141.762 16.4223 142.512 14.8285 144.082L13.1059 145.828V145.898H17.0199V147H11.3129ZM21.1027 147.117C19.134 147.117 17.9855 145.535 17.9855 142.758C17.9855 140.004 19.1574 138.398 21.1027 138.398C23.048 138.398 24.2199 140.004 24.2199 142.758C24.2199 145.535 23.0598 147.117 21.1027 147.117ZM21.1027 146.004C22.2512 146.004 22.9309 144.879 22.9309 142.758C22.9309 140.648 22.2395 139.488 21.1027 139.488C19.966 139.488 19.2746 140.648 19.2746 142.758C19.2746 144.879 19.9543 146.004 21.1027 146.004ZM30.2129 138.422V143.32H25.3027V138.422H30.2129ZM26.3926 139.324V142.441H29.123V139.324H26.3926ZM33.1426 137.484V140.625H34.666V141.562H33.1426V145.184H32.0293V137.484H33.1426ZM33.5879 146.871V147.773H26.4863V144.445H27.5996V146.871H33.5879ZM43.6941 137.508V145.465H42.5809V144.457H40.4715V143.672H42.5809V137.508H43.6941ZM43.952 146.871V147.773H36.3699V144.691H37.4715V146.871H43.952ZM34.9168 142.301C36.8621 142.289 39.4754 142.266 41.7137 141.984L41.784 142.781C40.8875 142.928 39.9441 143.027 39.0184 143.086V145.137H37.9051V143.145C36.8855 143.191 35.907 143.197 35.0574 143.191L34.9168 142.301ZM38.3504 137.906C39.8855 137.906 40.952 138.645 40.952 139.758C40.952 140.871 39.8855 141.586 38.3504 141.586C36.7918 141.586 35.7371 140.871 35.7371 139.758C35.7371 138.645 36.7918 137.906 38.3504 137.906ZM38.3504 138.738C37.4129 138.727 36.7801 139.125 36.7918 139.758C36.7801 140.379 37.4129 140.766 38.3504 140.766C39.2527 140.766 39.8855 140.379 39.8973 139.758C39.8855 139.125 39.2527 138.727 38.3504 138.738ZM57.2738 145.793V146.707H47.6645V145.793H51.9066V143.508H53.0082V145.793H57.2738ZM56.3832 139.09V139.992H53.0199C53.0668 141.463 54.6254 142.682 56.7816 143.004L56.3598 143.871C54.6078 143.596 53.143 142.764 52.4574 141.539C51.7719 142.764 50.3129 143.596 48.5551 143.871L48.1332 143.004C50.2895 142.682 51.8363 141.463 51.8949 139.992H48.5316V139.09H51.9066V137.684H53.0082V139.09H56.3832ZM63.5832 138.621V139.266C63.5832 140.145 63.5832 141.504 63.2785 143.379L62.177 143.297C62.4406 141.615 62.4699 140.402 62.4816 139.523H58.216V138.621H63.5832ZM60.8879 141.621V144.762C62.007 144.727 63.1437 144.65 64.1926 144.516L64.2512 145.348C62.0598 145.699 59.6223 145.746 57.759 145.734L57.6301 144.832C58.2863 144.826 59.0187 144.82 59.7863 144.797V141.621H60.8879ZM65.9152 137.496V141.832H67.5207V142.781H65.9152V147.996H64.7902V137.496H65.9152ZM68.5449 142.535C68.9316 142.102 69.4121 141.879 69.9395 141.879C70.8535 141.879 71.6621 142.547 72.5527 142.547C73.0918 142.547 73.5605 142.312 73.9238 141.844V142.969C73.5254 143.402 73.0566 143.625 72.5293 143.625C71.6152 143.625 70.7949 142.957 69.9043 142.957C69.377 142.957 68.9199 143.191 68.5449 143.66V142.535ZM75.159 147V146.062L78.1004 143.098C79.0262 142.125 79.4949 141.586 79.4949 140.848C79.4949 140.016 78.8152 139.477 77.9246 139.477C76.9871 139.477 76.3777 140.074 76.3777 140.977H75.159C75.1473 139.43 76.3309 138.398 77.948 138.398C79.5887 138.398 80.7137 139.43 80.7254 140.812C80.7137 141.762 80.2684 142.512 78.6746 144.082L76.952 145.828V145.898H80.866V147H75.159ZM84.8785 147.117C83.273 147.117 82.066 146.133 82.0074 144.785H83.2613C83.3316 145.512 84.023 146.039 84.8785 146.039C85.9098 146.039 86.648 145.289 86.648 144.281C86.648 143.25 85.8863 142.5 84.8199 142.488C84.1402 142.488 83.6246 142.711 83.3316 143.238H82.1129L82.6637 138.516H87.4684V139.617H83.7301L83.4488 141.996H83.5309C83.8824 141.656 84.4801 141.422 85.1246 141.422C86.7184 141.422 87.902 142.605 87.902 144.246C87.902 145.922 86.648 147.117 84.8785 147.117ZM93.9301 138.422V143.32H89.0199V138.422H93.9301ZM90.1098 139.324V142.441H92.8402V139.324H90.1098ZM96.8598 137.484V140.625H98.3832V141.562H96.8598V145.184H95.7465V137.484H96.8598ZM97.3051 146.871V147.773H90.2035V144.445H91.3168V146.871H97.3051ZM107.411 137.508V145.465H106.298V144.457H104.189V143.672H106.298V137.508H107.411ZM107.669 146.871V147.773H100.087V144.691H101.189V146.871H107.669ZM98.634 142.301C100.579 142.289 103.193 142.266 105.431 141.984L105.501 142.781C104.605 142.928 103.661 143.027 102.736 143.086V145.137H101.622V143.145C100.603 143.191 99.6242 143.197 98.7746 143.191L98.634 142.301ZM102.068 137.906C103.603 137.906 104.669 138.645 104.669 139.758C104.669 140.871 103.603 141.586 102.068 141.586C100.509 141.586 99.4543 140.871 99.4543 139.758C99.4543 138.645 100.509 137.906 102.068 137.906ZM102.068 138.738C101.13 138.727 100.497 139.125 100.509 139.758C100.497 140.379 101.13 140.766 102.068 140.766C102.97 140.766 103.603 140.379 103.614 139.758C103.603 139.125 102.97 138.727 102.068 138.738ZM120.077 137.496V148.02H118.964V137.496H120.077ZM114.464 138.281C116.022 138.281 117.171 139.711 117.171 141.961C117.171 144.223 116.022 145.652 114.464 145.652C112.882 145.652 111.745 144.223 111.745 141.961C111.745 139.711 112.882 138.281 114.464 138.281ZM114.464 139.277C113.491 139.277 112.823 140.309 112.823 141.961C112.823 143.625 113.491 144.656 114.464 144.656C115.425 144.656 116.093 143.625 116.093 141.961C116.093 140.309 115.425 139.277 114.464 139.277ZM129.632 137.496V141.75H131.32V142.676H129.632V147.996H128.531V137.496H129.632ZM127.617 139.137V140.051H121.394V139.137H123.984V137.637H125.097V139.137H127.617ZM124.546 140.824C126.046 140.824 127.148 141.832 127.16 143.262C127.148 144.703 126.046 145.699 124.546 145.711C123.035 145.699 121.933 144.703 121.933 143.262C121.933 141.832 123.035 140.824 124.546 140.824ZM124.546 141.738C123.656 141.738 122.988 142.359 123 143.262C122.988 144.176 123.656 144.785 124.546 144.773C125.437 144.785 126.093 144.176 126.093 143.262C126.093 142.359 125.437 141.738 124.546 141.738Z" fill="#767676"/>
<path d="M197.955 145.348V144.305L201.705 138.516H203.299V144.258H204.459V145.348H203.299V147H202.08V145.348H197.955ZM199.315 144.258H202.08V140.051H201.987L199.315 144.188V144.258ZM206.667 146.191L205.73 149.426H204.734L205.355 146.191H206.667ZM210.691 147.117C208.723 147.117 207.574 145.535 207.574 142.758C207.574 140.004 208.746 138.398 210.691 138.398C212.637 138.398 213.809 140.004 213.809 142.758C213.809 145.535 212.648 147.117 210.691 147.117ZM210.691 146.004C211.84 146.004 212.52 144.879 212.52 142.758C212.52 140.648 211.828 139.488 210.691 139.488C209.555 139.488 208.863 140.648 208.863 142.758C208.863 144.879 209.543 146.004 210.691 146.004ZM217.798 147.117C215.829 147.117 214.68 145.535 214.68 142.758C214.68 140.004 215.852 138.398 217.798 138.398C219.743 138.398 220.915 140.004 220.915 142.758C220.915 145.535 219.755 147.117 217.798 147.117ZM217.798 146.004C218.946 146.004 219.626 144.879 219.626 142.758C219.626 140.648 218.934 139.488 217.798 139.488C216.661 139.488 215.97 140.648 215.97 142.758C215.97 144.879 216.649 146.004 217.798 146.004ZM224.904 147.117C222.935 147.117 221.787 145.535 221.787 142.758C221.787 140.004 222.959 138.398 224.904 138.398C226.849 138.398 228.021 140.004 228.021 142.758C228.021 145.535 226.861 147.117 224.904 147.117ZM224.904 146.004C226.052 146.004 226.732 144.879 226.732 142.758C226.732 140.648 226.041 139.488 224.904 139.488C223.767 139.488 223.076 140.648 223.076 142.758C223.076 144.879 223.755 146.004 224.904 146.004Z" fill="#767676"/>
<mask id="path-28-inside-7_2473_1693" fill="white">
<path d="M0 154H284V176H0V154Z"/>
</mask>
<path d="M0 154H284V176H0V154Z" fill="#FFF8DA"/>
<path d="M284 176V175H0V176V177H284V176Z" fill="white" mask="url(#path-28-inside-7_2473_1693)"/>
<path d="M11.0199 169V168.062L13.9613 165.098C14.8871 164.125 15.3559 163.586 15.3559 162.848C15.3559 162.016 14.6762 161.477 13.7855 161.477C12.848 161.477 12.2387 162.074 12.2387 162.977H11.0199C11.0082 161.43 12.1918 160.398 13.809 160.398C15.4496 160.398 16.5746 161.43 16.5863 162.812C16.5746 163.762 16.1293 164.512 14.5355 166.082L12.8129 167.828V167.898H16.727V169H11.0199ZM20.7395 169.117C19.134 169.117 17.927 168.133 17.8684 166.785H19.1223C19.1926 167.512 19.884 168.039 20.7395 168.039C21.7707 168.039 22.509 167.289 22.509 166.281C22.509 165.25 21.7473 164.5 20.6809 164.488C20.0012 164.488 19.4855 164.711 19.1926 165.238H17.9738L18.5246 160.516H23.3293V161.617H19.591L19.3098 163.996H19.3918C19.7434 163.656 20.341 163.422 20.9855 163.422C22.5793 163.422 23.7629 164.605 23.7629 166.246C23.7629 167.922 22.509 169.117 20.7395 169.117ZM29.791 160.422V165.32H24.8809V160.422H29.791ZM25.9707 161.324V164.441H28.7012V161.324H25.9707ZM32.7207 159.484V162.625H34.2441V163.562H32.7207V167.184H31.6074V159.484H32.7207ZM33.166 168.871V169.773H26.0645V166.445H27.1777V168.871H33.166ZM43.2723 159.508V167.465H42.159V166.457H40.0496V165.672H42.159V159.508H43.2723ZM43.5301 168.871V169.773H35.948V166.691H37.0496V168.871H43.5301ZM34.4949 164.301C36.4402 164.289 39.0535 164.266 41.2918 163.984L41.3621 164.781C40.4656 164.928 39.5223 165.027 38.5965 165.086V167.137H37.4832V165.145C36.4637 165.191 35.4852 165.197 34.6355 165.191L34.4949 164.301ZM37.9285 159.906C39.4637 159.906 40.5301 160.645 40.5301 161.758C40.5301 162.871 39.4637 163.586 37.9285 163.586C36.3699 163.586 35.3152 162.871 35.3152 161.758C35.3152 160.645 36.3699 159.906 37.9285 159.906ZM37.9285 160.738C36.991 160.727 36.3582 161.125 36.3699 161.758C36.3582 162.379 36.991 162.766 37.9285 162.766C38.8309 162.766 39.4637 162.379 39.4754 161.758C39.4637 161.125 38.8309 160.727 37.9285 160.738ZM56.852 167.793V168.707H47.2426V167.793H51.4848V165.508H52.5863V167.793H56.852ZM55.9613 161.09V161.992H52.598C52.6449 163.463 54.2035 164.682 56.3598 165.004L55.9379 165.871C54.1859 165.596 52.7211 164.764 52.0355 163.539C51.35 164.764 49.891 165.596 48.1332 165.871L47.7113 165.004C49.8676 164.682 51.4145 163.463 51.473 161.992H48.1098V161.09H51.4848V159.684H52.5863V161.09H55.9613ZM63.1613 160.621V161.266C63.1613 162.145 63.1613 163.504 62.8566 165.379L61.7551 165.297C62.0187 163.615 62.048 162.402 62.0598 161.523H57.7941V160.621H63.1613ZM60.466 163.621V166.762C61.5852 166.727 62.7219 166.65 63.7707 166.516L63.8293 167.348C61.6379 167.699 59.2004 167.746 57.3371 167.734L57.2082 166.832C57.8645 166.826 58.5969 166.82 59.3645 166.797V163.621H60.466ZM65.4934 159.496V163.832H67.0988V164.781H65.4934V169.996H64.3684V159.496H65.4934ZM68.123 164.535C68.5098 164.102 68.9902 163.879 69.5176 163.879C70.4316 163.879 71.2402 164.547 72.1309 164.547C72.6699 164.547 73.1387 164.312 73.502 163.844V164.969C73.1035 165.402 72.6348 165.625 72.1074 165.625C71.1934 165.625 70.373 164.957 69.4824 164.957C68.9551 164.957 68.498 165.191 68.123 165.66V164.535ZM77.9832 169.117C76.2254 169.117 74.9715 168.168 74.9246 166.785H76.2371C76.284 167.535 77.0223 168.004 77.9715 168.004C78.991 168.004 79.741 167.441 79.741 166.621C79.741 165.789 79.0379 165.18 77.8309 165.18H77.1043V164.125H77.8309C78.7918 164.125 79.4715 163.586 79.4715 162.777C79.4715 162.004 78.8973 161.477 77.9949 161.477C77.1395 161.477 76.3895 161.945 76.3543 162.719H75.1121C75.1473 161.336 76.4246 160.398 78.0066 160.398C79.6707 160.398 80.7254 161.453 80.7137 162.707C80.7254 163.668 80.1277 164.371 79.2137 164.594V164.652C80.3738 164.816 81.0418 165.59 81.0418 166.668C81.0418 168.086 79.741 169.117 77.9832 169.117ZM85.1129 169.117C83.1441 169.117 81.9957 167.535 81.9957 164.758C81.9957 162.004 83.1676 160.398 85.1129 160.398C87.0582 160.398 88.2301 162.004 88.2301 164.758C88.2301 167.535 87.0699 169.117 85.1129 169.117ZM85.1129 168.004C86.2613 168.004 86.941 166.879 86.941 164.758C86.941 162.648 86.2496 161.488 85.1129 161.488C83.9762 161.488 83.2848 162.648 83.2848 164.758C83.2848 166.879 83.9645 168.004 85.1129 168.004ZM94.223 160.422V165.32H89.3129V160.422H94.223ZM90.4027 161.324V164.441H93.1332V161.324H90.4027ZM97.1527 159.484V162.625H98.6762V163.562H97.1527V167.184H96.0395V159.484H97.1527ZM97.598 168.871V169.773H90.4965V166.445H91.6098V168.871H97.598ZM107.704 159.508V167.465H106.591V166.457H104.482V165.672H106.591V159.508H107.704ZM107.962 168.871V169.773H100.38V166.691H101.482V168.871H107.962ZM98.9269 164.301C100.872 164.289 103.486 164.266 105.724 163.984L105.794 164.781C104.898 164.928 103.954 165.027 103.029 165.086V167.137H101.915V165.145C100.896 165.191 99.9172 165.197 99.0676 165.191L98.9269 164.301ZM102.361 159.906C103.896 159.906 104.962 160.645 104.962 161.758C104.962 162.871 103.896 163.586 102.361 163.586C100.802 163.586 99.7473 162.871 99.7473 161.758C99.7473 160.645 100.802 159.906 102.361 159.906ZM102.361 160.738C101.423 160.727 100.79 161.125 100.802 161.758C100.79 162.379 101.423 162.766 102.361 162.766C103.263 162.766 103.896 162.379 103.907 161.758C103.896 161.125 103.263 160.727 102.361 160.738ZM120.37 159.496V170.02H119.257V159.496H120.37ZM114.757 160.281C116.315 160.281 117.464 161.711 117.464 163.961C117.464 166.223 116.315 167.652 114.757 167.652C113.175 167.652 112.038 166.223 112.038 163.961C112.038 161.711 113.175 160.281 114.757 160.281ZM114.757 161.277C113.784 161.277 113.116 162.309 113.116 163.961C113.116 165.625 113.784 166.656 114.757 166.656C115.718 166.656 116.386 165.625 116.386 163.961C116.386 162.309 115.718 161.277 114.757 161.277ZM129.925 159.496V163.75H131.613V164.676H129.925V169.996H128.824V159.496H129.925ZM127.91 161.137V162.051H121.687V161.137H124.277V159.637H125.39V161.137H127.91ZM124.839 162.824C126.339 162.824 127.441 163.832 127.453 165.262C127.441 166.703 126.339 167.699 124.839 167.711C123.328 167.699 122.226 166.703 122.226 165.262C122.226 163.832 123.328 162.824 124.839 162.824ZM124.839 163.738C123.949 163.738 123.281 164.359 123.293 165.262C123.281 166.176 123.949 166.785 124.839 166.773C125.73 166.785 126.386 166.176 126.386 165.262C126.386 164.359 125.73 163.738 124.839 163.738Z" fill="#767676"/>
<path d="M197.932 167.348V166.305L201.682 160.516H203.276V166.258H204.436V167.348H203.276V169H202.057V167.348H197.932ZM199.291 166.258H202.057V162.051H201.963L199.291 166.188V166.258ZM206.644 168.191L205.706 171.426H204.71L205.331 168.191H206.644ZM210.773 169.117C209.168 169.117 207.961 168.133 207.902 166.785H209.156C209.227 167.512 209.918 168.039 210.773 168.039C211.805 168.039 212.543 167.289 212.543 166.281C212.543 165.25 211.781 164.5 210.715 164.488C210.035 164.488 209.52 164.711 209.227 165.238H208.008L208.559 160.516H213.363V161.617H209.625L209.344 163.996H209.426C209.777 163.656 210.375 163.422 211.02 163.422C212.613 163.422 213.797 164.605 213.797 166.246C213.797 167.922 212.543 169.117 210.773 169.117ZM217.821 169.117C215.852 169.117 214.704 167.535 214.704 164.758C214.704 162.004 215.876 160.398 217.821 160.398C219.766 160.398 220.938 162.004 220.938 164.758C220.938 167.535 219.778 169.117 217.821 169.117ZM217.821 168.004C218.97 168.004 219.649 166.879 219.649 164.758C219.649 162.648 218.958 161.488 217.821 161.488C216.684 161.488 215.993 162.648 215.993 164.758C215.993 166.879 216.673 168.004 217.821 168.004ZM224.927 169.117C222.959 169.117 221.81 167.535 221.81 164.758C221.81 162.004 222.982 160.398 224.927 160.398C226.873 160.398 228.045 162.004 228.045 164.758C228.045 167.535 226.884 169.117 224.927 169.117ZM224.927 168.004C226.076 168.004 226.755 166.879 226.755 164.758C226.755 162.648 226.064 161.488 224.927 161.488C223.791 161.488 223.099 162.648 223.099 164.758C223.099 166.879 223.779 168.004 224.927 168.004Z" fill="#767676"/>
<mask id="path-32-inside-8_2473_1693" fill="white">
<path d="M0 176H284V198H0V176Z"/>
</mask>
<path d="M0 176H284V198H0V176Z" fill="#FFF8DA"/>
<path d="M284 198V197H0V198V199H284V198Z" fill="white" mask="url(#path-32-inside-8_2473_1693)"/>
<path d="M13.8559 191.117C12.098 191.117 10.8441 190.168 10.7973 188.785H12.1098C12.1566 189.535 12.8949 190.004 13.8441 190.004C14.8637 190.004 15.6137 189.441 15.6137 188.621C15.6137 187.789 14.9105 187.18 13.7035 187.18H12.977V186.125H13.7035C14.6645 186.125 15.3441 185.586 15.3441 184.777C15.3441 184.004 14.7699 183.477 13.8676 183.477C13.0121 183.477 12.2621 183.945 12.227 184.719H10.9848C11.0199 183.336 12.2973 182.398 13.8793 182.398C15.5434 182.398 16.598 183.453 16.5863 184.707C16.598 185.668 16.0004 186.371 15.0863 186.594V186.652C16.2465 186.816 16.9145 187.59 16.9145 188.668C16.9145 190.086 15.6137 191.117 13.8559 191.117ZM20.9855 191.117C19.0168 191.117 17.8684 189.535 17.8684 186.758C17.8684 184.004 19.0402 182.398 20.9855 182.398C22.9309 182.398 24.1027 184.004 24.1027 186.758C24.1027 189.535 22.9426 191.117 20.9855 191.117ZM20.9855 190.004C22.134 190.004 22.8137 188.879 22.8137 186.758C22.8137 184.648 22.1223 183.488 20.9855 183.488C19.8488 183.488 19.1574 184.648 19.1574 186.758C19.1574 188.879 19.8371 190.004 20.9855 190.004ZM30.0957 182.422V187.32H25.1855V182.422H30.0957ZM26.2754 183.324V186.441H29.0059V183.324H26.2754ZM33.0254 181.484V184.625H34.5488V185.562H33.0254V189.184H31.9121V181.484H33.0254ZM33.4707 190.871V191.773H26.3691V188.445H27.4824V190.871H33.4707ZM43.577 181.508V189.465H42.4637V188.457H40.3543V187.672H42.4637V181.508H43.577ZM43.8348 190.871V191.773H36.2527V188.691H37.3543V190.871H43.8348ZM34.7996 186.301C36.7449 186.289 39.3582 186.266 41.5965 185.984L41.6668 186.781C40.7703 186.928 39.827 187.027 38.9012 187.086V189.137H37.7879V187.145C36.7684 187.191 35.7898 187.197 34.9402 187.191L34.7996 186.301ZM38.2332 181.906C39.7684 181.906 40.8348 182.645 40.8348 183.758C40.8348 184.871 39.7684 185.586 38.2332 185.586C36.6746 185.586 35.6199 184.871 35.6199 183.758C35.6199 182.645 36.6746 181.906 38.2332 181.906ZM38.2332 182.738C37.2957 182.727 36.6629 183.125 36.6746 183.758C36.6629 184.379 37.2957 184.766 38.2332 184.766C39.1355 184.766 39.7684 184.379 39.7801 183.758C39.7684 183.125 39.1355 182.727 38.2332 182.738ZM57.1566 189.793V190.707H47.5473V189.793H51.7895V187.508H52.891V189.793H57.1566ZM56.266 183.09V183.992H52.9027C52.9496 185.463 54.5082 186.682 56.6645 187.004L56.2426 187.871C54.4906 187.596 53.0258 186.764 52.3402 185.539C51.6547 186.764 50.1957 187.596 48.4379 187.871L48.016 187.004C50.1723 186.682 51.7191 185.463 51.7777 183.992H48.4145V183.09H51.7895V181.684H52.891V183.09H56.266ZM63.466 182.621V183.266C63.466 184.145 63.466 185.504 63.1613 187.379L62.0598 187.297C62.3234 185.615 62.3527 184.402 62.3645 183.523H58.0988V182.621H63.466ZM60.7707 185.621V188.762C61.8898 188.727 63.0266 188.65 64.0754 188.516L64.134 189.348C61.9426 189.699 59.5051 189.746 57.6418 189.734L57.5129 188.832C58.1691 188.826 58.9016 188.82 59.6691 188.797V185.621H60.7707ZM65.798 181.496V185.832H67.4035V186.781H65.798V191.996H64.673V181.496H65.798ZM68.4277 186.535C68.8145 186.102 69.2949 185.879 69.8223 185.879C70.7363 185.879 71.5449 186.547 72.4355 186.547C72.9746 186.547 73.4434 186.312 73.8066 185.844V186.969C73.4082 187.402 72.9395 187.625 72.4121 187.625C71.498 187.625 70.6777 186.957 69.7871 186.957C69.2598 186.957 68.8027 187.191 68.4277 187.66V186.535ZM78.2879 191.117C76.5301 191.117 75.2762 190.168 75.2293 188.785H76.5418C76.5887 189.535 77.327 190.004 78.2762 190.004C79.2957 190.004 80.0457 189.441 80.0457 188.621C80.0457 187.789 79.3426 187.18 78.1355 187.18H77.409V186.125H78.1355C79.0965 186.125 79.7762 185.586 79.7762 184.777C79.7762 184.004 79.202 183.477 78.2996 183.477C77.4441 183.477 76.6941 183.945 76.659 184.719H75.4168C75.452 183.336 76.7293 182.398 78.3113 182.398C79.9754 182.398 81.0301 183.453 81.0184 184.707C81.0301 185.668 80.4324 186.371 79.5184 186.594V186.652C80.6785 186.816 81.3465 187.59 81.3465 188.668C81.3465 190.086 80.0457 191.117 78.2879 191.117ZM85.3473 191.117C83.7418 191.117 82.5348 190.133 82.4762 188.785H83.7301C83.8004 189.512 84.4918 190.039 85.3473 190.039C86.3785 190.039 87.1168 189.289 87.1168 188.281C87.1168 187.25 86.3551 186.5 85.2887 186.488C84.609 186.488 84.0934 186.711 83.8004 187.238H82.5816L83.1324 182.516H87.9371V183.617H84.1988L83.9176 185.996H83.9996C84.3512 185.656 84.9488 185.422 85.5934 185.422C87.1871 185.422 88.3707 186.605 88.3707 188.246C88.3707 189.922 87.1168 191.117 85.3473 191.117ZM94.3988 182.422V187.32H89.4887V182.422H94.3988ZM90.5785 183.324V186.441H93.309V183.324H90.5785ZM97.3285 181.484V184.625H98.852V185.562H97.3285V189.184H96.2152V181.484H97.3285ZM97.7738 190.871V191.773H90.6723V188.445H91.7855V190.871H97.7738ZM107.88 181.508V189.465H106.767V188.457H104.657V187.672H106.767V181.508H107.88ZM108.138 190.871V191.773H100.556V188.691H101.657V190.871H108.138ZM99.1027 186.301C101.048 186.289 103.661 186.266 105.9 185.984L105.97 186.781C105.073 186.928 104.13 187.027 103.204 187.086V189.137H102.091V187.145C101.071 187.191 100.093 187.197 99.2434 187.191L99.1027 186.301ZM102.536 181.906C104.071 181.906 105.138 182.645 105.138 183.758C105.138 184.871 104.071 185.586 102.536 185.586C100.978 185.586 99.923 184.871 99.923 183.758C99.923 182.645 100.978 181.906 102.536 181.906ZM102.536 182.738C101.599 182.727 100.966 183.125 100.978 183.758C100.966 184.379 101.599 184.766 102.536 184.766C103.439 184.766 104.071 184.379 104.083 183.758C104.071 183.125 103.439 182.727 102.536 182.738ZM120.546 181.496V192.02H119.432V181.496H120.546ZM114.932 182.281C116.491 182.281 117.639 183.711 117.639 185.961C117.639 188.223 116.491 189.652 114.932 189.652C113.35 189.652 112.214 188.223 112.214 185.961C112.214 183.711 113.35 182.281 114.932 182.281ZM114.932 183.277C113.96 183.277 113.292 184.309 113.292 185.961C113.292 187.625 113.96 188.656 114.932 188.656C115.893 188.656 116.561 187.625 116.561 185.961C116.561 184.309 115.893 183.277 114.932 183.277ZM130.101 181.496V185.75H131.789V186.676H130.101V191.996H129V181.496H130.101ZM128.086 183.137V184.051H121.863V183.137H124.453V181.637H125.566V183.137H128.086ZM125.015 184.824C126.515 184.824 127.617 185.832 127.629 187.262C127.617 188.703 126.515 189.699 125.015 189.711C123.504 189.699 122.402 188.703 122.402 187.262C122.402 185.832 123.504 184.824 125.015 184.824ZM125.015 185.738C124.125 185.738 123.457 186.359 123.468 187.262C123.457 188.176 124.125 188.785 125.015 188.773C125.906 188.785 126.562 188.176 126.562 187.262C126.562 186.359 125.906 185.738 125.015 185.738Z" fill="#767676"/>
<path d="M201.231 191.117C199.625 191.117 198.418 190.133 198.36 188.785H199.614C199.684 189.512 200.375 190.039 201.231 190.039C202.262 190.039 203 189.289 203 188.281C203 187.25 202.239 186.5 201.172 186.488C200.493 186.488 199.977 186.711 199.684 187.238H198.465L199.016 182.516H203.821V183.617H200.082L199.801 185.996H199.883C200.235 185.656 200.832 185.422 201.477 185.422C203.071 185.422 204.254 186.605 204.254 188.246C204.254 189.922 203 191.117 201.231 191.117ZM206.544 190.191L205.607 193.426H204.611L205.232 190.191H206.544ZM207.932 191V190.062L210.873 187.098C211.799 186.125 212.268 185.586 212.268 184.848C212.268 184.016 211.588 183.477 210.697 183.477C209.76 183.477 209.15 184.074 209.15 184.977H207.932C207.92 183.43 209.104 182.398 210.721 182.398C212.361 182.398 213.486 183.43 213.498 184.812C213.486 185.762 213.041 186.512 211.447 188.082L209.725 189.828V189.898H213.639V191H207.932ZM217.651 191.117C216.046 191.117 214.839 190.133 214.78 188.785H216.034C216.104 189.512 216.796 190.039 217.651 190.039C218.682 190.039 219.421 189.289 219.421 188.281C219.421 187.25 218.659 186.5 217.593 186.488C216.913 186.488 216.397 186.711 216.104 187.238H214.886L215.436 182.516H220.241V183.617H216.503L216.221 185.996H216.304C216.655 185.656 217.253 185.422 217.897 185.422C219.491 185.422 220.675 186.605 220.675 188.246C220.675 189.922 219.421 191.117 217.651 191.117ZM224.699 191.117C222.73 191.117 221.582 189.535 221.582 186.758C221.582 184.004 222.754 182.398 224.699 182.398C226.644 182.398 227.816 184.004 227.816 186.758C227.816 189.535 226.656 191.117 224.699 191.117ZM224.699 190.004C225.847 190.004 226.527 188.879 226.527 186.758C226.527 184.648 225.836 183.488 224.699 183.488C223.562 183.488 222.871 184.648 222.871 186.758C222.871 188.879 223.55 190.004 224.699 190.004Z" fill="#767676"/>
<mask id="path-36-inside-9_2473_1693" fill="white">
<path d="M0 198H284V220H0V198Z"/>
</mask>
<path d="M0 198H284V220H0V198Z" fill="#FFF8DA"/>
<path d="M284 220V219H0V220V221H284V220Z" fill="white" mask="url(#path-36-inside-9_2473_1693)"/>
<path d="M13.7387 213.117C11.9809 213.117 10.727 212.168 10.6801 210.785H11.9926C12.0395 211.535 12.7777 212.004 13.727 212.004C14.7465 212.004 15.4965 211.441 15.4965 210.621C15.4965 209.789 14.7934 209.18 13.5863 209.18H12.8598V208.125H13.5863C14.5473 208.125 15.227 207.586 15.227 206.777C15.227 206.004 14.6527 205.477 13.7504 205.477C12.8949 205.477 12.1449 205.945 12.1098 206.719H10.8676C10.9027 205.336 12.1801 204.398 13.7621 204.398C15.4262 204.398 16.4809 205.453 16.4691 206.707C16.4809 207.668 15.8832 208.371 14.9691 208.594V208.652C16.1293 208.816 16.7973 209.59 16.7973 210.668C16.7973 212.086 15.4965 213.117 13.7387 213.117ZM20.798 213.117C19.1926 213.117 17.9855 212.133 17.927 210.785H19.1809C19.2512 211.512 19.9426 212.039 20.798 212.039C21.8293 212.039 22.5676 211.289 22.5676 210.281C22.5676 209.25 21.8059 208.5 20.7395 208.488C20.0598 208.488 19.5441 208.711 19.2512 209.238H18.0324L18.5832 204.516H23.3879V205.617H19.6496L19.3684 207.996H19.4504C19.802 207.656 20.3996 207.422 21.0441 207.422C22.6379 207.422 23.8215 208.605 23.8215 210.246C23.8215 211.922 22.5676 213.117 20.798 213.117ZM29.8496 204.422V209.32H24.9395V204.422H29.8496ZM26.0293 205.324V208.441H28.7598V205.324H26.0293ZM32.7793 203.484V206.625H34.3027V207.562H32.7793V211.184H31.666V203.484H32.7793ZM33.2246 212.871V213.773H26.123V210.445H27.2363V212.871H33.2246ZM43.3309 203.508V211.465H42.2176V210.457H40.1082V209.672H42.2176V203.508H43.3309ZM43.5887 212.871V213.773H36.0066V210.691H37.1082V212.871H43.5887ZM34.5535 208.301C36.4988 208.289 39.1121 208.266 41.3504 207.984L41.4207 208.781C40.5242 208.928 39.5809 209.027 38.6551 209.086V211.137H37.5418V209.145C36.5223 209.191 35.5437 209.197 34.6941 209.191L34.5535 208.301ZM37.9871 203.906C39.5223 203.906 40.5887 204.645 40.5887 205.758C40.5887 206.871 39.5223 207.586 37.9871 207.586C36.4285 207.586 35.3738 206.871 35.3738 205.758C35.3738 204.645 36.4285 203.906 37.9871 203.906ZM37.9871 204.738C37.0496 204.727 36.4168 205.125 36.4285 205.758C36.4168 206.379 37.0496 206.766 37.9871 206.766C38.8895 206.766 39.5223 206.379 39.534 205.758C39.5223 205.125 38.8895 204.727 37.9871 204.738ZM56.9105 211.793V212.707H47.3012V211.793H51.5434V209.508H52.6449V211.793H56.9105ZM56.0199 205.09V205.992H52.6566C52.7035 207.463 54.2621 208.682 56.4184 209.004L55.9965 209.871C54.2445 209.596 52.7797 208.764 52.0941 207.539C51.4086 208.764 49.9496 209.596 48.1918 209.871L47.7699 209.004C49.9262 208.682 51.473 207.463 51.5316 205.992H48.1684V205.09H51.5434V203.684H52.6449V205.09H56.0199ZM63.2199 204.621V205.266C63.2199 206.145 63.2199 207.504 62.9152 209.379L61.8137 209.297C62.0773 207.615 62.1066 206.402 62.1184 205.523H57.8527V204.621H63.2199ZM60.5246 207.621V210.762C61.6437 210.727 62.7805 210.65 63.8293 210.516L63.8879 211.348C61.6965 211.699 59.259 211.746 57.3957 211.734L57.2668 210.832C57.923 210.826 58.6555 210.82 59.423 210.797V207.621H60.5246ZM65.552 203.496V207.832H67.1574V208.781H65.552V213.996H64.427V203.496H65.552ZM68.1816 208.535C68.5684 208.102 69.0488 207.879 69.5762 207.879C70.4902 207.879 71.2988 208.547 72.1895 208.547C72.7285 208.547 73.1973 208.312 73.5605 207.844V208.969C73.1621 209.402 72.6934 209.625 72.166 209.625C71.252 209.625 70.4316 208.957 69.541 208.957C69.0137 208.957 68.5566 209.191 68.1816 209.66V208.535ZM74.948 211.348V210.305L78.698 204.516H80.2918V210.258H81.452V211.348H80.2918V213H79.073V211.348H74.948ZM76.3074 210.258H79.073V206.051H78.9793L76.3074 210.188V210.258ZM85.4059 213.117C83.4371 213.117 82.2887 211.535 82.2887 208.758C82.2887 206.004 83.4605 204.398 85.4059 204.398C87.3512 204.398 88.523 206.004 88.523 208.758C88.523 211.535 87.3629 213.117 85.4059 213.117ZM85.4059 212.004C86.5543 212.004 87.234 210.879 87.234 208.758C87.234 206.648 86.5426 205.488 85.4059 205.488C84.2691 205.488 83.5777 206.648 83.5777 208.758C83.5777 210.879 84.2574 212.004 85.4059 212.004ZM94.516 204.422V209.32H89.6059V204.422H94.516ZM90.6957 205.324V208.441H93.4262V205.324H90.6957ZM97.4457 203.484V206.625H98.9691V207.562H97.4457V211.184H96.3324V203.484H97.4457ZM97.891 212.871V213.773H90.7895V210.445H91.9027V212.871H97.891ZM107.997 203.508V211.465H106.884V210.457H104.775V209.672H106.884V203.508H107.997ZM108.255 212.871V213.773H100.673V210.691H101.775V212.871H108.255ZM99.2199 208.301C101.165 208.289 103.779 208.266 106.017 207.984L106.087 208.781C105.191 208.928 104.247 209.027 103.321 209.086V211.137H102.208V209.145C101.189 209.191 100.21 209.197 99.3605 209.191L99.2199 208.301ZM102.654 203.906C104.189 203.906 105.255 204.645 105.255 205.758C105.255 206.871 104.189 207.586 102.654 207.586C101.095 207.586 100.04 206.871 100.04 205.758C100.04 204.645 101.095 203.906 102.654 203.906ZM102.654 204.738C101.716 204.727 101.083 205.125 101.095 205.758C101.083 206.379 101.716 206.766 102.654 206.766C103.556 206.766 104.189 206.379 104.2 205.758C104.189 205.125 103.556 204.727 102.654 204.738ZM120.663 203.496V214.02H119.55V203.496H120.663ZM115.05 204.281C116.608 204.281 117.757 205.711 117.757 207.961C117.757 210.223 116.608 211.652 115.05 211.652C113.468 211.652 112.331 210.223 112.331 207.961C112.331 205.711 113.468 204.281 115.05 204.281ZM115.05 205.277C114.077 205.277 113.409 206.309 113.409 207.961C113.409 209.625 114.077 210.656 115.05 210.656C116.011 210.656 116.679 209.625 116.679 207.961C116.679 206.309 116.011 205.277 115.05 205.277ZM130.218 203.496V207.75H131.906V208.676H130.218V213.996H129.117V203.496H130.218ZM128.203 205.137V206.051H121.98V205.137H124.57V203.637H125.683V205.137H128.203ZM125.132 206.824C126.632 206.824 127.734 207.832 127.746 209.262C127.734 210.703 126.632 211.699 125.132 211.711C123.621 211.699 122.519 210.703 122.519 209.262C122.519 207.832 123.621 206.824 125.132 206.824ZM125.132 207.738C124.242 207.738 123.574 208.359 123.586 209.262C123.574 210.176 124.242 210.785 125.132 210.773C126.023 210.785 126.679 210.176 126.679 209.262C126.679 208.359 126.023 207.738 125.132 207.738Z" fill="#767676"/>
<path d="M201.319 213.117C199.748 213.105 198.108 212.18 198.108 209.039C198.108 206.086 199.385 204.398 201.424 204.398C202.983 204.398 204.073 205.371 204.272 206.719H202.995C202.83 206.027 202.28 205.523 201.424 205.523C200.112 205.523 199.35 206.672 199.35 208.582H199.444C199.901 207.867 200.698 207.434 201.623 207.434C203.135 207.434 204.354 208.594 204.354 210.223C204.354 211.863 203.147 213.129 201.319 213.117ZM201.307 212.039C202.338 212.039 203.1 211.242 203.1 210.246C203.1 209.273 202.362 208.488 201.342 208.488C200.299 208.488 199.514 209.309 199.502 210.258C199.514 211.195 200.264 212.039 201.307 212.039ZM206.562 212.191L205.624 215.426H204.628L205.249 212.191H206.562ZM210.586 213.117C208.617 213.117 207.469 211.535 207.469 208.758C207.469 206.004 208.641 204.398 210.586 204.398C212.531 204.398 213.703 206.004 213.703 208.758C213.703 211.535 212.543 213.117 210.586 213.117ZM210.586 212.004C211.734 212.004 212.414 210.879 212.414 208.758C212.414 206.648 211.723 205.488 210.586 205.488C209.449 205.488 208.758 206.648 208.758 208.758C208.758 210.879 209.438 212.004 210.586 212.004ZM217.692 213.117C215.723 213.117 214.575 211.535 214.575 208.758C214.575 206.004 215.747 204.398 217.692 204.398C219.637 204.398 220.809 206.004 220.809 208.758C220.809 211.535 219.649 213.117 217.692 213.117ZM217.692 212.004C218.841 212.004 219.52 210.879 219.52 208.758C219.52 206.648 218.829 205.488 217.692 205.488C216.555 205.488 215.864 206.648 215.864 208.758C215.864 210.879 216.544 212.004 217.692 212.004ZM224.798 213.117C222.83 213.117 221.681 211.535 221.681 208.758C221.681 206.004 222.853 204.398 224.798 204.398C226.744 204.398 227.916 206.004 227.916 208.758C227.916 211.535 226.755 213.117 224.798 213.117ZM224.798 212.004C225.947 212.004 226.627 210.879 226.627 208.758C226.627 206.648 225.935 205.488 224.798 205.488C223.662 205.488 222.97 206.648 222.97 208.758C222.97 210.879 223.65 212.004 224.798 212.004Z" fill="#767676"/>
<mask id="path-40-inside-10_2473_1693" fill="white">
<path d="M0 220H284V242H0V220Z"/>
</mask>
<path d="M0 220H284V242H0V220Z" fill="#FFF8DA"/>
<path d="M284 242V241H0V242V243H284V242Z" fill="white" mask="url(#path-40-inside-10_2473_1693)"/>
<path d="M10.475 233.348V232.305L14.225 226.516H15.8187V232.258H16.9789V233.348H15.8187V235H14.6V233.348H10.475ZM11.8344 232.258H14.6V228.051H14.5062L11.8344 232.188V232.258ZM20.9328 235.117C18.9641 235.117 17.8156 233.535 17.8156 230.758C17.8156 228.004 18.9875 226.398 20.9328 226.398C22.8781 226.398 24.05 228.004 24.05 230.758C24.05 233.535 22.8898 235.117 20.9328 235.117ZM20.9328 234.004C22.0812 234.004 22.7609 232.879 22.7609 230.758C22.7609 228.648 22.0695 227.488 20.9328 227.488C19.7961 227.488 19.1047 228.648 19.1047 230.758C19.1047 232.879 19.7844 234.004 20.9328 234.004ZM30.043 226.422V231.32H25.1328V226.422H30.043ZM26.2227 227.324V230.441H28.9531V227.324H26.2227ZM32.9727 225.484V228.625H34.4961V229.562H32.9727V233.184H31.8594V225.484H32.9727ZM33.418 234.871V235.773H26.3164V232.445H27.4297V234.871H33.418ZM43.5242 225.508V233.465H42.4109V232.457H40.3016V231.672H42.4109V225.508H43.5242ZM43.782 234.871V235.773H36.2V232.691H37.3016V234.871H43.782ZM34.7469 230.301C36.6922 230.289 39.3055 230.266 41.5437 229.984L41.6141 230.781C40.7176 230.928 39.7742 231.027 38.8484 231.086V233.137H37.7352V231.145C36.7156 231.191 35.7371 231.197 34.8875 231.191L34.7469 230.301ZM38.1805 225.906C39.7156 225.906 40.782 226.645 40.782 227.758C40.782 228.871 39.7156 229.586 38.1805 229.586C36.6219 229.586 35.5672 228.871 35.5672 227.758C35.5672 226.645 36.6219 225.906 38.1805 225.906ZM38.1805 226.738C37.243 226.727 36.6102 227.125 36.6219 227.758C36.6102 228.379 37.243 228.766 38.1805 228.766C39.0828 228.766 39.7156 228.379 39.7273 227.758C39.7156 227.125 39.0828 226.727 38.1805 226.738ZM57.1039 233.793V234.707H47.4945V233.793H51.7367V231.508H52.8383V233.793H57.1039ZM56.2133 227.09V227.992H52.85C52.8969 229.463 54.4555 230.682 56.6117 231.004L56.1898 231.871C54.4379 231.596 52.973 230.764 52.2875 229.539C51.602 230.764 50.143 231.596 48.3852 231.871L47.9633 231.004C50.1195 230.682 51.6664 229.463 51.725 227.992H48.3617V227.09H51.7367V225.684H52.8383V227.09H56.2133ZM63.4133 226.621V227.266C63.4133 228.145 63.4133 229.504 63.1086 231.379L62.007 231.297C62.2707 229.615 62.3 228.402 62.3117 227.523H58.0461V226.621H63.4133ZM60.718 229.621V232.762C61.8371 232.727 62.9738 232.65 64.0227 232.516L64.0812 233.348C61.8898 233.699 59.4523 233.746 57.5891 233.734L57.4602 232.832C58.1164 232.826 58.8488 232.82 59.6164 232.797V229.621H60.718ZM65.7453 225.496V229.832H67.3508V230.781H65.7453V235.996H64.6203V225.496H65.7453ZM68.375 230.535C68.7617 230.102 69.2422 229.879 69.7695 229.879C70.6836 229.879 71.4922 230.547 72.3828 230.547C72.9219 230.547 73.3906 230.312 73.7539 229.844V230.969C73.3555 231.402 72.8867 231.625 72.3594 231.625C71.4453 231.625 70.625 230.957 69.7344 230.957C69.207 230.957 68.75 231.191 68.375 231.66V230.535ZM75.1414 233.348V232.305L78.8914 226.516H80.4852V232.258H81.6453V233.348H80.4852V235H79.2664V233.348H75.1414ZM76.5008 232.258H79.2664V228.051H79.1727L76.5008 232.188V232.258ZM85.5289 235.117C83.9234 235.117 82.7164 234.133 82.6578 232.785H83.9117C83.982 233.512 84.6734 234.039 85.5289 234.039C86.5602 234.039 87.2984 233.289 87.2984 232.281C87.2984 231.25 86.5367 230.5 85.4703 230.488C84.7906 230.488 84.275 230.711 83.982 231.238H82.7633L83.3141 226.516H88.1188V227.617H84.3805L84.0992 229.996H84.1813C84.5328 229.656 85.1305 229.422 85.775 229.422C87.3688 229.422 88.5523 230.605 88.5523 232.246C88.5523 233.922 87.2984 235.117 85.5289 235.117ZM94.5805 226.422V231.32H89.6703V226.422H94.5805ZM90.7602 227.324V230.441H93.4906V227.324H90.7602ZM97.5102 225.484V228.625H99.0336V229.562H97.5102V233.184H96.3969V225.484H97.5102ZM97.9555 234.871V235.773H90.8539V232.445H91.9672V234.871H97.9555ZM108.062 225.508V233.465H106.948V232.457H104.839V231.672H106.948V225.508H108.062ZM108.32 234.871V235.773H100.737V232.691H101.839V234.871H108.32ZM99.2844 230.301C101.23 230.289 103.843 230.266 106.081 229.984L106.152 230.781C105.255 230.928 104.312 231.027 103.386 231.086V233.137H102.273V231.145C101.253 231.191 100.275 231.197 99.425 231.191L99.2844 230.301ZM102.718 225.906C104.253 225.906 105.32 226.645 105.32 227.758C105.32 228.871 104.253 229.586 102.718 229.586C101.159 229.586 100.105 228.871 100.105 227.758C100.105 226.645 101.159 225.906 102.718 225.906ZM102.718 226.738C101.78 226.727 101.148 227.125 101.159 227.758C101.148 228.379 101.78 228.766 102.718 228.766C103.62 228.766 104.253 228.379 104.265 227.758C104.253 227.125 103.62 226.727 102.718 226.738ZM120.727 225.496V236.02H119.614V225.496H120.727ZM115.114 226.281C116.673 226.281 117.821 227.711 117.821 229.961C117.821 232.223 116.673 233.652 115.114 233.652C113.532 233.652 112.395 232.223 112.395 229.961C112.395 227.711 113.532 226.281 115.114 226.281ZM115.114 227.277C114.141 227.277 113.473 228.309 113.473 229.961C113.473 231.625 114.141 232.656 115.114 232.656C116.075 232.656 116.743 231.625 116.743 229.961C116.743 228.309 116.075 227.277 115.114 227.277ZM130.283 225.496V229.75H131.97V230.676H130.283V235.996H129.181V225.496H130.283ZM128.267 227.137V228.051H122.045V227.137H124.634V225.637H125.748V227.137H128.267ZM125.197 228.824C126.697 228.824 127.798 229.832 127.81 231.262C127.798 232.703 126.697 233.699 125.197 233.711C123.685 233.699 122.584 232.703 122.584 231.262C122.584 229.832 123.685 228.824 125.197 228.824ZM125.197 229.738C124.306 229.738 123.638 230.359 123.65 231.262C123.638 232.176 124.306 232.785 125.197 232.773C126.088 232.785 126.744 232.176 126.744 231.262C126.744 230.359 126.088 229.738 125.197 229.738Z" fill="#767676"/>
<path d="M201.741 235.117C200.17 235.105 198.53 234.18 198.53 231.039C198.53 228.086 199.807 226.398 201.846 226.398C203.405 226.398 204.495 227.371 204.694 228.719H203.416C203.252 228.027 202.702 227.523 201.846 227.523C200.534 227.523 199.772 228.672 199.772 230.582H199.866C200.323 229.867 201.12 229.434 202.045 229.434C203.557 229.434 204.776 230.594 204.776 232.223C204.776 233.863 203.569 235.129 201.741 235.117ZM201.729 234.039C202.76 234.039 203.522 233.242 203.522 232.246C203.522 231.273 202.784 230.488 201.764 230.488C200.721 230.488 199.936 231.309 199.924 232.258C199.936 233.195 200.686 234.039 201.729 234.039ZM206.984 234.191L206.046 237.426H205.05L205.671 234.191H206.984ZM208.441 235L212.227 227.688V227.617H207.855V226.516H213.562V227.664L209.789 235H208.441ZM217.329 235.117C215.723 235.117 214.516 234.133 214.458 232.785H215.712C215.782 233.512 216.473 234.039 217.329 234.039C218.36 234.039 219.098 233.289 219.098 232.281C219.098 231.25 218.337 230.5 217.27 230.488C216.591 230.488 216.075 230.711 215.782 231.238H214.563L215.114 226.516H219.919V227.617H216.18L215.899 229.996H215.981C216.333 229.656 216.93 229.422 217.575 229.422C219.169 229.422 220.352 230.605 220.352 232.246C220.352 233.922 219.098 235.117 217.329 235.117ZM224.377 235.117C222.408 235.117 221.259 233.535 221.259 230.758C221.259 228.004 222.431 226.398 224.377 226.398C226.322 226.398 227.494 228.004 227.494 230.758C227.494 233.535 226.334 235.117 224.377 235.117ZM224.377 234.004C225.525 234.004 226.205 232.879 226.205 230.758C226.205 228.648 225.513 227.488 224.377 227.488C223.24 227.488 222.548 228.648 222.548 230.758C222.548 232.879 223.228 234.004 224.377 234.004Z" fill="#767676"/>
<rect width="284" height="22" transform="translate(0 242)" fill="#FFF8DA"/>
<path d="M10.6449 255.348V254.305L14.3949 248.516H15.9887V254.258H17.1488V255.348H15.9887V257H14.7699V255.348H10.6449ZM12.0043 254.258H14.7699V250.051H14.6762L12.0043 254.188V254.258ZM21.0324 257.117C19.427 257.117 18.2199 256.133 18.1613 254.785H19.4152C19.4855 255.512 20.177 256.039 21.0324 256.039C22.0637 256.039 22.802 255.289 22.802 254.281C22.802 253.25 22.0402 252.5 20.9738 252.488C20.2941 252.488 19.7785 252.711 19.4855 253.238H18.2668L18.8176 248.516H23.6223V249.617H19.884L19.6027 251.996H19.6848C20.0363 251.656 20.634 251.422 21.2785 251.422C22.8723 251.422 24.0559 252.605 24.0559 254.246C24.0559 255.922 22.802 257.117 21.0324 257.117ZM30.084 248.422V253.32H25.1738V248.422H30.084ZM26.2637 249.324V252.441H28.9941V249.324H26.2637ZM33.0137 247.484V250.625H34.5371V251.562H33.0137V255.184H31.9004V247.484H33.0137ZM33.459 256.871V257.773H26.3574V254.445H27.4707V256.871H33.459ZM43.5652 247.508V255.465H42.452V254.457H40.3426V253.672H42.452V247.508H43.5652ZM43.823 256.871V257.773H36.241V254.691H37.3426V256.871H43.823ZM34.7879 252.301C36.7332 252.289 39.3465 252.266 41.5848 251.984L41.6551 252.781C40.7586 252.928 39.8152 253.027 38.8895 253.086V255.137H37.7762V253.145C36.7566 253.191 35.7781 253.197 34.9285 253.191L34.7879 252.301ZM38.2215 247.906C39.7566 247.906 40.823 248.645 40.823 249.758C40.823 250.871 39.7566 251.586 38.2215 251.586C36.6629 251.586 35.6082 250.871 35.6082 249.758C35.6082 248.645 36.6629 247.906 38.2215 247.906ZM38.2215 248.738C37.284 248.727 36.6512 249.125 36.6629 249.758C36.6512 250.379 37.284 250.766 38.2215 250.766C39.1238 250.766 39.7566 250.379 39.7684 249.758C39.7566 249.125 39.1238 248.727 38.2215 248.738ZM57.1449 255.793V256.707H47.5355V255.793H51.7777V253.508H52.8793V255.793H57.1449ZM56.2543 249.09V249.992H52.891C52.9379 251.463 54.4965 252.682 56.6527 253.004L56.2309 253.871C54.4789 253.596 53.0141 252.764 52.3285 251.539C51.643 252.764 50.184 253.596 48.4262 253.871L48.0043 253.004C50.1605 252.682 51.7074 251.463 51.766 249.992H48.4027V249.09H51.7777V247.684H52.8793V249.09H56.2543ZM63.4543 248.621V249.266C63.4543 250.145 63.4543 251.504 63.1496 253.379L62.048 253.297C62.3117 251.615 62.341 250.402 62.3527 249.523H58.0871V248.621H63.4543ZM60.759 251.621V254.762C61.8781 254.727 63.0148 254.65 64.0637 254.516L64.1223 255.348C61.9309 255.699 59.4934 255.746 57.6301 255.734L57.5012 254.832C58.1574 254.826 58.8898 254.82 59.6574 254.797V251.621H60.759ZM65.7863 247.496V251.832H67.3918V252.781H65.7863V257.996H64.6613V247.496H65.7863ZM68.416 252.535C68.8027 252.102 69.2832 251.879 69.8105 251.879C70.7246 251.879 71.5332 252.547 72.4238 252.547C72.9629 252.547 73.4316 252.312 73.7949 251.844V252.969C73.3965 253.402 72.9277 253.625 72.4004 253.625C71.4863 253.625 70.666 252.957 69.7754 252.957C69.248 252.957 68.791 253.191 68.416 253.66V252.535ZM78.2527 257.117C76.6473 257.117 75.4402 256.133 75.3816 254.785H76.6355C76.7059 255.512 77.3973 256.039 78.2527 256.039C79.284 256.039 80.0223 255.289 80.0223 254.281C80.0223 253.25 79.2605 252.5 78.1941 252.488C77.5145 252.488 76.9988 252.711 76.7059 253.238H75.4871L76.0379 248.516H80.8426V249.617H77.1043L76.823 251.996H76.9051C77.2566 251.656 77.8543 251.422 78.4988 251.422C80.0926 251.422 81.2762 252.605 81.2762 254.246C81.2762 255.922 80.0223 257.117 78.2527 257.117ZM85.3004 257.117C83.3316 257.117 82.1832 255.535 82.1832 252.758C82.1832 250.004 83.3551 248.398 85.3004 248.398C87.2457 248.398 88.4176 250.004 88.4176 252.758C88.4176 255.535 87.2574 257.117 85.3004 257.117ZM85.3004 256.004C86.4488 256.004 87.1285 254.879 87.1285 252.758C87.1285 250.648 86.4371 249.488 85.3004 249.488C84.1637 249.488 83.4723 250.648 83.4723 252.758C83.4723 254.879 84.152 256.004 85.3004 256.004ZM94.4105 248.422V253.32H89.5004V248.422H94.4105ZM90.5902 249.324V252.441H93.3207V249.324H90.5902ZM97.3402 247.484V250.625H98.8637V251.562H97.3402V255.184H96.227V247.484H97.3402ZM97.7855 256.871V257.773H90.684V254.445H91.7973V256.871H97.7855ZM107.892 247.508V255.465H106.779V254.457H104.669V253.672H106.779V247.508H107.892ZM108.15 256.871V257.773H100.568V254.691H101.669V256.871H108.15ZM99.1144 252.301C101.06 252.289 103.673 252.266 105.911 251.984L105.982 252.781C105.085 252.928 104.142 253.027 103.216 253.086V255.137H102.103V253.145C101.083 253.191 100.105 253.197 99.2551 253.191L99.1144 252.301ZM102.548 247.906C104.083 247.906 105.15 248.645 105.15 249.758C105.15 250.871 104.083 251.586 102.548 251.586C100.989 251.586 99.9348 250.871 99.9348 249.758C99.9348 248.645 100.989 247.906 102.548 247.906ZM102.548 248.738C101.611 248.727 100.978 249.125 100.989 249.758C100.978 250.379 101.611 250.766 102.548 250.766C103.45 250.766 104.083 250.379 104.095 249.758C104.083 249.125 103.45 248.727 102.548 248.738ZM120.557 247.496V258.02H119.444V247.496H120.557ZM114.944 248.281C116.503 248.281 117.651 249.711 117.651 251.961C117.651 254.223 116.503 255.652 114.944 255.652C113.362 255.652 112.225 254.223 112.225 251.961C112.225 249.711 113.362 248.281 114.944 248.281ZM114.944 249.277C113.971 249.277 113.304 250.309 113.304 251.961C113.304 253.625 113.971 254.656 114.944 254.656C115.905 254.656 116.573 253.625 116.573 251.961C116.573 250.309 115.905 249.277 114.944 249.277ZM130.113 247.496V251.75H131.8V252.676H130.113V257.996H129.011V247.496H130.113ZM128.097 249.137V250.051H121.875V249.137H124.464V247.637H125.578V249.137H128.097ZM125.027 250.824C126.527 250.824 127.629 251.832 127.64 253.262C127.629 254.703 126.527 255.699 125.027 255.711C123.515 255.699 122.414 254.703 122.414 253.262C122.414 251.832 123.515 250.824 125.027 250.824ZM125.027 251.738C124.136 251.738 123.468 252.359 123.48 253.262C123.468 254.176 124.136 254.785 125.027 254.773C125.918 254.785 126.574 254.176 126.574 253.262C126.574 252.359 125.918 251.738 125.027 251.738Z" fill="#767676"/>
<path d="M199.438 257L203.223 249.688V249.617H198.852V248.516H204.559V249.664L200.786 257H199.438ZM205.618 256.191L204.681 259.426H203.685L204.306 256.191H205.618ZM209.748 257.117C208.143 257.117 206.936 256.133 206.877 254.785H208.131C208.201 255.512 208.893 256.039 209.748 256.039C210.779 256.039 211.518 255.289 211.518 254.281C211.518 253.25 210.756 252.5 209.689 252.488C209.01 252.488 208.494 252.711 208.201 253.238H206.982L207.533 248.516H212.338V249.617H208.6L208.318 251.996H208.4C208.752 251.656 209.35 251.422 209.994 251.422C211.588 251.422 212.771 252.605 212.771 254.246C212.771 255.922 211.518 257.117 209.748 257.117ZM216.796 257.117C214.827 257.117 213.679 255.535 213.679 252.758C213.679 250.004 214.85 248.398 216.796 248.398C218.741 248.398 219.913 250.004 219.913 252.758C219.913 255.535 218.753 257.117 216.796 257.117ZM216.796 256.004C217.944 256.004 218.624 254.879 218.624 252.758C218.624 250.648 217.932 249.488 216.796 249.488C215.659 249.488 214.968 250.648 214.968 252.758C214.968 254.879 215.647 256.004 216.796 256.004ZM223.902 257.117C221.933 257.117 220.785 255.535 220.785 252.758C220.785 250.004 221.957 248.398 223.902 248.398C225.847 248.398 227.019 250.004 227.019 252.758C227.019 255.535 225.859 257.117 223.902 257.117ZM223.902 256.004C225.05 256.004 225.73 254.879 225.73 252.758C225.73 250.648 225.039 249.488 223.902 249.488C222.765 249.488 222.074 250.648 222.074 252.758C222.074 254.879 222.754 256.004 223.902 256.004Z" fill="#767676"/>
</g>
<defs>
<clipPath id="clip0_2473_1693">
<rect width="284" height="264" rx="8" fill="white"/>
</clipPath>
</defs>
</svg>
