<svg width="120" height="158" viewBox="0 0 120 158" fill="none" xmlns="http://www.w3.org/2000/svg">
<path d="M35.9102 29.3008C31.4805 29.3008 28.8008 26.1289 28.8008 21.6445C28.8008 17.1055 31.5625 13.9609 35.9102 13.9609C39.5195 13.9609 42.0352 16.0664 42.2812 19.2656H38.9453C38.6719 17.8438 37.6328 16.75 35.9375 16.75C33.7773 16.75 32.3281 18.582 32.3281 21.5625C32.3281 24.625 33.75 26.457 35.9375 26.457C37.4961 26.457 38.6445 25.5547 38.9453 23.9414H42.2812C42.0078 27.0859 39.6289 29.3008 35.9102 29.3008ZM47.7062 9.20312V29H44.2062V9.20312H47.7062ZM50.3422 29V14.1523H53.8422V29H50.3422ZM52.1195 12.0469C51.0258 12.0469 50.0961 11.1992 50.0961 10.1328C50.0961 9.09375 51.0258 8.24609 52.1195 8.24609C53.2406 8.24609 54.143 9.09375 54.143 10.1328C54.143 11.1992 53.2406 12.0469 52.1195 12.0469ZM62.9586 29.3008C58.5289 29.3008 55.8492 26.1289 55.8492 21.6445C55.8492 17.1055 58.6109 13.9609 62.9586 13.9609C66.568 13.9609 69.0836 16.0664 69.3297 19.2656H65.9938C65.7203 17.8438 64.6813 16.75 62.9859 16.75C60.8258 16.75 59.3766 18.582 59.3766 21.5625C59.3766 24.625 60.7984 26.457 62.9859 26.457C64.5445 26.457 65.693 25.5547 65.9938 23.9414H69.3297C69.0563 27.0859 66.6773 29.3008 62.9586 29.3008ZM71.2547 29V9.20312H74.7547V20.1133H75.0008L80.3328 14.1523H84.407L78.6648 20.5508L84.7625 29H80.6062L76.0398 22.6289L74.7547 23.9961V29H71.2547ZM90.0234 9.20312L89.7227 23.1758H86.6328L86.3047 9.20312H90.0234ZM88.1914 29.2188C87.0156 29.2188 86.0586 28.2617 86.0586 27.0859C86.0586 25.9375 87.0156 24.9805 88.1914 24.9805C89.3125 24.9805 90.2969 25.9375 90.2969 27.0859C90.2969 28.2617 89.3125 29.2188 88.1914 29.2188Z" fill="black"/>
<g clip-path="url(#clip0_359_2966)">
<ellipse cx="71.942" cy="98.0614" rx="31.0869" ry="36.3635" transform="rotate(-23.3186 71.942 98.0614)" fill="white"/>
<path fill-rule="evenodd" clip-rule="evenodd" d="M31.0641 93.9571C30.1133 107.731 25.2014 119.724 20.8611 126.69L14.3786 122.65C18.1309 116.628 22.5884 105.828 23.4442 93.4311C24.2938 81.1236 21.5959 67.383 11.2709 55.0363L17.1302 50.1365C28.9631 64.2864 32.0212 80.0938 31.0641 93.9571Z" fill="#FFD773"/>
<path fill-rule="evenodd" clip-rule="evenodd" d="M51.4984 131.416C57.367 136.343 65.089 139.378 74.8896 139.378C82.5942 139.378 88.7003 137.603 93.2306 134.194C97.7932 130.761 100.243 126.058 101.335 121.194C103.452 111.768 100.666 101.046 97.7486 94.2307L96.052 90.267L68.8567 98.3883L71.6487 107.587L90.33 102.009C92.0698 107.442 93.0566 113.873 91.8816 119.105C91.1742 122.255 89.7374 124.764 87.3773 126.54C84.9848 128.341 81.1314 129.771 74.8896 129.771C67.2572 129.771 61.7833 127.465 57.7551 124.083C53.6459 120.634 50.7512 115.815 48.8255 110.421C46.9021 105.034 46.0267 99.2948 45.8152 94.3212C45.5992 89.2412 46.092 85.4029 46.5934 83.7676C48.3876 77.9165 52.3803 72.7666 58.7872 70.8348C65.2722 68.8795 75.5571 69.8126 90.7443 79.1282L94.8629 81.6545L99.9567 73.4837L95.838 70.9574C79.4454 60.9024 66.1922 58.5613 55.9705 61.6432C45.6708 64.7488 39.7881 72.9476 37.3275 80.972C36.3765 84.0736 35.9008 89.1294 36.1388 94.726C36.3813 100.429 37.3824 107.148 39.6962 113.629C42.0076 120.102 45.7108 126.558 51.4984 131.416Z" fill="black"/>
<path fill-rule="evenodd" clip-rule="evenodd" d="M64.0781 128.016L55.2158 146.378L47.0781 141.74L55.9405 123.378L64.0781 128.016Z" fill="black"/>
<path fill-rule="evenodd" clip-rule="evenodd" d="M81.0781 131.42L90.3645 146.378L99.0781 141.336L89.7917 126.378L81.0781 131.42Z" fill="black"/>
<path d="M65.305 82.5299C64.6102 84.4285 62.4325 85.4305 60.441 84.7681C58.4496 84.1056 57.3985 82.0295 58.0934 80.131C58.7883 78.2324 60.9659 77.2304 62.9574 77.8928C64.9488 78.5553 65.9999 80.6314 65.305 82.5299Z" fill="black"/>
<path d="M38.3234 92.4187L25.0508 84.1787L41.7782 80.4207L38.3234 92.4187Z" fill="black"/>
</g>
<defs>
<clipPath id="clip0_359_2966">
<rect y="38" width="120" height="120" rx="12" fill="white"/>
</clipPath>
</defs>
</svg>
