<svg width="121" height="207" viewBox="0 0 121 207" fill="none" xmlns="http://www.w3.org/2000/svg">
<g clip-path="url(#clip0_271_976)">
<rect width="120" height="87" transform="translate(0.120361)" fill="white"/>
<g clip-path="url(#clip1_271_976)">
<path d="M23.1204 105C15.287 102 -0.579638 95.9 -1.37964 95.5L-5.37964 85L122.62 86L121.62 100L105.62 103.5L85.6204 107H41.6204L31.1204 120.5L23.1204 105Z" fill="white"/>
<ellipse cx="93.9149" cy="181.924" rx="49.3754" ry="57.7562" transform="rotate(-23.3186 93.9149 181.924)" fill="white"/>
<path fill-rule="evenodd" clip-rule="evenodd" d="M61.6527 234.691C70.989 242.486 83.274 247.288 98.8659 247.288C111.123 247.288 120.837 244.48 128.045 239.086C135.303 233.654 139.2 226.212 140.938 218.516C144.306 203.601 139.873 186.636 135.232 175.853L132.533 169.581L89.268 182.431L93.7098 196.986L123.43 188.159C126.198 196.757 127.768 206.933 125.899 215.211C124.773 220.195 122.487 224.165 118.733 226.975C114.926 229.824 108.796 232.087 98.8659 232.087C86.7234 232.087 78.015 228.438 71.6064 223.088C65.069 217.629 60.4639 210.004 57.4003 201.471C54.3404 192.947 52.9477 183.865 52.6112 175.996C52.2675 167.958 53.0515 161.885 53.8493 159.297C56.7036 150.039 63.0557 141.89 73.2485 138.834C83.5655 135.74 99.9278 137.216 124.089 151.956L130.642 155.954L138.745 143.025L132.193 139.028C106.114 123.118 85.0292 119.414 68.7674 124.29C52.3814 129.204 43.0226 142.177 39.1081 154.874C37.595 159.781 36.8383 167.781 37.2169 176.636C37.6027 185.66 39.1953 196.292 42.8763 206.545C46.5536 216.788 52.4451 227.003 61.6527 234.691Z" fill="black"/>
<path d="M83.3731 157.257C82.2695 160.272 78.8107 161.864 75.6477 160.811C72.4847 159.759 70.8152 156.462 71.9189 153.446C73.0225 150.431 76.4814 148.839 79.6444 149.891C82.8074 150.944 84.4768 154.241 83.3731 157.257Z" fill="black"/>
<path d="M40.6204 156L29.1204 141.063L46.1204 145L40.6204 156Z" fill="black"/>
<path d="M40.1204 162.5L28.1204 152L43.1204 153L40.1204 162.5Z" fill="black"/>
<path d="M129.12 98.5C99.9204 106.9 58.6204 108.5 41.6204 106.5L31.6204 122L23.6204 104.5C16.4537 103.167 0.720361 99 -4.87964 93" stroke="black" stroke-width="6"/>
<path fill-rule="evenodd" clip-rule="evenodd" d="M26.1845 207.957C25.2336 221.731 20.3218 233.724 15.9815 240.69L9.49891 236.65C13.2513 230.628 17.7088 219.828 18.5646 207.431C19.4142 195.124 16.7162 181.383 6.39126 169.036L12.2505 164.136C24.0835 178.286 27.1415 194.094 26.1845 207.957Z" fill="#FFD773"/>
</g>
</g>
<defs>
<clipPath id="clip0_271_976">
<rect x="0.120361" width="120" height="207" rx="20" fill="white"/>
</clipPath>
<clipPath id="clip1_271_976">
<rect width="120" height="120" fill="white" transform="translate(0.120361 87)"/>
</clipPath>
</defs>
</svg>
