<svg width="48" height="48" viewBox="0 0 48 48" fill="none" xmlns="http://www.w3.org/2000/svg">
<path d="M23.9998 17.667C20.5764 17.667 17.6665 20.5769 17.6665 24.0003C17.6665 27.4238 20.5764 30.3337 23.9998 30.3337C27.4233 30.3337 30.3332 27.4238 30.3332 24.0003C30.3332 20.5769 27.4233 17.667 23.9998 17.667Z" fill="black"/>
<path d="M32.1182 5H16.0545C9.83636 5 5 9.83636 5 15.8818V31.9455C5 38.1636 9.83636 43 16.0545 43H32.1182C38.1636 43 43 38.1636 43 31.9455V15.8818C43 9.83636 38.1636 5 32.1182 5ZM24 34.0182C18.4727 34.0182 14.1545 29.5273 14.1545 24.1727C14.1545 18.8182 18.4727 14.1545 24 14.1545C29.5273 14.1545 33.8455 18.6455 33.8455 24C33.8455 29.3545 29.5273 34.0182 24 34.0182ZM34.1909 16.2273C32.9818 16.2273 31.9455 15.1909 31.9455 13.9818C31.9455 12.7727 32.9818 11.7364 34.1909 11.7364C35.4 11.7364 36.4364 12.7727 36.4364 13.9818C36.4364 15.1909 35.4 16.2273 34.1909 16.2273Z" fill="black"/>
</svg>
