<svg width="48" height="48" viewBox="0 0 48 48" fill="none" xmlns="http://www.w3.org/2000/svg">
<path d="M11.5354 19.7861C11.056 19.7861 10.6298 19.975 10.3102 20.3259C9.964 20.6767 9.8042 21.1085 9.8042 21.6212C9.8042 22.134 9.964 22.5388 10.3102 22.9166C10.6565 23.2674 11.056 23.4563 11.5354 23.4563C12.0148 23.4563 12.4409 23.2674 12.7872 22.9166C13.1334 22.5657 13.3199 22.134 13.3199 21.6212C13.3199 21.1085 13.1334 20.6767 12.7872 20.3259C12.4409 19.9481 12.0414 19.7861 11.5354 19.7861Z" fill="#111111"/>
<path d="M26.4768 19.7588C25.9974 19.7588 25.5713 19.9477 25.2516 20.2985C24.9054 20.6493 24.7456 21.0811 24.7456 21.5939C24.7456 22.1066 24.9054 22.5114 25.2516 22.8892C25.5979 23.24 25.9974 23.429 26.4768 23.429C26.9562 23.429 27.3823 23.24 27.7286 22.8892C28.0748 22.5384 28.2613 22.1066 28.2613 21.5939C28.2613 21.0811 28.0748 20.6763 27.7286 20.2985C27.409 19.9207 26.9828 19.7588 26.4768 19.7588Z" fill="#111111"/>
<path d="M36.4646 19.7861C35.9852 19.7861 35.5591 19.975 35.2394 20.3259C34.8932 20.6767 34.7334 21.1085 34.7334 21.6212C34.7334 22.134 34.8932 22.5388 35.2394 22.9166C35.5857 23.2674 35.9852 23.4563 36.4646 23.4563C36.944 23.4563 37.3702 23.2674 37.7164 22.9166C38.0626 22.5657 38.2491 22.134 38.2491 21.6212C38.2491 21.1085 38.0626 20.6767 37.7164 20.3259C37.3702 19.9481 36.944 19.7861 36.4646 19.7861Z" fill="#111111"/>
<path d="M40.8843 6.45508H7.11262C4.52914 6.45508 2.39844 8.614 2.39844 11.2317V30.581C2.39844 33.1987 4.52914 35.3576 7.11262 35.3576H20.3762C20.3762 35.3576 22.9331 42.4551 23.8653 42.4551C24.7975 42.4551 27.5674 35.3576 27.5674 35.3576H40.8843C43.4677 35.3576 45.5984 33.1987 45.5984 30.581V11.2317C45.5984 8.614 43.4677 6.45508 40.8843 6.45508ZM14.943 24.3201C14.2771 25.0758 13.2384 25.3996 12.1198 25.3996C11.1077 25.3996 10.3619 25.1028 9.82926 24.671H9.80263V25.2107H7.27242V14.0113H9.80263V18.3022H9.8559C10.5484 17.7085 11.4539 17.5195 12.5193 17.4656C13.4248 17.4386 14.3836 18.0053 14.9696 18.68C15.5289 19.3546 15.955 20.4071 15.955 21.5675C15.955 22.8359 15.6354 23.5645 14.943 24.3201ZM20.4029 25.3186H17.8194C17.8194 25.3186 17.8194 19.4356 17.8194 18.3831C17.8194 16.7909 16.5676 16.575 16.5676 16.575V13.7954C16.5676 13.7954 20.1898 14.0113 20.4029 18.4641C20.4029 19.7324 20.4029 25.3186 20.4029 25.3186ZM30.5504 23.1867C30.3373 23.6995 30.0177 24.1312 29.5915 24.536C29.192 24.9138 28.7126 25.2107 28.1799 25.4266C27.6473 25.6425 27.088 25.7504 26.502 25.7504C25.9161 25.7504 25.3568 25.6425 24.8507 25.4266C24.318 25.2107 23.8386 24.9138 23.4391 24.536C23.013 24.1312 22.6934 23.6725 22.4803 23.1867C22.2672 22.701 22.1607 22.1612 22.1607 21.5945C22.1607 21.0278 22.2672 20.515 22.4803 20.0023C22.6934 19.5165 23.013 19.0578 23.4391 18.653C23.8653 18.2752 24.318 17.9783 24.8507 17.7624C25.3834 17.5465 25.9427 17.4386 26.502 17.4386C27.088 17.4386 27.6473 17.5465 28.1799 17.7624C28.7126 17.9783 29.192 18.2752 29.5915 18.653C30.0177 19.0578 30.3106 19.4896 30.5504 20.0023C30.7634 20.515 30.87 21.0278 30.87 21.5945C30.87 22.1612 30.7634 22.674 30.5504 23.1867ZM40.7245 24.2932C40.7245 26.2632 40.3516 27.4506 39.4993 28.2872C38.4606 29.2857 36.9957 29.3396 35.7706 29.1777V27.1537C36.8093 27.2617 38.2209 26.56 38.2209 25.2107V24.698H38.1942C37.6083 25.5076 36.7827 25.8044 35.6374 25.8044C34.5987 25.8044 33.6931 25.4266 33.0806 24.698C32.468 23.9693 32.175 22.9978 32.175 21.7834C32.175 20.4071 32.5212 19.3276 33.1871 18.518C33.8796 17.7085 34.8384 17.3306 35.957 17.3306C36.9425 17.3306 37.5817 17.5735 38.1942 18.1402H38.2209V17.5195H40.7511V24.2932H40.7245Z" fill="#111111"/>
</svg>
