<svg width="149" height="28" viewBox="0 0 149 28" fill="none" xmlns="http://www.w3.org/2000/svg">
<path d="M0 27.1489V9.02562C0 7.34777 0.370122 5.87965 1.11037 4.62126C1.87528 3.36287 2.92396 2.38823 4.2564 1.69735C5.58884 0.9818 7.10634 0.624023 8.80891 0.624023C10.5361 0.624023 12.0536 0.9818 13.3614 1.69735C14.6938 2.38823 15.7302 3.36287 16.4704 4.62126C17.2353 5.87965 17.6178 7.34777 17.6178 9.02562V27.1489H14.2127V9.06263C14.2127 7.92761 13.9536 6.95298 13.4354 6.13873C12.9419 5.2998 12.2757 4.65827 11.4368 4.21413C10.6225 3.77 9.74655 3.54793 8.80891 3.54793C7.87126 3.54793 6.98297 3.77 6.14403 4.21413C5.32976 4.65827 4.66354 5.2998 4.14537 6.13873C3.65187 6.95298 3.40512 7.92761 3.40512 9.06263V27.1489H0Z" fill="#111111"/>
<path fill-rule="evenodd" clip-rule="evenodd" d="M27.43 2.47901C29.4019 0.834713 31.9536 -0.132004 35.1101 0.0146069C39.0749 0.198767 41.5226 2.37816 42.7563 5.11778C43.9431 7.75348 44.0104 10.8735 43.4953 13.2771L43.1766 14.7645L34.004 12.93L34.6089 9.90565L40.6891 11.1217C40.7985 9.54084 40.5888 7.8164 39.9439 6.38414C39.1319 4.58091 37.6425 3.21985 34.967 3.09557C32.5776 2.98459 30.7824 3.69949 29.4053 4.84782C27.997 6.02209 26.9509 7.71588 26.2356 9.64171C25.5222 11.5624 25.1682 13.6345 25.0923 15.4587C25.0145 17.3273 25.235 18.758 25.5244 19.4608C26.0376 20.7067 27.3424 21.4072 29.2186 21.7279C30.676 21.9771 32.1063 21.9405 33.1755 21.9131C33.4694 21.9055 33.736 21.8987 33.9684 21.8987H35.5106V24.983H33.9684C33.8279 24.983 33.6371 24.9883 33.4057 24.9948C32.3641 25.0239 30.5 25.0761 28.6988 24.7681C26.5154 24.3948 23.8106 23.3989 22.6725 20.6352C22.1363 19.3332 21.925 17.3855 22.0106 15.3303C22.098 13.2307 22.5027 10.8335 23.3442 8.56782C24.1839 6.30721 25.4891 4.09737 27.43 2.47901Z" fill="#111111"/>
<path fill-rule="evenodd" clip-rule="evenodd" d="M44.3316 25.5984C28.9889 27.8998 22.0056 20.1451 20.4624 15.5156L22.8033 14.7354C23.9332 18.125 29.6985 25.2983 43.9656 23.1583L44.3316 25.5984Z" fill="#FFD773"/>
<path fill-rule="evenodd" clip-rule="evenodd" d="M32.8855 25.9382C28.4403 26.919 23.7371 27.3575 20.7496 27.4623L20.6631 24.9964C23.5359 24.8956 28.0857 24.4705 32.3538 23.5288C34.4877 23.0579 36.518 22.4651 38.2204 21.7355C39.9431 20.9971 41.2217 20.1641 41.9659 19.271L43.8615 20.8506C42.7551 22.1782 41.0649 23.2009 39.1924 24.0034C37.2996 24.8146 35.1082 25.4478 32.8855 25.9382Z" fill="#FFD773"/>
<path fill-rule="evenodd" clip-rule="evenodd" d="M31.7253 23.8469C27.3477 24.7018 23.1947 24.1719 20.6582 23.3999L21.3766 21.0394C23.5695 21.7068 27.3124 22.1947 31.2523 21.4252C35.1638 20.6613 39.2259 18.6706 42.2153 14.4165L44.2342 15.8351C40.8082 20.7105 36.1312 22.9864 31.7253 23.8469Z" fill="#FFD773"/>
<path d="M24.2395 9.56149L20.7065 5.86035H26.2584L24.2395 9.56149Z" fill="#111111"/>
<path d="M32.0763 7.74652C31.8518 8.36006 31.148 8.68389 30.5044 8.4698C29.8609 8.25572 29.5212 7.5848 29.7457 6.97126C29.9703 6.35772 30.6741 6.0339 31.3176 6.24798C31.9612 6.46206 32.3009 7.13298 32.0763 7.74652Z" fill="#111111"/>
<path d="M88.8237 27.1487V24.0028H93.8204V4.3867H88.8237V1.24072H102.333V4.3867H97.3736V24.0028H102.333V27.1487H88.8237Z" fill="#111111"/>
<path d="M82.1835 27.1487C80.777 27.1487 79.5556 26.8526 78.5193 26.2605C77.5076 25.6436 76.718 24.817 76.1505 23.7807C75.6077 22.7197 75.3362 21.5353 75.3362 20.2276V4.3867H67.4526V1.24072H86.773V4.3867H78.8894V20.6717C78.8894 21.634 79.1855 22.4359 79.7777 23.0775C80.3946 23.6943 81.2088 24.0028 82.2205 24.0028H83.9231V27.1487H82.1835Z" fill="#111111"/>
<path d="M46.8367 27.1487V24.0028H58.0514C58.9151 24.0028 59.6553 23.8054 60.2722 23.4106C60.889 22.9911 61.3702 22.4606 61.7156 21.8191C62.0611 21.1776 62.2338 20.499 62.2338 19.7835C62.2338 19.0432 62.0611 18.3647 61.7156 17.7478C61.3949 17.1063 60.926 16.6005 60.3092 16.2304C59.717 15.8356 58.9891 15.6382 58.1255 15.6382H53.2398C51.784 15.6382 50.5009 15.3421 49.3906 14.7499C48.2802 14.133 47.4043 13.2941 46.7627 12.2331C46.1458 11.1475 45.8374 9.92607 45.8374 8.56899C45.8374 7.18723 46.1335 5.94118 46.7257 4.83083C47.3426 3.72049 48.1938 2.84455 49.2795 2.20302C50.3899 1.56149 51.6607 1.24072 53.0918 1.24072H64.0844V4.3867H53.4249C52.6106 4.3867 51.8951 4.58409 51.2782 4.97888C50.6613 5.34899 50.1925 5.84248 49.8717 6.45934C49.551 7.05152 49.3906 7.69305 49.3906 8.38393C49.3906 9.05014 49.5386 9.69167 49.8347 10.3085C50.1555 10.9007 50.612 11.3819 51.2042 11.752C51.821 12.1221 52.5243 12.3071 53.3139 12.3071H58.3105C59.865 12.3071 61.1975 12.6156 62.3078 13.2324C63.4182 13.8493 64.2695 14.6882 64.8617 15.7492C65.4539 16.8102 65.75 18.0192 65.75 19.3763C65.75 20.8815 65.4415 22.2262 64.8247 23.4106C64.2325 24.5703 63.3812 25.4832 62.2708 26.1494C61.1605 26.8156 59.8897 27.1487 58.4586 27.1487H46.8367Z" fill="#111111"/>
<path d="M105.216 27.1489V9.02562C105.216 7.34777 105.586 5.87965 106.327 4.62126C107.092 3.36287 108.14 2.38823 109.473 1.69735C110.805 0.9818 112.323 0.624023 114.025 0.624023C115.752 0.624023 117.27 0.9818 118.578 1.69735C119.91 2.38823 120.946 3.36287 121.687 4.62126C122.452 5.87965 122.834 7.34777 122.834 9.02562V27.1489H119.429V9.06263C119.429 7.92761 119.17 6.95298 118.652 6.13873C118.158 5.2998 117.492 4.65827 116.653 4.21413C115.839 3.77 114.963 3.54793 114.025 3.54793C113.088 3.54793 112.199 3.77 111.36 4.21413C110.546 4.65827 109.88 5.2998 109.362 6.13873C108.868 6.95298 108.621 7.92761 108.621 9.06263V27.1489H105.216Z" fill="#111111"/>
<path fill-rule="evenodd" clip-rule="evenodd" d="M132.843 23.151C134.712 24.7326 137.172 25.707 140.293 25.707C142.746 25.707 144.691 25.1372 146.134 24.0428C147.587 22.9405 148.367 21.4306 148.715 19.8691C149.389 16.8428 148.502 13.4005 147.573 11.2125L147.032 9.93991L138.371 12.5473L139.261 15.5006L145.21 13.7095C145.764 15.454 146.078 17.5187 145.704 19.1984C145.479 20.2097 145.021 21.0154 144.27 21.5855C143.508 22.1635 142.281 22.6227 140.293 22.6227C137.862 22.6227 136.119 21.8823 134.836 20.7966C133.527 19.6892 132.605 18.142 131.992 16.4105C131.38 14.681 131.101 12.8383 131.034 11.2415C130.965 9.61057 131.122 8.3783 131.281 7.85326C131.853 5.97478 133.124 4.32139 135.165 3.70119C137.23 3.07343 140.505 3.373 145.342 6.36378L146.654 7.17486L148.276 4.55161L146.964 3.74054C141.744 0.512363 137.523 -0.239254 134.268 0.750221C130.988 1.74725 129.114 4.37951 128.331 6.95573C128.028 7.95151 127.876 9.57469 127.952 11.3715C128.029 13.2024 128.348 15.3597 129.085 17.4402C129.821 19.5185 131 21.5911 132.843 23.151Z" fill="#111111"/>
<path fill-rule="evenodd" clip-rule="evenodd" d="M136.671 22.2953L133.696 27.9672L130.964 26.5346L133.939 20.8628L136.671 22.2953Z" fill="#111111"/>
<path fill-rule="evenodd" clip-rule="evenodd" d="M142.343 23.2966L145.162 28.0004L147.808 26.4147L144.988 21.7109L142.343 23.2966Z" fill="#111111"/>
<path d="M137.069 7.48236C136.844 8.0959 136.14 8.41973 135.497 8.20564C134.853 7.99156 134.513 7.32064 134.738 6.7071C134.962 6.09356 135.666 5.76974 136.31 5.98382C136.953 6.1979 137.293 6.86882 137.069 7.48236Z" fill="#111111"/>
<path d="M128.348 10.676L124.061 8.01416L129.464 6.80016L128.348 10.676Z" fill="#111111"/>
</svg>
