<svg width="50" height="57" viewBox="0 0 50 57" fill="none" xmlns="http://www.w3.org/2000/svg">
<path fill-rule="evenodd" clip-rule="evenodd" d="M14.4199 5.12883C18.4996 1.72694 23.7787 -0.273103 30.309 0.0302202C38.5116 0.411228 43.5756 4.92017 46.1278 10.5882C48.5833 16.0412 48.7224 22.4962 47.6568 27.469L46.9974 30.5463L28.0206 26.7509L29.272 20.4938L41.8512 23.0096C42.0774 19.739 41.6437 16.1713 40.3094 13.2081C38.6295 9.47744 35.5482 6.66154 30.0129 6.40442C25.0695 6.17481 21.3556 7.65387 18.5065 10.0296C15.593 12.4591 13.4287 15.9634 11.9488 19.9477C10.4729 23.9215 9.74072 28.2084 9.58358 31.9824C9.42261 35.8485 9.87887 38.8084 10.4777 40.2623C11.5392 42.8401 14.2388 44.2893 18.1202 44.9529C21.1355 45.4684 24.0946 45.3926 26.3065 45.3359C26.9146 45.3204 27.4662 45.3062 27.947 45.3062H31.1375V51.6873H27.947C27.6563 51.6873 27.2615 51.6983 26.7828 51.7117C24.6279 51.772 20.7714 51.8798 17.0449 51.2427C12.5278 50.4704 6.93197 48.4099 4.57733 42.6922C3.468 39.9985 3.03099 35.9688 3.20803 31.7169C3.3889 27.3729 4.226 22.4135 5.96705 17.7259C7.70418 13.049 10.4046 8.47704 14.4199 5.12883Z" fill="#111111"/>
<path fill-rule="evenodd" clip-rule="evenodd" d="M49.3819 52.9621C17.64 57.7234 3.19266 41.6798 0 32.1018L4.8429 30.4875C7.1805 37.5004 19.1082 52.3412 48.6247 47.9137L49.3819 52.9621Z" fill="#FFD773"/>
<path fill-rule="evenodd" clip-rule="evenodd" d="M25.7053 53.6642C16.5088 55.6934 6.77853 56.6005 0.597953 56.8174L0.418945 51.7157C6.36241 51.5071 15.7753 50.6276 24.6054 48.6792C29.0201 47.7051 33.2206 46.4786 36.7425 44.9691C40.3065 43.4416 42.9517 41.718 44.4914 39.8704L48.413 43.1384C46.1241 45.8851 42.6274 48.0008 38.7535 49.6612C34.8375 51.3396 30.3039 52.6495 25.7053 53.6642Z" fill="#FFD773"/>
<path fill-rule="evenodd" clip-rule="evenodd" d="M23.3 49.3376C14.2434 51.1063 5.65137 50.0099 0.403809 48.4129L1.89015 43.5292C6.42691 44.9099 14.1704 45.9193 22.3215 44.3274C30.4138 42.7469 38.8177 38.6283 45.0023 29.827L49.1791 32.762C42.0911 42.8487 32.4153 47.5573 23.3 49.3376Z" fill="#FFD773"/>
<path d="M7.81704 19.7813L0.507812 12.124H11.9937L7.81704 19.7813Z" fill="#111111"/>
<path d="M24.0342 16.0249C23.5697 17.2938 22.1143 17.9635 20.7833 17.5207C19.4524 17.078 18.7499 15.6904 19.2143 14.4215C19.6787 13.1527 21.1341 12.4829 22.4651 12.9257C23.7961 13.3684 24.4986 14.756 24.0342 16.0249Z" fill="#111111"/>
</svg>
