<svg width="32" height="33" viewBox="0 0 32 33" fill="none" xmlns="http://www.w3.org/2000/svg">
<path d="M11.9998 30.1606C12.7362 30.1606 13.3332 29.5636 13.3332 28.8272C13.3332 28.0909 12.7362 27.4939 11.9998 27.4939C11.2635 27.4939 10.6665 28.0909 10.6665 28.8272C10.6665 29.5636 11.2635 30.1606 11.9998 30.1606Z" stroke="#111111" stroke-width="2" stroke-linecap="round" stroke-linejoin="round"/>
<path d="M26.6668 30.1606C27.4032 30.1606 28.0002 29.5636 28.0002 28.8272C28.0002 28.0909 27.4032 27.4939 26.6668 27.4939C25.9304 27.4939 25.3335 28.0909 25.3335 28.8272C25.3335 29.5636 25.9304 30.1606 26.6668 30.1606Z" stroke="#111111" stroke-width="2" stroke-linecap="round" stroke-linejoin="round"/>
<path d="M1.3335 2.1604H6.66683L10.2402 20.0137C10.3621 20.6276 10.696 21.179 11.1836 21.5715C11.6711 21.9639 12.2811 22.1724 12.9068 22.1604H25.8668C26.4926 22.1724 27.1026 21.9639 27.5901 21.5715C28.0776 21.179 28.4116 20.6276 28.5335 20.0137L30.6668 8.82707H8.00016" stroke="#111111" stroke-width="2" stroke-linecap="round" stroke-linejoin="round"/>
</svg>
