<svg width="24" height="24" viewBox="0 0 24 24" fill="none" xmlns="http://www.w3.org/2000/svg">
<path d="M13.6617 6.79999C14.0142 6.80033 14.3527 6.94045 14.6021 7.18964C14.8203 7.40772 14.9552 7.69398 14.9859 7.99823L14.9927 8.13007C14.9921 8.48241 14.8513 8.82035 14.6021 9.06952C14.3529 9.3186 14.0144 9.45779 13.6617 9.45819C13.3094 9.45748 12.9713 9.31869 12.7222 9.06952C12.4732 8.82037 12.3332 8.48233 12.3326 8.13007C12.333 7.77738 12.4738 7.43898 12.7232 7.18964C12.9723 6.94083 13.3097 6.8007 13.6617 6.79999ZM13.647 7.00018C13.3535 7.00924 13.0741 7.13213 12.8697 7.34296C12.6654 7.55376 12.5513 7.83649 12.5513 8.13007C12.5514 8.42346 12.6655 8.70549 12.8697 8.9162C13.0741 9.12703 13.3535 9.24991 13.647 9.25897H13.6617C14.2861 9.25897 14.7916 8.75232 14.7916 8.12909L14.7867 8.01776C14.7609 7.75908 14.646 7.5156 14.4605 7.33026C14.2486 7.11871 13.9611 7.00018 13.6617 7.00018H13.647Z" stroke="#111111"/>
<path d="M6.8996 15.7702H9.1076C9.13413 15.7702 9.16014 15.7808 9.17889 15.7995C9.19747 15.8182 9.20815 15.8435 9.20819 15.8698C9.20819 15.8964 9.19765 15.9224 9.17889 15.9411C9.16015 15.9598 9.13407 15.9704 9.1076 15.9704H6.8996C6.87332 15.9703 6.84793 15.9597 6.82928 15.9411C6.81053 15.9224 6.79999 15.8964 6.79999 15.8698C6.80003 15.8434 6.81064 15.8182 6.82928 15.7995C6.84795 15.7809 6.87322 15.7703 6.8996 15.7702ZM11.5666 15.7702H17.0998C17.1263 15.7702 17.1523 15.7808 17.1711 15.7995C17.1896 15.8182 17.2003 15.8435 17.2004 15.8698C17.2004 15.8964 17.1898 15.9224 17.1711 15.9411C17.1523 15.9599 17.1263 15.9704 17.0998 15.9704H11.5666C11.5403 15.9704 11.515 15.9596 11.4963 15.9411C11.4775 15.9224 11.467 15.8964 11.467 15.8698C11.467 15.8434 11.4776 15.8182 11.4963 15.7995C11.515 15.7808 11.5401 15.7703 11.5666 15.7702ZM6.8996 11.9001H17.0998C17.1263 11.9001 17.1523 11.9107 17.1711 11.9294C17.1896 11.9481 17.2003 11.9734 17.2004 11.9997C17.2004 12.0262 17.1898 12.0523 17.1711 12.071C17.1523 12.0898 17.1263 12.1003 17.0998 12.1003H6.8996C6.87329 12.1002 6.84793 12.0896 6.82928 12.071C6.81053 12.0523 6.79999 12.0262 6.79999 11.9997C6.80006 11.9733 6.81063 11.9481 6.82928 11.9294C6.84795 11.9108 6.87322 11.9002 6.8996 11.9001ZM6.8996 8.03H12.4328C12.4593 8.03 12.4853 8.04054 12.5041 8.0593C12.5227 8.07795 12.5333 8.10327 12.5334 8.12961C12.5334 8.15613 12.5228 8.18214 12.5041 8.2009C12.4853 8.21965 12.4593 8.23019 12.4328 8.23019H6.8996C6.87326 8.23009 6.84794 8.2195 6.82928 8.2009C6.81053 8.18214 6.79999 8.15613 6.79999 8.12961C6.80009 8.10323 6.81062 8.07796 6.82928 8.0593C6.84795 8.04063 6.87322 8.0301 6.8996 8.03ZM14.8918 8.03H17.0998C17.1263 8.03 17.1523 8.04054 17.1711 8.0593C17.1896 8.07794 17.2003 8.10332 17.2004 8.12961C17.2004 8.15609 17.1898 8.18215 17.1711 8.2009C17.1523 8.21965 17.1263 8.23019 17.0998 8.23019H14.8918C14.8654 8.23014 14.8402 8.21948 14.8215 8.2009C14.8027 8.18214 14.7922 8.15613 14.7922 8.12961C14.7923 8.10323 14.8028 8.07796 14.8215 8.0593C14.8402 8.04065 14.8654 8.03005 14.8918 8.03Z" stroke="#111111"/>
<path d="M10.3371 14.54C10.6898 14.5404 11.0282 14.6812 11.2775 14.9306C11.5266 15.1799 11.6667 15.5176 11.6672 15.8701C11.6667 16.2225 11.5266 16.5602 11.2775 16.8095C11.028 17.0591 10.6897 17.1988 10.3371 17.1992C9.98484 17.1984 9.64676 17.0586 9.39764 16.8095C9.14859 16.5602 9.00849 16.2224 9.008 15.8701C9.00845 15.5174 9.1483 15.179 9.39764 14.9296C9.64676 14.6805 9.98484 14.5407 10.3371 14.54ZM10.3381 14.7402C9.71331 14.7402 9.20819 15.2477 9.20819 15.8701C9.20821 16.0935 9.27447 16.3122 9.39862 16.498C9.52276 16.6837 9.6991 16.8285 9.90546 16.914C10.1119 16.9995 10.3396 17.0221 10.5588 16.9785C10.7779 16.9348 10.9789 16.8269 11.1369 16.6689C11.2949 16.5109 11.4028 16.3098 11.4465 16.0908C11.4901 15.8716 11.4675 15.6439 11.382 15.4374C11.2965 15.2311 11.1517 15.0547 10.966 14.9306C10.7802 14.8065 10.5615 14.7402 10.3381 14.7402Z" stroke="#111111"/>
</svg>
