<svg width="189" height="40" viewBox="0 0 189 40" fill="none" xmlns="http://www.w3.org/2000/svg">
<rect x="0.5" y="0.5" width="188" height="39" rx="7.5" fill="white"/>
<rect x="0.5" y="0.5" width="188" height="39" rx="7.5" stroke="#E5E5EC"/>
<path d="M20.2031 14.75C20.1875 18.875 18.9219 22.5469 13.8125 25.0625L13 23.9531C15.5312 22.7109 17.0391 21.2031 17.875 19.4219L13.2969 19.8594L13.0781 18.5781L18.3281 18.2188C18.5391 17.5078 18.6641 16.75 18.7188 15.9531H13.8125V14.75H20.2031ZM23.8281 13.3281V18.9219H26V20.1406H23.8281V27.3125H22.3438V13.3281H23.8281ZM33.6313 14.75C33.6156 18.875 32.35 22.5469 27.2406 25.0625L26.4281 23.9531C28.9594 22.7109 30.4672 21.2031 31.3031 19.4219L26.725 19.8594L26.5063 18.5781L31.7563 18.2188C31.9672 17.5078 32.0922 16.75 32.1469 15.9531H27.2406V14.75H33.6313ZM37.2563 13.3281V18.9219H39.4281V20.1406H37.2563V27.3125H35.7719V13.3281H37.2563ZM46.1531 14.1719C49.1531 14.1875 51.325 15.6562 51.325 17.8906C51.325 19.9922 49.5047 21.375 46.8875 21.5938V24.3438H52.5906V25.5781H39.7781V24.3438H45.4188V21.5938C42.8172 21.375 40.9969 19.9922 40.9969 17.8906C40.9969 15.6562 43.1688 14.1875 46.1531 14.1719ZM46.1531 15.3906C43.9969 15.375 42.4344 16.375 42.4344 17.8906C42.4344 19.4688 43.9969 20.4375 46.1531 20.4531C48.325 20.4375 49.8875 19.4688 49.8875 17.8906C49.8875 16.375 48.325 15.375 46.1531 15.3906ZM65.9719 20.8281V22.0156H53.175V20.8281H58.8312V19.5H54.8469V13.6875H64.4094V14.8594H56.3469V16H64.05V17.125H56.3469V18.3594H64.5031V19.5H60.3156V20.8281H65.9719ZM64.3469 23.1406V27.3281H62.8312V24.3281H54.6281V23.1406H64.3469ZM73.0094 14.1719C75.9469 14.1719 78.1813 15.7188 78.1813 18.0781C78.1813 20.4375 75.9469 22 73.0094 21.9844C70.0719 22 67.8531 20.4375 67.8531 18.0781C67.8531 15.7188 70.0719 14.1719 73.0094 14.1719ZM73.0094 15.375C70.8688 15.3594 69.2594 16.4531 69.275 18.0781C69.2594 19.7188 70.8688 20.7656 73.0094 20.7656C75.15 20.7656 76.7438 19.7188 76.7438 18.0781C76.7438 16.4531 75.15 15.3594 73.0094 15.375ZM79.4469 24.2812V25.5156H66.6344V24.2812H79.4469ZM92.875 24.4062V25.6562H80.0625V24.4062H85.7031V21.9531H81.625V17.5H89.8438V15.5312H81.5938V14.3125H91.3125V18.6875H83.0938V20.7344H91.6406V21.9531H87.1719V24.4062H92.875ZM109.794 20.4062V21.6094H104.231V24.3281H102.762V21.6094H96.9812V20.4062H109.794ZM108.137 13.9844V18.9531H98.6219V13.9844H108.137ZM100.075 15.1562V17.7812H106.669V15.1562H100.075ZM108.372 25.8281V27.0312H98.575V23H100.059V25.8281H108.372ZM114.988 14.3281C117.206 14.3125 118.784 15.6875 118.8 17.6562C118.784 19.625 117.206 21 114.988 21C112.784 21 111.159 19.625 111.175 17.6562C111.159 15.6875 112.784 14.3125 114.988 14.3281ZM114.988 15.6094C113.628 15.6094 112.628 16.4219 112.644 17.6562C112.628 18.8906 113.628 19.7031 114.988 19.7031C116.347 19.7031 117.347 18.8906 117.347 17.6562C117.347 16.4219 116.347 15.6094 114.988 15.6094ZM122.003 13.3281V27.3594H120.519V13.3281H122.003ZM110.503 23.1094C113.05 23.1094 116.581 23.0781 119.644 22.6406L119.753 23.7188C116.581 24.3281 113.191 24.3438 110.691 24.3438L110.503 23.1094ZM134.759 13.3281V19H137.009V20.2344H134.759V27.3281H133.291V13.3281H134.759ZM132.072 15.5156V16.7344H123.775V15.5156H127.228V13.5156H128.713V15.5156H132.072ZM127.978 17.7656C129.978 17.7656 131.447 19.1094 131.463 21.0156C131.447 22.9375 129.978 24.2656 127.978 24.2812C125.963 24.2656 124.494 22.9375 124.494 21.0156C124.494 19.1094 125.963 17.7656 127.978 17.7656ZM127.978 18.9844C126.791 18.9844 125.9 19.8125 125.916 21.0156C125.9 22.2344 126.791 23.0469 127.978 23.0312C129.166 23.0469 130.041 22.2344 130.041 21.0156C130.041 19.8125 129.166 18.9844 127.978 18.9844ZM148.922 13.3281V27.3281H147.422V13.3281H148.922ZM144.75 14.8281C144.75 18.9219 143 22.4844 138.203 24.7812L137.422 23.5781C141.148 21.8047 142.961 19.2812 143.25 16.0156H138.094V14.8281H144.75Z" fill="#767676"/>
<path d="M167.457 13.3333C163.527 13.3333 160.333 15.9166 160.333 19.0833C160.333 21.0833 161.644 22.8333 163.527 23.9166L163.036 26.6666L166.065 24.6666C166.474 24.7499 166.966 24.7499 167.375 24.7499C171.305 24.7499 174.499 22.1666 174.499 18.9999C174.58 15.9166 171.387 13.3333 167.457 13.3333Z" fill="#505050"/>
</svg>
