<svg width="52" height="44" viewBox="0 0 52 44" fill="none" xmlns="http://www.w3.org/2000/svg">
<rect width="52" height="44" rx="22" fill="black" fill-opacity="0.2"/>
<path d="M36.3133 14.3783C35.7174 13.7821 35.0099 13.3092 34.2312 12.9865C33.4525 12.6639 32.6179 12.4978 31.775 12.4978C30.9321 12.4978 30.0975 12.6639 29.3187 12.9865C28.54 13.3092 27.8325 13.7821 27.2367 14.3783L26 15.6149L24.7633 14.3783C23.5597 13.1746 21.9272 12.4984 20.225 12.4984C18.5228 12.4984 16.8903 13.1746 15.6867 14.3783C14.483 15.5819 13.8068 17.2144 13.8068 18.9166C13.8068 20.6188 14.483 22.2513 15.6867 23.4549L16.9233 24.6916L26 33.7683L35.0767 24.6916L36.3133 23.4549C36.9095 22.8591 37.3824 22.1515 37.7051 21.3728C38.0277 20.5941 38.1938 19.7595 38.1938 18.9166C38.1938 18.0737 38.0277 17.2391 37.7051 16.4604C37.3824 15.6816 36.9095 14.9741 36.3133 14.3783Z" fill="#FFD773" stroke="white" stroke-width="2" stroke-linecap="round" stroke-linejoin="round"/>
</svg>
