<svg width="48" height="48" viewBox="0 0 48 48" fill="none" xmlns="http://www.w3.org/2000/svg">
<rect width="48" height="48" rx="24" fill="#FFE788"/>
<path d="M21.6667 25.167C22.1677 25.8368 22.8069 26.391 23.541 26.792C24.275 27.1931 25.0867 27.4316 25.9211 27.4913C26.7554 27.5511 27.5928 27.4307 28.3766 27.1384C29.1603 26.846 29.872 26.3885 30.4633 25.797L33.9633 22.297C35.0259 21.1968 35.6139 19.7233 35.6006 18.1938C35.5873 16.6643 34.9738 15.2012 33.8923 14.1197C32.8107 13.0381 31.3476 12.4246 29.8182 12.4114C28.2887 12.3981 26.8152 12.986 25.715 14.0486L23.7083 16.0436" stroke="white" stroke-width="2.5" stroke-linecap="round" stroke-linejoin="round"/>
<path d="M26.3333 22.8334C25.8323 22.1636 25.1931 21.6094 24.459 21.2083C23.725 20.8073 22.9132 20.5688 22.0789 20.509C21.2446 20.4493 20.4071 20.5697 19.6234 20.862C18.8397 21.1544 18.128 21.6119 17.5367 22.2034L14.0367 25.7034C12.9741 26.8036 12.3861 28.2771 12.3994 29.8066C12.4127 31.3361 13.0262 32.7992 14.1077 33.8807C15.1893 34.9623 16.6523 35.5757 18.1818 35.589C19.7113 35.6023 21.1848 35.0144 22.285 33.9518L24.28 31.9568" stroke="white" stroke-width="2.5" stroke-linecap="round" stroke-linejoin="round"/>
</svg>
