<svg width="44" height="44" viewBox="0 0 44 44" fill="none" xmlns="http://www.w3.org/2000/svg">
<rect width="44" height="44" rx="22" fill="#FFE788"/>
<path d="M24.3333 10.333H15C14.3812 10.333 13.7877 10.5788 13.3501 11.0164C12.9125 11.454 12.6667 12.0475 12.6667 12.6663V31.333C12.6667 31.9518 12.9125 32.5453 13.3501 32.9829C13.7877 33.4205 14.3812 33.6663 15 33.6663H29C29.6188 33.6663 30.2123 33.4205 30.6499 32.9829C31.0875 32.5453 31.3333 31.9518 31.3333 31.333V17.333L24.3333 10.333Z" stroke="white" stroke-width="2.5" stroke-linecap="round" stroke-linejoin="round"/>
<path d="M24.3333 10.333V17.333H31.3333" stroke="white" stroke-width="2.5" stroke-linecap="round" stroke-linejoin="round"/>
<path d="M26.6667 23.167H17.3333" stroke="white" stroke-width="2.5" stroke-linecap="round" stroke-linejoin="round"/>
<path d="M26.6667 27.833H17.3333" stroke="white" stroke-width="2.5" stroke-linecap="round" stroke-linejoin="round"/>
<path d="M19.6667 18.5H18.5H17.3333" stroke="white" stroke-width="2.5" stroke-linecap="round" stroke-linejoin="round"/>
</svg>
