<svg width="44" height="44" viewBox="0 0 44 44" fill="none" xmlns="http://www.w3.org/2000/svg">
<rect width="44" height="44" rx="22" fill="#FFE788"/>
<g clip-path="url(#clip0_2473_1341)">
<path d="M28.7267 21.4834L32.4022 28.8343C32.6845 29.3989 32.5738 30.0809 32.1274 30.5272L30.1655 32.4891C29.4577 33.197 28.2644 33.0033 27.8167 32.108L24.5785 25.6316L28.7267 21.4834Z" stroke="white" stroke-width="2.5"/>
<path d="M22.5063 15.2568L15.1554 11.5814C14.5907 11.2991 13.9088 11.4097 13.4624 11.8561L11.5005 13.818C10.7927 14.5259 10.9863 15.7191 11.8817 16.1668L18.3581 19.405L22.5063 15.2568Z" stroke="white" stroke-width="2.5"/>
<path d="M18.8737 29.2636L17.9898 28.3797L17.5478 28.8217L17.6363 29.4405L18.8737 29.2636ZM19.3571 32.6444L20.5946 32.4682L20.5945 32.4675L19.3571 32.6444ZM17.7702 34.513L18.6534 35.3975L18.6541 35.3969L17.7702 34.513ZM16.9885 34.4163L18.0604 33.7732L18.0603 33.7731L16.9885 34.4163ZM14.2706 29.8878L15.3424 29.2445L15.3422 29.2442L14.2706 29.8878ZM14.0993 29.7166L13.4561 30.7883L13.4562 30.7884L14.0993 29.7166ZM9.57081 26.9986L10.2141 25.9268L10.214 25.9268L9.57081 26.9986ZM9.47414 26.2169L8.59026 25.333L8.5896 25.3337L9.47414 26.2169ZM11.3434 24.6308L11.1666 25.8682L11.1666 25.8682L11.3434 24.6308ZM14.727 25.1141L14.5503 26.3516L15.169 26.44L15.6109 25.998L14.727 25.1141ZM33.5351 11.7737L32.6512 12.6576C32.9441 12.9505 32.9441 13.4254 32.6512 13.7183L33.5351 14.6021L34.419 15.486C35.6882 14.2168 35.6882 12.159 34.419 10.8898L33.5351 11.7737ZM33.5351 14.6021L32.6512 13.7183L17.9898 28.3797L18.8737 29.2636L19.7576 30.1474L34.419 15.486L33.5351 14.6021ZM18.8737 29.2636L17.6363 29.4405L18.1196 32.8213L19.3571 32.6444L20.5945 32.4675L20.1111 29.0866L18.8737 29.2636ZM19.3571 32.6444L18.1195 32.8206C18.0856 32.5824 18.1674 32.3481 18.3309 32.1845L19.2148 33.0684L20.0987 33.9523C20.4847 33.5663 20.6728 33.0179 20.5946 32.4682L19.3571 32.6444ZM19.2148 33.0684L18.3309 32.1845L16.8863 33.6291L17.7702 34.513L18.6541 35.3969L20.0987 33.9523L19.2148 33.0684ZM17.7702 34.513L16.887 33.6285C17.2325 33.2834 17.8098 33.3555 18.0604 33.7732L16.9885 34.4163L15.9167 35.0595C16.5019 36.0348 17.8478 36.202 18.6534 35.3975L17.7702 34.513ZM16.9885 34.4163L18.0603 33.7731L15.3424 29.2445L14.2706 29.8878L13.1988 30.5311L15.9168 35.0596L16.9885 34.4163ZM14.2706 29.8878L15.3422 29.2442C15.1947 28.9987 14.989 28.7926 14.7425 28.6447L14.0993 29.7166L13.4562 30.7884C13.3502 30.7248 13.262 30.6363 13.199 30.5314L14.2706 29.8878ZM14.0993 29.7166L14.7426 28.6448L10.2141 25.9268L9.57081 26.9986L8.92755 28.0704L13.4561 30.7883L14.0993 29.7166ZM9.57081 26.9986L10.214 25.9268C10.6315 26.1774 10.7038 26.7545 10.3587 27.1002L9.47414 26.2169L8.5896 25.3337C7.78509 26.1394 7.95253 27.4853 8.9276 28.0704L9.57081 26.9986ZM9.47414 26.2169L10.358 27.1008L11.8026 25.6562L10.9187 24.7723L10.0349 23.8884L8.59026 25.333L9.47414 26.2169ZM10.9187 24.7723L11.8026 25.6562C11.6357 25.8231 11.4003 25.9016 11.1666 25.8682L11.3434 24.6308L11.5202 23.3933C10.9749 23.3154 10.4243 23.499 10.0349 23.8884L10.9187 24.7723ZM11.3434 24.6308L11.1666 25.8682L14.5503 26.3516L14.727 25.1141L14.9038 23.8767L11.5202 23.3933L11.3434 24.6308ZM14.727 25.1141L15.6109 25.998L30.271 11.338L29.3871 10.4541L28.5032 9.57023L13.8431 24.2303L14.727 25.1141ZM29.3871 10.4541L30.271 11.338C30.5638 11.0451 31.0387 11.0451 31.3316 11.338L32.2155 10.4541L33.0994 9.57023C31.8302 8.30102 29.7724 8.30102 28.5032 9.57023L29.3871 10.4541ZM32.2155 10.4541L31.3316 11.338L32.6512 12.6576L33.5351 11.7737L34.419 10.8898L33.0994 9.57023L32.2155 10.4541Z" fill="white"/>
</g>
<defs>
<clipPath id="clip0_2473_1341">
<rect width="28" height="28" fill="white" transform="translate(8.5 8)"/>
</clipPath>
</defs>
</svg>
