<svg width="32" height="32" viewBox="0 0 32 32" fill="none" xmlns="http://www.w3.org/2000/svg">
<g clip-path="url(#clip0_2961_8820)">
<rect width="32" height="32" rx="16" fill="#E5E5EC"/>
<path d="M26.4001 32V27.7333C26.4001 25.4701 25.8522 23.2996 24.8771 21.6993C23.9019 20.099 22.5792 19.2 21.2001 19.2H10.8001C9.42097 19.2 8.09833 20.099 7.12314 21.6993C6.14795 23.2996 5.6001 25.4701 5.6001 27.7333V32" fill="white"/>
<path d="M15.9998 17.0666C18.9454 17.0666 21.3332 14.6788 21.3332 11.7332C21.3332 8.78772 18.9454 6.3999 15.9998 6.3999C13.0543 6.3999 10.6665 8.78772 10.6665 11.7332C10.6665 14.6788 13.0543 17.0666 15.9998 17.0666Z" fill="white"/>
</g>
<rect x="0.5" y="0.5" width="31" height="31" rx="15.5" stroke="#F1F1F5"/>
<defs>
<clipPath id="clip0_2961_8820">
<rect width="32" height="32" rx="16" fill="white"/>
</clipPath>
</defs>
</svg>
