<svg width="16" height="16" viewBox="0 0 16 16" fill="none" xmlns="http://www.w3.org/2000/svg">
<g clip-path="url(#clip0_2473_1251)">
<path d="M6.66666 8.66697C6.95296 9.04972 7.31823 9.36642 7.73769 9.5956C8.15715 9.82477 8.62099 9.96105 9.09776 9.99519C9.57452 10.0293 10.053 9.96055 10.5009 9.79349C10.9487 9.62643 11.3554 9.36502 11.6933 9.02697L13.6933 7.02697C14.3005 6.3983 14.6365 5.55629 14.6289 4.6823C14.6213 3.80831 14.2707 2.97227 13.6527 2.35424C13.0347 1.73621 12.1986 1.38565 11.3247 1.37806C10.4507 1.37046 9.60866 1.70644 8.97999 2.31364L7.83332 3.45364" stroke="#767676" stroke-width="1.5" stroke-linecap="round" stroke-linejoin="round"/>
<path d="M9.33334 7.33381C9.04704 6.95106 8.68177 6.63435 8.26231 6.40518C7.84285 6.17601 7.37901 6.03973 6.90224 6.00559C6.42548 5.97144 5.94695 6.04023 5.49911 6.20729C5.05128 6.37435 4.6446 6.63576 4.30668 6.97381L2.30668 8.97381C1.69948 9.60248 1.3635 10.4445 1.3711 11.3185C1.37869 12.1925 1.72926 13.0285 2.34728 13.6465C2.96531 14.2646 3.80135 14.6151 4.67534 14.6227C5.54933 14.6303 6.39134 14.2943 7.02001 13.6871L8.16001 12.5471" stroke="#767676" stroke-width="1.5" stroke-linecap="round" stroke-linejoin="round"/>
</g>
<defs>
<clipPath id="clip0_2473_1251">
<rect width="16" height="16" fill="white"/>
</clipPath>
</defs>
</svg>
