<svg width="18" height="18" viewBox="0 0 18 18" fill="none" xmlns="http://www.w3.org/2000/svg">
<path d="M16.1998 12.2406V5.75924C16.1995 5.47509 16.1255 5.19602 15.985 4.95001C15.8446 4.70401 15.6428 4.49972 15.3998 4.35765L9.7998 1.11699C9.55657 0.974772 9.28066 0.899902 8.9998 0.899902C8.71895 0.899902 8.44304 0.974772 8.1998 1.11699L2.5998 4.35765C2.35681 4.49972 2.15499 4.70401 2.01457 4.95001C1.87416 5.19602 1.80009 5.47509 1.7998 5.75924V12.2406C1.80009 12.5247 1.87416 12.8038 2.01457 13.0498C2.15499 13.2958 2.35681 13.5001 2.5998 13.6422L8.1998 16.8828C8.44304 17.025 8.71895 17.0999 8.9998 17.0999C9.28066 17.0999 9.55657 17.025 9.7998 16.8828L15.3998 13.6422C15.6428 13.5001 15.8446 13.2958 15.985 13.0498C16.1255 12.8038 16.1995 12.5247 16.1998 12.2406Z" fill="#00BF40"/>
<path d="M2 5L9 9L16 5" stroke="#F7F7FB" stroke-linecap="round" stroke-linejoin="round"/>
<path d="M9 17V9" stroke="#F7F7FB" stroke-linecap="round" stroke-linejoin="round"/>
<path d="M12.2495 7.23692C12.4887 7.37499 12.7945 7.29305 12.9325 7.0539C13.0706 6.81476 12.9887 6.50896 12.7495 6.37089L12.2495 7.23692ZM5.74951 2.32944L5.3165 2.07944L4.8165 2.94546L5.24951 3.19546L5.74951 2.32944ZM12.4995 6.8039L12.7495 6.37089L5.74951 2.32944L5.49951 2.76245L5.24951 3.19546L12.2495 7.23692L12.4995 6.8039Z" fill="#F7F7FB"/>
</svg>
