<svg width="18" height="18" viewBox="0 0 18 18" fill="none" xmlns="http://www.w3.org/2000/svg">
<g clip-path="url(#clip0_1922_556)">
<path d="M13.0029 8.66797L15.3657 13.3936C15.5472 13.7565 15.4761 14.1949 15.1891 14.4819L13.9279 15.7431C13.4728 16.1981 12.7057 16.0736 12.4179 15.4981L10.3362 11.3347L13.0029 8.66797Z" fill="#FF9200"/>
<path d="M9.00391 4.66504L4.27832 2.30225C3.91535 2.12076 3.47697 2.1919 3.19001 2.47886L1.92879 3.74008C1.47374 4.19512 1.59823 4.96224 2.17382 5.25004L6.33721 7.33173L9.00391 4.66504Z" fill="#FF9200"/>
<path d="M13.0021 2.00156C13.7385 1.26517 14.9324 1.26517 15.6688 2.00156C16.4052 2.73795 16.4052 3.93187 15.6688 4.66825L5.6687 14.6684L3.002 12.0017L13.0021 2.00156Z" fill="#FF9200"/>
<path d="M1.49117 10.8448C1.60246 10.7335 1.75964 10.6811 1.91544 10.7033L5.96343 11.2816C6.18342 11.3131 6.35627 11.4859 6.38769 11.7059L6.96598 15.7539C6.98824 15.9097 6.93584 16.0669 6.82456 16.1782L6.12081 16.8819C5.8908 17.1119 5.50587 17.0645 5.33851 16.7856L3.73228 14.1085C3.69006 14.0382 3.63116 13.9793 3.56078 13.937L0.883731 12.3308C0.604801 12.1635 0.557414 11.7785 0.787425 11.5485L1.49117 10.8448Z" fill="#FF9200"/>
</g>
<defs>
<clipPath id="clip0_1922_556">
<rect width="18" height="18" fill="white"/>
</clipPath>
</defs>
</svg>
