<svg width="320" height="48" viewBox="0 0 320 48" fill="none" xmlns="http://www.w3.org/2000/svg">
<rect width="320" height="48" rx="8" fill="#FEE500"/>
<path d="M101.548 16C96.8319 16 92.9999 19.1 92.9999 22.9C92.9999 25.3 94.572 27.4 96.8319 28.7L96.2424 32L99.8778 29.6C100.369 29.7 100.959 29.7 101.45 29.7C106.166 29.7 109.998 26.6 109.998 22.8C110.096 19.1 106.264 16 101.548 16Z" fill="#111111"/>
<path d="M126.797 18.75C126.781 22.875 125.516 26.5469 120.406 29.0625L119.594 27.9531C122.125 26.7109 123.633 25.2031 124.469 23.4219L119.891 23.8594L119.672 22.5781L124.922 22.2188C125.133 21.5078 125.258 20.75 125.312 19.9531H120.406V18.75H126.797ZM130.422 17.3281V22.9219H132.594V24.1406H130.422V31.3125H128.938V17.3281H130.422ZM140.225 18.75C140.209 22.875 138.944 26.5469 133.834 29.0625L133.022 27.9531C135.553 26.7109 137.061 25.2031 137.897 23.4219L133.319 23.8594L133.1 22.5781L138.35 22.2188C138.561 21.5078 138.686 20.75 138.741 19.9531H133.834V18.75H140.225ZM143.85 17.3281V22.9219H146.022V24.1406H143.85V31.3125H142.366V17.3281H143.85ZM152.747 18.1719C155.747 18.1875 157.919 19.6562 157.919 21.8906C157.919 23.9922 156.098 25.375 153.481 25.5938V28.3438H159.184V29.5781H146.372V28.3438H152.013V25.5938C149.411 25.375 147.591 23.9922 147.591 21.8906C147.591 19.6562 149.763 18.1875 152.747 18.1719ZM152.747 19.3906C150.591 19.375 149.028 20.375 149.028 21.8906C149.028 23.4688 150.591 24.4375 152.747 24.4531C154.919 24.4375 156.481 23.4688 156.481 21.8906C156.481 20.375 154.919 19.375 152.747 19.3906ZM172.612 28.4062V29.6562H159.8V28.4062H165.441V25.9531H161.362V21.5H169.581V19.5312H161.331V18.3125H171.05V22.6875H162.831V24.7344H171.378V25.9531H166.909V28.4062H172.612ZM181.875 20.8906C181.859 23.4531 183.406 26.0156 185.578 26.9844L184.688 28.1562C183.078 27.3906 181.805 25.8203 181.156 23.9062C180.5 25.9531 179.211 27.6484 177.531 28.4688L176.625 27.2188C178.828 26.2344 180.375 23.5625 180.375 20.8906V18.5H181.875V20.8906ZM188.328 17.3281V31.3594H186.844V17.3281H188.328ZM195.053 19.8438C195.053 21.625 196.287 23.3281 198.428 24.0469L197.678 25.2031C196.092 24.6562 194.928 23.5625 194.319 22.1875C193.709 23.7031 192.498 24.8906 190.85 25.4688L190.053 24.3125C192.241 23.5625 193.553 21.7656 193.569 19.8281V19.4531H190.491V18.25H198.069V19.4531H195.053V19.8438ZM201.162 17.3281V20.9219H203.194V22.1719H201.162V25.7656H199.678V17.3281H201.162ZM201.162 26.4531V31.3281H199.678V27.6562H191.912V26.4531H201.162ZM214.497 17.3281V23H216.747V24.2344H214.497V31.3281H213.028V17.3281H214.497ZM211.809 19.5156V20.7344H203.512V19.5156H206.966V17.5156H208.45V19.5156H211.809ZM207.716 21.7656C209.716 21.7656 211.184 23.1094 211.2 25.0156C211.184 26.9375 209.716 28.2656 207.716 28.2812C205.7 28.2656 204.231 26.9375 204.231 25.0156C204.231 23.1094 205.7 21.7656 207.716 21.7656ZM207.716 22.9844C206.528 22.9844 205.637 23.8125 205.653 25.0156C205.637 26.2344 206.528 27.0469 207.716 27.0312C208.903 27.0469 209.778 26.2344 209.778 25.0156C209.778 23.8125 208.903 22.9844 207.716 22.9844ZM228.659 17.3281V31.3281H227.159V17.3281H228.659ZM224.488 18.8281C224.488 22.9219 222.738 26.4844 217.941 28.7812L217.159 27.5781C220.886 25.8047 222.698 23.2812 222.988 20.0156H217.831V18.8281H224.488Z" fill="#111111"/>
</svg>
