<svg width="320" height="48" viewBox="0 0 320 48" fill="none" xmlns="http://www.w3.org/2000/svg">
<rect width="320" height="48" rx="8" fill="#03C75A"/>
<path d="M103.682 16.5V24.1271L98.3183 16.5H92.5625V31.5H98.3183V24L103.682 31.5H109.437V16.5H103.682Z" fill="white"/>
<path d="M121.641 18.7812V26.5625C123.078 26.5391 124.438 26.4453 125.984 26.125L126.188 27.3906C124.359 27.7656 122.812 27.8438 121.078 27.8438H120.156V18.7812H121.641ZM131.547 17.3281V31.3281H130.141V17.3281H131.547ZM128.547 17.6406V30.6406H127.141V23.1562H124.078V21.9375H127.141V17.6406H128.547ZM144.538 17.3281V31.3594H143.053V17.3281H144.538ZM137.053 18.375C139.131 18.375 140.663 20.2812 140.663 23.2812C140.663 26.2969 139.131 28.2031 137.053 28.2031C134.944 28.2031 133.428 26.2969 133.428 23.2812C133.428 20.2812 134.944 18.375 137.053 18.375ZM137.053 19.7031C135.756 19.7031 134.866 21.0781 134.866 23.2812C134.866 25.5 135.756 26.875 137.053 26.875C138.334 26.875 139.225 25.5 139.225 23.2812C139.225 21.0781 138.334 19.7031 137.053 19.7031ZM158.044 17.3281V31.3594H156.575V23.6562H153.481V27.8906H146.919V18.4062H148.419V21.9844H152.028V18.4062H153.481V22.4375H156.575V17.3281H158.044ZM148.419 26.6719H152.028V23.1562H148.419V26.6719ZM172.612 28.4062V29.6562H159.8V28.4062H165.441V25.9531H161.362V21.5H169.581V19.5312H161.331V18.3125H171.05V22.6875H162.831V24.7344H171.378V25.9531H166.909V28.4062H172.612ZM181.875 20.8906C181.859 23.4531 183.406 26.0156 185.578 26.9844L184.688 28.1562C183.078 27.3906 181.805 25.8203 181.156 23.9062C180.5 25.9531 179.211 27.6484 177.531 28.4688L176.625 27.2188C178.828 26.2344 180.375 23.5625 180.375 20.8906V18.5H181.875V20.8906ZM188.328 17.3281V31.3594H186.844V17.3281H188.328ZM195.053 19.8438C195.053 21.625 196.287 23.3281 198.428 24.0469L197.678 25.2031C196.092 24.6562 194.928 23.5625 194.319 22.1875C193.709 23.7031 192.498 24.8906 190.85 25.4688L190.053 24.3125C192.241 23.5625 193.553 21.7656 193.569 19.8281V19.4531H190.491V18.25H198.069V19.4531H195.053V19.8438ZM201.162 17.3281V20.9219H203.194V22.1719H201.162V25.7656H199.678V17.3281H201.162ZM201.162 26.4531V31.3281H199.678V27.6562H191.912V26.4531H201.162ZM214.497 17.3281V23H216.747V24.2344H214.497V31.3281H213.028V17.3281H214.497ZM211.809 19.5156V20.7344H203.512V19.5156H206.966V17.5156H208.45V19.5156H211.809ZM207.716 21.7656C209.716 21.7656 211.184 23.1094 211.2 25.0156C211.184 26.9375 209.716 28.2656 207.716 28.2812C205.7 28.2656 204.231 26.9375 204.231 25.0156C204.231 23.1094 205.7 21.7656 207.716 21.7656ZM207.716 22.9844C206.528 22.9844 205.637 23.8125 205.653 25.0156C205.637 26.2344 206.528 27.0469 207.716 27.0312C208.903 27.0469 209.778 26.2344 209.778 25.0156C209.778 23.8125 208.903 22.9844 207.716 22.9844ZM228.659 17.3281V31.3281H227.159V17.3281H228.659ZM224.488 18.8281C224.488 22.9219 222.738 26.4844 217.941 28.7812L217.159 27.5781C220.886 25.8047 222.698 23.2812 222.988 20.0156H217.831V18.8281H224.488Z" fill="white"/>
</svg>
