<svg width="320" height="48" viewBox="0 0 320 48" fill="none" xmlns="http://www.w3.org/2000/svg">
<rect x="0.5" y="0.5" width="319" height="47" rx="7.5" fill="white"/>
<rect x="0.5" y="0.5" width="319" height="47" rx="7.5" stroke="#E5E5EC"/>
<path fill-rule="evenodd" clip-rule="evenodd" d="M53.6354 15.9149C55.1706 14.6448 57.1571 13.898 59.6144 14.0113C62.701 14.1535 64.6065 15.837 65.5669 17.9532C66.4909 19.9891 66.5433 22.3991 66.1423 24.2557L65.8941 25.4046L58.7533 23.9876L59.2242 21.6515L63.9577 22.5908C64.0428 21.3697 63.8796 20.0377 63.3775 18.9313C62.7454 17.5385 61.5859 16.4871 59.503 16.3911C57.6428 16.3054 56.2453 16.8576 55.1732 17.7446C54.0768 18.6517 53.2624 19.96 52.7055 21.4476C52.1501 22.9312 51.8746 24.5318 51.8155 25.9408C51.7549 27.3842 51.9266 28.4893 52.1519 29.0322C52.5514 29.9946 53.5672 30.5357 55.0278 30.7834C56.1624 30.9759 57.2759 30.9476 58.1083 30.9264C58.3371 30.9206 58.5446 30.9153 58.7256 30.9153H59.9261V33.2978H58.7256C58.6162 33.2978 58.4676 33.3019 58.2875 33.3069C57.4766 33.3294 56.0254 33.3696 54.6232 33.1318C52.9234 32.8434 50.8177 32.0741 49.9317 29.9394C49.5142 28.9337 49.3498 27.4292 49.4164 25.8417C49.4845 24.2198 49.7995 22.3682 50.4546 20.6181C51.1083 18.8719 52.1244 17.165 53.6354 15.9149Z" fill="black"/>
<path d="M49.1212 25.6827C50.1618 28.7798 55.1242 34.5452 66.6498 32.8299" stroke="#FFD773" stroke-width="2"/>
<path d="M48.3991 34.2593C52.9613 34.1005 62.8061 32.9252 65.6875 29.4945" stroke="#FFD773" stroke-width="2"/>
<path d="M48.6411 31.1622C52.3228 32.274 60.935 32.7346 65.9295 25.6827" stroke="#FFD773" stroke-width="2"/>
<path d="M51.1512 21.3855L48.4007 18.5266H52.7228L51.1512 21.3855Z" fill="black"/>
<ellipse cx="0.954966" cy="0.914295" rx="0.954966" ry="0.914295" transform="matrix(0.949614 0.313423 -0.346086 0.938203 55.7564 18.5266)" fill="black"/>
<path d="M78.1406 18.7812V26.5625C79.5781 26.5391 80.9375 26.4453 82.4844 26.125L82.6875 27.3906C80.8594 27.7656 79.3125 27.8438 77.5781 27.8438H76.6562V18.7812H78.1406ZM88.0469 17.3281V31.3281H86.6406V17.3281H88.0469ZM85.0469 17.6406V30.6406H83.6406V23.1562H80.5781V21.9375H83.6406V17.6406H85.0469ZM96.5531 19.3125C96.5531 21.5938 98.9906 23.75 101.678 24.2344L100.991 25.4688C98.7563 24.9844 96.6938 23.5156 95.7875 21.5469C94.8656 23.5 92.8109 24.9688 90.5688 25.4688L89.9125 24.2344C92.5688 23.7344 94.9906 21.5938 94.9906 19.3125V18.25H96.5531V19.3125ZM102.256 28.25V29.4844H89.4438V28.25H102.256ZM110.403 18.3438V19.5312H105.169V21.0781H110.013V22.25H105.169V23.8438C107.973 23.8594 109.606 23.8125 111.497 23.4844L111.653 24.6875C109.622 25.0156 107.888 25.0625 104.825 25.0625H103.669V18.3438H110.403ZM114.481 17.3438V25.9531H112.997V17.3438H114.481ZM109.794 26.1406C112.731 26.1406 114.559 27.0938 114.559 28.7188C114.559 30.3594 112.731 31.3125 109.794 31.2969C106.825 31.3125 105.028 30.3594 105.028 28.7188C105.028 27.0938 106.825 26.1406 109.794 26.1406ZM109.794 27.3125C107.7 27.3125 106.513 27.8281 106.513 28.7188C106.513 29.6406 107.7 30.1562 109.794 30.1562C111.841 30.1562 113.075 29.6406 113.075 28.7188C113.075 27.8281 111.841 27.3125 109.794 27.3125ZM131.4 17.3281V31.3594H129.916V17.3281H131.4ZM123.916 18.375C125.994 18.375 127.525 20.2812 127.525 23.2812C127.525 26.2969 125.994 28.2031 123.916 28.2031C121.806 28.2031 120.291 26.2969 120.291 23.2812C120.291 20.2812 121.806 18.375 123.916 18.375ZM123.916 19.7031C122.619 19.7031 121.728 21.0781 121.728 23.2812C121.728 25.5 122.619 26.875 123.916 26.875C125.197 26.875 126.088 25.5 126.088 23.2812C126.088 21.0781 125.197 19.7031 123.916 19.7031ZM139.141 18.9062V22.5469H141.016V17.5938H142.438V30.6406H141.016V23.7656H139.141V27.6406H133.703V18.9062H139.141ZM135.109 20.0781V26.4531H137.75V20.0781H135.109ZM145.281 17.3281V31.3281H143.859V17.3281H145.281ZM150.631 17.7969C152.741 17.8125 154.287 19.1094 154.303 20.9375C154.287 22.7812 152.741 24.0625 150.631 24.0625C148.506 24.0625 146.944 22.7812 146.944 20.9375C146.944 19.1094 148.506 17.8125 150.631 17.7969ZM150.631 19.0469C149.334 19.0312 148.381 19.7969 148.397 20.9375C148.381 22.0938 149.334 22.8594 150.631 22.8594C151.912 22.8594 152.866 22.0938 152.866 20.9375C152.866 19.7969 151.912 19.0312 150.631 19.0469ZM158.272 17.3281V24.4531H156.787V17.3281H158.272ZM158.272 25.0938V28.625H150.553V29.9688H158.741V31.1562H149.116V27.5156H156.803V26.2812H149.069V25.0938H158.272ZM175.628 17.3281V31.3281H174.222V17.3281H175.628ZM172.769 17.6875V30.6406H171.363V25.875H168.972V24.6562H171.363V22.375H169.206C168.527 24.7266 167.034 26.7656 164.394 28.3438L163.519 27.2812C166.488 25.5156 167.917 23.1641 168.175 20.2812H164.206V19.0625H169.644C169.644 19.7812 169.589 20.4766 169.472 21.1562H171.363V17.6875H172.769ZM188.697 17.3281V25.6562H187.213V22.1094H184.603V20.8906H187.213V17.3281H188.697ZM184.009 26.0469C186.947 26.0469 188.744 27.0156 188.744 28.6875C188.744 30.3594 186.947 31.3125 184.009 31.3281C181.072 31.3125 179.259 30.3594 179.275 28.6875C179.259 27.0156 181.072 26.0469 184.009 26.0469ZM184.009 27.2031C181.963 27.2031 180.744 27.7344 180.744 28.6875C180.744 29.625 181.963 30.1719 184.009 30.1562C186.056 30.1719 187.275 29.625 187.275 28.6875C187.275 27.7344 186.056 27.2031 184.009 27.2031ZM182.041 19.7969C182.041 21.5781 183.306 23.2969 185.416 24.0156L184.65 25.1875C183.08 24.6406 181.923 23.5234 181.322 22.1406C180.705 23.7109 179.478 24.9688 177.806 25.5781L177.025 24.3906C179.197 23.6406 180.525 21.75 180.525 19.8125V19.5H177.494V18.2969H185.041V19.5H182.041V19.7969ZM196.828 18.1719C199.766 18.1719 202 19.7188 202 22.0781C202 24.4375 199.766 26 196.828 25.9844C193.891 26 191.672 24.4375 191.672 22.0781C191.672 19.7188 193.891 18.1719 196.828 18.1719ZM196.828 19.375C194.688 19.3594 193.078 20.4531 193.094 22.0781C193.078 23.7188 194.688 24.7656 196.828 24.7656C198.969 24.7656 200.562 23.7188 200.562 22.0781C200.562 20.4531 198.969 19.3594 196.828 19.375ZM203.266 28.2812V29.5156H190.453V28.2812H203.266ZM216.694 28.4062V29.6562H203.881V28.4062H209.522V25.9531H205.444V21.5H213.662V19.5312H205.412V18.3125H215.131V22.6875H206.912V24.7344H215.459V25.9531H210.991V28.4062H216.694ZM225.956 20.8906C225.941 23.4531 227.488 26.0156 229.659 26.9844L228.769 28.1562C227.159 27.3906 225.886 25.8203 225.238 23.9062C224.581 25.9531 223.292 27.6484 221.613 28.4688L220.706 27.2188C222.909 26.2344 224.456 23.5625 224.456 20.8906V18.5H225.956V20.8906ZM232.409 17.3281V31.3594H230.925V17.3281H232.409ZM239.134 19.8438C239.134 21.625 240.369 23.3281 242.509 24.0469L241.759 25.2031C240.173 24.6562 239.009 23.5625 238.4 22.1875C237.791 23.7031 236.58 24.8906 234.931 25.4688L234.134 24.3125C236.322 23.5625 237.634 21.7656 237.65 19.8281V19.4531H234.572V18.25H242.15V19.4531H239.134V19.8438ZM245.244 17.3281V20.9219H247.275V22.1719H245.244V25.7656H243.759V17.3281H245.244ZM245.244 26.4531V31.3281H243.759V27.6562H235.994V26.4531H245.244ZM258.578 17.3281V23H260.828V24.2344H258.578V31.3281H257.109V17.3281H258.578ZM255.891 19.5156V20.7344H247.594V19.5156H251.047V17.5156H252.531V19.5156H255.891ZM251.797 21.7656C253.797 21.7656 255.266 23.1094 255.281 25.0156C255.266 26.9375 253.797 28.2656 251.797 28.2812C249.781 28.2656 248.312 26.9375 248.312 25.0156C248.312 23.1094 249.781 21.7656 251.797 21.7656ZM251.797 22.9844C250.609 22.9844 249.719 23.8125 249.734 25.0156C249.719 26.2344 250.609 27.0469 251.797 27.0312C252.984 27.0469 253.859 26.2344 253.859 25.0156C253.859 23.8125 252.984 22.9844 251.797 22.9844ZM272.741 17.3281V31.3281H271.241V17.3281H272.741ZM268.569 18.8281C268.569 22.9219 266.819 26.4844 262.022 28.7812L261.241 27.5781C264.967 25.8047 266.78 23.2812 267.069 20.0156H261.913V18.8281H268.569Z" fill="#111111"/>
</svg>
